<svg width="606" height="152" xmlns="http://www.w3.org/2000/svg" xmlns:xlink="http://www.w3.org/1999/xlink" overflow="hidden"><defs><clipPath id="clip0"><rect x="1708" y="941" width="59" height="104"/></clipPath><clipPath id="clip1"><rect x="1708" y="941" width="59" height="104"/></clipPath><clipPath id="clip2"><rect x="1708" y="941" width="59" height="104"/></clipPath></defs><g transform="translate(-1643 -914)"><rect x="1643" y="914" width="605" height="152" fill="#FFFFFF" fill-opacity="0"/><path d="M2176.46 961.739 2178.34 961 2168.52 974.664 2175.12 974.664 2175.12 966.665 2177.89 966.665 2177.89 974.664 2181 974.664 2181 976.63 2177.89 976.63 2177.93 982.285 2175.12 984 2175.12 976.63 2167 976.63 2167 975.035 2176.46 961.739Z" fill="#FFFFFF" fill-rule="evenodd"/><path d="M2145.02 963.065C2144.36 963.027 2143.71 963.293 2143.13 963.826 2142.6 964.359 2142.11 965.31 2141.78 966.679 2141.41 968.049 2141.24 969.913 2141.24 972.348 2141.24 974.859 2141.41 976.799 2141.78 978.207 2142.11 979.576 2142.6 980.565 2143.13 981.098 2143.71 981.668 2144.36 981.935 2145.02 981.897 2145.68 981.935 2146.29 981.668 2146.87 981.098 2147.4 980.565 2147.85 979.576 2148.22 978.168 2148.55 976.799 2148.76 974.859 2148.76 972.348 2148.76 969.951 2148.55 968.049 2148.22 966.679 2147.85 965.348 2147.4 964.397 2146.87 963.826 2146.29 963.293 2145.68 963.027 2145.02 963.065ZM2145.02 962C2146.87 961.962 2148.51 962.761 2149.86 964.397 2151.22 965.995 2151.92 968.658 2152 972.348 2151.92 976.152 2151.22 978.891 2149.86 980.565 2148.51 982.239 2146.87 983.038 2145.02 983 2143.13 983.038 2141.53 982.239 2140.14 980.565 2138.78 978.891 2138.08 976.152 2138 972.348 2138.08 968.658 2138.78 965.995 2140.14 964.397 2141.53 962.761 2143.13 961.962 2145.02 962Z" fill="#FFFFFF" fill-rule="evenodd"/><path d="M2130.4 962C2132.41 962.036 2133.88 962.545 2134.84 963.548 2135.81 964.557 2136.27 965.875 2136.27 967.504 2136.27 968.352 2136.04 969.243 2135.61 970.098 2135.18 970.952 2134.45 971.918 2133.53 972.964 2132.56 974.01 2131.29 975.329 2129.74 976.84 2129.32 977.23 2128.88 977.759 2128.26 978.378 2127.64 979.041 2126.67 980.234 2125.93 980.934L2137 979.16 2137 983 2124.15 983 2124.15 980.988C2124.99 980.06 2125.81 979.125 2126.58 978.196 2127.35 977.304 2128.09 976.456 2128.78 975.676 2130.29 974.055 2131.37 972.581 2132.1 971.299 2132.79 970.061 2133.14 968.779 2133.14 967.504 2133.14 966.185 2132.79 965.102 2132.14 964.329 2131.52 963.548 2129.77 962.311 2128.45 963.328 2127.12 964.345 2127.39 965.132 2127.26 965.781 2127.1 966.517 2126.93 966.959 2126.62 967.232 2126.31 967.541 2125.96 967.696 2125.58 967.696 2125.23 967.696 2124.92 967.578 2124.69 967.423 2124.42 967.268 2123.89 966.786 2124.02 965.965 2124.25 964.417 2124.92 963.788 2126.12 962.977 2127.32 962.204 2128.74 962 2130.4 962Z" fill="#FFFFFF" fill-rule="evenodd"/><path d="M2159.4 962C2161.41 962.036 2162.88 962.545 2163.84 963.548 2164.81 964.557 2165.27 965.875 2165.27 967.504 2165.27 968.352 2165.04 969.243 2164.61 970.098 2164.18 970.952 2163.45 971.918 2162.53 972.964 2161.56 974.01 2160.29 975.329 2158.74 976.84 2158.32 977.23 2157.88 977.759 2157.26 978.378 2156.64 979.041 2155.67 980.234 2154.93 980.934L2166 979.16 2166 983 2153.15 983 2153.15 980.988C2153.99 980.06 2154.81 979.125 2155.58 978.196 2156.35 977.304 2157.09 976.456 2157.78 975.676 2159.29 974.055 2160.37 972.581 2161.1 971.299 2161.79 970.061 2162.14 968.779 2162.14 967.504 2162.14 966.185 2161.79 965.102 2161.14 964.329 2160.52 963.548 2158.77 962.311 2157.45 963.328 2156.12 964.345 2156.39 965.132 2156.26 965.781 2156.1 966.517 2155.93 966.959 2155.62 967.232 2155.31 967.541 2154.96 967.696 2154.58 967.696 2154.23 967.696 2153.92 967.578 2153.69 967.423 2153.42 967.268 2152.89 966.786 2153.02 965.965 2153.25 964.417 2153.92 963.788 2155.12 962.977 2156.32 962.204 2157.74 962 2159.4 962Z" fill="#FFFFFF" fill-rule="evenodd"/><path d="M2018.98 993C2019.84 993.013 2020.55 993.248 2021.12 993.706 2021.68 994.163 2021.98 994.766 2022 995.515 2021.98 996.25 2021.68 996.844 2021.12 997.298 2020.55 997.753 2019.84 997.987 2018.98 998 2018.15 997.987 2017.44 997.753 2016.88 997.298 2016.32 996.844 2016.02 996.25 2016 995.515 2016.02 994.766 2016.32 994.163 2016.88 993.706 2017.44 993.248 2018.15 993.013 2018.98 993Z" fill="#FFFFFF" fill-rule="evenodd"/><path d="M1926 995 1937.9 995 1937.88 996.351 1934.64 995.953C1934.61 997.652 1934.62 999.772 1934.62 1001.49 1934.61 1003.2 1934.61 1004.73 1934.61 1006.24L1934.61 1008.42C1934.61 1010.08 1934.61 1011.78 1934.62 1013.5 1934.63 1015.21 1934.64 1016.98 1934.68 1018.72L1944.93 1014.91 1945 1020 1926 1020C1926.01 1019.62 1926 1018.83 1926.01 1018.44L1928.96 1018.8C1929.01 1017.11 1929.03 1015.21 1929.05 1013.6 1929.06 1011.99 1929.06 1010.5 1929.06 1009.15L1929.06 1006.77C1929.06 1005.03 1929.06 1003.38 1929.05 1001.58 1929.03 999.771 1929.01 997.669 1928.96 995.946L1926 996.462 1926 995Z" fill="#FFFFFF" fill-rule="evenodd"/><path d="M2008.45 996.327C2008.43 998.082 2008.41 999.837 2008.39 1001.59L2012.2 1001.16C2012.19 1001.75 2012.18 1002.34 2012.18 1002.93L2008.39 1002.93 2008.39 1015.29C2008.4 1016.17 2008.58 1016.81 2008.94 1017.22 2009.3 1017.62 2009.79 1017.82 2010.4 1017.81 2010.77 1017.81 2011.12 1017.73 2011.43 1017.56 2011.74 1017.39 2012.09 1017.12 2012.48 1016.77L2013 1017.29C2012.55 1018.17 2011.93 1018.85 2011.14 1019.31 2010.35 1019.77 2009.38 1020 2008.2 1020 2006.64 1020.01 2005.46 1019.61 2004.65 1018.8 2003.83 1017.98 2003.43 1016.67 2003.44 1014.87 2003.44 1014.26 2003.45 1013.68 2003.46 1013.14 2003.47 1012.59 2003.47 1011.98 2003.47 1011.3L2003.47 1002.93 2001 1002.93 2001 1001.44 2003.58 1001.59C2003.64 999.728 2003.57 997.864 2003.63 996L2008.45 996.327Z" fill="#FFFFFF" fill-rule="evenodd"/><path d="M1954.48 1001C1956.27 1001.01 1957.88 1001.39 1959.3 1002.13 1960.73 1002.88 1961.87 1003.96 1962.71 1005.36 1963.55 1006.76 1963.98 1008.44 1964 1010.4 1963.96 1013.37 1963.09 1015.7 1961.38 1017.4 1959.67 1019.1 1957.37 1019.97 1954.48 1020 1951.58 1019.96 1949.28 1019.08 1947.59 1017.36 1945.9 1015.65 1945.04 1013.33 1945 1010.4 1945.02 1008.46 1945.45 1006.79 1946.29 1005.39 1947.13 1003.98 1948.26 1002.91 1949.69 1002.15 1951.11 1001.39 1952.71 1001.01 1954.48 1001ZM1954.48 1002.14C1953.27 1002.13 1952.34 1002.8 1951.7 1004.15 1951.06 1005.51 1950.73 1007.61 1950.73 1010.47 1950.73 1013.31 1951.06 1015.42 1951.7 1016.8 1952.34 1018.18 1953.27 1018.86 1954.48 1018.86 1955.69 1018.86 1956.62 1018.18 1957.25 1016.8 1957.88 1015.42 1958.2 1013.31 1958.21 1010.47 1958.2 1007.61 1957.88 1005.51 1957.25 1004.15 1956.62 1002.8 1955.69 1002.13 1954.48 1002.14Z" fill="#FFFFFF" fill-rule="evenodd"/><path d="M1975.12 1001C1977.03 1001.03 1978.59 1001.53 1979.81 1002.5 1981.03 1003.46 1982.03 1005.44 1982 1006.21 1981.97 1006.98 1981.57 1007.23 1981.2 1007.52 1980.83 1007.8 1980.36 1007.95 1979.79 1007.94 1979.08 1007.96 1978.47 1007.73 1977.97 1007.25 1977.46 1006.77 1977.17 1005.93 1977.09 1004.73 1976.98 1003.89 1977.26 1002.88 1976.83 1002.45 1976.4 1002.02 1975.7 1001.87 1974.5 1002.14 1973.57 1002.46 1972.77 1002.88 1972.13 1004.2 1971.49 1005.51 1970.7 1007.49 1970.67 1010.01 1970.7 1012.46 1971.26 1014.35 1972.34 1015.67 1973.42 1017 1974.87 1017.66 1976.69 1017.68 1977.65 1017.67 1978.51 1017.47 1979.25 1017.07 1980 1016.67 1980.67 1016.09 1981.26 1015.35L1981.93 1015.78C1981.17 1017.14 1980.16 1018.19 1978.91 1018.91 1977.66 1019.63 1976.13 1019.99 1974.32 1020 1972.6 1020 1971.05 1019.63 1969.64 1018.9 1968.24 1018.17 1967.12 1017.1 1966.29 1015.7 1965.45 1014.29 1965.02 1012.57 1965 1010.53 1965.02 1008.5 1965.48 1006.77 1966.38 1005.35 1967.28 1003.93 1968.49 1002.86 1970.02 1002.12 1971.54 1001.38 1973.24 1001 1975.12 1001Z" fill="#FFFFFF" fill-rule="evenodd"/><path d="M1991.62 1001C1993.88 1000.98 1995.52 1001.51 1996.52 1002.59 1997.53 1003.67 1998.03 1005.39 1998.01 1007.75L1998.01 1016.56C1998.01 1017.18 1998.1 1017.61 1998.28 1017.87 1998.46 1018.12 1998.7 1018.24 1999.01 1018.23 1999.24 1018.24 1999.46 1018.16 1999.68 1017.98 1999.9 1017.8 2000.16 1017.47 2000.45 1016.99L2001 1017.45C2000.61 1018.34 2000.08 1018.99 1999.43 1019.4 1998.77 1019.81 1997.94 1020.01 1996.92 1020 1995.86 1019.99 1995.03 1019.74 1994.41 1019.24 1993.79 1018.74 1993.36 1018.05 1993.13 1017.15 1992.34 1018.07 1991.56 1018.78 1990.76 1019.26 1989.96 1019.75 1988.94 1020 1987.69 1020 1986.29 1019.99 1985.16 1019.59 1984.31 1018.81 1983.46 1018.02 1983.02 1016.94 1983 1015.55 1982.96 1014.08 1983.46 1012.88 1984.48 1011.94 1985.51 1011 1987.3 1010.16 1989.85 1009.42 1990.3 1009.29 1990.8 1009.15 1991.34 1009L1993 1008.57 1993 1006.57C1993.02 1004.89 1992.84 1003.85 1992.31 1003.08 1991.78 1002.3 1990.92 1001.93 1989.82 1001.93 1989.18 1002.01 1988.7 1002.04 1988.43 1002.48 1988.16 1002.93 1988.28 1003.83 1988.21 1004.6 1988.14 1005.71 1987.88 1006.5 1987.42 1006.99 1986.97 1007.48 1986.42 1007.72 1985.8 1007.71 1985.21 1007.71 1984.73 1007.57 1984.35 1007.28 1983.97 1007 1983.6 1006.81 1983.58 1006.04 1983.56 1005.28 1984.46 1003.26 1985.83 1002.37 1987.19 1001.47 1989.12 1001.02 1991.62 1001ZM1993 1009.45C1992.63 1009.55 1992.29 1009.65 1991.98 1009.74 1991.68 1009.84 1991.43 1009.93 1991.23 1010.01 1990.1 1010.48 1989.25 1011.11 1988.66 1011.91 1988.08 1012.71 1987.79 1013.7 1987.79 1014.89 1987.79 1015.87 1988.01 1016.6 1988.43 1017.07 1988.85 1017.54 1989.44 1017.78 1990.2 1017.78 1990.62 1017.78 1991.05 1017.66 1991.48 1017.43 1991.91 1017.19 1992.42 1016.8 1993 1016.27L1993 1009.45Z" fill="#FFFFFF" fill-rule="evenodd"/><path d="M2034.48 1001C2036.27 1001.01 2037.88 1001.39 2039.3 1002.13 2040.73 1002.88 2041.87 1003.96 2042.71 1005.36 2043.55 1006.76 2043.98 1008.44 2044 1010.4 2043.96 1013.37 2043.09 1015.7 2041.38 1017.4 2039.67 1019.1 2037.37 1019.97 2034.48 1020 2031.58 1019.96 2029.28 1019.08 2027.59 1017.36 2025.9 1015.65 2025.04 1013.33 2025 1010.4 2025.02 1008.46 2025.45 1006.79 2026.29 1005.39 2027.13 1003.98 2028.26 1002.91 2029.69 1002.15 2031.11 1001.39 2032.71 1001.01 2034.48 1001ZM2034.48 1002.14C2033.27 1002.13 2032.34 1002.8 2031.7 1004.15 2031.06 1005.51 2030.73 1007.61 2030.73 1010.47 2030.73 1013.31 2031.06 1015.42 2031.7 1016.8 2032.34 1018.18 2033.27 1018.86 2034.48 1018.86 2035.69 1018.86 2036.62 1018.18 2037.25 1016.8 2037.88 1015.42 2038.2 1013.31 2038.21 1010.47 2038.2 1007.61 2037.88 1005.51 2037.25 1004.15 2036.62 1002.8 2035.69 1002.13 2034.48 1002.14Z" fill="#FFFFFF" fill-rule="evenodd"/><path d="M2058.42 1001.09C2060.06 1001.08 2061.37 1001.61 2062.35 1002.68 2063.33 1003.74 2063.83 1005.37 2063.86 1007.57L2063.86 1012C2063.86 1013.03 2063.87 1014.16 2063.88 1015.41 2063.9 1016.65 2063.93 1017.77 2063.96 1018.78L2066 1018.32 2066 1020 2056.14 1020 2056.14 1018.53 2058.28 1018.76C2058.3 1017.75 2058.32 1016.63 2058.33 1015.39 2058.34 1014.15 2058.35 1013.02 2058.35 1012L2058.35 1007.17C2058.35 1005.87 2058.16 1004.95 2057.78 1004.4 2057.39 1003.86 2056.8 1003.59 2056 1003.61 2055.49 1003.61 2054.9 1003.77 2054.23 1004.08 2053.56 1004.4 2052.86 1004.88 2052.12 1005.52L2052.12 1012C2052.12 1012.98 2052.13 1014.1 2052.15 1015.35 2052.16 1016.61 2052.17 1017.75 2052.19 1018.78L2054.13 1018.42 2054.13 1020 2044.31 1020 2044.33 1018.51 2046.58 1018.87C2046.6 1017.84 2046.62 1016.49 2046.63 1015.35 2046.64 1014.21 2046.65 1012.99 2046.65 1012.01L2046.65 1009.22C2046.65 1008.16 2046.64 1007.27 2046.63 1006.55 2046.61 1005.83 2046.58 1005.09 2046.55 1004.31L2044 1005.01 2044 1003.24 2051.94 1001C2051.94 1001.37 2051.94 1001.74 2051.94 1002.11 2051.98 1003.09 2052.02 1003.43 2052.06 1004.41 2053.16 1003.16 2054.22 1002.28 2055.24 1001.79 2056.25 1001.3 2057.31 1001.07 2058.42 1001.09Z" fill="#FFFFFF" fill-rule="evenodd"/><path d="M2022.09 1001C2022.07 1001.33 2022.06 1001.66 2022.05 1001.99L2021.91 1006.91 2021.91 1012.05C2021.91 1013.03 2021.92 1014.14 2021.93 1015.38 2021.95 1016.63 2021.96 1017.76 2021.98 1018.77L2023.98 1018.33 2024 1020 2014.33 1020 2014.33 1018.52C2015.06 1018.45 2015.79 1018.83 2016.52 1018.77 2016.53 1017.74 2016.55 1016.61 2016.56 1015.37 2016.58 1014.13 2016.58 1013.03 2016.58 1012.05L2016.58 1009.38C2016.58 1008.34 2016.58 1007.44 2016.56 1006.68 2016.54 1005.91 2016.52 1005.35 2016.48 1004.52L2014 1005.26 2014 1003.23 2022.09 1001Z" fill="#FFFFFF" fill-rule="evenodd"/><path d="M2168.22 993 2168.19 993.44 2168.1 998.518 2168.1 1018.74 2171 1017.42 2170.98 1019.54 2165.2 1019.96 2165.28 1017.46C2164.66 1018.27 2163.94 1018.89 2163.13 1019.33 2162.31 1019.77 2161.37 1019.99 2160.29 1020 2158.08 1019.96 2156.33 1019.15 2155.02 1017.58 2153.7 1016 2153.03 1013.89 2153 1011.24 2153.04 1008.44 2153.76 1006.24 2155.15 1004.63 2156.54 1003.02 2158.35 1002.2 2160.58 1002.16 2161.41 1002.15 2162.2 1002.32 2162.98 1002.66 2163.75 1003 2164.51 1003.61 2165.25 1004.47 2165.25 1001.41 2165.24 998.354 2165.24 995.295L2162.26 996.154C2162.26 995.661 2162.26 995.169 2162.27 994.677L2168.22 993ZM2161.16 1003.95C2159.76 1003.93 2158.58 1004.49 2157.61 1005.63 2156.65 1006.77 2156.15 1008.61 2156.11 1011.15 2156.14 1013.61 2156.61 1015.4 2157.54 1016.52 2158.46 1017.64 2159.66 1018.2 2161.13 1018.18 2161.9 1018.19 2162.6 1018.05 2163.23 1017.75 2163.87 1017.44 2164.52 1016.92 2165.18 1016.16L2165.18 1005.84C2164.4 1005.13 2163.68 1004.64 2163.03 1004.36 2162.38 1004.08 2161.76 1003.94 2161.16 1003.95Z" fill="#FFFFFF" fill-rule="evenodd"/><path d="M2083.48 996 2085.55 996 2093.21 1018.62 2095.94 1018.14C2095.96 1018.76 2095.98 1019.38 2096 1020L2086.33 1020 2086.33 1017.98 2089.97 1018.67 2086.95 1009.64 2079.52 1012.1 2077.22 1018.94 2080.96 1018.05C2080.99 1018.78 2080.92 1019.27 2080.95 1020L2073.03 1020C2073.02 1019.3 2073.01 1019.16 2073 1018.45L2075.68 1019.01 2083.48 996ZM2083.61 999.643 2079.97 1010.7 2086.52 1008.51 2083.61 999.643Z" fill="#FFFFFF" fill-rule="evenodd"/><path d="M2128.25 1002C2130.08 1001.98 2131.45 1002.45 2132.34 1003.41 2133.24 1004.37 2133.68 1005.96 2133.68 1008.17L2133.68 1016C2133.68 1016.84 2133.79 1017.44 2134.02 1017.79 2134.24 1018.14 2134.55 1018.31 2134.96 1018.3 2135.24 1018.29 2135.49 1018.22 2135.71 1018.06 2135.92 1017.91 2136.14 1017.69 2136.36 1017.41L2137 1018.1C2136.6 1018.76 2136.15 1019.24 2135.65 1019.52 2135.16 1019.8 2134.6 1019.94 2134 1019.93 2133.13 1019.93 2132.43 1019.67 2131.9 1019.18 2131.36 1018.68 2131.02 1017.99 2130.87 1017.11 2129.95 1018.08 2129.1 1018.8 2128.32 1019.28 2127.55 1019.76 2126.65 1020 2125.63 1020 2124.32 1020 2123.23 1019.63 2122.36 1018.88 2121.49 1018.14 2121.04 1017.05 2121 1015.6 2120.96 1014.52 2121.35 1013.54 2122.18 1012.68 2123.01 1011.81 2124.54 1010.97 2126.78 1010.15 2127.35 1009.93 2127.99 1009.72 2128.69 1009.52 2129.39 1009.31 2130.1 1009.13 2130.81 1008.96L2130.81 1007.85C2130.82 1006.11 2130.57 1005.07 2130.02 1004.28 2129.47 1003.49 2128.71 1003.24 2127.5 1003.12 2126.74 1003.1 2126.08 1003.17 2125.63 1003.67 2125.18 1004.18 2125.02 1005.32 2124.8 1006.14 2124.52 1007.25 2123.93 1007.81 2123.04 1007.81 2122.57 1007.81 2122.15 1007.59 2121.94 1007.46 2121.73 1007.32 2121.45 1007.2 2121.48 1006.43 2121.51 1005.66 2122.56 1003.96 2123.74 1003.18 2124.92 1002.41 2126.43 1002.01 2128.25 1002ZM2130.81 1010.08C2130.18 1010.27 2129.58 1010.45 2129.01 1010.65 2128.45 1010.84 2127.97 1011.01 2127.58 1011.16 2126.09 1011.78 2125.1 1012.42 2124.62 1013.1 2124.15 1013.78 2123.93 1014.44 2123.97 1015.11 2123.99 1016.07 2124.26 1016.78 2124.78 1017.23 2125.3 1017.68 2125.98 1017.91 2126.81 1017.9 2127.4 1017.91 2127.98 1017.76 2128.55 1017.44 2129.11 1017.12 2129.87 1016.58 2130.81 1015.8L2130.81 1010.08Z" fill="#FFFFFF" fill-rule="evenodd"/><path d="M2149.34 1002.3C2149.92 1002.3 2150.68 1002.49 2150.92 1002.58 2151.16 1002.68 2151.87 1003.16 2151.98 1003.66 2152.08 1004.16 2151.82 1005.04 2151.49 1005.47 2151.16 1005.91 2150.63 1006.13 2149.91 1006.14 2149.47 1006.14 2149.08 1006.05 2148.71 1005.87 2148.34 1005.69 2147.99 1005.43 2147.64 1005.12L2147.2 1004.72C2146.46 1005.26 2145.84 1005.92 2145.33 1006.7 2144.81 1007.48 2144.38 1008.42 2144.04 1009.52L2144.04 1012.38C2144.04 1013.26 2144.04 1014.26 2144.06 1015.35 2144.07 1016.45 2144.08 1017.98 2144.1 1018.94L2147.14 1018.48 2147.14 1020 2138.28 1020 2138.28 1018.39 2140.94 1018.97C2140.95 1018.02 2140.98 1016.48 2140.99 1015.37 2141 1014.28 2141.01 1013.26 2141.01 1012.38L2141.01 1010.48C2141.01 1009.48 2141 1008.61 2140.99 1007.87 2140.97 1007.14 2140.94 1006.12 2140.9 1005.41L2138.06 1006.51 2138 1004.32 2144.01 1002C2144.02 1002.19 2143.96 1002.64 2143.97 1002.83 2143.98 1004.24 2143.99 1005.63 2144 1007.04 2144.62 1005.53 2145.41 1004.37 2146.36 1003.55 2147.31 1002.73 2148.3 1002.31 2149.34 1002.3Z" fill="#FFFFFF" fill-rule="evenodd"/><path d="M2179.21 1002C2180.13 1002 2180.98 1002.13 2181.76 1002.38 2182.54 1002.63 2183.3 1003 2184.05 1003.47 2184.01 1004.69 2183.97 1005.91 2183.92 1007.12L2181.71 1004.07C2181.3 1003.85 2180.88 1003.69 2180.47 1003.58 2180.05 1003.47 2179.63 1003.41 2179.21 1003.41 2178.09 1003.42 2177.25 1003.66 2176.68 1004.13 2176.11 1004.6 2175.82 1005.24 2175.81 1006.04 2175.8 1006.82 2176.05 1007.44 2176.55 1007.9 2177.05 1008.36 2177.89 1008.8 2179.05 1009.23L2180.25 1009.69C2181.95 1010.31 2183.16 1011.04 2183.91 1011.9 2184.65 1012.75 2185.02 1013.75 2185 1014.88 2185 1016.3 2184.43 1017.5 2183.29 1018.47 2182.16 1019.45 2180.49 1019.96 2178.29 1020 2177.3 1020 2176.4 1019.89 2175.57 1019.66 2174.74 1019.43 2173.9 1019.1 2173.06 1018.66 2173.04 1017.34 2173.02 1016.03 2173 1014.71L2175.4 1018.03C2175.81 1018.23 2176.25 1018.38 2176.72 1018.48 2177.19 1018.57 2177.7 1018.62 2178.26 1018.62 2179.61 1018.61 2180.62 1018.34 2181.27 1017.82 2181.93 1017.3 2182.25 1016.6 2182.25 1015.73 2182.26 1014.96 2182 1014.33 2181.49 1013.83 2180.97 1013.33 2180.15 1012.87 2179.02 1012.45L2177.4 1011.89C2176.1 1011.41 2175.07 1010.78 2174.32 1010.01 2173.56 1009.24 2173.17 1008.24 2173.16 1007.02 2173.17 1005.65 2173.69 1004.48 2174.72 1003.51 2175.75 1002.55 2177.25 1002.04 2179.21 1002Z" fill="#FFFFFF" fill-rule="evenodd"/><path d="M2093 1003 2101.07 1003 2101.07 1004.38 2098.05 1003.92 2102.14 1016.09 2106.49 1003.95 2103.54 1004.38 2103.54 1003 2111.28 1003 2111.28 1004.46 2108.23 1003.9 2112.85 1015.96 2116.51 1003.88 2113.5 1004.46 2113.5 1003 2120 1003 2120 1004.31 2118.16 1003.95 2112.78 1020 2111.51 1020C2110.59 1017.61 2109.83 1015.61 2109.23 1014 2108.63 1012.39 2108.14 1011.04 2107.76 1009.95 2107.38 1008.86 2107.06 1007.9 2106.79 1007.07L2102.04 1020 2100.78 1020 2094.87 1003.95 2093 1004.46 2093 1003Z" fill="#FFFFFF" fill-rule="evenodd"/><g clip-path="url(#clip0)"><g clip-path="url(#clip1)"><g clip-path="url(#clip2)"><path d="M180.282 160.866 172.179 164.817 168.182 161.98 160.656 165.679 160.569 170.363 159.034 170.996 155.182 168.265 147.043 171.785 147.052 176.584 140.777 179.4 141.894 187.014 147.908 191.971 151.833 189.852 152.553 196.461 159.359 202.783 169.191 196.856 173.871 200.519 182.226 195.708 182.55 189.241 183.019 188.811 187.735 192.115 195.371 187.841 196.198 181.052 198.431 179.724 199.619 172.576 192.057 168.122 186.404 170.886 186.979 164.781 180.282 160.866Z" fill="#FFFFFF" fill-rule="evenodd" transform="matrix(1 0 0 1.00534 1567.38 840.976)"/><path d="M170.831 129.863C173.43 129.863 175.599 130.752 176.1 131.934L176.193 132.385 176.209 132.385 176.208 132.448 176.209 132.457 176.206 132.468 174.953 176.117 174.963 176.189 174.947 176.296 174.944 176.429 174.929 176.429 174.877 176.799C174.49 178.177 172.81 179.214 170.795 179.214 168.781 179.214 167.101 178.177 166.714 176.799L166.654 176.367 166.641 176.367 166.638 176.255 166.628 176.189 166.635 176.144 165.455 132.463 165.453 132.457 165.455 132.452 165.453 132.413 165.463 132.413 165.562 131.934C166.064 130.752 168.232 129.863 170.831 129.863Z" stroke="#FFFFFF" stroke-width="1.26542" stroke-miterlimit="8" fill-rule="evenodd" transform="matrix(1 0 0 1.00534 1567.38 840.976)"/><path d="M150.743 119.661C150.743 108.61 159.737 99.6515 170.831 99.6515 181.926 99.6515 190.92 108.61 190.92 119.661 190.92 130.712 181.926 139.67 170.831 139.67 159.737 139.67 150.743 130.712 150.743 119.661Z" fill="#FFFFFF" fill-rule="evenodd" transform="matrix(1 0 0 1.00534 1567.38 840.976)"/></g></g></g></g></svg>