<svg width="606" height="152" xmlns="http://www.w3.org/2000/svg" xmlns:xlink="http://www.w3.org/1999/xlink" overflow="hidden"><g transform="translate(-1643 -1087)"><rect x="1643" y="1087" width="605" height="152" fill="#FFFFFF" fill-opacity="0"/><path d="M1850.53 1178.49 1850.53 1188.52 1857.05 1188.52 1857.05 1178.49ZM1854.5 1171.01C1853.52 1171.84 1852.49 1172.61 1851.43 1173.32 1850.37 1174.03 1849.27 1174.7 1848.14 1175.32L1851.11 1176.85 1856.68 1176.85 1858.06 1174.79C1857.41 1174.23 1856.79 1173.64 1856.2 1173.01 1855.61 1172.39 1855.04 1171.72 1854.5 1171.01ZM1828.78 1160.61C1831.76 1160.71 1834.28 1161.83 1835.71 1162.89 1837.13 1163.95 1837.43 1165.49 1837.31 1166.94 1837.19 1168.39 1836.66 1169.47 1835.72 1170.16 1834.78 1170.85 1833.41 1171.07 1832.38 1169.66 1831.35 1168.24 1831.69 1166.56 1831.08 1165.06 1830.47 1163.55 1829.83 1162.26 1829.16 1161.17 1828.99 1160.87 1828.68 1160.71 1828.78 1160.61ZM1842.58 1157.45 1843.13 1157.68 1841.31 1164.15C1840.63 1166.6 1840 1168.89 1839.42 1171.01 1838.85 1173.14 1838.46 1174.65 1838.27 1175.55 1838.08 1176.37 1837.91 1177.24 1837.76 1178.14 1837.62 1179.04 1837.55 1179.83 1837.56 1180.5 1837.62 1181.42 1837.8 1182.25 1838.13 1183.01 1838.45 1183.77 1838.76 1184.62 1839.06 1185.56 1839.36 1186.5 1839.5 1187.7 1839.49 1189.17 1839.43 1190.58 1839.02 1191.7 1838.25 1192.54 1837.49 1193.38 1836.45 1193.81 1835.14 1193.83 1834.58 1193.84 1834.05 1193.63 1833.54 1193.19 1833.04 1192.76 1832.93 1192.46 1832.42 1191.06 1831.91 1189.65 1832.92 1186.08 1832.86 1184.11 1832.8 1182.13 1832.52 1180.89 1832.04 1180.39 1831.76 1180.15 1831.44 1179.96 1831.11 1179.81 1830.77 1179.66 1830.39 1179.56 1829.95 1179.5L1829.95 1178.5 1831.96 1178.5C1832.34 1178.52 1832.62 1178.48 1832.81 1178.37 1833 1178.26 1833.24 1177.95 1833.51 1177.44 1833.77 1176.97 1834.03 1176.48 1834.28 1175.96 1834.54 1175.45 1834.95 1174.59 1835.49 1173.39 1836.03 1172.19 1836.86 1170.35 1837.97 1167.85ZM1851.32 1157.45C1851.13 1157.77 1850.94 1158.1 1850.74 1158.42 1850.54 1158.75 1850.34 1159.07 1850.15 1159.39 1851.16 1161.28 1852.4 1162.93 1853.87 1164.35 1854.61 1163.26 1855.29 1162.14 1855.93 1160.99 1856.56 1159.84 1857.13 1158.66 1857.64 1157.45ZM1831.98 1151.06C1834.96 1150.98 1837.53 1152.01 1839.02 1152.98 1840.51 1153.95 1840.92 1155.43 1840.91 1156.88 1840.9 1158.32 1840.45 1159.43 1839.57 1160.22 1838.69 1161 1837.34 1161.25 1836.27 1160.16 1835.19 1159.07 1835.22 1157.1 1834.47 1155.59 1833.73 1154.07 1833.83 1154.13 1833.15 1153.04 1832.48 1151.88 1831.88 1151.16 1831.98 1151.06ZM1894.69 1148.02C1894.35 1148.61 1894.01 1149.19 1893.66 1149.78 1893.31 1150.36 1892.96 1150.94 1892.6 1151.5 1895.06 1151.73 1896.72 1152.42 1897.57 1153.58 1898.43 1154.74 1898.71 1155.94 1898.43 1157.19 1898.36 1157.5 1898.27 1157.79 1898.16 1158.05L1897.9 1158.53 1898.7 1157.35C1900.36 1154.61 1901.68 1151.5 1902.68 1148.02ZM1794.61 1143.36 1802.23 1146.31 1800.55 1147.61C1800.22 1148.54 1799.77 1150.54 1799.34 1151.9 1798.91 1153.25 1798.46 1154.53 1798 1155.74 1800.29 1156.79 1801.81 1158.1 1802.58 1159.68 1803.35 1161.26 1803.58 1162.73 1803.27 1164.11 1802.96 1165.49 1802.34 1166.41 1801.39 1166.87 1800.44 1167.32 1798.89 1166.95 1798.25 1165.76 1797.61 1164.58 1797.99 1163.38 1797.72 1162.18 1797.45 1160.98 1797.13 1159.82 1796.75 1158.69 1795.56 1161.28 1794.15 1163.59 1792.76 1165.54 1791.38 1167.49 1790.1 1168.77 1788.43 1170.39 1788.11 1170.77 1787.15 1171.66 1787 1171.5 1788.66 1168.2 1790.64 1162.97 1791.91 1158.28 1793.18 1153.59 1794.08 1148.64 1794.61 1143.36ZM1872.14 1141.78C1875.09 1142.52 1877.79 1144.32 1879.19 1145.74 1880.6 1147.17 1880.76 1148.83 1880.57 1150.34 1880.37 1151.85 1879.66 1153.11 1878.82 1153.47 1877.97 1153.82 1876.58 1154.01 1875.52 1152.46 1874.46 1150.91 1875.28 1148.86 1874.75 1147.12 1874.22 1145.37 1874.2 1145.32 1873.55 1143.99 1873.01 1143.01 1872.03 1141.88 1872.14 1141.78ZM1839.65 1138.03 1846.97 1138.92 1845.55 1140.47 1845.55 1145.13 1852.16 1145.13 1852.16 1138.03 1859.64 1138.86 1858.18 1140.47 1858.18 1145.13 1861.19 1145.13 1863.95 1139.93C1863.98 1139.96 1864.27 1140.29 1864.82 1140.93 1865.37 1141.56 1866.03 1142.33 1866.78 1143.23 1867.53 1144.14 1868.22 1145 1868.85 1145.84 1868.78 1146.16 1868.64 1146.4 1868.43 1146.55 1868.22 1146.7 1867.97 1146.78 1867.67 1146.78L1858.18 1146.78 1858.18 1150.43C1858.15 1150.78 1857.67 1151.14 1856.76 1151.51 1855.85 1151.88 1854.7 1152.09 1853.33 1152.15L1854.92 1152.68 1853.29 1153.5C1852.95 1154.27 1852.58 1155.04 1852.2 1155.8L1857.72 1155.8 1860.94 1151.67 1865.88 1157.98C1865.74 1158.29 1865.53 1158.52 1865.26 1158.65 1864.99 1158.78 1864.59 1158.87 1864.08 1158.92 1863.26 1160.52 1862.35 1162.03 1861.35 1163.47 1860.35 1164.91 1859.27 1166.26 1858.1 1167.53 1859.89 1168.59 1861.76 1169.44 1863.71 1170.1 1865.66 1170.75 1867.62 1171.25 1869.6 1171.6L1869.56 1172.25C1868.45 1172.67 1867.53 1173.5 1866.81 1174.74 1866.08 1175.98 1865.56 1177.54 1865.25 1179.44 1865.04 1179.33 1864.82 1179.22 1864.6 1179.12 1864.38 1179.02 1864.16 1178.91 1863.95 1178.79 1863.85 1178.94 1863.7 1179.07 1863.52 1179.19 1863.34 1179.3 1863.14 1179.38 1862.91 1179.44L1862.91 1191.64C1862.87 1191.81 1862.58 1192.04 1862.05 1192.33 1861.52 1192.61 1860.89 1192.87 1860.15 1193.1 1859.42 1193.33 1858.74 1193.46 1858.1 1193.47L1857.05 1193.47 1857.05 1190.17 1850.53 1190.17 1850.53 1191.64C1850.52 1192 1850.11 1192.46 1849.3 1193.04 1848.5 1193.62 1847.36 1193.94 1845.89 1194L1844.84 1194 1844.84 1176.91C1842.99 1177.72 1841.08 1178.39 1839.11 1178.91L1838.86 1178.2C1841.32 1176.81 1843.66 1175.16 1845.88 1173.26 1848.1 1171.35 1850.14 1169.25 1851.99 1166.94 1851.49 1165.97 1851.03 1164.95 1850.61 1163.87 1850.18 1162.8 1849.8 1161.66 1849.44 1160.45 1848.25 1162.2 1846.96 1163.81 1845.57 1165.26 1844.19 1166.71 1842.73 1167.96 1841.2 1169L1840.87 1168.59C1842.38 1166.35 1843.75 1163.55 1844.97 1160.22 1846.19 1156.88 1847.09 1153.56 1847.68 1150.26L1852.16 1151.73 1852.16 1146.78 1845.55 1146.78 1845.55 1150.73C1845.51 1151.08 1845.03 1151.45 1844.09 1151.83 1843.15 1152.2 1841.99 1152.41 1840.62 1152.44L1839.65 1152.44 1839.65 1146.78 1829.58 1146.78 1829.28 1145.13 1839.65 1145.13ZM1892.22 1138 1899.92 1139.41 1898.37 1140.53C1897.89 1141.19 1897.54 1142.43 1897.06 1143.41 1896.59 1144.38 1896.09 1145.37 1895.57 1146.37L1902.76 1146.37 1905.48 1142.36 1910.96 1148.37 1909.08 1149.55C1908.02 1151.22 1906.47 1155.81 1904.61 1158.35 1902.76 1160.9 1900.62 1163.09 1897.97 1164.82 1895.31 1166.55 1892.06 1167.84 1888.21 1168.69L1895.4 1170.01 1893.77 1171.6C1893.64 1172.18 1893.64 1172.55 1893.57 1173.02 1893.5 1173.49 1893.41 1173.96 1893.31 1174.43L1902.01 1174.43 1905.15 1168.75C1905.18 1168.78 1905.51 1169.14 1906.16 1169.83 1906.8 1170.52 1907.56 1171.35 1908.44 1172.33 1909.32 1173.31 1910.13 1174.24 1910.87 1175.14 1910.81 1175.46 1910.67 1175.7 1910.46 1175.85 1910.24 1176 1909.98 1176.08 1909.66 1176.08L1893.94 1176.08C1895.26 1177.93 1896.87 1179.41 1898.76 1180.5 1900.65 1181.59 1902.66 1182.37 1904.78 1182.85 1906.91 1183.32 1908.98 1183.56 1911 1183.57L1910.96 1184.51C1909.53 1185.72 1908.41 1187.1 1907.61 1188.66 1906.81 1190.21 1906.36 1191.94 1906.27 1193.82 1903.3 1192.33 1900.69 1190.1 1898.44 1187.14 1896.19 1184.18 1894.34 1180.61 1892.89 1176.43 1892.19 1179.25 1891.01 1181.81 1889.35 1184.1 1887.7 1186.4 1885.39 1188.39 1882.41 1190.06 1879.43 1191.74 1875.59 1193.05 1870.89 1194L1870.69 1193.41C1873.97 1191.99 1876.65 1190.37 1878.74 1188.55 1880.83 1186.74 1882.45 1184.78 1883.61 1182.67 1884.76 1180.57 1885.57 1178.37 1886.03 1176.08L1871.94 1176.08 1871.61 1174.43 1886.33 1174.43C1886.47 1173.55 1886.58 1172.66 1886.65 1171.78 1886.72 1170.89 1886.77 1170.01 1886.79 1169.12 1886.49 1169.48 1885.89 1169.87 1884.96 1170.28 1884.04 1170.69 1883.04 1170.92 1881.98 1170.95L1880.93 1170.95 1880.93 1159.4C1880.1 1160.52 1879.18 1161.72 1878.16 1162.94 1877.14 1164.15 1876.04 1165.39 1874.83 1166.68 1873.95 1167.6 1874.29 1167.2 1873.74 1168.57L1871.52 1159.57C1872.56 1159.27 1873.91 1158.77 1875.58 1158.09 1877.25 1157.4 1879.04 1156.58 1880.93 1155.62L1880.93 1138.06 1888.42 1139 1886.87 1140.65 1886.87 1168.45 1887.62 1168.63 1887.46 1168.04C1891.27 1165.96 1894.43 1163.27 1896.93 1159.96L1897.64 1158.91 1897.24 1159.35C1897.05 1159.52 1896.83 1159.67 1896.6 1159.79 1895.65 1160.28 1894 1159.91 1893.48 1158.87 1892.95 1157.82 1893.35 1156.59 1893.06 1155.46 1892.78 1154.33 1892.4 1153.35 1891.93 1152.5 1891.26 1153.51 1890.57 1154.45 1889.87 1155.34 1889.16 1156.23 1888.44 1157.03 1887.71 1157.75L1887.33 1157.39C1887.99 1155.76 1888.64 1153.84 1889.28 1151.62 1889.91 1149.4 1890.49 1147.1 1891 1144.72 1891.52 1142.34 1891.92 1140.1 1892.22 1138ZM1803.9 1138 1811.64 1139.06C1810.86 1139.96 1810.86 1139.93 1810.09 1140.81 1809.92 1145.15 1810.04 1159.59 1810.08 1167.48L1810.08 1168.02 1810.2 1167.64 1810.91 1165.43C1811.69 1162.77 1812.36 1159.85 1812.92 1156.68 1813.66 1152.44 1814.11 1148 1814.27 1143.36L1822.13 1145.74 1820.54 1147.08C1819.96 1150.09 1819.28 1152.84 1818.49 1155.33 1821.39 1156.26 1823.42 1157.58 1824.57 1159.3 1825.72 1161.02 1826.22 1162.71 1826.08 1164.35 1825.95 1165.99 1825.4 1167.16 1824.43 1167.85 1823.47 1168.54 1822 1168.3 1821 1167.18 1820 1166.06 1820.28 1163.84 1819.68 1162.17 1819.09 1160.5 1818.43 1158.94 1817.7 1157.51 1816.76 1160.1 1815.55 1162.52 1814.41 1164.36 1813.27 1166.19 1812.42 1167.1 1810.87 1168.54L1810.09 1169.22 1810.09 1169.36 1810.09 1169.36 1810.09 1169.42 1810.09 1169.85C1810.09 1170.31 1810.09 1170.73 1810.09 1171.09 1810.09 1172.62 1810.09 1174.16 1810.09 1175.7L1814.9 1175.7 1818.2 1169.4C1818.23 1169.44 1818.59 1169.83 1819.26 1170.59 1819.93 1171.35 1820.73 1172.27 1821.66 1173.34 1822.58 1174.42 1823.44 1175.45 1824.22 1176.44 1824.16 1176.78 1824.01 1177.04 1823.78 1177.2 1823.56 1177.36 1823.29 1177.44 1822.97 1177.44L1810.09 1177.44 1810.09 1192.08 1817.41 1192.08 1820.88 1185.48C1820.91 1185.51 1821.28 1185.93 1821.97 1186.72 1822.67 1187.51 1823.5 1188.47 1824.45 1189.59 1825.41 1190.72 1826.29 1191.8 1827.11 1192.83 1827.04 1193.17 1826.9 1193.42 1826.69 1193.59 1826.47 1193.75 1826.19 1193.83 1825.85 1193.83L1787.76 1193.83 1787.42 1192.08 1803.9 1192.08 1803.9 1177.44 1791.1 1177.44 1790.77 1175.7 1803.9 1175.7Z" fill="#FFFFFF" fill-rule="evenodd"/></g></svg>