<svg width="606" height="152" xmlns="http://www.w3.org/2000/svg" xmlns:xlink="http://www.w3.org/1999/xlink" overflow="hidden"><g transform="translate(-629 -1389)"><rect x="630" y="1389" width="605" height="151" fill="#FFFFFF" fill-opacity="0"/><path d="M1231.73 1502.64C1232.25 1502.64 1232.69 1502.82 1233.04 1503.18 1233.4 1503.55 1233.58 1503.98 1233.58 1504.49 1233.58 1505.01 1233.4 1505.45 1233.04 1505.81 1232.69 1506.16 1232.25 1506.34 1231.73 1506.34 1231.22 1506.34 1230.79 1506.16 1230.44 1505.81 1230.08 1505.45 1229.9 1505.01 1229.9 1504.49 1229.9 1503.98 1230.08 1503.55 1230.44 1503.18 1230.79 1502.82 1231.22 1502.64 1231.73 1502.64ZM900.834 1502.64C901.352 1502.64 901.789 1502.82 902.144 1503.18 902.5 1503.55 902.678 1503.98 902.678 1504.49 902.678 1505.01 902.5 1505.45 902.144 1505.81 901.789 1506.16 901.352 1506.34 900.834 1506.34 900.324 1506.34 899.892 1506.16 899.536 1505.81 899.181 1505.45 899.003 1505.01 899.003 1504.49 899.003 1503.98 899.181 1503.55 899.536 1503.18 899.892 1502.82 900.324 1502.64 900.834 1502.64ZM1220.16 1494.28C1219.04 1494.28 1218.13 1494.7 1217.43 1495.53 1216.73 1496.36 1216.38 1497.57 1216.38 1499.14 1216.38 1500.72 1216.73 1501.92 1217.43 1502.75 1218.13 1503.58 1219.04 1503.99 1220.16 1503.99 1221.35 1503.99 1222.29 1503.55 1223 1502.66 1223.71 1501.78 1224.06 1500.6 1224.06 1499.14 1224.06 1497.67 1223.71 1496.49 1223 1495.61 1222.29 1494.72 1221.35 1494.28 1220.16 1494.28ZM657.53 1494.26C656.344 1494.26 655.407 1494.7 654.718 1495.58 654.028 1496.47 653.684 1497.66 653.684 1499.17 653.684 1500.66 654.026 1501.84 654.711 1502.72 655.396 1503.59 656.336 1504.03 657.53 1504.03 658.724 1504.03 659.664 1503.59 660.349 1502.71 661.034 1501.83 661.376 1500.65 661.376 1499.17 661.376 1497.67 661.032 1496.48 660.342 1495.59 659.653 1494.7 658.716 1494.26 657.53 1494.26ZM1205.08 1494.18C1204.03 1494.18 1203.17 1494.5 1202.51 1495.15 1201.84 1495.79 1201.45 1496.67 1201.34 1497.78L1208.84 1497.78C1208.72 1496.67 1208.33 1495.79 1207.66 1495.15 1207 1494.5 1206.14 1494.18 1205.08 1494.18ZM1167.11 1494.18C1166.06 1494.18 1165.2 1494.5 1164.54 1495.15 1163.88 1495.79 1163.49 1496.67 1163.37 1497.78L1170.87 1497.78C1170.75 1496.67 1170.36 1495.79 1169.7 1495.15 1169.03 1494.5 1168.17 1494.18 1167.11 1494.18ZM1139.14 1494.18C1138.09 1494.18 1137.23 1494.5 1136.56 1495.15 1135.9 1495.79 1135.51 1496.67 1135.4 1497.78L1142.89 1497.78C1142.78 1496.67 1142.39 1495.79 1141.72 1495.15 1141.05 1494.5 1140.19 1494.18 1139.14 1494.18ZM757.284 1494.18C756.23 1494.18 755.372 1494.5 754.709 1495.15 754.046 1495.79 753.657 1496.67 753.543 1497.78L761.038 1497.78C760.924 1496.67 760.533 1495.79 759.866 1495.15 759.198 1494.5 758.338 1494.18 757.284 1494.18ZM742.297 1494.18C741.244 1494.18 740.385 1494.5 739.722 1495.15 739.059 1495.79 738.671 1496.67 738.556 1497.78L746.051 1497.78C745.937 1496.67 745.546 1495.79 744.879 1495.15 744.212 1494.5 743.351 1494.18 742.297 1494.18ZM1184.02 1492.17 1187 1492.17 1189.76 1499.82C1189.96 1500.36 1190.14 1500.91 1190.32 1501.45 1190.49 1502 1190.67 1502.54 1190.84 1503.08 1191.02 1502.54 1191.19 1502 1191.37 1501.45 1191.55 1500.91 1191.73 1500.36 1191.91 1499.82L1194.64 1492.17 1197.57 1492.17 1192.27 1506.12 1189.32 1506.12ZM712.496 1492.17 715.276 1492.17 715.276 1506.12 712.496 1506.12ZM1182.35 1492C1182.56 1492 1182.76 1492.01 1182.93 1492.02 1183.11 1492.04 1183.25 1492.05 1183.37 1492.06L1183.37 1494.67C1183.26 1494.64 1183.07 1494.61 1182.8 1494.58 1182.53 1494.55 1182.23 1494.53 1181.9 1494.53 1181.12 1494.53 1180.45 1494.81 1179.9 1495.35 1179.34 1495.9 1179.06 1496.74 1179.06 1497.87L1179.06 1506.12 1176.28 1506.12 1176.28 1492.17 1178.94 1492.17 1178.94 1494.43 1178.99 1494.43C1179.25 1493.66 1179.65 1493.06 1180.2 1492.64 1180.75 1492.21 1181.47 1492 1182.35 1492ZM696.366 1491.89C697.314 1491.89 698.146 1492.13 698.862 1492.62 699.578 1493.1 700.081 1493.72 700.37 1494.47 700.748 1493.71 701.321 1493.09 702.089 1492.61 702.858 1492.13 703.756 1491.89 704.783 1491.89 705.644 1491.89 706.425 1492.08 707.128 1492.46 707.83 1492.84 708.388 1493.4 708.8 1494.14 709.213 1494.89 709.419 1495.82 709.419 1496.94L709.419 1506.12 706.627 1506.12 706.627 1497.17C706.627 1496.18 706.35 1495.46 705.797 1495.01 705.244 1494.56 704.59 1494.33 703.835 1494.33 702.904 1494.33 702.17 1494.62 701.635 1495.2 701.099 1495.78 700.831 1496.51 700.831 1497.4L700.831 1506.12 698.092 1506.12 698.092 1496.99C698.092 1496.19 697.835 1495.55 697.321 1495.06 696.807 1494.58 696.155 1494.33 695.365 1494.33 694.557 1494.33 693.844 1494.62 693.224 1495.19 692.605 1495.77 692.296 1496.6 692.296 1497.7L692.296 1506.12 689.516 1506.12 689.516 1492.17 692.217 1492.17 692.217 1494.51C692.647 1493.64 693.231 1492.99 693.969 1492.55 694.706 1492.11 695.505 1491.89 696.366 1491.89ZM673.386 1491.89C674.335 1491.89 675.167 1492.13 675.882 1492.62 676.598 1493.1 677.101 1493.72 677.39 1494.47 677.768 1493.71 678.341 1493.09 679.109 1492.61 679.878 1492.13 680.776 1491.89 681.803 1491.89 682.664 1491.89 683.445 1492.08 684.148 1492.46 684.85 1492.84 685.408 1493.4 685.821 1494.14 686.233 1494.89 686.44 1495.82 686.44 1496.94L686.44 1506.12 683.647 1506.12 683.647 1497.17C683.647 1496.18 683.371 1495.46 682.817 1495.01 682.264 1494.56 681.61 1494.33 680.855 1494.33 679.924 1494.33 679.191 1494.62 678.655 1495.2 678.119 1495.78 677.852 1496.51 677.852 1497.4L677.852 1506.12 675.112 1506.12 675.112 1496.99C675.112 1496.19 674.855 1495.55 674.341 1495.06 673.828 1494.58 673.175 1494.33 672.385 1494.33 671.577 1494.33 670.864 1494.62 670.245 1495.19 669.626 1495.77 669.316 1496.6 669.316 1497.7L669.316 1506.12 666.537 1506.12 666.537 1492.17 669.237 1492.17 669.237 1494.51C669.667 1493.64 670.251 1492.99 670.989 1492.55 671.727 1492.11 672.526 1491.89 673.386 1491.89ZM1153.28 1491.87C1154.86 1491.87 1156.15 1492.27 1157.16 1493.09 1158.18 1493.9 1158.7 1495.01 1158.74 1496.42L1156.08 1496.42C1156.07 1495.74 1155.81 1495.18 1155.31 1494.74 1154.81 1494.29 1154.15 1494.07 1153.32 1494.07 1152.53 1494.07 1151.9 1494.26 1151.44 1494.63 1150.97 1495 1150.74 1495.45 1150.74 1495.99 1150.74 1496.46 1150.92 1496.84 1151.27 1497.14 1151.63 1497.43 1152.12 1497.64 1152.74 1497.78L1155.11 1498.31C1156.47 1498.61 1157.46 1499.07 1158.1 1499.7 1158.75 1500.32 1159.07 1501.14 1159.07 1502.15 1159.07 1503.04 1158.82 1503.81 1158.33 1504.45 1157.85 1505.08 1157.18 1505.58 1156.34 1505.93 1155.5 1506.27 1154.53 1506.45 1153.45 1506.45 1152.39 1506.45 1151.43 1506.28 1150.58 1505.93 1149.73 1505.59 1149.04 1505.08 1148.52 1504.4 1148 1503.72 1147.71 1502.88 1147.65 1501.88L1150.39 1501.88C1150.54 1503.44 1151.55 1504.23 1153.4 1504.23 1154.28 1504.23 1154.98 1504.05 1155.49 1503.69 1156 1503.33 1156.26 1502.87 1156.26 1502.31 1156.26 1501.84 1156.08 1501.46 1155.71 1501.17 1155.34 1500.88 1154.86 1500.68 1154.26 1500.54L1151.95 1500.03C1149.29 1499.45 1147.96 1498.12 1147.96 1496.04 1147.96 1494.81 1148.45 1493.8 1149.43 1493.03 1150.41 1492.25 1151.69 1491.87 1153.28 1491.87ZM1205.06 1491.85C1206.37 1491.85 1207.52 1492.16 1208.49 1492.78 1209.46 1493.39 1210.21 1494.25 1210.75 1495.35 1211.28 1496.44 1211.55 1497.71 1211.55 1499.14L1211.55 1499.9 1201.31 1499.9C1201.37 1501.15 1201.73 1502.17 1202.4 1502.95 1203.07 1503.72 1204.02 1504.11 1205.24 1504.11 1206.15 1504.11 1206.9 1503.9 1207.49 1503.49 1208.08 1503.07 1208.47 1502.54 1208.66 1501.88L1211.34 1501.88C1211.17 1502.78 1210.8 1503.57 1210.23 1504.25 1209.65 1504.94 1208.93 1505.48 1208.06 1505.86 1207.2 1506.24 1206.25 1506.43 1205.2 1506.43 1203.82 1506.43 1202.64 1506.12 1201.65 1505.5 1200.66 1504.87 1199.9 1504.01 1199.37 1502.91 1198.84 1501.82 1198.57 1500.57 1198.57 1499.17 1198.57 1497.75 1198.85 1496.49 1199.4 1495.39 1199.96 1494.29 1200.72 1493.43 1201.7 1492.8 1202.67 1492.17 1203.79 1491.85 1205.06 1491.85ZM1167.09 1491.85C1168.41 1491.85 1169.55 1492.16 1170.52 1492.78 1171.49 1493.39 1172.24 1494.25 1172.78 1495.35 1173.31 1496.44 1173.58 1497.71 1173.58 1499.14L1173.58 1499.9 1163.35 1499.9C1163.4 1501.15 1163.76 1502.17 1164.43 1502.95 1165.11 1503.72 1166.05 1504.11 1167.27 1504.11 1168.19 1504.11 1168.94 1503.9 1169.53 1503.49 1170.11 1503.07 1170.5 1502.54 1170.7 1501.88L1173.37 1501.88C1173.2 1502.78 1172.83 1503.57 1172.26 1504.25 1171.68 1504.94 1170.96 1505.48 1170.1 1505.86 1169.23 1506.24 1168.28 1506.43 1167.23 1506.43 1165.85 1506.43 1164.67 1506.12 1163.68 1505.5 1162.7 1504.87 1161.94 1504.01 1161.4 1502.91 1160.87 1501.82 1160.61 1500.57 1160.61 1499.17 1160.61 1497.75 1160.88 1496.49 1161.44 1495.39 1161.99 1494.29 1162.76 1493.43 1163.73 1492.8 1164.7 1492.17 1165.82 1491.85 1167.09 1491.85ZM1139.11 1491.85C1140.43 1491.85 1141.57 1492.16 1142.54 1492.78 1143.51 1493.39 1144.27 1494.25 1144.8 1495.35 1145.34 1496.44 1145.61 1497.71 1145.61 1499.14L1145.61 1499.9 1135.37 1499.9C1135.43 1501.15 1135.79 1502.17 1136.46 1502.95 1137.13 1503.72 1138.08 1504.11 1139.3 1504.11 1140.21 1504.11 1140.96 1503.9 1141.55 1503.49 1142.14 1503.07 1142.53 1502.54 1142.72 1501.88L1145.4 1501.88C1145.23 1502.78 1144.86 1503.57 1144.28 1504.25 1143.71 1504.94 1142.99 1505.48 1142.12 1505.86 1141.26 1506.24 1140.3 1506.43 1139.26 1506.43 1137.88 1506.43 1136.7 1506.12 1135.71 1505.5 1134.72 1504.87 1133.96 1504.01 1133.43 1502.91 1132.9 1501.82 1132.63 1500.57 1132.63 1499.17 1132.63 1497.75 1132.91 1496.49 1133.46 1495.39 1134.02 1494.29 1134.78 1493.43 1135.75 1492.8 1136.73 1492.17 1137.85 1491.85 1139.11 1491.85ZM757.258 1491.85C758.575 1491.85 759.719 1492.16 760.689 1492.78 761.659 1493.39 762.412 1494.25 762.948 1495.35 763.484 1496.44 763.752 1497.71 763.752 1499.14L763.752 1499.9 753.517 1499.9C753.57 1501.15 753.932 1502.17 754.604 1502.95 755.275 1503.72 756.222 1504.11 757.442 1504.11 758.355 1504.11 759.106 1503.9 759.695 1503.49 760.283 1503.07 760.674 1502.54 760.867 1501.88L763.541 1501.88C763.374 1502.78 763.003 1503.57 762.428 1504.25 761.853 1504.94 761.133 1505.48 760.268 1505.86 759.403 1506.24 758.448 1506.43 757.403 1506.43 756.024 1506.43 754.841 1506.12 753.853 1505.5 752.865 1504.87 752.105 1504.01 751.574 1502.91 751.043 1501.82 750.777 1500.57 750.777 1499.17 750.777 1497.75 751.054 1496.49 751.607 1495.39 752.16 1494.29 752.924 1493.43 753.899 1492.8 754.874 1492.17 755.993 1491.85 757.258 1491.85ZM742.271 1491.85C743.588 1491.85 744.732 1492.16 745.702 1492.78 746.673 1493.39 747.426 1494.25 747.961 1495.35 748.497 1496.44 748.765 1497.71 748.765 1499.14L748.765 1499.9 738.53 1499.9C738.583 1501.15 738.945 1502.17 739.617 1502.95 740.289 1503.72 741.235 1504.11 742.455 1504.11 743.369 1504.11 744.119 1503.9 744.708 1503.49 745.296 1503.07 745.687 1502.54 745.88 1501.88L748.554 1501.88C748.387 1502.78 748.016 1503.57 747.441 1504.25 746.866 1504.94 746.146 1505.48 745.281 1505.86 744.416 1506.24 743.461 1506.43 742.416 1506.43 741.037 1506.43 739.854 1506.12 738.866 1505.5 737.878 1504.87 737.119 1504.01 736.587 1502.91 736.056 1501.82 735.79 1500.57 735.79 1499.17 735.79 1497.75 736.067 1496.49 736.62 1495.39 737.173 1494.29 737.937 1493.43 738.912 1492.8 739.887 1492.17 741.006 1491.85 742.271 1491.85ZM657.53 1491.85C658.856 1491.85 660.017 1492.16 661.014 1492.78 662.011 1493.4 662.788 1494.26 663.345 1495.36 663.903 1496.45 664.182 1497.73 664.182 1499.17 664.182 1500.6 663.903 1501.85 663.345 1502.95 662.788 1504.04 662.011 1504.89 661.014 1505.51 660.017 1506.13 658.856 1506.43 657.53 1506.43 656.204 1506.43 655.041 1506.13 654.039 1505.51 653.038 1504.89 652.259 1504.04 651.701 1502.95 651.144 1501.85 650.865 1500.6 650.865 1499.17 650.865 1497.73 651.144 1496.45 651.701 1495.36 652.259 1494.26 653.038 1493.4 654.039 1492.78 655.041 1492.16 656.204 1491.85 657.53 1491.85ZM843.935 1489.12C843.54 1490.39 843.193 1491.5 842.894 1492.42 842.596 1493.34 842.31 1494.21 842.038 1495.02L840.813 1498.51 846.991 1498.51 845.805 1495.02C845.542 1494.21 845.261 1493.34 844.962 1492.42 844.664 1491.5 844.321 1490.39 843.935 1489.12ZM1119.48 1488.97 1119.48 1496.17 1123.91 1496.17C1125.17 1496.17 1126.17 1495.85 1126.89 1495.2 1127.61 1494.55 1127.98 1493.67 1127.98 1492.57 1127.98 1491.46 1127.61 1490.58 1126.88 1489.94 1126.15 1489.29 1125.16 1488.97 1123.89 1488.97ZM728.576 1488.36 731.369 1488.36 731.369 1492.17 734.188 1492.17 734.188 1494.47 731.369 1494.47 731.369 1502.43C731.369 1502.95 731.474 1503.31 731.685 1503.51 731.896 1503.72 732.278 1503.82 732.831 1503.82L734.188 1503.82 734.188 1506.12 732.436 1506.12C729.863 1506.12 728.576 1505.01 728.576 1502.79L728.576 1494.47 726.126 1494.47 726.126 1492.17 728.576 1492.17ZM719.584 1488.36 722.377 1488.36 722.377 1492.17 725.196 1492.17 725.196 1494.47 722.377 1494.47 722.377 1502.43C722.377 1502.95 722.482 1503.31 722.693 1503.51 722.904 1503.72 723.286 1503.82 723.839 1503.82L725.196 1503.82 725.196 1506.12 723.444 1506.12C720.871 1506.12 719.584 1505.01 719.584 1502.79L719.584 1494.47 717.134 1494.47 717.134 1492.17 719.584 1492.17ZM1223.88 1486.44 1226.65 1486.44 1226.65 1506.12 1223.93 1506.12 1223.93 1503.99 1223.9 1503.99C1223.44 1504.8 1222.83 1505.4 1222.08 1505.8 1221.33 1506.2 1220.5 1506.39 1219.59 1506.39 1218.38 1506.39 1217.32 1506.09 1216.42 1505.48 1215.52 1504.86 1214.81 1504.01 1214.31 1502.93 1213.81 1501.84 1213.56 1500.58 1213.56 1499.14 1213.56 1497.71 1213.81 1496.45 1214.32 1495.36 1214.82 1494.27 1215.53 1493.42 1216.43 1492.81 1217.34 1492.2 1218.39 1491.89 1219.58 1491.89 1220.49 1491.89 1221.31 1492.08 1222.06 1492.46 1222.8 1492.84 1223.4 1493.41 1223.85 1494.19L1223.88 1494.19ZM1116.56 1486.44 1124.02 1486.44C1126.12 1486.44 1127.79 1486.99 1129.02 1488.09 1130.25 1489.19 1130.86 1490.68 1130.86 1492.57 1130.86 1493.94 1130.51 1495.11 1129.81 1496.07 1129.1 1497.04 1128.14 1497.74 1126.92 1498.18L1131.16 1506.12 1127.87 1506.12 1123.96 1498.67C1123.92 1498.67 1123.87 1498.67 1123.83 1498.67L1119.48 1498.67 1119.48 1506.12 1116.56 1506.12ZM842.157 1486.44 845.687 1486.44 852.76 1506.12 849.586 1506.12 847.847 1501.01 839.931 1501.01 838.139 1506.12 835.031 1506.12ZM801.642 1486.44 804.566 1486.44 804.566 1503.54 813.853 1503.54 813.853 1506.12 801.642 1506.12ZM713.879 1486.34C714.371 1486.34 714.788 1486.51 715.131 1486.84 715.473 1487.17 715.645 1487.58 715.645 1488.06 715.645 1488.54 715.473 1488.94 715.131 1489.27 714.788 1489.6 714.371 1489.77 713.879 1489.77 713.388 1489.77 712.973 1489.6 712.635 1489.27 712.297 1488.94 712.128 1488.54 712.128 1488.06 712.128 1487.58 712.297 1487.17 712.635 1486.84 712.973 1486.51 713.388 1486.34 713.879 1486.34ZM775.402 1486.32 777.344 1486.32 780.824 1491.43 784.331 1486.32 786.22 1486.32 786.22 1496.7 784.062 1496.7 784.062 1490.13 781.418 1493.94 780.231 1493.94 777.56 1490.13 777.56 1496.7 775.402 1496.7ZM765.205 1486.32 774.026 1486.32 774.026 1488.32 770.762 1488.32 770.762 1496.7 768.469 1496.7 768.469 1488.32 765.205 1488.32ZM880.011 1486.12C881.442 1486.12 882.74 1486.4 883.903 1486.96 885.067 1487.53 886.03 1488.32 886.794 1489.35 887.558 1490.37 888.054 1491.59 888.283 1492.99L885.306 1492.99C885.016 1491.65 884.399 1490.62 883.455 1489.89 882.511 1489.16 881.372 1488.8 880.037 1488.8 878.746 1488.8 877.635 1489.11 876.705 1489.74 875.774 1490.36 875.056 1491.24 874.551 1492.37 874.046 1493.49 873.794 1494.8 873.794 1496.29 873.794 1497.78 874.044 1499.08 874.544 1500.2 875.045 1501.32 875.763 1502.19 876.698 1502.81 877.633 1503.44 878.746 1503.75 880.037 1503.75 881.363 1503.75 882.498 1503.39 883.442 1502.67 884.386 1501.95 885.012 1500.92 885.319 1499.59L888.283 1499.59C888.054 1500.98 887.558 1502.19 886.794 1503.22 886.03 1504.24 885.067 1505.04 883.903 1505.6 882.74 1506.15 881.442 1506.43 880.011 1506.43 878.211 1506.43 876.621 1506.01 875.242 1505.15 873.864 1504.3 872.788 1503.11 872.015 1501.59 871.243 1500.06 870.856 1498.3 870.856 1496.29 870.856 1494.26 871.243 1492.49 872.015 1490.97 872.788 1489.44 873.862 1488.25 875.236 1487.4 876.61 1486.55 878.202 1486.12 880.011 1486.12ZM861.182 1486.12C863.298 1486.12 864.982 1486.67 866.233 1487.78 867.484 1488.89 868.141 1490.41 868.202 1492.33L865.37 1492.33C865.3 1491.19 864.887 1490.3 864.132 1489.65 863.377 1489.01 862.38 1488.68 861.142 1488.68 859.957 1488.68 858.986 1488.97 858.231 1489.53 857.476 1490.1 857.098 1490.83 857.098 1491.72 857.098 1492.43 857.388 1493.01 857.968 1493.46 858.547 1493.9 859.509 1494.29 860.852 1494.61L862.973 1495.11C864.94 1495.58 866.391 1496.25 867.326 1497.14 868.262 1498.02 868.729 1499.16 868.729 1500.57 868.729 1501.75 868.426 1502.78 867.82 1503.66 867.214 1504.54 866.363 1505.22 865.265 1505.71 864.167 1506.19 862.876 1506.43 861.392 1506.43 859.039 1506.43 857.184 1505.84 855.827 1504.64 854.47 1503.45 853.792 1501.82 853.792 1499.74L856.716 1499.74C856.725 1501.03 857.14 1502.04 857.961 1502.78 858.782 1503.51 859.926 1503.87 861.392 1503.87 862.727 1503.87 863.796 1503.59 864.6 1503.02 865.403 1502.45 865.805 1501.69 865.805 1500.73 865.805 1499.97 865.517 1499.36 864.942 1498.89 864.367 1498.41 863.399 1498.02 862.038 1497.69L859.891 1497.17C857.906 1496.7 856.459 1496.04 855.55 1495.19 854.642 1494.34 854.187 1493.23 854.187 1491.87 854.187 1490.71 854.477 1489.7 855.057 1488.84 855.636 1487.98 856.451 1487.31 857.5 1486.83 858.549 1486.36 859.776 1486.12 861.182 1486.12ZM825.059 1486.12C826.49 1486.12 827.788 1486.4 828.951 1486.96 830.115 1487.53 831.079 1488.32 831.843 1489.35 832.607 1490.37 833.103 1491.59 833.331 1492.99L830.354 1492.99C830.064 1491.65 829.447 1490.62 828.504 1489.89 827.559 1489.16 826.42 1488.8 825.085 1488.8 823.794 1488.8 822.684 1489.11 821.753 1489.74 820.822 1490.36 820.104 1491.24 819.599 1492.37 819.094 1493.49 818.842 1494.8 818.842 1496.29 818.842 1497.78 819.092 1499.08 819.593 1500.2 820.093 1501.32 820.811 1502.19 821.746 1502.81 822.681 1503.44 823.794 1503.75 825.085 1503.75 826.411 1503.75 827.546 1503.39 828.49 1502.67 829.434 1501.95 830.06 1500.92 830.367 1499.59L833.331 1499.59C833.103 1500.98 832.607 1502.19 831.843 1503.22 831.079 1504.24 830.115 1505.04 828.951 1505.6 827.788 1506.15 826.49 1506.43 825.059 1506.43 823.259 1506.43 821.669 1506.01 820.291 1505.15 818.912 1504.3 817.836 1503.11 817.064 1501.59 816.291 1500.06 815.905 1498.3 815.905 1496.29 815.905 1494.26 816.291 1492.49 817.064 1490.97 817.836 1489.44 818.91 1488.25 820.284 1487.4 821.658 1486.55 823.25 1486.12 825.059 1486.12ZM640.221 1486.12C641.653 1486.12 642.95 1486.4 644.114 1486.96 645.277 1487.53 646.241 1488.32 647.005 1489.35 647.769 1490.37 648.265 1491.59 648.494 1492.99L645.517 1492.99C645.227 1491.65 644.61 1490.62 643.666 1489.89 642.722 1489.16 641.583 1488.8 640.248 1488.8 638.957 1488.8 637.846 1489.11 636.915 1489.74 635.985 1490.36 635.267 1491.24 634.762 1492.37 634.257 1493.49 634.004 1494.8 634.004 1496.29 634.004 1497.78 634.255 1499.08 634.755 1500.2 635.256 1501.32 635.974 1502.19 636.909 1502.81 637.844 1503.44 638.957 1503.75 640.248 1503.75 641.574 1503.75 642.709 1503.39 643.653 1502.67 644.597 1501.95 645.223 1500.92 645.53 1499.59L648.494 1499.59C648.265 1500.98 647.769 1502.19 647.005 1503.22 646.241 1504.24 645.277 1505.04 644.114 1505.6 642.95 1506.15 641.653 1506.43 640.221 1506.43 638.421 1506.43 636.832 1506.01 635.453 1505.15 634.075 1504.3 632.999 1503.11 632.226 1501.59 631.453 1500.06 631.067 1498.3 631.067 1496.29 631.067 1494.26 631.453 1492.49 632.226 1490.97 632.999 1489.44 634.072 1488.25 635.447 1487.4 636.821 1486.55 638.413 1486.12 640.221 1486.12ZM796.837 1485.43 799.537 1485.43C798.922 1486.71 798.387 1488.08 797.93 1489.54 797.473 1491 797.12 1492.48 796.87 1493.98 796.619 1495.48 796.494 1496.92 796.494 1498.3 796.494 1500.16 796.745 1502.02 797.245 1503.9L798.831 1508.12 830.823 1508.12 891.161 1508.12 892.742 1503.9C893.238 1502.02 893.486 1500.16 893.486 1498.3 893.486 1496.92 893.361 1495.48 893.111 1493.98 892.86 1492.48 892.509 1491 892.057 1489.54 891.605 1488.08 891.071 1486.71 890.457 1485.43L893.157 1485.43C893.771 1486.45 894.316 1487.68 894.79 1489.11 895.264 1490.54 895.635 1492.05 895.903 1493.65 896.171 1495.24 896.305 1496.79 896.305 1498.3L893.662 1508.12 897.765 1508.12 897.765 1509.12 893.393 1509.12 893.157 1510 890.457 1510 890.785 1509.12 830.823 1509.12 799.207 1509.12 799.537 1510 796.837 1510 796.601 1509.12 763.882 1509.12 696.941 1509.12 630 1509.12 630 1508.12 696.941 1508.12 763.882 1508.12 796.331 1508.12 793.689 1498.3C793.689 1496.79 793.823 1495.24 794.09 1493.65 794.358 1492.05 794.727 1490.54 795.197 1489.11 795.667 1487.68 796.213 1486.45 796.837 1485.43ZM630 1476.06 696.608 1476.06 763.216 1476.06 829.824 1476.06 829.824 1477.06 763.216 1477.06 696.608 1477.06 630 1477.06ZM1113.84 1470.58C1114.36 1470.58 1114.79 1470.76 1115.15 1471.12 1115.5 1471.49 1115.68 1471.92 1115.68 1472.43 1115.68 1472.95 1115.5 1473.39 1115.15 1473.75 1114.79 1474.1 1114.36 1474.28 1113.84 1474.28 1113.33 1474.28 1112.9 1474.1 1112.54 1473.75 1112.18 1473.39 1112.01 1472.95 1112.01 1472.43 1112.01 1471.92 1112.18 1471.49 1112.54 1471.12 1112.9 1470.76 1113.33 1470.58 1113.84 1470.58ZM1053.8 1467.2C1053.61 1467.35 1053.2 1467.49 1052.55 1467.6 1051.9 1467.72 1051.2 1467.84 1050.47 1467.94 1049.7 1468.06 1049.03 1468.27 1048.45 1468.59 1047.87 1468.91 1047.58 1469.42 1047.58 1470.12 1047.58 1470.72 1047.82 1471.19 1048.29 1471.53 1048.76 1471.87 1049.39 1472.04 1050.2 1472.04 1051.43 1472.04 1052.34 1471.72 1052.92 1471.08 1053.51 1470.44 1053.8 1469.69 1053.8 1468.84ZM787.841 1467.2C787.657 1467.35 787.24 1467.49 786.59 1467.6 785.94 1467.72 785.246 1467.84 784.509 1467.94 783.745 1468.06 783.073 1468.27 782.493 1468.59 781.914 1468.91 781.624 1469.42 781.624 1470.12 781.624 1470.72 781.859 1471.19 782.329 1471.53 782.799 1471.87 783.437 1472.04 784.245 1472.04 785.475 1472.04 786.381 1471.72 786.965 1471.08 787.549 1470.44 787.841 1469.69 787.841 1468.84ZM683.933 1467.2C683.748 1467.35 683.331 1467.49 682.681 1467.6 682.031 1467.72 681.338 1467.84 680.6 1467.94 679.836 1468.06 679.164 1468.27 678.585 1468.59 678.005 1468.91 677.715 1469.42 677.715 1470.12 677.715 1470.72 677.95 1471.19 678.42 1471.53 678.89 1471.87 679.529 1472.04 680.337 1472.04 681.566 1472.04 682.473 1471.72 683.057 1471.08 683.641 1470.44 683.933 1469.69 683.933 1468.84ZM808.332 1462.22C807.208 1462.22 806.297 1462.64 805.598 1463.47 804.9 1464.3 804.551 1465.51 804.551 1467.08 804.551 1468.66 804.9 1469.86 805.598 1470.69 806.297 1471.52 807.208 1471.93 808.332 1471.93 809.517 1471.93 810.463 1471.49 811.17 1470.6 811.877 1469.72 812.23 1468.54 812.23 1467.08 812.23 1465.61 811.877 1464.43 811.17 1463.55 810.463 1462.66 809.517 1462.22 808.332 1462.22ZM1189.19 1462.21C1188.06 1462.21 1187.15 1462.62 1186.45 1463.44 1185.76 1464.27 1185.41 1465.46 1185.41 1467.03 1185.41 1468.6 1185.76 1469.79 1186.45 1470.62 1187.15 1471.44 1188.06 1471.85 1189.19 1471.85 1190.37 1471.85 1191.32 1471.41 1192.03 1470.54 1192.73 1469.66 1193.09 1468.49 1193.09 1467.03 1193.09 1465.57 1192.73 1464.4 1192.03 1463.52 1191.32 1462.65 1190.37 1462.21 1189.19 1462.21ZM1022.4 1462.2C1021.21 1462.2 1020.28 1462.64 1019.59 1463.52 1018.9 1464.41 1018.55 1465.6 1018.55 1467.11 1018.55 1468.6 1018.9 1469.78 1019.58 1470.66 1020.27 1471.53 1021.21 1471.97 1022.4 1471.97 1023.59 1471.97 1024.53 1471.53 1025.22 1470.65 1025.9 1469.77 1026.25 1468.59 1026.25 1467.11 1026.25 1465.61 1025.9 1464.42 1025.21 1463.53 1024.52 1462.64 1023.59 1462.2 1022.4 1462.2ZM710.483 1462.2C709.298 1462.2 708.361 1462.64 707.671 1463.52 706.982 1464.41 706.637 1465.6 706.637 1467.11 706.637 1468.6 706.98 1469.78 707.665 1470.66 708.35 1471.53 709.289 1471.97 710.483 1471.97 711.678 1471.97 712.617 1471.53 713.302 1470.65 713.987 1469.77 714.33 1468.59 714.33 1467.11 714.33 1465.61 713.985 1464.42 713.296 1463.53 712.606 1462.64 711.669 1462.2 710.483 1462.2ZM652.534 1462.2C651.349 1462.2 650.412 1462.64 649.722 1463.52 649.033 1464.41 648.688 1465.6 648.688 1467.11 648.688 1468.6 649.031 1469.78 649.716 1470.66 650.401 1471.53 651.34 1471.97 652.534 1471.97 653.729 1471.97 654.668 1471.53 655.353 1470.65 656.038 1469.77 656.381 1468.59 656.381 1467.11 656.381 1465.61 656.036 1464.42 655.347 1463.53 654.657 1462.64 653.72 1462.2 652.534 1462.2ZM1177.28 1460.11 1180.06 1460.11 1180.06 1474.06 1177.28 1474.06ZM1097.35 1460.11 1100.13 1460.11 1100.13 1468.46C1100.13 1469.58 1100.4 1470.42 1100.93 1470.99 1101.47 1471.55 1102.22 1471.84 1103.18 1471.84 1104.12 1471.84 1104.92 1471.55 1105.56 1470.96 1106.21 1470.37 1106.53 1469.43 1106.53 1468.14L1106.53 1460.11 1109.31 1460.11 1109.31 1474.06 1106.58 1474.06 1106.58 1471.96C1105.63 1473.54 1104.23 1474.33 1102.38 1474.33 1101.43 1474.33 1100.58 1474.13 1099.82 1473.71 1099.06 1473.29 1098.46 1472.67 1098.01 1471.85 1097.57 1471.03 1097.35 1470.02 1097.35 1468.8ZM757.205 1460.11 760.116 1460.11 761.709 1465.82C761.946 1466.66 762.173 1467.52 762.388 1468.4 762.603 1469.28 762.816 1470.16 763.027 1471.02 763.255 1470.16 763.481 1469.28 763.705 1468.4 763.929 1467.52 764.155 1466.66 764.383 1465.82L766.003 1460.11 768.651 1460.11 770.245 1465.82C770.482 1466.65 770.71 1467.51 770.93 1468.38 771.149 1469.25 771.369 1470.11 771.588 1470.97 771.799 1470.11 772.012 1469.25 772.227 1468.38 772.442 1467.51 772.669 1466.65 772.906 1465.82L774.513 1460.11 777.45 1460.11 773.143 1474.06 770.245 1474.06 768.48 1467.98C768.278 1467.28 768.083 1466.55 767.894 1465.82 767.705 1465.08 767.518 1464.34 767.334 1463.61 767.141 1464.34 766.95 1465.08 766.761 1465.82 766.572 1466.55 766.372 1467.28 766.162 1467.98L764.37 1474.06 761.512 1474.06ZM698.509 1460.11 701.288 1460.11 701.288 1474.06 698.509 1474.06ZM799.497 1459.94C799.708 1459.94 799.901 1459.95 800.077 1459.96 800.253 1459.98 800.398 1459.99 800.512 1460L800.512 1462.61C800.406 1462.58 800.218 1462.55 799.945 1462.52 799.673 1462.49 799.375 1462.47 799.05 1462.47 798.268 1462.47 797.599 1462.75 797.041 1463.29 796.483 1463.84 796.205 1464.68 796.205 1465.82L796.205 1474.06 793.425 1474.06 793.425 1460.11 796.086 1460.11 796.086 1462.37 796.139 1462.37C796.393 1461.6 796.795 1461.01 797.344 1460.58 797.893 1460.15 798.611 1459.94 799.497 1459.94ZM1188.61 1459.83C1189.51 1459.83 1190.34 1460.03 1191.1 1460.41 1191.85 1460.8 1192.46 1461.41 1192.93 1462.24L1192.94 1462.24 1192.94 1460.11 1195.68 1460.11 1195.68 1473.87C1195.68 1475.28 1195.4 1476.42 1194.83 1477.28 1194.25 1478.14 1193.49 1478.77 1192.53 1479.17 1191.58 1479.56 1190.51 1479.76 1189.35 1479.76 1187.64 1479.76 1186.25 1479.38 1185.17 1478.63 1184.09 1477.87 1183.46 1476.81 1183.27 1475.44L1186.05 1475.44C1186.23 1476.12 1186.61 1476.63 1187.2 1476.98 1187.79 1477.32 1188.5 1477.49 1189.35 1477.49 1190.47 1477.49 1191.35 1477.19 1191.98 1476.58 1192.61 1475.97 1192.93 1475.1 1192.93 1473.98L1192.93 1471.86 1192.92 1471.86C1192.43 1472.67 1191.82 1473.27 1191.09 1473.66 1190.36 1474.05 1189.53 1474.24 1188.62 1474.24 1187.41 1474.24 1186.35 1473.94 1185.45 1473.32 1184.54 1472.71 1183.84 1471.87 1183.34 1470.79 1182.84 1469.71 1182.59 1468.46 1182.59 1467.04 1182.59 1465.63 1182.84 1464.38 1183.35 1463.29 1183.85 1462.21 1184.56 1461.36 1185.46 1460.75 1186.36 1460.14 1187.41 1459.83 1188.61 1459.83ZM1051.02 1459.83C1052.73 1459.83 1054.08 1460.25 1055.06 1461.1 1056.05 1461.95 1056.54 1463.08 1056.54 1464.49L1056.54 1474.06 1053.8 1474.06 1053.8 1472.08 1053.75 1472.08C1053.46 1472.64 1053 1473.15 1052.37 1473.6 1051.74 1474.05 1050.83 1474.28 1049.64 1474.28 1048.25 1474.28 1047.1 1473.93 1046.19 1473.22 1045.27 1472.51 1044.82 1471.46 1044.82 1470.07 1044.82 1469.01 1045.08 1468.2 1045.6 1467.63 1046.12 1467.06 1046.8 1466.66 1047.64 1466.41 1048.48 1466.16 1049.37 1465.98 1050.31 1465.87 1051.18 1465.76 1051.87 1465.67 1052.38 1465.6 1052.89 1465.53 1053.25 1465.43 1053.46 1465.29 1053.68 1465.15 1053.79 1464.9 1053.79 1464.56L1053.79 1464.44C1053.79 1463.76 1053.54 1463.21 1053.05 1462.77 1052.56 1462.33 1051.87 1462.12 1050.98 1462.12 1050.09 1462.12 1049.37 1462.33 1048.81 1462.76 1048.24 1463.18 1047.94 1463.72 1047.88 1464.36L1045.16 1464.36C1045.22 1463.03 1045.78 1461.95 1046.83 1461.1 1047.88 1460.25 1049.28 1459.83 1051.02 1459.83ZM785.062 1459.83C786.774 1459.83 788.122 1460.25 789.106 1461.1 790.089 1461.95 790.581 1463.08 790.581 1464.49L790.581 1474.06 787.841 1474.06 787.841 1472.08 787.789 1472.08C787.499 1472.64 787.04 1473.15 786.412 1473.6 785.784 1474.05 784.873 1474.28 783.679 1474.28 782.291 1474.28 781.141 1473.93 780.228 1473.22 779.315 1472.51 778.858 1471.46 778.858 1470.07 778.858 1469.01 779.119 1468.2 779.642 1467.63 780.164 1467.06 780.845 1466.66 781.683 1466.41 782.522 1466.16 783.411 1465.98 784.351 1465.87 785.22 1465.76 785.909 1465.67 786.419 1465.6 786.928 1465.53 787.29 1465.43 787.505 1465.29 787.72 1465.15 787.828 1464.9 787.828 1464.56L787.828 1464.44C787.828 1463.76 787.582 1463.21 787.09 1462.77 786.599 1462.33 785.909 1462.12 785.022 1462.12 784.135 1462.12 783.411 1462.33 782.849 1462.76 782.287 1463.18 781.98 1463.72 781.927 1464.36L779.2 1464.36C779.262 1463.03 779.819 1461.95 780.873 1461.1 781.927 1460.25 783.323 1459.83 785.062 1459.83ZM726.419 1459.83C727.376 1459.83 728.234 1460.04 728.994 1460.46 729.753 1460.88 730.353 1461.5 730.792 1462.31 731.231 1463.13 731.45 1464.15 731.45 1465.37L731.45 1474.06 728.671 1474.06 728.671 1465.71C728.671 1464.59 728.403 1463.75 727.868 1463.18 727.332 1462.61 726.586 1462.33 725.628 1462.33 724.68 1462.33 723.883 1462.62 723.238 1463.21 722.592 1463.79 722.27 1464.73 722.27 1466.03L722.27 1474.06 719.49 1474.06 719.49 1460.11 722.217 1460.11 722.217 1462.21C723.165 1460.62 724.566 1459.83 726.419 1459.83ZM681.153 1459.83C682.866 1459.83 684.214 1460.25 685.197 1461.1 686.181 1461.95 686.672 1463.08 686.672 1464.49L686.672 1474.06 683.933 1474.06 683.933 1472.08 683.88 1472.08C683.59 1472.64 683.131 1473.15 682.503 1473.6 681.876 1474.05 680.965 1474.28 679.77 1474.28 678.383 1474.28 677.232 1473.93 676.319 1473.22 675.406 1472.51 674.949 1471.46 674.949 1470.07 674.949 1469.01 675.211 1468.2 675.733 1467.63 676.255 1467.06 676.936 1466.66 677.775 1466.41 678.613 1466.16 679.502 1465.98 680.442 1465.87 681.311 1465.76 682.001 1465.67 682.51 1465.6 683.019 1465.53 683.382 1465.43 683.597 1465.29 683.812 1465.15 683.919 1464.9 683.919 1464.56L683.919 1464.44C683.919 1463.76 683.674 1463.21 683.182 1462.77 682.69 1462.33 682.001 1462.12 681.114 1462.12 680.227 1462.12 679.502 1462.33 678.94 1462.76 678.378 1463.18 678.071 1463.72 678.018 1464.36L675.292 1464.36C675.353 1463.03 675.911 1461.95 676.965 1461.1 678.018 1460.25 679.415 1459.83 681.153 1459.83ZM1228.22 1459.81C1229.79 1459.81 1231.08 1460.21 1232.1 1461.03 1233.11 1461.84 1233.64 1462.95 1233.67 1464.36L1231.01 1464.36C1231 1463.68 1230.75 1463.12 1230.25 1462.68 1229.75 1462.23 1229.08 1462.01 1228.26 1462.01 1227.47 1462.01 1226.84 1462.2 1226.37 1462.57 1225.91 1462.94 1225.68 1463.39 1225.68 1463.93 1225.68 1464.4 1225.85 1464.78 1226.21 1465.08 1226.56 1465.37 1227.05 1465.58 1227.68 1465.72L1230.05 1466.25C1231.4 1466.55 1232.4 1467.01 1233.04 1467.64 1233.68 1468.26 1234 1469.08 1234 1470.09 1234 1470.98 1233.76 1471.75 1233.27 1472.39 1232.78 1473.02 1232.12 1473.52 1231.27 1473.87 1230.43 1474.21 1229.47 1474.39 1228.39 1474.39 1227.33 1474.39 1226.37 1474.22 1225.52 1473.87 1224.67 1473.53 1223.98 1473.02 1223.46 1472.34 1222.93 1471.66 1222.64 1470.82 1222.58 1469.82L1225.32 1469.82C1225.48 1471.38 1226.48 1472.17 1228.34 1472.17 1229.21 1472.17 1229.91 1471.99 1230.42 1471.63 1230.94 1471.27 1231.19 1470.81 1231.19 1470.25 1231.19 1469.78 1231.01 1469.4 1230.64 1469.11 1230.27 1468.82 1229.79 1468.62 1229.19 1468.48L1226.89 1467.97C1224.23 1467.39 1222.9 1466.06 1222.9 1463.98 1222.9 1462.75 1223.39 1461.74 1224.36 1460.97 1225.34 1460.19 1226.63 1459.81 1228.22 1459.81ZM823.382 1459.81C824.954 1459.81 826.247 1460.21 827.261 1461.03 828.276 1461.84 828.8 1462.95 828.836 1464.36L826.175 1464.36C826.166 1463.68 825.911 1463.12 825.411 1462.68 824.91 1462.23 824.247 1462.01 823.422 1462.01 822.632 1462.01 822.004 1462.2 821.538 1462.57 821.073 1462.94 820.84 1463.39 820.84 1463.93 820.84 1464.4 821.018 1464.78 821.374 1465.08 821.729 1465.37 822.219 1465.58 822.842 1465.72L825.213 1466.25C826.565 1466.55 827.562 1467.01 828.203 1467.64 828.844 1468.26 829.165 1469.08 829.165 1470.09 829.165 1470.98 828.921 1471.75 828.434 1472.39 827.946 1473.02 827.281 1473.52 826.438 1473.87 825.595 1474.21 824.634 1474.39 823.554 1474.39 822.491 1474.39 821.534 1474.22 820.682 1473.87 819.83 1473.53 819.143 1473.02 818.621 1472.34 818.098 1471.66 817.806 1470.82 817.745 1469.82L820.484 1469.82C820.643 1471.38 821.648 1472.17 823.501 1472.17 824.379 1472.17 825.075 1471.99 825.589 1471.63 826.102 1471.27 826.359 1470.81 826.359 1470.25 826.359 1469.78 826.175 1469.4 825.806 1469.11 825.437 1468.82 824.954 1468.62 824.357 1468.48L822.052 1467.97C819.391 1467.39 818.061 1466.06 818.061 1463.98 818.061 1462.75 818.55 1461.74 819.529 1460.97 820.509 1460.19 821.793 1459.81 823.382 1459.81ZM1037.36 1459.79C1038.47 1459.79 1039.46 1460.01 1040.33 1460.45 1041.2 1460.88 1041.91 1461.48 1042.46 1462.25 1043 1463.01 1043.33 1463.89 1043.45 1464.88L1040.68 1464.88C1040.54 1464.09 1040.19 1463.45 1039.63 1462.95 1039.06 1462.45 1038.31 1462.2 1037.37 1462.2 1036.17 1462.2 1035.23 1462.64 1034.56 1463.53 1033.88 1464.42 1033.54 1465.61 1033.54 1467.11 1033.54 1468.59 1033.88 1469.77 1034.56 1470.65 1035.23 1471.53 1036.17 1471.97 1037.37 1471.97 1038.33 1471.97 1039.07 1471.73 1039.59 1471.24 1040.1 1470.75 1040.46 1470.09 1040.64 1469.28L1043.45 1469.28C1043.34 1470.24 1043.02 1471.11 1042.47 1471.88 1041.93 1472.65 1041.22 1473.26 1040.34 1473.71 1039.46 1474.15 1038.47 1474.37 1037.36 1474.37 1036.03 1474.37 1034.87 1474.07 1033.88 1473.45 1032.88 1472.83 1032.11 1471.98 1031.55 1470.88 1031 1469.78 1030.72 1468.53 1030.72 1467.11 1030.72 1465.67 1031 1464.41 1031.56 1463.31 1032.12 1462.2 1032.89 1461.34 1033.88 1460.72 1034.88 1460.1 1036.03 1459.79 1037.36 1459.79ZM1022.4 1459.79C1023.73 1459.79 1024.89 1460.1 1025.88 1460.72 1026.88 1461.34 1027.66 1462.2 1028.22 1463.3 1028.77 1464.4 1029.05 1465.67 1029.05 1467.11 1029.05 1468.54 1028.77 1469.8 1028.22 1470.89 1027.66 1471.98 1026.88 1472.83 1025.88 1473.45 1024.89 1474.07 1023.73 1474.37 1022.4 1474.37 1021.07 1474.37 1019.91 1474.07 1018.91 1473.45 1017.91 1472.83 1017.13 1471.98 1016.57 1470.89 1016.01 1469.8 1015.74 1468.54 1015.74 1467.11 1015.74 1465.67 1016.01 1464.4 1016.57 1463.3 1017.13 1462.2 1017.91 1461.34 1018.91 1460.72 1019.91 1460.1 1021.07 1459.79 1022.4 1459.79ZM710.483 1459.79C711.809 1459.79 712.971 1460.1 713.967 1460.72 714.964 1461.34 715.741 1462.2 716.299 1463.3 716.857 1464.4 717.135 1465.67 717.135 1467.11 717.135 1468.54 716.857 1469.8 716.299 1470.89 715.741 1471.98 714.964 1472.83 713.967 1473.45 712.971 1474.07 711.809 1474.37 710.483 1474.37 709.157 1474.37 707.994 1474.07 706.993 1473.45 705.992 1472.83 705.213 1471.98 704.655 1470.89 704.097 1469.8 703.818 1468.54 703.818 1467.11 703.818 1465.67 704.097 1464.4 704.655 1463.3 705.213 1462.2 705.992 1461.34 706.993 1460.72 707.994 1460.1 709.157 1459.79 710.483 1459.79ZM667.495 1459.79C668.601 1459.79 669.591 1460.01 670.465 1460.45 671.339 1460.88 672.048 1461.48 672.592 1462.25 673.137 1463.01 673.466 1463.89 673.58 1464.88L670.814 1464.88C670.674 1464.09 670.322 1463.45 669.761 1462.95 669.198 1462.45 668.448 1462.2 667.508 1462.2 666.305 1462.2 665.365 1462.64 664.689 1463.53 664.013 1464.42 663.675 1465.61 663.675 1467.11 663.675 1468.59 664.013 1469.77 664.689 1470.65 665.365 1471.53 666.305 1471.97 667.508 1471.97 668.465 1471.97 669.203 1471.73 669.721 1471.24 670.239 1470.75 670.59 1470.09 670.775 1469.28L673.58 1469.28C673.475 1470.24 673.15 1471.11 672.606 1471.88 672.061 1472.65 671.35 1473.26 670.472 1473.71 669.594 1474.15 668.601 1474.37 667.495 1474.37 666.169 1474.37 665.008 1474.07 664.011 1473.45 663.014 1472.83 662.239 1471.98 661.686 1470.88 661.133 1469.78 660.856 1468.53 660.856 1467.11 660.856 1465.67 661.135 1464.41 661.693 1463.31 662.25 1462.2 663.025 1461.34 664.017 1460.72 665.01 1460.1 666.169 1459.79 667.495 1459.79ZM652.534 1459.79C653.86 1459.79 655.022 1460.1 656.018 1460.72 657.015 1461.34 657.792 1462.2 658.35 1463.3 658.908 1464.4 659.186 1465.67 659.186 1467.11 659.186 1468.54 658.908 1469.8 658.35 1470.89 657.792 1471.98 657.015 1472.83 656.018 1473.45 655.022 1474.07 653.86 1474.37 652.534 1474.37 651.208 1474.37 650.045 1474.07 649.044 1473.45 648.043 1472.83 647.263 1471.98 646.706 1470.89 646.148 1469.8 645.869 1468.54 645.869 1467.11 645.869 1465.67 646.148 1464.4 646.706 1463.3 647.263 1462.2 648.043 1461.34 649.044 1460.72 650.045 1460.1 651.208 1459.79 652.534 1459.79ZM1131.87 1457.06C1131.48 1458.33 1131.13 1459.44 1130.83 1460.36 1130.53 1461.28 1130.25 1462.15 1129.98 1462.96L1128.75 1466.45 1134.93 1466.45 1133.74 1462.96C1133.48 1462.15 1133.2 1461.28 1132.9 1460.36 1132.6 1459.44 1132.26 1458.33 1131.87 1457.06ZM748.019 1457.06C747.624 1458.33 747.277 1459.44 746.979 1460.36 746.68 1461.28 746.395 1462.15 746.123 1462.96L744.898 1466.45 751.075 1466.45 749.89 1462.96C749.626 1462.15 749.345 1461.28 749.047 1460.36 748.748 1459.44 748.406 1458.33 748.019 1457.06ZM1163.44 1456.91 1163.44 1464.11 1167.87 1464.11C1169.13 1464.11 1170.13 1463.79 1170.85 1463.14 1171.58 1462.49 1171.94 1461.61 1171.94 1460.51 1171.94 1459.4 1171.57 1458.52 1170.84 1457.88 1170.12 1457.23 1169.12 1456.91 1167.85 1456.91ZM1215.34 1456.31 1218.13 1456.31 1218.13 1460.11 1220.95 1460.11 1220.95 1462.41 1218.13 1462.41 1218.13 1470.37C1218.13 1470.89 1218.24 1471.25 1218.45 1471.45 1218.66 1471.66 1219.04 1471.76 1219.59 1471.76L1220.95 1471.76 1220.95 1474.06 1219.2 1474.06C1216.63 1474.06 1215.34 1472.95 1215.34 1470.73L1215.34 1462.41 1212.89 1462.41 1212.89 1460.11 1215.34 1460.11ZM690.61 1456.31 693.402 1456.31 693.402 1460.11 696.221 1460.11 696.221 1462.41 693.402 1462.41 693.402 1470.37C693.402 1470.89 693.508 1471.25 693.719 1471.45 693.929 1471.66 694.311 1471.76 694.864 1471.76L696.221 1471.76 696.221 1474.06 694.469 1474.06C691.896 1474.06 690.61 1472.95 690.61 1470.73L690.61 1462.41 688.16 1462.41 688.16 1460.11 690.61 1460.11ZM1199.26 1454.38 1202.04 1454.38 1202.04 1462.12C1203 1460.59 1204.38 1459.83 1206.19 1459.83 1207.15 1459.83 1208 1460.04 1208.76 1460.46 1209.52 1460.88 1210.12 1461.5 1210.56 1462.31 1211 1463.13 1211.22 1464.15 1211.22 1465.37L1211.22 1474.06 1208.44 1474.06 1208.44 1465.71C1208.44 1464.59 1208.17 1463.75 1207.64 1463.18 1207.1 1462.61 1206.35 1462.33 1205.4 1462.33 1204.45 1462.33 1203.65 1462.62 1203.01 1463.21 1202.36 1463.79 1202.04 1464.73 1202.04 1466.03L1202.04 1474.06 1199.26 1474.06ZM1160.52 1454.38 1167.99 1454.38C1170.08 1454.38 1171.75 1454.93 1172.98 1456.03 1174.21 1457.13 1174.82 1458.62 1174.82 1460.51 1174.82 1461.88 1174.47 1463.05 1173.77 1464.01 1173.07 1464.98 1172.1 1465.68 1170.88 1466.12L1175.13 1474.06 1171.83 1474.06 1167.92 1466.61C1167.88 1466.61 1167.83 1466.61 1167.79 1466.61L1163.44 1466.61 1163.44 1474.06 1160.52 1474.06ZM1148.3 1454.38 1151.08 1454.38 1151.08 1474.06 1148.3 1474.06ZM1142.31 1454.38 1145.09 1454.38 1145.09 1474.06 1142.31 1474.06ZM1130.09 1454.38 1133.62 1454.38 1140.7 1474.06 1137.52 1474.06 1135.79 1468.95 1127.87 1468.95 1126.08 1474.06 1122.97 1474.06ZM1070.02 1454.38 1073.06 1454.38 1075.94 1465.83C1076.15 1466.67 1076.35 1467.52 1076.54 1468.37 1076.72 1469.22 1076.9 1470.07 1077.08 1470.93 1077.25 1470.07 1077.44 1469.22 1077.63 1468.37 1077.82 1467.52 1078.03 1466.67 1078.25 1465.83L1081.22 1454.38 1084.43 1454.38 1087.38 1465.83C1087.8 1467.5 1088.19 1469.18 1088.55 1470.86 1088.72 1470.02 1088.91 1469.19 1089.09 1468.34 1089.28 1467.5 1089.48 1466.66 1089.68 1465.83L1092.57 1454.38 1095.62 1454.38 1090.27 1474.06 1086.93 1474.06 1083.7 1462.02C1083.54 1461.42 1083.39 1460.79 1083.25 1460.16 1083.1 1459.52 1082.95 1458.86 1082.81 1458.19 1082.66 1458.86 1082.52 1459.52 1082.38 1460.16 1082.24 1460.79 1082.09 1461.42 1081.92 1462.02L1078.72 1474.06 1075.34 1474.06ZM1059.38 1454.38 1062.16 1454.38 1062.16 1474.06 1059.38 1474.06ZM1001.66 1454.38 1004.58 1454.38 1004.58 1471.48 1013.87 1471.48 1013.87 1474.06 1001.66 1474.06ZM812.046 1454.38 814.825 1454.38 814.825 1474.06 812.099 1474.06 812.099 1471.93 812.072 1471.93C811.607 1472.74 810.999 1473.34 810.248 1473.74 809.497 1474.14 808.67 1474.33 807.765 1474.33 806.553 1474.33 805.495 1474.03 804.591 1473.42 803.686 1472.8 802.984 1471.95 802.483 1470.87 801.983 1469.78 801.732 1468.52 801.732 1467.08 801.732 1465.65 801.985 1464.39 802.49 1463.3 802.995 1462.21 803.699 1461.36 804.604 1460.75 805.508 1460.14 806.558 1459.83 807.752 1459.83 808.656 1459.83 809.482 1460.02 810.228 1460.4 810.975 1460.78 811.572 1461.36 812.02 1462.13L812.046 1462.13ZM746.241 1454.38 749.771 1454.38 756.845 1474.06 753.67 1474.06 751.931 1468.95 744.015 1468.95 742.224 1474.06 739.115 1474.06ZM631.791 1454.38 634.716 1454.38 634.716 1471.48 644.002 1471.48 644.002 1474.06 631.791 1474.06ZM1178.66 1454.28C1179.15 1454.28 1179.57 1454.45 1179.91 1454.78 1180.26 1455.11 1180.43 1455.52 1180.43 1456 1180.43 1456.48 1180.26 1456.88 1179.91 1457.21 1179.57 1457.54 1179.15 1457.71 1178.66 1457.71 1178.17 1457.71 1177.76 1457.54 1177.42 1457.21 1177.08 1456.88 1176.91 1456.48 1176.91 1456 1176.91 1455.52 1177.08 1455.11 1177.42 1454.78 1177.76 1454.45 1178.17 1454.28 1178.66 1454.28ZM699.892 1454.28C700.383 1454.28 700.801 1454.45 701.143 1454.78 701.486 1455.11 701.657 1455.52 701.657 1456 701.657 1456.48 701.486 1456.88 701.143 1457.21 700.801 1457.54 700.383 1457.71 699.892 1457.71 699.4 1457.71 698.985 1457.54 698.647 1457.21 698.309 1456.88 698.14 1456.48 698.14 1456 698.14 1455.52 698.309 1455.11 698.647 1454.78 698.985 1454.45 699.4 1454.28 699.892 1454.28ZM835.799 1435.14C835.615 1435.29 835.198 1435.43 834.548 1435.55 833.898 1435.66 833.204 1435.78 832.467 1435.88 831.703 1436 831.031 1436.21 830.451 1436.53 829.872 1436.85 829.582 1437.36 829.582 1438.06 829.582 1438.66 829.817 1439.13 830.287 1439.47 830.756 1439.81 831.395 1439.98 832.203 1439.98 833.432 1439.98 834.339 1439.66 834.923 1439.02 835.507 1438.38 835.799 1437.63 835.799 1436.78ZM673.941 1435.14C673.757 1435.29 673.34 1435.43 672.69 1435.55 672.04 1435.66 671.347 1435.78 670.609 1435.88 669.845 1436 669.173 1436.21 668.594 1436.53 668.014 1436.85 667.724 1437.36 667.724 1438.06 667.724 1438.66 667.959 1439.13 668.429 1439.47 668.899 1439.81 669.538 1439.98 670.345 1439.98 671.575 1439.98 672.482 1439.66 673.065 1439.02 673.649 1438.38 673.941 1437.63 673.941 1436.78ZM1161.23 1432.83 1169.93 1432.83 1169.93 1435.29 1161.23 1435.29ZM890.839 1430.16C889.654 1430.16 888.707 1430.61 888 1431.49 887.294 1432.38 886.94 1433.55 886.94 1435.02 886.94 1436.49 887.294 1437.66 888 1438.54 888.707 1439.43 889.654 1439.87 890.839 1439.87 891.963 1439.87 892.874 1439.46 893.572 1438.63 894.27 1437.8 894.62 1436.6 894.62 1435.02 894.62 1433.45 894.27 1432.24 893.572 1431.41 892.874 1430.58 891.963 1430.16 890.839 1430.16ZM871.276 1430.16C870.152 1430.16 869.241 1430.58 868.543 1431.41 867.845 1432.24 867.496 1433.45 867.496 1435.02 867.496 1436.6 867.845 1437.8 868.543 1438.63 869.241 1439.46 870.152 1439.87 871.276 1439.87 872.462 1439.87 873.408 1439.43 874.115 1438.54 874.822 1437.66 875.175 1436.49 875.175 1435.02 875.175 1433.55 874.822 1432.38 874.115 1431.49 873.408 1430.61 872.462 1430.16 871.276 1430.16ZM793.924 1430.16C792.739 1430.16 791.793 1430.61 791.086 1431.49 790.379 1432.38 790.025 1433.55 790.025 1435.02 790.025 1436.49 790.379 1437.66 791.086 1438.54 791.793 1439.43 792.739 1439.87 793.924 1439.87 795.048 1439.87 795.959 1439.46 796.657 1438.63 797.356 1437.8 797.705 1436.6 797.705 1435.02 797.705 1433.45 797.356 1432.24 796.657 1431.41 795.959 1430.58 795.048 1430.16 793.924 1430.16ZM856.197 1430.06C855.143 1430.06 854.285 1430.38 853.622 1431.03 852.959 1431.68 852.57 1432.55 852.456 1433.66L859.951 1433.66C859.837 1432.55 859.446 1431.68 858.779 1431.03 858.112 1430.38 857.251 1430.06 856.197 1430.06ZM809.238 1430.06C808.185 1430.06 807.326 1430.38 806.663 1431.03 806 1431.68 805.612 1432.55 805.498 1433.66L812.993 1433.66C812.878 1432.55 812.488 1431.68 811.82 1431.03 811.153 1430.38 810.292 1430.06 809.238 1430.06ZM766.276 1430.06C765.222 1430.06 764.364 1430.38 763.701 1431.03 763.038 1431.68 762.649 1432.55 762.535 1433.66L770.03 1433.66C769.916 1432.55 769.525 1431.68 768.858 1431.03 768.191 1430.38 767.33 1430.06 766.276 1430.06ZM712.324 1430.06C711.27 1430.06 710.411 1430.38 709.748 1431.03 709.086 1431.68 708.697 1432.55 708.583 1433.66L716.078 1433.66C715.964 1432.55 715.573 1431.68 714.905 1431.03 714.238 1430.38 713.377 1430.06 712.324 1430.06ZM656.373 1430.06C655.319 1430.06 654.461 1430.38 653.798 1431.03 653.135 1431.68 652.746 1432.55 652.632 1433.66L660.127 1433.66C660.013 1432.55 659.622 1431.68 658.955 1431.03 658.287 1430.38 657.427 1430.06 656.373 1430.06ZM899.08 1428.05 902.057 1428.05 904.836 1435.7C905.02 1436.22 905.201 1436.74 905.376 1437.26 905.552 1437.79 905.723 1438.31 905.89 1438.83 906.057 1438.31 906.23 1437.79 906.41 1437.26 906.59 1436.74 906.772 1436.22 906.957 1435.7L909.697 1428.05 912.634 1428.05 906.311 1444.44C905.53 1446.49 904.186 1447.52 902.281 1447.52L900.516 1447.52 900.516 1445.17 902.017 1445.17C902.456 1445.17 902.814 1445.04 903.091 1444.79 903.367 1444.54 903.611 1444.13 903.822 1443.56L904.454 1441.9ZM781.436 1428.05 784.215 1428.05 784.215 1442 781.436 1442ZM824.476 1427.88C824.686 1427.88 824.88 1427.89 825.055 1427.9 825.231 1427.92 825.376 1427.93 825.49 1427.94L825.49 1430.55C825.384 1430.52 825.196 1430.49 824.923 1430.46 824.651 1430.43 824.353 1430.41 824.028 1430.41 823.246 1430.41 822.577 1430.69 822.019 1431.23 821.461 1431.78 821.183 1432.62 821.183 1433.76L821.183 1442 818.403 1442 818.403 1428.05 821.064 1428.05 821.064 1430.31 821.117 1430.31C821.371 1429.54 821.773 1428.95 822.322 1428.52 822.871 1428.09 823.589 1427.88 824.476 1427.88ZM685.598 1427.88C685.808 1427.88 686.002 1427.89 686.177 1427.9 686.353 1427.92 686.498 1427.93 686.612 1427.94L686.612 1430.55C686.507 1430.52 686.318 1430.49 686.045 1430.46 685.773 1430.43 685.475 1430.41 685.15 1430.41 684.368 1430.41 683.699 1430.69 683.141 1431.23 682.583 1431.78 682.305 1432.62 682.305 1433.76L682.305 1442 679.525 1442 679.525 1428.05 682.186 1428.05 682.186 1430.31 682.239 1430.31C682.493 1429.54 682.895 1428.95 683.444 1428.52 683.993 1428.09 684.711 1427.88 685.598 1427.88ZM833.02 1427.77C834.732 1427.77 836.08 1428.19 837.064 1429.04 838.047 1429.89 838.539 1431.02 838.539 1432.43L838.539 1442 835.799 1442 835.799 1440.02 835.746 1440.02C835.457 1440.58 834.998 1441.09 834.37 1441.54 833.742 1441.99 832.831 1442.22 831.637 1442.22 830.249 1442.22 829.099 1441.87 828.186 1441.16 827.272 1440.45 826.816 1439.4 826.816 1438.01 826.816 1436.95 827.077 1436.14 827.6 1435.57 828.122 1435 828.803 1434.6 829.641 1434.35 830.48 1434.1 831.369 1433.92 832.308 1433.81 833.178 1433.7 833.867 1433.61 834.377 1433.54 834.886 1433.47 835.248 1433.37 835.463 1433.23 835.678 1433.09 835.786 1432.84 835.786 1432.5L835.786 1432.38C835.786 1431.7 835.54 1431.15 835.048 1430.71 834.557 1430.27 833.867 1430.06 832.98 1430.06 832.093 1430.06 831.369 1430.27 830.807 1430.7 830.245 1431.12 829.938 1431.66 829.885 1432.3L827.158 1432.3C827.22 1430.97 827.777 1429.89 828.831 1429.04 829.885 1428.19 831.281 1427.77 833.02 1427.77ZM671.162 1427.77C672.874 1427.77 674.222 1428.19 675.206 1429.04 676.189 1429.89 676.681 1431.02 676.681 1432.43L676.681 1442 673.941 1442 673.941 1440.02 673.889 1440.02C673.599 1440.58 673.14 1441.09 672.512 1441.54 671.884 1441.99 670.973 1442.22 669.779 1442.22 668.392 1442.22 667.241 1441.87 666.328 1441.16 665.415 1440.45 664.958 1439.4 664.958 1438.01 664.958 1436.95 665.219 1436.14 665.742 1435.57 666.264 1435 666.945 1434.6 667.784 1434.35 668.622 1434.1 669.511 1433.92 670.451 1433.81 671.32 1433.7 672.009 1433.61 672.519 1433.54 673.028 1433.47 673.39 1433.37 673.605 1433.23 673.821 1433.09 673.928 1432.84 673.928 1432.5L673.928 1432.38C673.928 1431.7 673.682 1431.15 673.191 1430.71 672.699 1430.27 672.009 1430.06 671.123 1430.06 670.236 1430.06 669.511 1430.27 668.949 1430.7 668.387 1431.12 668.08 1431.66 668.027 1432.3L665.301 1432.3C665.362 1430.97 665.92 1429.89 666.973 1429.04 668.027 1428.19 669.423 1427.77 671.162 1427.77ZM856.171 1427.73C857.488 1427.73 858.632 1428.04 859.602 1428.66 860.572 1429.27 861.326 1430.13 861.861 1431.23 862.397 1432.32 862.665 1433.59 862.665 1435.02L862.665 1435.78 852.43 1435.78C852.483 1437.04 852.845 1438.05 853.517 1438.83 854.188 1439.6 855.135 1439.99 856.355 1439.99 857.268 1439.99 858.019 1439.78 858.608 1439.37 859.196 1438.95 859.587 1438.42 859.78 1437.76L862.454 1437.76C862.287 1438.66 861.916 1439.45 861.341 1440.13 860.766 1440.82 860.046 1441.36 859.181 1441.74 858.316 1442.12 857.361 1442.31 856.316 1442.31 854.937 1442.31 853.754 1442 852.766 1441.38 851.778 1440.75 851.018 1439.89 850.487 1438.79 849.956 1437.7 849.69 1436.45 849.69 1435.05 849.69 1433.63 849.967 1432.37 850.52 1431.27 851.073 1430.17 851.837 1429.31 852.812 1428.68 853.787 1428.05 854.906 1427.73 856.171 1427.73ZM809.212 1427.73C810.529 1427.73 811.673 1428.04 812.643 1428.66 813.614 1429.27 814.367 1430.13 814.902 1431.23 815.438 1432.32 815.706 1433.59 815.706 1435.02L815.706 1435.78 805.471 1435.78C805.524 1437.04 805.886 1438.05 806.558 1438.83 807.23 1439.6 808.176 1439.99 809.397 1439.99 810.31 1439.99 811.061 1439.78 811.649 1439.37 812.237 1438.95 812.628 1438.42 812.821 1437.76L815.495 1437.76C815.328 1438.66 814.957 1439.45 814.382 1440.13 813.807 1440.82 813.087 1441.36 812.222 1441.74 811.357 1442.12 810.402 1442.31 809.357 1442.31 807.978 1442.31 806.795 1442 805.807 1441.38 804.819 1440.75 804.06 1439.89 803.528 1438.79 802.997 1437.7 802.732 1436.45 802.732 1435.05 802.732 1433.63 803.008 1432.37 803.561 1431.27 804.115 1430.17 804.879 1429.31 805.853 1428.68 806.828 1428.05 807.948 1427.73 809.212 1427.73ZM766.25 1427.73C767.567 1427.73 768.711 1428.04 769.681 1428.66 770.651 1429.27 771.405 1430.13 771.94 1431.23 772.476 1432.32 772.744 1433.59 772.744 1435.02L772.744 1435.78 762.509 1435.78C762.562 1437.04 762.924 1438.05 763.596 1438.83 764.267 1439.6 765.214 1439.99 766.434 1439.99 767.348 1439.99 768.098 1439.78 768.687 1439.37 769.275 1438.95 769.666 1438.42 769.859 1437.76L772.533 1437.76C772.366 1438.66 771.995 1439.45 771.42 1440.13 770.845 1440.82 770.125 1441.36 769.26 1441.74 768.395 1442.12 767.44 1442.31 766.395 1442.31 765.016 1442.31 763.833 1442 762.845 1441.38 761.857 1440.75 761.097 1439.89 760.566 1438.79 760.035 1437.7 759.769 1436.45 759.769 1435.05 759.769 1433.63 760.046 1432.37 760.599 1431.27 761.152 1430.17 761.916 1429.31 762.891 1428.68 763.866 1428.05 764.985 1427.73 766.25 1427.73ZM712.297 1427.73C713.615 1427.73 714.758 1428.04 715.729 1428.66 716.699 1429.27 717.452 1430.13 717.988 1431.23 718.523 1432.32 718.791 1433.59 718.791 1435.02L718.791 1435.78 708.556 1435.78C708.609 1437.04 708.971 1438.05 709.643 1438.83 710.315 1439.6 711.261 1439.99 712.482 1439.99 713.395 1439.99 714.146 1439.78 714.734 1439.37 715.323 1438.95 715.713 1438.42 715.906 1437.76L718.58 1437.76C718.414 1438.66 718.042 1439.45 717.467 1440.13 716.892 1440.82 716.172 1441.36 715.307 1441.74 714.442 1442.12 713.487 1442.31 712.442 1442.31 711.064 1442.31 709.88 1442 708.892 1441.38 707.904 1440.75 707.145 1439.89 706.614 1438.79 706.082 1437.7 705.817 1436.45 705.817 1435.05 705.817 1433.63 706.093 1432.37 706.647 1431.27 707.2 1430.17 707.964 1429.31 708.938 1428.68 709.913 1428.05 711.033 1427.73 712.297 1427.73ZM656.346 1427.73C657.664 1427.73 658.807 1428.04 659.778 1428.66 660.748 1429.27 661.501 1430.13 662.037 1431.23 662.573 1432.32 662.84 1433.59 662.84 1435.02L662.84 1435.78 652.606 1435.78C652.658 1437.04 653.021 1438.05 653.692 1438.83 654.364 1439.6 655.31 1439.99 656.531 1439.99 657.444 1439.99 658.195 1439.78 658.783 1439.37 659.372 1438.95 659.762 1438.42 659.956 1437.76L662.63 1437.76C662.463 1438.66 662.092 1439.45 661.517 1440.13 660.941 1440.82 660.221 1441.36 659.356 1441.74 658.491 1442.12 657.536 1442.31 656.491 1442.31 655.113 1442.31 653.929 1442 652.942 1441.38 651.954 1440.75 651.194 1439.89 650.663 1438.79 650.131 1437.7 649.866 1436.45 649.866 1435.05 649.866 1433.63 650.143 1432.37 650.696 1431.27 651.249 1430.17 652.013 1429.31 652.988 1428.68 653.962 1428.05 655.082 1427.73 656.346 1427.73ZM1077.86 1426.54C1078.76 1426.54 1079.58 1426.74 1080.34 1427.13 1081.1 1427.52 1081.73 1428.05 1082.23 1428.72 1082.72 1429.39 1083.03 1430.15 1083.14 1430.98L1080.68 1430.98C1080.56 1430.38 1080.22 1429.89 1079.68 1429.5 1079.14 1429.11 1078.54 1428.92 1077.86 1428.92 1077.26 1428.92 1076.72 1429.07 1076.23 1429.36 1075.74 1429.65 1075.34 1430.04 1075.05 1430.53 1074.76 1431.03 1074.62 1431.57 1074.62 1432.17 1074.62 1432.76 1074.76 1433.3 1075.05 1433.79 1075.34 1434.28 1075.74 1434.67 1076.23 1434.96 1076.72 1435.25 1077.26 1435.39 1077.86 1435.39 1078.54 1435.39 1079.11 1435.2 1079.59 1434.82 1080.07 1434.44 1080.37 1433.94 1080.49 1433.33L1082.97 1433.33C1082.87 1434.18 1082.58 1434.94 1082.1 1435.61 1081.63 1436.28 1081.03 1436.82 1080.3 1437.2 1079.57 1437.59 1078.76 1437.78 1077.86 1437.78 1076.82 1437.78 1075.88 1437.53 1075.03 1437.02 1074.19 1436.52 1073.51 1435.84 1073.01 1434.99 1072.5 1434.14 1072.25 1433.2 1072.25 1432.17 1072.25 1431.13 1072.5 1430.19 1073.01 1429.34 1073.51 1428.49 1074.19 1427.81 1075.03 1427.3 1075.88 1426.8 1076.82 1426.54 1077.86 1426.54ZM1153.37 1425.39 1146.55 1434.93 1146.55 1434.96 1153.4 1434.96 1153.4 1425.39ZM744.619 1424.87 744.619 1439.45 747.859 1439.45C750.151 1439.45 751.848 1438.8 752.95 1437.51 754.052 1436.21 754.603 1434.42 754.603 1432.13 754.603 1429.85 754.059 1428.07 752.97 1426.79 751.881 1425.51 750.243 1424.87 748.057 1424.87ZM1077.75 1424.52C1076.7 1424.52 1075.72 1424.72 1074.8 1425.12 1073.88 1425.51 1073.07 1426.06 1072.37 1426.76 1071.68 1427.46 1071.13 1428.27 1070.73 1429.19 1070.34 1430.11 1070.14 1431.1 1070.14 1432.16 1070.14 1433.21 1070.34 1434.2 1070.73 1435.12 1071.13 1436.04 1071.68 1436.85 1072.37 1437.55 1073.07 1438.25 1073.88 1438.8 1074.8 1439.2 1075.72 1439.59 1076.7 1439.79 1077.75 1439.79 1078.8 1439.79 1079.78 1439.59 1080.71 1439.2 1081.63 1438.8 1082.44 1438.25 1083.14 1437.55 1083.83 1436.85 1084.38 1436.04 1084.78 1435.12 1085.17 1434.2 1085.37 1433.21 1085.37 1432.16 1085.37 1431.1 1085.17 1430.11 1084.78 1429.19 1084.38 1428.27 1083.83 1427.46 1083.14 1426.76 1082.44 1426.06 1081.63 1425.51 1080.71 1425.12 1079.78 1424.72 1078.8 1424.52 1077.75 1424.52ZM1195.15 1424.5C1193.71 1424.5 1192.59 1425.18 1191.77 1426.54 1190.95 1427.91 1190.53 1429.78 1190.53 1432.17 1190.53 1434.55 1190.95 1436.42 1191.77 1437.78 1192.59 1439.14 1193.71 1439.82 1195.15 1439.82 1196.57 1439.82 1197.69 1439.14 1198.51 1437.78 1199.33 1436.42 1199.74 1434.55 1199.74 1432.17 1199.74 1429.78 1199.33 1427.91 1198.51 1426.54 1197.69 1425.18 1196.57 1424.5 1195.15 1424.5ZM1119.21 1424.5C1117.78 1424.5 1116.65 1425.18 1115.83 1426.54 1115.01 1427.91 1114.6 1429.78 1114.6 1432.17 1114.6 1434.55 1115.01 1436.42 1115.83 1437.78 1116.65 1439.14 1117.78 1439.82 1119.21 1439.82 1120.63 1439.82 1121.76 1439.14 1122.58 1437.78 1123.4 1436.42 1123.81 1434.55 1123.81 1432.17 1123.81 1429.78 1123.4 1427.91 1122.58 1426.54 1121.76 1425.18 1120.63 1424.5 1119.21 1424.5ZM842.476 1424.25 845.269 1424.25 845.269 1428.05 848.088 1428.05 848.088 1430.35 845.269 1430.35 845.269 1438.31C845.269 1438.83 845.374 1439.19 845.585 1439.4 845.796 1439.6 846.178 1439.7 846.731 1439.7L848.088 1439.7 848.088 1442 846.336 1442C843.763 1442 842.476 1440.89 842.476 1438.67L842.476 1430.35 840.026 1430.35 840.026 1428.05 842.476 1428.05ZM728.576 1424.25 731.369 1424.25 731.369 1428.05 734.188 1428.05 734.188 1430.35 731.369 1430.35 731.369 1438.31C731.369 1438.83 731.474 1439.19 731.685 1439.4 731.896 1439.6 732.278 1439.7 732.831 1439.7L734.188 1439.7 734.188 1442 732.436 1442C729.863 1442 728.576 1440.89 728.576 1438.67L728.576 1430.35 726.126 1430.35 726.126 1428.05 728.576 1428.05ZM689.611 1424.25 692.403 1424.25 692.403 1428.05 695.222 1428.05 695.222 1430.35 692.403 1430.35 692.403 1438.31C692.403 1438.83 692.509 1439.19 692.719 1439.4 692.93 1439.6 693.312 1439.7 693.865 1439.7L695.222 1439.7 695.222 1442 693.47 1442C690.897 1442 689.611 1440.89 689.611 1438.67L689.611 1430.35 687.161 1430.35 687.161 1428.05 689.611 1428.05ZM1220.52 1422.32 1232.25 1422.32 1232.25 1424.83 1223.14 1424.83 1222.7 1430.62 1222.73 1430.62C1223.88 1429.4 1225.35 1428.79 1227.14 1428.79 1228.34 1428.79 1229.4 1429.08 1230.34 1429.65 1231.27 1430.23 1232.01 1431.02 1232.55 1432.03 1233.09 1433.04 1233.36 1434.19 1233.36 1435.47 1233.36 1436.8 1233.08 1437.98 1232.51 1439 1231.94 1440.02 1231.15 1440.82 1230.13 1441.4 1229.11 1441.98 1227.92 1442.27 1226.56 1442.27 1225.26 1442.27 1224.09 1442.01 1223.07 1441.49 1222.04 1440.96 1221.23 1440.24 1220.62 1439.32 1220.01 1438.4 1219.67 1437.35 1219.62 1436.17L1222.48 1436.17C1222.57 1437.23 1222.99 1438.1 1223.75 1438.78 1224.51 1439.46 1225.45 1439.8 1226.58 1439.8 1227.76 1439.8 1228.72 1439.4 1229.45 1438.6 1230.19 1437.8 1230.55 1436.78 1230.55 1435.53 1230.55 1434.28 1230.2 1433.26 1229.49 1432.45 1228.78 1431.65 1227.85 1431.25 1226.71 1431.25 1225.71 1431.25 1224.85 1431.45 1224.13 1431.86 1223.41 1432.27 1222.91 1432.86 1222.63 1433.64L1219.87 1433.64ZM1152.59 1422.32 1156.18 1422.32 1156.18 1434.96 1159.03 1434.96 1159.03 1437.41 1156.18 1437.41 1156.18 1442 1153.4 1442 1153.4 1437.41 1143.45 1437.41 1143.45 1435.06ZM884.345 1422.32 887.125 1422.32 887.125 1430.07 887.151 1430.07C887.599 1429.3 888.196 1428.72 888.942 1428.34 889.689 1427.96 890.514 1427.77 891.419 1427.77 892.613 1427.77 893.662 1428.08 894.567 1428.69 895.471 1429.3 896.176 1430.15 896.681 1431.24 897.186 1432.33 897.438 1433.59 897.438 1435.02 897.438 1436.46 897.188 1437.72 896.688 1438.81 896.187 1439.9 895.484 1440.74 894.58 1441.36 893.675 1441.97 892.617 1442.27 891.406 1442.27 890.501 1442.27 889.673 1442.08 888.923 1441.68 888.172 1441.28 887.564 1440.68 887.098 1439.87L887.072 1439.87 887.072 1442 884.345 1442ZM874.991 1422.32 877.77 1422.32 877.77 1442 875.043 1442 875.043 1439.87 875.017 1439.87C874.552 1440.68 873.944 1441.28 873.193 1441.68 872.442 1442.08 871.614 1442.27 870.71 1442.27 869.498 1442.27 868.44 1441.97 867.535 1441.36 866.631 1440.74 865.928 1439.9 865.428 1438.81 864.927 1437.72 864.677 1436.46 864.677 1435.02 864.677 1433.59 864.929 1432.33 865.434 1431.24 865.939 1430.15 866.644 1429.3 867.549 1428.69 868.453 1428.08 869.502 1427.77 870.697 1427.77 871.601 1427.77 872.427 1427.96 873.173 1428.34 873.919 1428.72 874.516 1429.3 874.964 1430.07L874.991 1430.07ZM787.43 1422.32 790.21 1422.32 790.21 1430.07 790.236 1430.07C790.684 1429.3 791.281 1428.72 792.028 1428.34 792.774 1427.96 793.599 1427.77 794.504 1427.77 795.698 1427.77 796.747 1428.08 797.652 1428.69 798.556 1429.3 799.261 1430.15 799.766 1431.24 800.271 1432.33 800.523 1433.59 800.523 1435.02 800.523 1436.46 800.273 1437.72 799.773 1438.81 799.272 1439.9 798.57 1440.74 797.665 1441.36 796.761 1441.97 795.703 1442.27 794.491 1442.27 793.586 1442.27 792.759 1442.08 792.008 1441.68 791.257 1441.28 790.649 1440.68 790.183 1439.87L790.157 1439.87 790.157 1442 787.43 1442ZM775.441 1422.32 778.22 1422.32 778.22 1442 775.441 1442ZM741.695 1422.32 748.241 1422.32C750.164 1422.32 751.822 1422.71 753.214 1423.51 754.606 1424.3 755.675 1425.43 756.421 1426.89 757.167 1428.36 757.541 1430.11 757.541 1432.13 757.541 1434.16 757.165 1435.92 756.415 1437.39 755.664 1438.87 754.579 1440.01 753.161 1440.8 751.743 1441.6 750.037 1442 748.044 1442L741.695 1442ZM721.488 1422.32 724.268 1422.32 724.268 1442 721.488 1442ZM702.594 1422.32 704.254 1422.32 704.254 1424.62 703.029 1424.62C702.44 1424.62 702.025 1424.74 701.784 1424.99 701.542 1425.23 701.422 1425.65 701.422 1426.24L701.422 1428.05 704.254 1428.05 704.254 1430.35 701.422 1430.35 701.422 1442 698.642 1442 698.642 1430.35 696.153 1430.35 696.153 1428.05 698.642 1428.05 698.642 1425.79C698.642 1424.69 698.987 1423.84 699.676 1423.23 700.366 1422.62 701.338 1422.32 702.594 1422.32ZM631.791 1422.32 634.716 1422.32 634.716 1430.65 644.476 1430.65 644.476 1422.32 647.4 1422.32 647.4 1442 644.476 1442 644.476 1433.21 634.716 1433.21 634.716 1442 631.791 1442ZM782.819 1422.22C783.311 1422.22 783.728 1422.39 784.07 1422.72 784.413 1423.05 784.584 1423.46 784.584 1423.94 784.584 1424.42 784.413 1424.82 784.07 1425.15 783.728 1425.48 783.311 1425.65 782.819 1425.65 782.327 1425.65 781.912 1425.48 781.574 1425.15 781.236 1424.82 781.067 1424.42 781.067 1423.94 781.067 1423.46 781.236 1423.05 781.574 1422.72 781.912 1422.39 782.327 1422.22 782.819 1422.22ZM1077.75 1422.01C1079.15 1422.01 1080.46 1422.28 1081.68 1422.8 1082.9 1423.32 1083.98 1424.05 1084.91 1424.99 1085.84 1425.92 1086.56 1427 1087.09 1428.22 1087.61 1429.45 1087.87 1430.76 1087.87 1432.16 1087.87 1433.56 1087.61 1434.87 1087.09 1436.09 1086.56 1437.32 1085.84 1438.4 1084.91 1439.33 1083.98 1440.26 1082.9 1440.99 1081.68 1441.52 1080.46 1442.04 1079.15 1442.3 1077.75 1442.3 1076.36 1442.3 1075.05 1442.04 1073.83 1441.52 1072.61 1440.99 1071.53 1440.26 1070.6 1439.33 1069.67 1438.4 1068.95 1437.32 1068.42 1436.09 1067.9 1434.87 1067.64 1433.56 1067.64 1432.16 1067.64 1430.76 1067.9 1429.45 1068.42 1428.22 1068.95 1427 1069.67 1425.92 1070.6 1424.99 1071.53 1424.05 1072.61 1423.32 1073.83 1422.8 1075.05 1422.28 1076.36 1422.01 1077.75 1422.01ZM1211.47 1422C1212.74 1422 1213.86 1422.25 1214.83 1422.76 1215.81 1423.27 1216.57 1423.97 1217.13 1424.87 1217.69 1425.78 1217.97 1426.82 1217.97 1428.01 1217.97 1429.32 1217.61 1430.5 1216.89 1431.56 1216.17 1432.61 1215.1 1433.77 1213.68 1435.04L1208.76 1439.47 1208.76 1439.5 1218.07 1439.5 1218.07 1442 1204.78 1442 1204.78 1439.67 1211.84 1433.36C1212.59 1432.68 1213.21 1432.07 1213.71 1431.53 1214.21 1430.99 1214.59 1430.45 1214.84 1429.93 1215.09 1429.4 1215.21 1428.8 1215.21 1428.14 1215.21 1427.02 1214.88 1426.14 1214.21 1425.48 1213.54 1424.82 1212.64 1424.5 1211.48 1424.5 1210.24 1424.5 1209.27 1424.88 1208.57 1425.66 1207.88 1426.43 1207.53 1427.49 1207.53 1428.82L1204.81 1428.82C1204.81 1427.47 1205.08 1426.28 1205.63 1425.26 1206.18 1424.24 1206.95 1423.44 1207.95 1422.87 1208.94 1422.29 1210.12 1422 1211.47 1422ZM1195.15 1422C1196.66 1422 1197.96 1422.41 1199.06 1423.24 1200.17 1424.07 1201.02 1425.24 1201.61 1426.77 1202.21 1428.29 1202.51 1430.09 1202.51 1432.17 1202.51 1434.24 1202.21 1436.03 1201.61 1437.55 1201.02 1439.07 1200.17 1440.24 1199.06 1441.07 1197.96 1441.9 1196.66 1442.31 1195.15 1442.31 1193.63 1442.31 1192.32 1441.9 1191.21 1441.07 1190.11 1440.24 1189.26 1439.07 1188.66 1437.55 1188.07 1436.03 1187.77 1434.24 1187.77 1432.17 1187.77 1430.09 1188.07 1428.29 1188.66 1426.77 1189.26 1425.24 1190.11 1424.07 1191.21 1423.24 1192.32 1422.41 1193.63 1422 1195.15 1422ZM1179.5 1422C1180.76 1422 1181.88 1422.25 1182.86 1422.76 1183.83 1423.27 1184.6 1423.97 1185.16 1424.87 1185.71 1425.78 1185.99 1426.82 1185.99 1428.01 1185.99 1429.32 1185.63 1430.5 1184.91 1431.56 1184.19 1432.61 1183.13 1433.77 1181.71 1435.04L1176.79 1439.47 1176.79 1439.5 1186.1 1439.5 1186.1 1442 1172.81 1442 1172.81 1439.67 1179.87 1433.36C1180.61 1432.68 1181.24 1432.07 1181.74 1431.53 1182.24 1430.99 1182.61 1430.45 1182.86 1429.93 1183.12 1429.4 1183.24 1428.8 1183.24 1428.14 1183.24 1427.02 1182.91 1426.14 1182.24 1425.48 1181.57 1424.82 1180.66 1424.5 1179.51 1424.5 1178.27 1424.5 1177.3 1424.88 1176.6 1425.66 1175.91 1426.43 1175.56 1427.49 1175.56 1428.82L1172.83 1428.82C1172.83 1427.47 1173.11 1426.28 1173.66 1425.26 1174.21 1424.24 1174.98 1423.44 1175.98 1422.87 1176.97 1422.29 1178.15 1422 1179.5 1422ZM1135.54 1422C1136.8 1422 1137.92 1422.25 1138.9 1422.76 1139.87 1423.27 1140.64 1423.97 1141.2 1424.87 1141.75 1425.78 1142.03 1426.82 1142.03 1428.01 1142.03 1429.32 1141.67 1430.5 1140.95 1431.56 1140.23 1432.61 1139.16 1433.77 1137.75 1435.04L1132.82 1439.47 1132.82 1439.5 1142.14 1439.5 1142.14 1442 1128.85 1442 1128.85 1439.67 1135.91 1433.36C1136.65 1432.68 1137.28 1432.07 1137.78 1431.53 1138.28 1430.99 1138.65 1430.45 1138.9 1429.93 1139.15 1429.4 1139.28 1428.8 1139.28 1428.14 1139.28 1427.02 1138.95 1426.14 1138.28 1425.48 1137.61 1424.82 1136.7 1424.5 1135.55 1424.5 1134.3 1424.5 1133.33 1424.88 1132.64 1425.66 1131.95 1426.43 1131.6 1427.49 1131.6 1428.82L1128.87 1428.82C1128.87 1427.47 1129.15 1426.28 1129.7 1425.26 1130.25 1424.24 1131.02 1423.44 1132.01 1422.87 1133.01 1422.29 1134.19 1422 1135.54 1422ZM1119.21 1422C1120.72 1422 1122.03 1422.41 1123.13 1423.24 1124.23 1424.07 1125.08 1425.24 1125.68 1426.77 1126.28 1428.29 1126.57 1430.09 1126.57 1432.17 1126.57 1434.24 1126.28 1436.03 1125.68 1437.55 1125.08 1439.07 1124.23 1440.24 1123.13 1441.07 1122.03 1441.9 1120.72 1442.31 1119.21 1442.31 1117.69 1442.31 1116.38 1441.9 1115.28 1441.07 1114.18 1440.24 1113.33 1439.07 1112.73 1437.55 1112.13 1436.03 1111.84 1434.24 1111.84 1432.17 1111.84 1430.09 1112.13 1428.29 1112.73 1426.77 1113.33 1425.24 1114.18 1424.07 1115.28 1423.24 1116.38 1422.41 1117.69 1422 1119.21 1422ZM1103.57 1422C1104.83 1422 1105.95 1422.25 1106.93 1422.76 1107.9 1423.27 1108.67 1423.97 1109.22 1424.87 1109.78 1425.78 1110.06 1426.82 1110.06 1428.01 1110.06 1429.32 1109.7 1430.5 1108.98 1431.56 1108.26 1432.61 1107.19 1433.77 1105.78 1435.04L1100.85 1439.47 1100.85 1439.5 1110.17 1439.5 1110.17 1442 1096.88 1442 1096.88 1439.67 1103.94 1433.36C1104.68 1432.68 1105.31 1432.07 1105.81 1431.53 1106.31 1430.99 1106.68 1430.45 1106.93 1429.93 1107.18 1429.4 1107.31 1428.8 1107.31 1428.14 1107.31 1427.02 1106.97 1426.14 1106.31 1425.48 1105.64 1424.82 1104.73 1424.5 1103.58 1424.5 1102.33 1424.5 1101.36 1424.88 1100.67 1425.66 1099.97 1426.43 1099.63 1427.49 1099.63 1428.82L1096.9 1428.82C1096.9 1427.47 1097.18 1426.28 1097.72 1425.26 1098.27 1424.24 1099.05 1423.44 1100.04 1422.87 1101.04 1422.29 1102.21 1422 1103.57 1422Z" fill="#FFFFFF" fill-rule="evenodd"/></g></svg>