<svg width="606" height="153" xmlns="http://www.w3.org/2000/svg" xmlns:xlink="http://www.w3.org/1999/xlink" overflow="hidden"><defs><clipPath id="clip0"><rect x="2825" y="1202" width="142" height="25"/></clipPath><clipPath id="clip1"><rect x="2825" y="1202" width="142" height="25"/></clipPath><clipPath id="clip2"><rect x="2825" y="1202" width="142" height="25"/></clipPath></defs><g transform="translate(-2418 -1137)"><rect x="2419" y="1138" width="605" height="151" fill="#FFFFFF" fill-opacity="0"/><g clip-path="url(#clip0)"><g clip-path="url(#clip1)"><g clip-path="url(#clip2)"><path d="M70.2551 0.230412 68.4144 15.1719 65.5995 15.1719 67.4399 0.230412 56.7209 0.230412 55.5299 10.5162C55.4216 11.9237 55.0969 14.5224 55.6381 16.2546 56.9376 20.2608 60.1858 21.6683 60.1858 21.6683L60.6188 21.8848C62.0263 22.6428 63.6505 22.8593 65.058 22.8593L66.0325 22.8593C68.7392 22.8593 70.9046 22.318 72.6371 21.3436L72.7454 21.3436C73.2868 21.0186 76.6433 19.2863 78.592 15.2802 79.35 13.7644 79.4582 13.4397 79.7832 11.0575L81.0825 0.33866" fill="#B2FF33" transform="matrix(1.00357 0 0 1 2825 1202)"/><path d="M37.4485 21.8848 37.4485 21.8848 38.4229 14.3057 41.6711 14.3057 41.6711 14.1974 40.6966 21.8848 51.199 21.8848 53.9059 0.230412 43.4033 0.230412 42.4289 7.70103 39.1807 7.70103 40.0469 0.230412 29.5446 0.230412 26.9459 21.8848 37.4485 21.8848" fill="#B2FF33" transform="matrix(1.00357 0 0 1 2825 1202)"/><path d="M133.053 16.1464 120.386 16.1464 120.819 13.2229 133.487 13.2229 134.136 7.70103 121.577 7.70103 121.901 5.10258 134.461 5.10258 135.111 0.122165 111.832 0.122165 109.666 16.3629 101.763 12.357C101.763 12.357 103.928 11.7072 105.119 10.841 106.418 9.97474 106.851 9.10876 107.176 8.67552 107.609 7.91778 108.151 7.05155 108.151 5.42732 108.259 3.6951 107.285 2.50412 106.851 1.96263 106.418 1.42139 105.227 0.122165 103.17 0.230412L84.0057 0.230412 83.3562 5.10258 98.5144 5.10258 98.1894 7.70103 83.1397 7.70103 81.4072 21.8848 90.6103 21.8848 91.4765 14.7389 108.692 25.133 109.125 21.8848 132.404 21.8848 133.053 16.1464" fill="#B2FF33" transform="matrix(1.00357 0 0 1 2825 1202)"/><path d="M8.32294 0.230412C6.91546 0.230412 5.72448 0.771649 4.64175 1.52964 1.5018 4.01985 0.743814 9.43351 5.29124 11.7072 5.94098 12.032 15.9021 16.0381 15.9021 16.0381L0.960567 16.0381 0.202577 21.8848 18.5008 21.8848C21.3157 21.8848 23.1564 20.8021 24.5639 18.9616 24.9972 18.3119 25.3219 17.6621 25.5384 17.0126 26.1881 14.9554 26.0796 12.6817 24.6722 11.4907 24.3474 11.2742 24.1309 11.0575 23.8059 10.841 23.5894 10.7327 23.2647 10.5162 23.0482 10.408 20.666 9.32526 10.4884 4.99433 10.4884 4.99433L26.1881 4.99433 26.8376 0.121907 8.32294 0.230412" fill="#B2FF33" transform="matrix(1.00357 0 0 1 2825 1202)"/></g></g></g><path d="M2728.22 1225.63 2728.22 1226.97 2735.47 1226.97 2735.47 1225.63ZM2698.75 1225.4 2698.75 1227.07 2705.43 1227.07 2705.43 1225.4ZM2758.75 1224.15 2758.75 1226.89 2765.25 1226.89 2765.25 1224.15ZM2728.22 1223.29 2728.22 1224.55 2735.47 1224.55 2735.47 1223.29ZM2757.34 1222.92 2766.72 1222.92 2766.72 1228.85 2765.25 1228.85 2765.25 1228.17 2758.75 1228.17 2758.75 1228.91 2757.34 1228.91ZM2728.22 1220.98 2728.22 1222.21 2735.47 1222.21 2735.47 1220.98ZM2746.39 1220.74 2746.39 1221.94 2749.83 1221.94 2749.83 1220.74ZM2698.75 1220.25 2698.75 1221.79 2704.93 1221.79 2704.93 1220.25ZM2697.32 1219.05 2706.33 1219.05 2706.33 1222.98 2698.75 1222.98 2698.75 1224.18 2706.85 1224.18 2706.85 1228.84 2705.43 1228.84 2705.43 1228.29 2698.75 1228.29 2698.75 1228.91 2697.32 1228.91ZM2745.1 1218.4 2746.39 1218.4 2746.39 1219.61 2749.83 1219.61 2749.83 1218.4 2751.18 1218.4 2751.18 1219.61 2753.54 1219.61 2753.54 1220.74 2751.18 1220.74 2751.18 1223.04 2748.82 1223.04 2748.82 1224.03 2752.77 1224.03 2752.77 1226.92C2752.78 1227.24 2752.74 1227.49 2752.65 1227.68 2752.57 1227.87 2752.42 1228.01 2752.19 1228.09 2751.96 1228.19 2751.67 1228.25 2751.31 1228.27 2750.95 1228.29 2750.51 1228.29 2750.01 1228.29 2749.98 1228.1 2749.93 1227.9 2749.85 1227.69 2749.78 1227.47 2749.7 1227.28 2749.62 1227.1 2749.97 1227.12 2750.28 1227.13 2750.57 1227.13 2750.86 1227.13 2751.05 1227.13 2751.15 1227.13 2751.25 1227.13 2751.31 1227.12 2751.35 1227.08 2751.39 1227.05 2751.41 1226.99 2751.41 1226.91L2751.41 1225.22 2748.82 1225.22 2748.82 1228.95 2747.46 1228.95 2747.46 1225.22 2745.01 1225.22 2745.01 1228.26 2743.66 1228.26 2743.66 1224.03 2747.46 1224.03 2747.46 1223.04 2745.1 1223.04 2745.1 1220.74 2742.98 1220.74 2742.98 1219.61 2745.1 1219.61ZM2790.42 1218.07 2791.74 1218.26C2791.69 1219.06 2791.58 1219.87 2791.41 1220.7 2791.24 1221.53 2791.01 1222.25 2790.73 1222.88L2789.38 1222.36C2789.65 1221.82 2789.87 1221.16 2790.04 1220.37 2790.22 1219.59 2790.34 1218.82 2790.42 1218.07ZM2797.27 1218.03 2798.77 1218.43C2798.52 1219.18 2798.25 1219.93 2797.97 1220.68 2797.68 1221.43 2797.4 1222.09 2797.13 1222.65L2795.87 1222.27C2796.13 1221.68 2796.39 1221 2796.65 1220.22 2796.9 1219.44 2797.11 1218.71 2797.27 1218.03ZM2762.01 1217.55C2761.57 1218.03 2761.1 1218.48 2760.6 1218.9 2760.1 1219.33 2759.58 1219.73 2759.03 1220.1L2765.21 1220.1C2764.66 1219.76 2764.12 1219.37 2763.6 1218.95 2763.07 1218.54 2762.54 1218.07 2762.01 1217.55ZM2811.56 1216.16 2812.82 1216.51C2812.59 1217.09 2812.32 1217.68 2812.03 1218.29 2811.73 1218.89 2811.46 1219.41 2811.2 1219.85 2811.05 1219.76 2810.85 1219.67 2810.62 1219.56 2810.39 1219.46 2810.19 1219.37 2810.01 1219.3 2810.29 1218.87 2810.57 1218.37 2810.84 1217.81 2811.12 1217.25 2811.36 1216.7 2811.56 1216.16ZM2805.51 1216.16C2805.88 1216.66 2806.25 1217.19 2806.61 1217.75 2806.98 1218.31 2807.27 1218.8 2807.49 1219.23L2806.32 1219.87C2806.12 1219.43 2805.84 1218.92 2805.48 1218.33 2805.11 1217.74 2804.75 1217.19 2804.38 1216.68ZM2777.26 1215.49 2778.6 1215.85C2778.48 1216.17 2778.36 1216.49 2778.23 1216.81 2778.1 1217.13 2777.96 1217.45 2777.82 1217.76L2783.86 1217.76 2783.86 1219.08 2779.41 1219.08 2779.41 1220.96 2783.5 1220.96 2783.5 1222.22 2779.41 1222.22 2779.41 1224.2 2783.71 1224.2 2783.71 1225.49 2779.41 1225.49 2779.41 1228.93 2777.98 1228.93 2777.98 1219.08 2777.14 1219.08C2776.83 1219.66 2776.5 1220.2 2776.16 1220.71 2775.81 1221.21 2775.46 1221.66 2775.1 1222.06 2774.98 1221.93 2774.81 1221.77 2774.6 1221.58 2774.38 1221.39 2774.19 1221.24 2774.02 1221.13 2774.69 1220.43 2775.3 1219.58 2775.87 1218.6 2776.43 1217.61 2776.9 1216.57 2777.26 1215.49ZM2793.24 1215.48 2794.73 1215.48C2794.73 1216.51 2794.72 1217.49 2794.71 1218.42 2794.69 1219.34 2794.65 1220.21 2794.58 1221.04 2794.8 1222.7 2795.25 1224.09 2795.92 1225.22 2796.59 1226.34 2797.62 1227.14 2799.01 1227.62 2798.84 1227.77 2798.67 1227.97 2798.49 1228.21 2798.31 1228.45 2798.17 1228.67 2798.06 1228.88 2797 1228.46 2796.14 1227.86 2795.49 1227.1 2794.84 1226.33 2794.34 1225.4 2793.99 1224.3 2793.69 1225.32 2793.2 1226.22 2792.54 1226.99 2791.87 1227.76 2790.97 1228.41 2789.83 1228.94 2789.73 1228.75 2789.58 1228.55 2789.4 1228.33 2789.21 1228.11 2789.03 1227.93 2788.86 1227.8 2789.99 1227.3 2790.86 1226.67 2791.47 1225.93 2792.08 1225.19 2792.51 1224.31 2792.76 1223.3 2793.01 1222.29 2793.15 1221.14 2793.19 1219.84 2793.23 1218.54 2793.25 1217.09 2793.24 1215.48ZM2802.85 1215.4 2804.16 1215.76C2804 1216.25 2803.82 1216.74 2803.63 1217.22 2803.44 1217.71 2803.24 1218.2 2803.03 1218.68L2803.03 1228.93 2801.7 1228.93 2801.7 1221.2C2801.52 1221.48 2801.35 1221.75 2801.17 1221.99 2800.99 1222.24 2800.8 1222.48 2800.61 1222.7 2800.55 1222.52 2800.45 1222.28 2800.31 1221.98 2800.17 1221.69 2800.04 1221.44 2799.92 1221.24 2800.53 1220.52 2801.09 1219.64 2801.6 1218.62 2802.1 1217.59 2802.52 1216.52 2802.85 1215.4ZM2773.54 1215.39 2774.88 1215.8C2774.67 1216.32 2774.45 1216.85 2774.2 1217.37 2773.94 1217.89 2773.68 1218.4 2773.39 1218.9L2773.39 1228.91 2771.98 1228.91 2771.98 1221.08C2771.78 1221.35 2771.58 1221.6 2771.37 1221.85 2771.17 1222.09 2770.96 1222.32 2770.75 1222.53 2770.67 1222.35 2770.55 1222.1 2770.4 1221.81 2770.24 1221.52 2770.1 1221.29 2769.97 1221.11 2770.69 1220.4 2771.36 1219.54 2771.98 1218.54 2772.61 1217.54 2773.13 1216.49 2773.54 1215.39ZM2808.03 1215.34 2809.43 1215.34 2809.43 1220.19 2813.06 1220.19 2813.06 1221.48 2809.43 1221.48 2809.43 1223.47 2813.66 1223.47 2813.66 1224.76 2809.43 1224.76 2809.43 1228.93 2808.03 1228.93 2808.03 1224.76 2803.87 1224.76 2803.87 1223.47 2808.03 1223.47 2808.03 1221.48 2804.49 1221.48 2804.49 1220.19 2808.03 1220.19ZM2788.47 1215.33 2789.8 1215.76C2789.61 1216.26 2789.39 1216.75 2789.16 1217.25 2788.92 1217.74 2788.67 1218.22 2788.41 1218.69L2788.41 1228.91 2786.95 1228.91 2786.95 1220.95C2786.75 1221.22 2786.54 1221.48 2786.33 1221.73 2786.12 1221.98 2785.91 1222.21 2785.7 1222.43 2785.63 1222.26 2785.51 1222.02 2785.35 1221.73 2785.2 1221.43 2785.06 1221.19 2784.94 1220.99 2785.65 1220.29 2786.31 1219.45 2786.93 1218.46 2787.55 1217.47 2788.06 1216.43 2788.47 1215.33ZM2762.11 1215.28 2763.34 1215.91C2763.27 1216.02 2763.19 1216.13 2763.12 1216.24 2763.04 1216.35 2762.95 1216.46 2762.86 1216.57 2763.78 1217.45 2764.75 1218.2 2765.77 1218.8 2766.78 1219.41 2767.85 1219.93 2768.96 1220.35 2768.77 1220.52 2768.58 1220.71 2768.4 1220.93 2768.23 1221.16 2768.09 1221.39 2767.98 1221.61 2767.59 1221.42 2767.2 1221.23 2766.81 1221.03 2766.43 1220.83 2766.05 1220.62 2765.67 1220.4L2765.67 1221.38 2758.19 1221.38 2758.19 1220.64C2757.84 1220.85 2757.48 1221.05 2757.12 1221.24 2756.76 1221.43 2756.4 1221.61 2756.03 1221.76 2755.91 1221.57 2755.76 1221.36 2755.58 1221.14 2755.4 1220.91 2755.21 1220.71 2755.01 1220.53 2755.95 1220.17 2756.86 1219.72 2757.75 1219.2 2758.64 1218.67 2759.46 1218.08 2760.21 1217.42 2760.96 1216.76 2761.59 1216.05 2762.11 1215.28ZM2728.94 1215.27C2729.22 1215.53 2729.49 1215.82 2729.75 1216.14 2730 1216.45 2730.21 1216.74 2730.37 1217L2729.71 1217.35 2733.43 1217.35C2733.66 1217.04 2733.89 1216.7 2734.12 1216.33 2734.35 1215.96 2734.54 1215.62 2734.69 1215.31L2736.27 1215.67C2736.07 1215.97 2735.86 1216.26 2735.64 1216.55 2735.42 1216.83 2735.21 1217.1 2735.01 1217.35L2738.58 1217.35 2738.58 1218.62 2732.76 1218.62C2732.67 1218.82 2732.59 1219.02 2732.51 1219.21 2732.43 1219.41 2732.34 1219.6 2732.26 1219.78L2736.93 1219.78 2736.93 1228.94 2735.47 1228.94 2735.47 1228.17 2728.22 1228.17 2728.22 1228.94 2726.83 1228.94 2726.83 1219.78 2730.76 1219.78C2730.81 1219.59 2730.87 1219.4 2730.92 1219.2 2730.97 1219 2731.02 1218.81 2731.06 1218.62L2725.22 1218.62 2725.22 1217.35 2728.88 1217.35C2728.73 1217.1 2728.55 1216.84 2728.34 1216.56 2728.13 1216.29 2727.92 1216.03 2727.71 1215.8ZM2702.36 1215.25C2702.48 1215.47 2702.59 1215.7 2702.7 1215.95 2702.81 1216.21 2702.89 1216.44 2702.96 1216.66L2708.24 1216.66 2708.24 1219.37 2706.76 1219.37 2706.76 1217.95 2696.85 1217.95 2696.85 1219.37 2695.46 1219.37 2695.46 1216.66 2701.37 1216.66C2701.32 1216.48 2701.26 1216.29 2701.18 1216.1 2701.11 1215.91 2701.03 1215.73 2700.94 1215.57ZM2717.2 1215.21C2717.4 1215.55 2717.6 1215.92 2717.8 1216.31 2718 1216.7 2718.15 1217.05 2718.27 1217.36L2717.26 1217.79 2723.43 1217.79 2723.43 1219.14 2715.83 1219.14C2715.81 1219.49 2715.79 1219.84 2715.76 1220.19 2715.73 1220.54 2715.7 1220.9 2715.65 1221.24L2722.04 1221.24C2722.04 1221.26 2722.03 1221.34 2722.02 1221.48 2722.01 1221.63 2722 1221.76 2721.98 1221.87 2721.88 1223.22 2721.78 1224.33 2721.68 1225.19 2721.57 1226.05 2721.45 1226.72 2721.31 1227.2 2721.17 1227.67 2721 1228.01 2720.8 1228.2 2720.61 1228.39 2720.4 1228.53 2720.18 1228.62 2719.95 1228.7 2719.69 1228.75 2719.38 1228.78 2719.09 1228.8 2718.72 1228.81 2718.28 1228.8 2717.83 1228.8 2717.35 1228.78 2716.84 1228.75 2716.83 1228.54 2716.78 1228.31 2716.69 1228.07 2716.6 1227.82 2716.49 1227.6 2716.34 1227.4 2716.89 1227.44 2717.39 1227.47 2717.84 1227.48 2718.29 1227.5 2718.63 1227.5 2718.85 1227.5 2719.01 1227.5 2719.15 1227.49 2719.26 1227.47 2719.37 1227.44 2719.48 1227.4 2719.57 1227.32 2719.78 1227.17 2719.96 1226.71 2720.11 1225.96 2720.25 1225.21 2720.39 1224.08 2720.5 1222.58L2715.44 1222.58C2715.23 1223.87 2714.79 1225.07 2714.13 1226.19 2713.47 1227.31 2712.46 1228.24 2711.09 1229 2710.98 1228.81 2710.83 1228.61 2710.64 1228.4 2710.45 1228.2 2710.26 1228.02 2710.07 1227.87 2711.29 1227.24 2712.19 1226.45 2712.78 1225.5 2713.37 1224.56 2713.76 1223.54 2713.95 1222.44 2714.15 1221.34 2714.26 1220.24 2714.29 1219.14L2710.35 1219.14 2710.35 1217.79 2716.78 1217.79C2716.68 1217.48 2716.54 1217.14 2716.36 1216.77 2716.19 1216.39 2716.01 1216.04 2715.83 1215.71ZM2747.67 1215.19C2747.81 1215.44 2747.95 1215.71 2748.09 1215.99 2748.23 1216.27 2748.36 1216.53 2748.46 1216.78L2753.67 1216.78 2753.67 1218.01 2742.55 1218.01 2742.55 1220.96C2742.55 1221.75 2742.52 1222.62 2742.44 1223.58 2742.37 1224.53 2742.22 1225.47 2742 1226.42 2741.79 1227.36 2741.46 1228.21 2741.03 1228.97 2740.9 1228.84 2740.71 1228.7 2740.48 1228.55 2740.25 1228.4 2740.05 1228.28 2739.89 1228.2 2740.29 1227.5 2740.58 1226.72 2740.77 1225.88 2740.96 1225.03 2741.08 1224.18 2741.14 1223.33 2741.19 1222.48 2741.22 1221.69 2741.21 1220.96L2741.21 1216.78 2746.87 1216.78C2746.79 1216.58 2746.7 1216.38 2746.61 1216.17 2746.52 1215.97 2746.42 1215.78 2746.32 1215.6ZM2781.05 1207.11C2780.96 1207.2 2780.71 1207.28 2780.31 1207.35 2779.91 1207.42 2779.48 1207.48 2779.04 1207.54 2778.74 1207.58 2778.46 1207.65 2778.19 1207.74 2777.93 1207.84 2777.71 1207.97 2777.54 1208.14 2777.38 1208.31 2777.29 1208.54 2777.29 1208.83 2777.29 1209.19 2777.44 1209.47 2777.72 1209.67 2778.01 1209.88 2778.4 1209.98 2778.89 1209.98 2779.4 1209.98 2779.81 1209.89 2780.13 1209.71 2780.45 1209.53 2780.68 1209.29 2780.83 1209 2780.98 1208.71 2781.05 1208.4 2781.05 1208.07ZM2729.99 1207.11C2729.9 1207.2 2729.65 1207.28 2729.25 1207.35 2728.85 1207.42 2728.43 1207.48 2727.99 1207.54 2727.69 1207.58 2727.4 1207.65 2727.14 1207.74 2726.87 1207.84 2726.66 1207.97 2726.49 1208.14 2726.32 1208.31 2726.24 1208.54 2726.24 1208.83 2726.24 1209.19 2726.38 1209.47 2726.67 1209.67 2726.95 1209.88 2727.34 1209.98 2727.84 1209.98 2728.35 1209.98 2728.76 1209.89 2729.08 1209.71 2729.4 1209.53 2729.63 1209.29 2729.77 1209 2729.92 1208.71 2729.99 1208.4 2729.99 1208.07ZM2759.82 1204.27C2759.11 1204.27 2758.54 1204.53 2758.11 1205.06 2757.69 1205.58 2757.48 1206.28 2757.48 1207.14 2757.48 1208 2757.69 1208.7 2758.11 1209.22 2758.54 1209.74 2759.11 1210 2759.82 1210 2760.49 1210 2761.04 1209.76 2761.47 1209.27 2761.9 1208.79 2762.11 1208.08 2762.11 1207.14 2762.11 1206.2 2761.9 1205.49 2761.47 1205 2761.04 1204.52 2760.49 1204.27 2759.82 1204.27ZM2751.52 1204.26C2750.79 1204.26 2750.22 1204.52 2749.81 1205.05 2749.4 1205.57 2749.19 1206.28 2749.19 1207.15 2749.19 1208.02 2749.4 1208.72 2749.81 1209.24 2750.22 1209.76 2750.79 1210.02 2751.52 1210.02 2752.26 1210.02 2752.83 1209.76 2753.24 1209.24 2753.65 1208.71 2753.85 1208.02 2753.85 1207.15 2753.85 1206.28 2753.65 1205.58 2753.23 1205.05 2752.82 1204.52 2752.25 1204.26 2751.52 1204.26ZM2805.49 1204.24C2804.86 1204.24 2804.34 1204.44 2803.94 1204.84 2803.54 1205.23 2803.3 1205.77 2803.23 1206.44L2807.77 1206.44C2807.7 1205.77 2807.46 1205.23 2807.05 1204.84 2806.65 1204.44 2806.13 1204.24 2805.49 1204.24ZM2722.3 1203.32 2723.54 1203.32 2723.54 1210.96 2722.3 1210.96ZM2711.29 1203.32 2712.53 1203.32 2712.53 1210.96 2711.29 1210.96ZM2813.47 1203.2C2813.58 1203.2 2813.69 1203.21 2813.78 1203.21 2813.88 1203.22 2813.95 1203.23 2814 1203.24L2814 1204.47C2813.95 1204.46 2813.86 1204.44 2813.72 1204.42 2813.58 1204.4 2813.42 1204.39 2813.24 1204.39 2812.81 1204.39 2812.43 1204.54 2812.12 1204.84 2811.8 1205.14 2811.64 1205.61 2811.64 1206.26L2811.64 1210.96 2810.39 1210.96 2810.39 1203.32 2811.58 1203.32 2811.58 1204.52 2811.61 1204.52C2811.75 1204.12 2811.98 1203.8 2812.28 1203.56 2812.59 1203.32 2812.99 1203.2 2813.47 1203.2ZM2787.44 1203.2C2787.56 1203.2 2787.66 1203.21 2787.76 1203.21 2787.85 1203.22 2787.92 1203.23 2787.97 1203.24L2787.97 1204.47C2787.92 1204.46 2787.83 1204.44 2787.69 1204.42 2787.55 1204.4 2787.39 1204.39 2787.21 1204.39 2786.78 1204.39 2786.41 1204.54 2786.09 1204.84 2785.77 1205.14 2785.61 1205.61 2785.61 1206.26L2785.61 1210.96 2784.36 1210.96 2784.36 1203.32 2785.55 1203.32 2785.55 1204.52 2785.58 1204.52C2785.72 1204.12 2785.95 1203.8 2786.26 1203.56 2786.56 1203.32 2786.96 1203.2 2787.44 1203.2ZM2797.89 1203.17C2798.42 1203.17 2798.89 1203.28 2799.32 1203.51 2799.75 1203.73 2800.1 1204.07 2800.35 1204.52 2800.61 1204.97 2800.74 1205.53 2800.74 1206.21L2800.74 1210.96 2799.49 1210.96 2799.49 1206.3C2799.49 1205.64 2799.33 1205.14 2799.01 1204.8 2798.69 1204.47 2798.24 1204.3 2797.66 1204.3 2797.1 1204.3 2796.62 1204.47 2796.22 1204.82 2795.82 1205.16 2795.62 1205.72 2795.62 1206.49L2795.62 1210.96 2794.38 1210.96 2794.38 1203.32 2795.59 1203.32 2795.59 1204.44C2795.86 1204 2796.19 1203.68 2796.58 1203.48 2796.97 1203.27 2797.41 1203.17 2797.89 1203.17ZM2779.33 1203.17C2780.24 1203.17 2780.95 1203.4 2781.49 1203.86 2782.02 1204.32 2782.28 1204.93 2782.28 1205.69L2782.28 1210.96 2781.05 1210.96 2781.05 1209.88 2781.02 1209.88C2780.93 1210.06 2780.79 1210.24 2780.61 1210.43 2780.43 1210.62 2780.18 1210.77 2779.88 1210.89 2779.57 1211.02 2779.19 1211.08 2778.72 1211.08 2777.95 1211.08 2777.31 1210.88 2776.79 1210.49 2776.28 1210.1 2776.02 1209.52 2776.02 1208.76 2776.02 1208.32 2776.11 1207.96 2776.28 1207.69 2776.45 1207.41 2776.68 1207.2 2776.98 1207.04 2777.27 1206.88 2777.6 1206.77 2777.97 1206.68 2778.33 1206.6 2778.71 1206.54 2779.1 1206.49 2779.59 1206.42 2779.98 1206.37 2780.26 1206.34 2780.55 1206.3 2780.75 1206.25 2780.87 1206.17 2780.99 1206.09 2781.05 1205.96 2781.05 1205.76L2781.05 1205.69C2781.05 1205.28 2780.9 1204.93 2780.6 1204.66 2780.3 1204.39 2779.88 1204.26 2779.33 1204.26 2778.8 1204.26 2778.35 1204.39 2778.01 1204.65 2777.66 1204.9 2777.48 1205.22 2777.45 1205.6L2776.18 1205.6C2776.2 1205.14 2776.35 1204.72 2776.62 1204.36 2776.89 1203.99 2777.26 1203.7 2777.72 1203.49 2778.18 1203.28 2778.72 1203.17 2779.33 1203.17ZM2760.02 1203.17C2760.69 1203.17 2761.28 1203.34 2761.78 1203.67 2762.29 1204 2762.68 1204.47 2762.96 1205.06 2763.23 1205.66 2763.37 1206.35 2763.37 1207.14 2763.37 1207.92 2763.23 1208.61 2762.96 1209.21 2762.68 1209.8 2762.29 1210.27 2761.78 1210.6 2761.28 1210.94 2760.69 1211.11 2760.02 1211.11 2759.51 1211.11 2759.05 1211 2758.64 1210.79 2758.22 1210.57 2757.87 1210.24 2757.6 1209.8L2757.58 1209.8 2757.58 1213.99 2756.33 1213.99 2756.33 1203.32 2757.55 1203.32 2757.55 1204.45 2757.57 1204.45C2757.82 1204.02 2758.16 1203.7 2758.6 1203.49 2759.04 1203.28 2759.51 1203.17 2760.02 1203.17ZM2728.28 1203.17C2729.18 1203.17 2729.9 1203.4 2730.43 1203.86 2730.96 1204.32 2731.23 1204.93 2731.23 1205.69L2731.23 1210.96 2729.99 1210.96 2729.99 1209.88 2729.96 1209.88C2729.87 1210.06 2729.73 1210.24 2729.55 1210.43 2729.37 1210.62 2729.13 1210.77 2728.82 1210.89 2728.52 1211.02 2728.13 1211.08 2727.66 1211.08 2726.9 1211.08 2726.25 1210.88 2725.74 1210.49 2725.22 1210.1 2724.96 1209.52 2724.96 1208.76 2724.96 1208.32 2725.05 1207.96 2725.22 1207.69 2725.4 1207.41 2725.63 1207.2 2725.92 1207.04 2726.21 1206.88 2726.54 1206.77 2726.91 1206.68 2727.28 1206.6 2727.66 1206.54 2728.04 1206.49 2728.54 1206.42 2728.93 1206.37 2729.21 1206.34 2729.49 1206.3 2729.69 1206.25 2729.81 1206.17 2729.93 1206.09 2729.99 1205.96 2729.99 1205.76L2729.99 1205.69C2729.99 1205.28 2729.84 1204.93 2729.54 1204.66 2729.24 1204.39 2728.82 1204.26 2728.28 1204.26 2727.74 1204.26 2727.3 1204.39 2726.95 1204.65 2726.61 1204.9 2726.42 1205.22 2726.39 1205.6L2725.13 1205.6C2725.15 1205.14 2725.3 1204.72 2725.57 1204.36 2725.83 1203.99 2726.2 1203.7 2726.67 1203.49 2727.13 1203.28 2727.67 1203.17 2728.28 1203.17ZM2805.49 1203.14C2806.21 1203.14 2806.83 1203.31 2807.36 1203.65 2807.89 1203.99 2808.3 1204.46 2808.58 1205.06 2808.87 1205.66 2809.01 1206.36 2809.01 1207.15L2809.01 1207.49 2803.22 1207.49C2803.25 1208.24 2803.47 1208.85 2803.87 1209.32 2804.28 1209.79 2804.85 1210.02 2805.58 1210.02 2806.13 1210.02 2806.58 1209.9 2806.93 1209.64 2807.28 1209.39 2807.52 1209.07 2807.63 1208.67L2808.88 1208.67C2808.78 1209.16 2808.58 1209.59 2808.27 1209.96 2807.96 1210.33 2807.58 1210.62 2807.12 1210.82 2806.66 1211.03 2806.14 1211.14 2805.58 1211.14 2804.82 1211.14 2804.18 1210.96 2803.64 1210.62 2803.11 1210.28 2802.7 1209.81 2802.41 1209.21 2802.13 1208.61 2801.99 1207.92 2801.99 1207.15 2801.99 1206.38 2802.14 1205.69 2802.44 1205.08 2802.73 1204.48 2803.15 1204.01 2803.67 1203.66 2804.2 1203.32 2804.81 1203.14 2805.49 1203.14ZM2751.52 1203.14C2752.24 1203.14 2752.87 1203.31 2753.41 1203.66 2753.95 1204 2754.36 1204.47 2754.66 1205.08 2754.97 1205.68 2755.12 1206.37 2755.12 1207.15 2755.12 1207.93 2754.97 1208.62 2754.66 1209.22 2754.36 1209.82 2753.95 1210.29 2753.41 1210.63 2752.87 1210.97 2752.24 1211.14 2751.52 1211.14 2750.81 1211.14 2750.18 1210.97 2749.64 1210.63 2749.1 1210.29 2748.68 1209.82 2748.38 1209.22 2748.08 1208.62 2747.93 1207.93 2747.93 1207.15 2747.93 1206.37 2748.08 1205.68 2748.38 1205.08 2748.68 1204.47 2749.1 1204 2749.64 1203.66 2750.18 1203.31 2750.81 1203.14 2751.52 1203.14ZM2717.49 1203.14C2718.07 1203.14 2718.6 1203.26 2719.06 1203.49 2719.53 1203.72 2719.91 1204.03 2720.2 1204.43 2720.5 1204.83 2720.68 1205.29 2720.75 1205.81L2719.49 1205.81C2719.4 1205.36 2719.18 1204.99 2718.85 1204.7 2718.51 1204.4 2718.06 1204.26 2717.49 1204.26 2716.76 1204.26 2716.19 1204.52 2715.77 1205.05 2715.36 1205.57 2715.15 1206.28 2715.15 1207.15 2715.15 1208.02 2715.36 1208.72 2715.77 1209.24 2716.18 1209.76 2716.75 1210.02 2717.49 1210.02 2718.07 1210.02 2718.51 1209.88 2718.82 1209.6 2719.13 1209.32 2719.34 1208.94 2719.47 1208.47L2720.75 1208.47C2720.68 1208.97 2720.5 1209.43 2720.2 1209.83 2719.91 1210.23 2719.53 1210.55 2719.06 1210.79 2718.59 1211.02 2718.07 1211.14 2717.49 1211.14 2716.77 1211.14 2716.15 1210.97 2715.61 1210.63 2715.07 1210.29 2714.65 1209.82 2714.34 1209.22 2714.04 1208.62 2713.89 1207.93 2713.89 1207.15 2713.89 1206.37 2714.04 1205.68 2714.34 1205.08 2714.65 1204.47 2715.07 1204 2715.61 1203.66 2716.15 1203.31 2716.77 1203.14 2717.49 1203.14ZM2768.83 1201.33 2768.83 1205.57 2771.38 1205.57C2772.14 1205.57 2772.73 1205.38 2773.17 1205 2773.61 1204.62 2773.83 1204.1 2773.83 1203.45 2773.83 1202.79 2773.61 1202.27 2773.17 1201.9 2772.73 1201.52 2772.14 1201.33 2771.38 1201.33ZM2789.93 1201.23 2791.18 1201.23 2791.18 1203.32 2792.75 1203.32 2792.75 1204.37 2791.18 1204.37 2791.18 1209.11C2791.18 1209.4 2791.24 1209.61 2791.37 1209.73 2791.49 1209.85 2791.71 1209.91 2792.03 1209.91L2792.75 1209.91 2792.75 1210.96 2791.91 1210.96C2790.59 1210.96 2789.93 1210.39 2789.93 1209.24L2789.93 1204.37 2788.56 1204.37 2788.56 1203.32 2789.93 1203.32ZM2694.96 1201.22C2694.3 1201.22 2693.7 1201.38 2693.15 1201.72 2692.59 1202.06 2692.15 1202.55 2691.82 1203.2 2691.49 1203.85 2691.32 1204.64 2691.32 1205.58 2691.32 1206.51 2691.49 1207.3 2691.82 1207.94 2692.15 1208.59 2692.59 1209.08 2693.15 1209.42 2693.7 1209.75 2694.3 1209.92 2694.96 1209.92 2695.62 1209.92 2696.23 1209.75 2696.78 1209.42 2697.33 1209.08 2697.78 1208.59 2698.11 1207.94 2698.44 1207.3 2698.61 1206.51 2698.61 1205.58 2698.61 1204.64 2698.44 1203.85 2698.11 1203.2 2697.78 1202.55 2697.33 1202.06 2696.78 1201.72 2696.23 1201.38 2695.62 1201.22 2694.96 1201.22ZM2767.51 1200.17 2771.42 1200.17C2772.56 1200.17 2773.47 1200.47 2774.13 1201.05 2774.8 1201.64 2775.13 1202.44 2775.13 1203.45 2775.13 1204.12 2774.98 1204.7 2774.67 1205.19 2774.36 1205.68 2773.92 1206.06 2773.36 1206.32 2772.79 1206.59 2772.13 1206.73 2771.36 1206.73L2768.83 1206.73 2768.83 1210.96 2767.51 1210.96ZM2738.76 1200.17 2747.19 1200.17 2747.19 1201.33 2743.64 1201.33 2743.64 1210.96 2742.32 1210.96 2742.32 1201.33 2738.76 1201.33ZM2733.31 1200.17 2734.56 1200.17 2734.56 1210.96 2733.31 1210.96ZM2708.88 1200.17 2709.66 1200.17 2709.66 1201.23 2709 1201.23C2708.67 1201.23 2708.44 1201.3 2708.3 1201.44 2708.16 1201.58 2708.09 1201.82 2708.09 1202.14L2708.09 1203.32 2709.66 1203.32 2709.66 1204.37 2708.09 1204.37 2708.09 1210.96 2706.85 1210.96 2706.85 1204.37 2705.47 1204.37 2705.47 1203.32 2706.85 1203.32 2706.85 1201.96C2706.85 1201.41 2707.03 1200.98 2707.4 1200.66 2707.76 1200.33 2708.26 1200.17 2708.88 1200.17ZM2703.88 1200.17 2704.66 1200.17 2704.66 1201.23 2704 1201.23C2703.67 1201.23 2703.44 1201.3 2703.3 1201.44 2703.16 1201.58 2703.09 1201.82 2703.09 1202.14L2703.09 1203.32 2704.66 1203.32 2704.66 1204.37 2703.09 1204.37 2703.09 1210.96 2701.84 1210.96 2701.84 1204.37 2700.46 1204.37 2700.46 1203.32 2701.84 1203.32 2701.84 1201.96C2701.84 1201.41 2702.02 1200.98 2702.39 1200.66 2702.76 1200.33 2703.25 1200.17 2703.88 1200.17ZM2722.92 1200.14C2723.16 1200.14 2723.36 1200.23 2723.52 1200.39 2723.69 1200.56 2723.77 1200.75 2723.77 1200.98 2723.77 1201.22 2723.69 1201.41 2723.52 1201.58 2723.36 1201.74 2723.16 1201.82 2722.92 1201.82 2722.69 1201.82 2722.49 1201.74 2722.32 1201.58 2722.15 1201.41 2722.07 1201.22 2722.07 1200.98 2722.07 1200.75 2722.15 1200.56 2722.32 1200.39 2722.49 1200.23 2722.69 1200.14 2722.92 1200.14ZM2711.91 1200.14C2712.14 1200.14 2712.34 1200.23 2712.51 1200.39 2712.68 1200.56 2712.76 1200.75 2712.76 1200.98 2712.76 1201.22 2712.68 1201.41 2712.51 1201.58 2712.34 1201.74 2712.14 1201.82 2711.91 1201.82 2711.68 1201.82 2711.47 1201.74 2711.31 1201.58 2711.14 1201.41 2711.06 1201.22 2711.06 1200.98 2711.06 1200.75 2711.14 1200.56 2711.31 1200.39 2711.47 1200.23 2711.68 1200.14 2711.91 1200.14ZM2694.96 1200C2695.93 1200 2696.79 1200.24 2697.53 1200.72 2698.28 1201.19 2698.86 1201.85 2699.29 1202.69 2699.71 1203.53 2699.93 1204.49 2699.93 1205.58 2699.93 1206.65 2699.71 1207.61 2699.29 1208.45 2698.86 1209.28 2698.28 1209.94 2697.53 1210.42 2696.79 1210.9 2695.93 1211.14 2694.96 1211.14 2694 1211.14 2693.15 1210.9 2692.4 1210.42 2691.65 1209.94 2691.06 1209.28 2690.64 1208.45 2690.21 1207.61 2690 1206.65 2690 1205.58 2690 1204.49 2690.21 1203.53 2690.64 1202.69 2691.06 1201.85 2691.65 1201.19 2692.4 1200.72 2693.15 1200.24 2694 1200 2694.96 1200Z" fill="#FFFFFF" fill-rule="evenodd"/></g></svg>