<svg width="606" height="153" xmlns="http://www.w3.org/2000/svg" xmlns:xlink="http://www.w3.org/1999/xlink" overflow="hidden"><defs><clipPath id="clip0"><rect x="2309" y="785" width="128" height="22"/></clipPath><clipPath id="clip1"><rect x="2309" y="785" width="128" height="22"/></clipPath><clipPath id="clip2"><rect x="2309" y="785" width="128" height="22"/></clipPath></defs><g transform="translate(-1896 -760)"><rect x="1896" y="761" width="605" height="151" fill="#FFFFFF" fill-opacity="0"/><g clip-path="url(#clip0)"><g clip-path="url(#clip1)"><g clip-path="url(#clip2)"><path d="M61.8245 0.202763 60.2047 13.3513 57.7275 13.3513 59.3472 0.202763 49.9144 0.202763 48.8663 9.25429C48.771 10.4929 48.4853 12.7797 48.9616 14.3041 50.1051 17.8295 52.9635 19.0681 52.9635 19.0681L53.3446 19.2586C54.5831 19.9256 56.0125 20.1162 57.251 20.1162L58.1086 20.1162C60.4905 20.1162 62.3961 19.6399 63.9207 18.7823L64.0159 18.7823C64.4924 18.4963 67.4461 16.972 69.161 13.4465 69.828 12.1127 69.9233 11.8269 70.2093 9.73058L71.3526 0.298021" fill="#B2FF33" transform="matrix(1.02798 0 0 1 2309 785)"/><path d="M32.9546 19.2586 32.9546 19.2586 33.8122 12.589 36.6706 12.589 36.6706 12.4937 35.8131 19.2586 45.0551 19.2586 47.4372 0.202763 38.1949 0.202763 37.3374 6.77691 34.479 6.77691 35.2413 0.202763 25.9992 0.202763 23.7124 19.2586 32.9546 19.2586" fill="#B2FF33" transform="matrix(1.02798 0 0 1 2309 785)"/><path d="M117.087 14.2088 105.939 14.2088 106.32 11.6362 117.468 11.6362 118.04 6.77691 106.987 6.77691 107.273 4.49027 118.326 4.49027 118.897 0.107505 98.4121 0.107505 96.5065 14.3993 89.5511 10.8741C89.5511 10.8741 91.4567 10.3024 92.5048 9.54006 93.6481 8.77777 94.0291 8.01571 94.3151 7.63445 94.6962 6.96765 95.1725 6.20536 95.1725 4.77604 95.2677 3.25169 94.4104 2.20363 94.0291 1.72711 93.6481 1.25082 92.6 0.107505 90.7897 0.202763L73.925 0.202763 73.3534 4.49027 86.6927 4.49027 86.4067 6.77691 73.1629 6.77691 71.6383 19.2586 79.7371 19.2586 80.4994 12.9702 95.649 22.117 96.03 19.2586 116.515 19.2586 117.087 14.2088" fill="#B2FF33" transform="matrix(1.02798 0 0 1 2309 785)"/><path d="M7.32419 0.202763C6.08561 0.202763 5.03755 0.679052 4.08474 1.34608 1.32159 3.53746 0.654557 8.30149 4.65629 10.3024 5.22806 10.5881 13.9938 14.1136 13.9938 14.1136L0.845299 14.1136 0.178268 19.2586 16.2807 19.2586C18.7578 19.2586 20.3777 18.3058 21.6162 16.6862 21.9975 16.1144 22.2833 15.5427 22.4738 14.9711 23.0456 13.1608 22.9501 11.1599 21.7115 10.1118 21.4257 9.92132 21.2352 9.73058 20.9492 9.54006 20.7587 9.4448 20.4729 9.25429 20.2824 9.15903 18.1861 8.20623 9.22979 4.39501 9.22979 4.39501L23.0456 4.39501 23.6171 0.107278 7.32419 0.202763" fill="#B2FF33" transform="matrix(1.02798 0 0 1 2309 785)"/></g></g></g><path d="M2347.7 876.349 2347.7 878.048 2354.38 878.048 2354.38 876.349ZM2377.64 875.088 2377.64 877.867 2384.13 877.867 2384.13 875.088ZM2306.93 874.852C2306.83 874.94 2306.59 875.019 2306.19 875.09 2305.79 875.161 2305.36 875.228 2304.92 875.292 2304.62 875.331 2304.34 875.398 2304.07 875.493 2303.81 875.589 2303.59 875.723 2303.43 875.897 2303.26 876.07 2303.18 876.304 2303.18 876.597 2303.18 876.959 2303.32 877.243 2303.6 877.448 2303.89 877.653 2304.28 877.756 2304.77 877.756 2305.28 877.756 2305.69 877.664 2306.01 877.481 2306.33 877.297 2306.56 877.059 2306.71 876.766 2306.85 876.472 2306.93 876.157 2306.93 875.82ZM2286.93 874.852C2286.84 874.94 2286.59 875.019 2286.19 875.09 2285.79 875.161 2285.37 875.228 2284.92 875.292 2284.62 875.331 2284.34 875.398 2284.08 875.493 2283.81 875.589 2283.59 875.723 2283.43 875.897 2283.26 876.07 2283.18 876.304 2283.18 876.597 2283.18 876.959 2283.32 877.243 2283.61 877.448 2283.89 877.653 2284.28 877.756 2284.78 877.756 2285.28 877.756 2285.7 877.664 2286.01 877.481 2286.33 877.297 2286.56 877.059 2286.71 876.766 2286.86 876.472 2286.93 876.157 2286.93 875.82ZM2240.94 874.852C2240.84 874.94 2240.6 875.019 2240.2 875.09 2239.8 875.161 2239.38 875.228 2238.93 875.292 2238.63 875.331 2238.35 875.398 2238.08 875.493 2237.82 875.589 2237.6 875.723 2237.44 875.897 2237.27 876.07 2237.19 876.304 2237.19 876.597 2237.19 876.959 2237.33 877.243 2237.62 877.448 2237.9 877.653 2238.29 877.756 2238.78 877.756 2239.29 877.756 2239.7 877.664 2240.02 877.481 2240.34 877.297 2240.57 877.059 2240.72 876.766 2240.86 876.472 2240.94 876.157 2240.94 875.82ZM2376.23 873.842 2385.6 873.842 2385.6 879.85 2384.13 879.85 2384.13 879.159 2377.64 879.159 2377.64 879.91 2376.23 879.91ZM2274.39 871.977C2273.72 871.977 2273.18 872.223 2272.75 872.717 2272.32 873.211 2272.11 873.932 2272.11 874.881 2272.11 875.829 2272.32 876.549 2272.75 877.041 2273.18 877.532 2273.72 877.778 2274.39 877.778 2275.11 877.778 2275.68 877.514 2276.1 876.986 2276.53 876.458 2276.74 875.756 2276.74 874.881 2276.74 874.006 2276.53 873.303 2276.1 872.772 2275.68 872.242 2275.11 871.977 2274.39 871.977ZM2331.34 871.947C2330.7 871.947 2330.19 872.148 2329.79 872.549 2329.39 872.95 2329.15 873.49 2329.08 874.169L2333.61 874.169C2333.54 873.49 2333.3 872.95 2332.9 872.549 2332.49 872.148 2331.97 871.947 2331.34 871.947ZM2266.35 871.947C2265.72 871.947 2265.2 872.148 2264.8 872.549 2264.4 872.95 2264.16 873.49 2264.1 874.169L2268.62 874.169C2268.55 873.49 2268.32 872.95 2267.91 872.549 2267.51 872.148 2266.99 871.947 2266.35 871.947ZM2347.7 871.138 2347.7 872.701 2353.88 872.701 2353.88 871.138ZM2411.68 871.077 2411.68 872.19 2414.85 872.19 2414.85 871.077ZM2279.24 871.008 2280.49 871.008 2280.49 878.753 2279.24 878.753ZM2233.25 871.008 2234.5 871.008 2234.5 878.753 2233.25 878.753ZM2222.25 871.008 2223.5 871.008 2223.5 878.753 2222.25 878.753ZM2339.31 870.891C2339.42 870.891 2339.52 870.896 2339.62 870.906 2339.71 870.915 2339.79 870.925 2339.84 870.935L2339.84 872.182C2339.79 872.167 2339.69 872.149 2339.55 872.127 2339.41 872.105 2339.25 872.094 2339.07 872.094 2338.64 872.094 2338.27 872.245 2337.95 872.549 2337.64 872.852 2337.48 873.331 2337.48 873.986L2337.48 878.753 2336.23 878.753 2336.23 871.008 2337.42 871.008 2337.42 872.226 2337.45 872.226C2337.59 871.825 2337.81 871.502 2338.12 871.258 2338.43 871.013 2338.83 870.891 2339.31 870.891ZM2313.31 870.891C2313.43 870.891 2313.53 870.896 2313.62 870.906 2313.72 870.915 2313.79 870.925 2313.84 870.935L2313.84 872.182C2313.79 872.167 2313.7 872.149 2313.56 872.127 2313.42 872.105 2313.26 872.094 2313.08 872.094 2312.65 872.094 2312.28 872.245 2311.96 872.549 2311.64 872.852 2311.48 873.331 2311.48 873.986L2311.48 878.753 2310.24 878.753 2310.24 871.008 2311.42 871.008 2311.42 872.226 2311.45 872.226C2311.59 871.825 2311.82 871.502 2312.13 871.258 2312.43 871.013 2312.83 870.891 2313.31 870.891ZM2323.75 870.862C2324.27 870.862 2324.75 870.975 2325.18 871.203 2325.61 871.43 2325.95 871.771 2326.21 872.226 2326.46 872.681 2326.59 873.253 2326.59 873.942L2326.59 878.753 2325.35 878.753 2325.35 874.03C2325.35 873.36 2325.19 872.855 2324.87 872.516 2324.55 872.176 2324.1 872.006 2323.52 872.006 2322.95 872.006 2322.48 872.179 2322.08 872.527 2321.68 872.874 2321.48 873.438 2321.48 874.221L2321.48 878.753 2320.24 878.753 2320.24 871.008 2321.45 871.008 2321.45 872.145C2321.72 871.705 2322.05 871.381 2322.44 871.173 2322.82 870.966 2323.26 870.862 2323.75 870.862ZM2305.21 870.862C2306.11 870.862 2306.83 871.095 2307.36 871.562 2307.89 872.029 2308.16 872.646 2308.16 873.414L2308.16 878.753 2306.93 878.753 2306.93 877.653 2306.9 877.653C2306.8 877.839 2306.67 878.026 2306.49 878.214 2306.31 878.403 2306.06 878.559 2305.76 878.684 2305.45 878.808 2305.07 878.871 2304.6 878.871 2303.83 878.871 2303.19 878.673 2302.67 878.277 2302.16 877.881 2301.9 877.296 2301.9 876.524 2301.9 876.079 2301.99 875.717 2302.16 875.438 2302.34 875.16 2302.57 874.941 2302.86 874.782 2303.15 874.623 2303.48 874.502 2303.85 874.419 2304.21 874.336 2304.59 874.27 2304.98 874.221 2305.47 874.152 2305.86 874.101 2306.14 874.067 2306.43 874.033 2306.63 873.976 2306.75 873.898 2306.87 873.82 2306.93 873.683 2306.93 873.487L2306.93 873.414C2306.93 872.993 2306.78 872.646 2306.48 872.373 2306.17 872.099 2305.75 871.962 2305.21 871.962 2304.67 871.962 2304.23 872.093 2303.89 872.354 2303.55 872.616 2303.36 872.94 2303.33 873.326L2302.06 873.326C2302.09 872.852 2302.23 872.43 2302.5 872.061 2302.77 871.692 2303.14 871.4 2303.6 871.184 2304.06 870.969 2304.6 870.862 2305.21 870.862ZM2285.22 870.862C2286.12 870.862 2286.84 871.095 2287.36 871.562 2287.89 872.029 2288.16 872.646 2288.16 873.414L2288.16 878.753 2286.93 878.753 2286.93 877.653 2286.9 877.653C2286.81 877.839 2286.67 878.026 2286.49 878.214 2286.31 878.403 2286.07 878.559 2285.76 878.684 2285.46 878.808 2285.07 878.871 2284.6 878.871 2283.83 878.871 2283.19 878.673 2282.68 878.277 2282.16 877.881 2281.91 877.296 2281.91 876.524 2281.91 876.079 2281.99 875.717 2282.17 875.438 2282.34 875.16 2282.57 874.941 2282.86 874.782 2283.15 874.623 2283.48 874.502 2283.85 874.419 2284.22 874.336 2284.6 874.27 2284.98 874.221 2285.47 874.152 2285.86 874.101 2286.15 874.067 2286.43 874.033 2286.63 873.976 2286.75 873.898 2286.87 873.82 2286.93 873.683 2286.93 873.487L2286.93 873.414C2286.93 872.993 2286.78 872.646 2286.48 872.373 2286.18 872.099 2285.76 871.962 2285.22 871.962 2284.68 871.962 2284.24 872.093 2283.89 872.354 2283.55 872.616 2283.36 872.94 2283.33 873.326L2282.07 873.326C2282.09 872.852 2282.24 872.43 2282.51 872.061 2282.77 871.692 2283.14 871.4 2283.6 871.184 2284.07 870.969 2284.61 870.862 2285.22 870.862ZM2239.22 870.862C2240.13 870.862 2240.84 871.095 2241.37 871.562 2241.9 872.029 2242.17 872.646 2242.17 873.414L2242.17 878.753 2240.94 878.753 2240.94 877.653 2240.91 877.653C2240.82 877.839 2240.68 878.026 2240.5 878.214 2240.32 878.403 2240.07 878.559 2239.77 878.684 2239.46 878.808 2239.08 878.871 2238.61 878.871 2237.84 878.871 2237.2 878.673 2236.69 878.277 2236.17 877.881 2235.91 877.296 2235.91 876.524 2235.91 876.079 2236 875.717 2236.17 875.438 2236.35 875.16 2236.58 874.941 2236.87 874.782 2237.16 874.623 2237.49 874.502 2237.86 874.419 2238.23 874.336 2238.6 874.27 2238.99 874.221 2239.48 874.152 2239.87 874.101 2240.15 874.067 2240.44 874.033 2240.64 873.976 2240.76 873.898 2240.88 873.82 2240.94 873.683 2240.94 873.487L2240.94 873.414C2240.94 872.993 2240.79 872.646 2240.49 872.373 2240.19 872.099 2239.77 871.962 2239.22 871.962 2238.69 871.962 2238.25 872.093 2237.9 872.354 2237.56 872.616 2237.37 872.94 2237.34 873.326L2236.07 873.326C2236.1 872.852 2236.25 872.43 2236.51 872.061 2236.78 871.692 2237.15 871.4 2237.61 871.184 2238.08 870.969 2238.61 870.862 2239.22 870.862ZM2331.34 870.832C2332.06 870.832 2332.68 871.003 2333.21 871.346 2333.73 871.688 2334.14 872.165 2334.43 872.776 2334.71 873.387 2334.85 874.094 2334.85 874.896L2334.85 875.24 2329.07 875.24C2329.1 875.998 2329.32 876.614 2329.72 877.089 2330.13 877.563 2330.69 877.8 2331.43 877.8 2331.98 877.8 2332.43 877.673 2332.78 877.419 2333.13 877.164 2333.36 876.837 2333.48 876.436L2334.72 876.436C2334.62 876.93 2334.42 877.364 2334.11 877.738 2333.81 878.112 2333.42 878.404 2332.96 878.614 2332.5 878.824 2331.99 878.929 2331.43 878.929 2330.67 878.929 2330.02 878.756 2329.49 878.409 2328.96 878.062 2328.55 877.584 2328.26 876.975 2327.98 876.366 2327.84 875.673 2327.84 874.896 2327.84 874.108 2327.99 873.409 2328.29 872.798 2328.58 872.187 2329 871.706 2329.52 871.357 2330.05 871.007 2330.66 870.832 2331.34 870.832ZM2266.35 870.832C2267.07 870.832 2267.69 871.003 2268.22 871.346 2268.75 871.688 2269.15 872.165 2269.44 872.776 2269.72 873.387 2269.87 874.094 2269.87 874.896L2269.87 875.24 2264.08 875.24C2264.11 875.998 2264.33 876.614 2264.73 877.089 2265.14 877.563 2265.71 877.8 2266.44 877.8 2266.99 877.8 2267.44 877.673 2267.79 877.419 2268.14 877.164 2268.37 876.837 2268.49 876.436L2269.73 876.436C2269.64 876.93 2269.43 877.364 2269.13 877.738 2268.82 878.112 2268.43 878.404 2267.97 878.614 2267.51 878.824 2267 878.929 2266.44 878.929 2265.68 878.929 2265.04 878.756 2264.5 878.409 2263.97 878.062 2263.56 877.584 2263.27 876.975 2262.99 876.366 2262.85 875.673 2262.85 874.896 2262.85 874.108 2263 873.409 2263.3 872.798 2263.59 872.187 2264.01 871.706 2264.53 871.357 2265.06 871.007 2265.67 870.832 2266.35 870.832ZM2228.45 870.832C2229.03 870.832 2229.56 870.948 2230.02 871.181 2230.48 871.413 2230.86 871.732 2231.16 872.138 2231.45 872.544 2231.64 873.008 2231.7 873.531L2230.44 873.531C2230.35 873.077 2230.14 872.701 2229.8 872.406 2229.47 872.11 2229.02 871.962 2228.45 871.962 2227.72 871.962 2227.15 872.228 2226.74 872.761 2226.32 873.294 2226.12 874.006 2226.12 874.896 2226.12 875.776 2226.32 876.48 2226.73 877.008 2227.14 877.536 2227.71 877.8 2228.45 877.8 2229.03 877.8 2229.47 877.657 2229.78 877.371 2230.09 877.085 2230.3 876.705 2230.42 876.23L2231.7 876.23C2231.64 876.739 2231.45 877.197 2231.16 877.606 2230.86 878.014 2230.48 878.337 2230.02 878.574 2229.55 878.811 2229.03 878.929 2228.45 878.929 2227.73 878.929 2227.11 878.757 2226.57 878.412 2226.03 878.068 2225.61 877.592 2225.31 876.986 2225.01 876.38 2224.86 875.683 2224.86 874.896 2224.86 874.103 2225.01 873.402 2225.31 872.791 2225.61 872.179 2226.03 871.7 2226.57 871.353 2227.11 871.006 2227.73 870.832 2228.45 870.832ZM2406.42 870.447C2406.3 871.134 2406.17 871.803 2406.05 872.454 2405.92 873.105 2405.79 873.718 2405.65 874.293 2405.83 874.427 2406 874.564 2406.17 874.704 2406.34 874.844 2406.52 874.992 2406.69 875.148 2406.92 874.509 2407.11 873.797 2407.26 873.012 2407.41 872.227 2407.53 871.372 2407.6 870.447ZM2346.28 869.922 2355.28 869.922 2355.28 873.901 2347.7 873.901 2347.7 875.119 2355.8 875.119 2355.8 879.834 2354.38 879.834 2354.38 879.278 2347.7 879.278 2347.7 879.909 2346.28 879.909ZM2294.72 868.999 2294.72 873.289 2297.27 873.289C2298.02 873.289 2298.62 873.097 2299.06 872.714 2299.5 872.33 2299.71 871.805 2299.71 871.141 2299.71 870.475 2299.5 869.952 2299.06 869.571 2298.62 869.19 2298.02 868.999 2297.27 868.999ZM2411.68 868.914 2411.68 870.027 2414.85 870.027 2414.85 868.914ZM2315.8 868.896 2317.05 868.896 2317.05 871.008 2318.61 871.008 2318.61 872.079 2317.05 872.079 2317.05 876.876C2317.05 877.174 2317.11 877.383 2317.23 877.503 2317.36 877.623 2317.58 877.682 2317.89 877.682L2318.61 877.682 2318.61 878.753 2317.78 878.753C2316.46 878.753 2315.8 878.171 2315.8 877.008L2315.8 872.079 2314.42 872.079 2314.42 871.008 2315.8 871.008ZM2205.95 868.882C2205.29 868.882 2204.69 869.051 2204.13 869.391 2203.58 869.731 2203.14 870.23 2202.81 870.887 2202.48 871.545 2202.31 872.348 2202.31 873.297 2202.31 874.24 2202.48 875.04 2202.81 875.695 2203.14 876.35 2203.58 876.848 2204.13 877.187 2204.69 877.527 2205.29 877.697 2205.95 877.697 2206.61 877.697 2207.22 877.527 2207.77 877.187 2208.32 876.848 2208.76 876.35 2209.09 875.695 2209.42 875.04 2209.59 874.24 2209.59 873.297 2209.59 872.348 2209.42 871.545 2209.09 870.887 2208.76 870.23 2208.32 869.731 2207.77 869.391 2207.22 869.051 2206.61 868.882 2205.95 868.882ZM2380.89 868.404C2380.46 868.885 2379.99 869.342 2379.49 869.775 2378.99 870.207 2378.46 870.612 2377.92 870.988L2384.09 870.988C2383.54 870.637 2383 870.25 2382.48 869.826 2381.95 869.401 2381.42 868.928 2380.89 868.404ZM2293.4 867.825 2297.31 867.825C2298.45 867.825 2299.35 868.122 2300.02 868.716 2300.68 869.311 2301.02 870.118 2301.02 871.141 2301.02 871.82 2300.86 872.408 2300.55 872.904 2300.24 873.401 2299.81 873.784 2299.24 874.056 2298.68 874.327 2298.01 874.463 2297.25 874.463L2294.72 874.463 2294.72 878.753 2293.4 878.753ZM2276.63 867.825 2277.88 867.825 2277.88 878.753 2276.66 878.753 2276.66 877.58 2276.65 877.58C2276.37 878.025 2276.02 878.356 2275.59 878.574 2275.17 878.791 2274.71 878.9 2274.2 878.9 2273.53 878.9 2272.95 878.73 2272.44 878.39 2271.94 878.05 2271.54 877.579 2271.27 876.975 2270.99 876.371 2270.85 875.673 2270.85 874.881 2270.85 874.084 2270.99 873.383 2271.27 872.78 2271.54 872.176 2271.94 871.705 2272.44 871.368 2272.95 871.03 2273.53 870.862 2274.2 870.862 2274.71 870.862 2275.17 870.968 2275.6 871.181 2276.03 871.393 2276.37 871.717 2276.62 872.153L2276.63 872.153ZM2250.41 867.825 2252.2 867.825 2254.97 874.881C2255.04 875.047 2255.12 875.256 2255.22 875.508 2255.31 875.76 2255.41 876.019 2255.51 876.285 2255.61 876.552 2255.7 876.795 2255.78 877.015 2255.85 876.795 2255.94 876.552 2256.04 876.285 2256.14 876.019 2256.24 875.76 2256.34 875.508 2256.43 875.256 2256.51 875.047 2256.57 874.881L2259.3 867.825 2261.1 867.825 2261.1 878.753 2259.8 878.753 2259.8 872.417C2259.8 872.025 2259.81 871.589 2259.82 871.107 2259.83 870.626 2259.84 870.148 2259.85 869.674 2259.64 870.251 2259.45 870.779 2259.27 871.258 2259.09 871.737 2258.95 872.123 2258.83 872.417L2256.3 878.753 2255.21 878.753 2252.66 872.417C2252.55 872.138 2252.41 871.774 2252.24 871.324 2252.07 870.874 2251.88 870.378 2251.67 869.835 2251.68 870.285 2251.69 870.735 2251.7 871.184 2251.71 871.634 2251.71 872.045 2251.71 872.417L2251.71 878.753 2250.41 878.753ZM2244.25 867.825 2245.49 867.825 2245.49 878.753 2244.25 878.753ZM2219.85 867.825 2220.63 867.825 2220.63 868.896 2219.97 868.896C2219.64 868.896 2219.41 868.967 2219.27 869.109 2219.13 869.251 2219.06 869.488 2219.06 869.82L2219.06 871.008 2220.63 871.008 2220.63 872.079 2219.06 872.079 2219.06 878.753 2217.82 878.753 2217.82 872.079 2216.44 872.079 2216.44 871.008 2217.82 871.008 2217.82 869.63C2217.82 869.077 2218 868.638 2218.37 868.313 2218.73 867.988 2219.23 867.825 2219.85 867.825ZM2214.85 867.825 2215.63 867.825 2215.63 868.896 2214.97 868.896C2214.64 868.896 2214.41 868.967 2214.27 869.109 2214.13 869.251 2214.06 869.488 2214.06 869.82L2214.06 871.008 2215.63 871.008 2215.63 872.079 2214.06 872.079 2214.06 878.753 2212.82 878.753 2212.82 872.079 2211.44 872.079 2211.44 871.008 2212.82 871.008 2212.82 869.63C2212.82 869.077 2213 868.638 2213.37 868.313 2213.73 867.988 2214.23 867.825 2214.85 867.825ZM2279.87 867.796C2280.1 867.796 2280.3 867.879 2280.47 868.045 2280.63 868.212 2280.71 868.412 2280.71 868.647 2280.71 868.882 2280.63 869.082 2280.47 869.248 2280.3 869.414 2280.1 869.498 2279.87 869.498 2279.63 869.498 2279.43 869.414 2279.26 869.248 2279.1 869.082 2279.02 868.882 2279.02 868.647 2279.02 868.412 2279.1 868.212 2279.26 868.045 2279.43 867.879 2279.63 867.796 2279.87 867.796ZM2233.87 867.796C2234.11 867.796 2234.31 867.879 2234.47 868.045 2234.64 868.212 2234.72 868.412 2234.72 868.647 2234.72 868.882 2234.64 869.082 2234.47 869.248 2234.31 869.414 2234.11 869.498 2233.87 869.498 2233.64 869.498 2233.44 869.414 2233.27 869.248 2233.11 869.082 2233.02 868.882 2233.02 868.647 2233.02 868.412 2233.11 868.212 2233.27 868.045 2233.44 867.879 2233.64 867.796 2233.87 867.796ZM2222.88 867.796C2223.11 867.796 2223.31 867.879 2223.48 868.045 2223.64 868.212 2223.72 868.412 2223.72 868.647 2223.72 868.882 2223.64 869.082 2223.48 869.248 2223.31 869.414 2223.11 869.498 2222.88 869.498 2222.64 869.498 2222.44 869.414 2222.27 869.248 2222.11 869.082 2222.03 868.882 2222.03 868.647 2222.03 868.412 2222.11 868.212 2222.27 868.045 2222.44 867.879 2222.64 867.796 2222.88 867.796ZM2205.95 867.649C2206.92 867.649 2207.77 867.891 2208.52 868.375 2209.26 868.859 2209.85 869.526 2210.27 870.374 2210.7 871.222 2210.91 872.196 2210.91 873.297 2210.91 874.387 2210.7 875.356 2210.27 876.205 2209.85 877.053 2209.26 877.719 2208.52 878.203 2207.77 878.687 2206.92 878.929 2205.95 878.929 2204.99 878.929 2204.13 878.687 2203.39 878.203 2202.64 877.719 2202.05 877.053 2201.63 876.205 2201.21 875.356 2200.99 874.387 2200.99 873.297 2200.99 872.196 2201.21 871.222 2201.63 870.374 2202.05 869.526 2202.64 868.859 2203.39 868.375 2204.13 867.891 2204.99 867.649 2205.95 867.649ZM2396.13 866.316 2397.46 866.677C2397.34 867.001 2397.22 867.326 2397.09 867.651 2396.96 867.977 2396.83 868.298 2396.68 868.615L2402.71 868.615 2402.71 869.951 2398.27 869.951 2398.27 871.859 2402.35 871.859 2402.35 873.136 2398.27 873.136 2398.27 875.133 2402.56 875.133 2402.56 876.44 2398.27 876.44 2398.27 879.925 2396.85 879.925 2396.85 869.951 2396.01 869.951C2395.69 870.54 2395.37 871.09 2395.02 871.602 2394.68 872.113 2394.33 872.57 2393.97 872.97 2393.85 872.839 2393.68 872.678 2393.46 872.486 2393.25 872.294 2393.06 872.141 2392.89 872.024 2393.56 871.317 2394.17 870.463 2394.73 869.463 2395.3 868.463 2395.76 867.414 2396.13 866.316ZM2425.9 866.226 2427.27 866.226 2427.27 869.02 2431.56 869.02 2431.56 870.342 2428.05 870.342C2428.49 871.574 2429.05 872.737 2429.72 873.83 2430.4 874.924 2431.13 875.809 2431.92 876.485 2431.74 876.62 2431.55 876.79 2431.35 876.996 2431.15 877.202 2430.99 877.402 2430.85 877.597 2430.14 876.881 2429.48 875.981 2428.86 874.897 2428.25 873.813 2427.72 872.65 2427.27 871.408L2427.27 876.02 2429.49 876.02 2429.49 877.281 2427.27 877.281 2427.27 879.85 2425.9 879.85 2425.9 877.281 2423.67 877.281 2423.67 876.02 2425.9 876.02 2425.9 871.498C2425.44 872.744 2424.9 873.899 2424.27 874.964 2423.64 876.03 2422.95 876.922 2422.21 877.642 2422.1 877.461 2421.95 877.27 2421.75 877.069 2421.56 876.868 2421.38 876.703 2421.23 876.575 2422.03 875.891 2422.77 874.995 2423.46 873.887 2424.15 872.778 2424.72 871.597 2425.17 870.342L2421.88 870.342 2421.88 869.02 2425.9 869.02ZM2420.91 866.226 2422.21 866.602C2422.05 867.113 2421.86 867.622 2421.64 868.13 2421.43 868.638 2421.2 869.14 2420.96 869.636L2420.96 879.91 2419.62 879.91 2419.62 871.949C2419.43 872.219 2419.25 872.475 2419.07 872.719 2418.88 872.962 2418.7 873.196 2418.51 873.421 2418.43 873.237 2418.32 873 2418.16 872.709 2418 872.419 2417.86 872.185 2417.73 872.009 2418.38 871.287 2418.98 870.419 2419.53 869.405 2420.08 868.391 2420.54 867.332 2420.91 866.226ZM2392.41 866.211 2393.74 866.632C2393.54 867.16 2393.31 867.689 2393.06 868.218 2392.81 868.748 2392.55 869.266 2392.26 869.771L2392.26 879.91 2390.85 879.91 2390.85 871.979C2390.65 872.25 2390.45 872.508 2390.25 872.755 2390.04 873.001 2389.83 873.233 2389.62 873.451 2389.54 873.26 2389.43 873.016 2389.27 872.719 2389.11 872.422 2388.97 872.186 2388.84 872.009 2389.56 871.287 2390.23 870.418 2390.86 869.403 2391.48 868.388 2392 867.324 2392.41 866.211ZM2405.76 866.182 2406.99 866.242C2406.94 866.701 2406.89 867.176 2406.83 867.667 2406.77 868.158 2406.7 868.659 2406.63 869.17L2407.9 869.17 2408.13 869.14 2408.92 869.245C2408.86 870.692 2408.72 871.979 2408.52 873.108 2408.33 874.237 2408.06 875.227 2407.72 876.079 2407.99 876.343 2408.24 876.599 2408.46 876.849 2408.68 877.098 2408.87 877.332 2409.03 877.551L2408.07 878.542C2407.95 878.368 2407.81 878.179 2407.65 877.977 2407.49 877.774 2407.31 877.567 2407.12 877.355 2406.8 877.903 2406.43 878.389 2406.02 878.814 2405.61 879.24 2405.15 879.61 2404.65 879.924 2404.55 879.75 2404.42 879.558 2404.27 879.348 2404.12 879.138 2403.97 878.964 2403.82 878.827 2404.3 878.566 2404.73 878.233 2405.11 877.827 2405.5 877.421 2405.85 876.933 2406.15 876.364 2405.84 876.077 2405.52 875.796 2405.2 875.522 2404.87 875.247 2404.55 874.993 2404.24 874.758 2404.41 874.18 2404.57 873.522 2404.73 872.783 2404.89 872.044 2405.04 871.265 2405.19 870.447L2404.11 870.447 2404.11 869.17 2405.4 869.17C2405.47 868.644 2405.54 868.131 2405.61 867.631 2405.67 867.131 2405.72 866.648 2405.76 866.182ZM2410.42 866.152 2411.68 866.152 2411.68 867.729 2414.85 867.729 2414.85 866.152 2416.17 866.152 2416.17 867.729 2417.43 867.729 2417.43 868.914 2416.17 868.914 2416.17 873.33 2414.02 873.33 2414.02 874.488 2417.44 874.488 2417.44 875.673 2414.65 875.673C2415.07 876.238 2415.57 876.764 2416.14 877.25 2416.71 877.737 2417.28 878.127 2417.86 878.422 2417.7 878.556 2417.52 878.727 2417.34 878.933 2417.15 879.139 2417 879.339 2416.87 879.533 2416.38 879.202 2415.88 878.787 2415.39 878.287 2414.9 877.787 2414.44 877.251 2414.02 876.68L2414.02 879.924 2412.67 879.924 2412.67 876.665C2412.25 877.279 2411.77 877.841 2411.23 878.351 2410.7 878.86 2410.14 879.279 2409.57 879.609 2409.45 879.428 2409.3 879.234 2409.12 879.026 2408.95 878.819 2408.78 878.648 2408.62 878.512 2409.26 878.217 2409.87 877.819 2410.45 877.318 2411.03 876.817 2411.52 876.268 2411.94 875.673L2409.16 875.673 2409.16 874.488 2412.67 874.488 2412.67 873.33 2410.42 873.33 2410.42 868.914 2409.22 868.914 2409.22 867.729 2410.42 867.729ZM2381 866.106 2382.23 866.737C2382.15 866.85 2382.08 866.962 2382 867.075 2381.92 867.188 2381.84 867.3 2381.75 867.413 2382.66 868.306 2383.63 869.059 2384.65 869.672 2385.66 870.285 2386.73 870.808 2387.84 871.243 2387.64 871.406 2387.46 871.602 2387.28 871.831 2387.1 872.06 2386.96 872.289 2386.86 872.52 2386.46 872.326 2386.07 872.128 2385.69 871.927 2385.31 871.725 2384.93 871.512 2384.55 871.288L2384.55 872.28 2377.08 872.28 2377.08 871.529C2376.73 871.74 2376.37 871.944 2376.01 872.139 2375.65 872.334 2375.29 872.511 2374.92 872.67 2374.8 872.475 2374.65 872.264 2374.47 872.035 2374.29 871.807 2374.1 871.603 2373.9 871.423 2374.84 871.055 2375.75 870.605 2376.64 870.072 2377.53 869.538 2378.35 868.937 2379.1 868.269 2379.85 867.601 2380.48 866.88 2381 866.106ZM2351.32 866.077C2351.43 866.293 2351.54 866.529 2351.65 866.785 2351.76 867.041 2351.85 867.28 2351.92 867.504L2357.18 867.504 2357.18 870.251 2355.71 870.251 2355.71 868.809 2345.81 868.809 2345.81 870.251 2344.42 870.251 2344.42 867.504 2350.33 867.504C2350.27 867.314 2350.21 867.123 2350.14 866.931 2350.06 866.74 2349.98 866.56 2349.89 866.392ZM2366.13 866.031C2366.34 866.38 2366.54 866.752 2366.73 867.148 2366.93 867.544 2367.09 867.898 2367.2 868.209L2366.19 868.645 2372.36 868.645 2372.36 870.011 2364.77 870.011C2364.75 870.365 2364.72 870.72 2364.7 871.078 2364.67 871.435 2364.63 871.791 2364.59 872.144L2370.96 872.144C2370.96 872.158 2370.96 872.239 2370.95 872.387 2370.94 872.534 2370.93 872.664 2370.9 872.775 2370.81 874.148 2370.71 875.271 2370.61 876.144 2370.5 877.016 2370.38 877.693 2370.24 878.174 2370.1 878.654 2369.93 878.993 2369.73 879.189 2369.54 879.387 2369.33 879.528 2369.11 879.611 2368.88 879.695 2368.62 879.749 2368.31 879.775 2368.02 879.797 2367.66 879.805 2367.21 879.799 2366.76 879.793 2366.29 879.775 2365.77 879.745 2365.77 879.535 2365.72 879.305 2365.63 879.056 2365.54 878.806 2365.42 878.58 2365.28 878.378 2365.82 878.422 2366.32 878.45 2366.77 878.464 2367.23 878.478 2367.56 878.484 2367.78 878.483 2367.95 878.485 2368.08 878.474 2368.2 878.449 2368.31 878.425 2368.41 878.376 2368.5 878.303 2368.71 878.143 2368.89 877.682 2369.04 876.919 2369.18 876.156 2369.32 875.015 2369.43 873.496L2364.38 873.496C2364.16 874.804 2363.72 876.023 2363.07 877.154 2362.41 878.285 2361.4 879.233 2360.03 880 2359.92 879.806 2359.77 879.604 2359.58 879.396 2359.4 879.186 2359.2 879.007 2359.01 878.859 2360.23 878.215 2361.14 877.414 2361.72 876.458 2362.31 875.501 2362.7 874.467 2362.89 873.353 2363.08 872.24 2363.19 871.126 2363.23 870.011L2359.3 870.011 2359.3 868.645 2365.71 868.645C2365.61 868.334 2365.47 867.99 2365.3 867.61 2365.12 867.23 2364.95 866.874 2364.77 866.542ZM2318.7 824.341 2318.7 826.04 2325.37 826.04 2325.37 824.341ZM2414.96 824.041C2415.46 824.537 2415.95 825.07 2416.42 825.639 2416.89 826.208 2417.26 826.722 2417.54 827.18L2416.37 827.932C2416.11 827.456 2415.74 826.92 2415.28 826.322 2414.82 825.725 2414.33 825.17 2413.83 824.657ZM2410.52 824.011 2411.84 824.432C2411.46 825.095 2411.01 825.729 2410.49 826.334 2409.97 826.939 2409.45 827.456 2408.93 827.886 2408.79 827.751 2408.61 827.598 2408.4 827.427 2408.18 827.255 2407.99 827.113 2407.82 827 2408.35 826.623 2408.85 826.172 2409.33 825.647 2409.8 825.121 2410.2 824.576 2410.52 824.011ZM2423.12 823.56 2423.12 825.049 2426.41 825.049 2426.41 823.56ZM2379.25 823.199 2379.25 824.252 2379.25 824.328 2382.74 824.328 2382.74 823.199ZM2277.92 822.843C2277.83 822.931 2277.58 823.011 2277.18 823.081 2276.78 823.152 2276.36 823.22 2275.92 823.283 2275.62 823.322 2275.34 823.39 2275.07 823.485 2274.8 823.58 2274.59 823.715 2274.42 823.888 2274.26 824.062 2274.17 824.295 2274.17 824.589 2274.17 824.951 2274.32 825.234 2274.6 825.439 2274.89 825.645 2275.28 825.747 2275.77 825.747 2276.28 825.747 2276.69 825.656 2277.01 825.472 2277.32 825.289 2277.56 825.051 2277.7 824.757 2277.85 824.464 2277.92 824.149 2277.92 823.811ZM2154.94 822.843C2154.85 822.931 2154.6 823.011 2154.2 823.081 2153.8 823.152 2153.38 823.22 2152.94 823.283 2152.64 823.322 2152.36 823.39 2152.09 823.485 2151.83 823.58 2151.61 823.715 2151.44 823.888 2151.28 824.062 2151.19 824.295 2151.19 824.589 2151.19 824.951 2151.34 825.234 2151.62 825.439 2151.91 825.645 2152.3 825.747 2152.79 825.747 2153.3 825.747 2153.71 825.656 2154.03 825.472 2154.35 825.289 2154.58 825.051 2154.72 824.757 2154.87 824.464 2154.94 824.149 2154.94 823.811ZM2377.33 821.562 2377.33 822.315 2384.5 822.315 2384.5 821.562ZM2393.74 820.527 2402.39 820.527 2402.39 821.667 2398.64 821.667 2398.64 823.231 2401.64 823.231 2401.64 824.341 2398.64 824.341 2398.64 826.43C2398.84 826.46 2399.05 826.48 2399.25 826.491 2399.46 826.501 2399.67 826.506 2399.89 826.506 2400.05 826.506 2400.33 826.505 2400.72 826.505 2401.11 826.505 2401.51 826.503 2401.91 826.501 2402.32 826.499 2402.62 826.495 2402.83 826.491 2402.74 826.651 2402.66 826.851 2402.59 827.089 2402.51 827.326 2402.46 827.537 2402.44 827.72L2399.86 827.72C2399.16 827.728 2398.52 827.671 2397.95 827.55 2397.37 827.428 2396.86 827.197 2396.4 826.855 2395.95 826.513 2395.56 826.016 2395.24 825.363 2395.03 825.888 2394.79 826.366 2394.51 826.794 2394.23 827.222 2393.91 827.601 2393.54 827.932 2393.43 827.809 2393.26 827.663 2393.06 827.494 2392.85 827.325 2392.66 827.19 2392.49 827.09 2393.14 826.568 2393.64 825.897 2393.99 825.077 2394.34 824.258 2394.57 823.317 2394.68 822.254L2395.94 822.404C2395.87 822.96 2395.77 823.486 2395.66 823.981 2395.85 824.519 2396.09 824.956 2396.37 825.293 2396.65 825.63 2396.98 825.884 2397.34 826.054L2397.34 821.667 2393.74 821.667ZM2423.24 820.15 2424.23 820.616C2423.93 820.943 2423.6 821.274 2423.23 821.608 2422.86 821.943 2422.48 822.258 2422.1 822.555L2427.54 822.555 2427.54 826.053 2423.12 826.053 2423.12 826.716 2421.95 826.716 2421.95 822.675C2421.83 822.773 2421.7 822.866 2421.58 822.952 2421.46 823.039 2421.34 823.117 2421.22 823.185 2421.16 823.055 2421.08 822.872 2420.96 822.633 2420.84 822.395 2420.73 822.204 2420.63 822.059 2421.09 821.799 2421.55 821.504 2422.02 821.172 2422.48 820.841 2422.89 820.5 2423.24 820.15ZM2426.36 820C2426.84 820.344 2427.36 820.719 2427.91 821.123 2428.46 821.528 2428.92 821.88 2429.27 822.179L2428.43 823.11C2428.09 822.802 2427.66 822.435 2427.12 822.008 2426.58 821.581 2426.06 821.188 2425.57 820.827ZM2377.33 819.985 2377.33 820.723 2384.5 820.723 2384.5 819.985ZM2197.4 819.968C2196.73 819.968 2196.18 820.215 2195.75 820.709 2195.33 821.203 2195.11 821.924 2195.11 822.872 2195.11 823.821 2195.33 824.541 2195.75 825.032 2196.18 825.524 2196.73 825.769 2197.4 825.769 2198.12 825.769 2198.69 825.505 2199.11 824.977 2199.53 824.449 2199.74 823.748 2199.74 822.872 2199.74 821.997 2199.53 821.294 2199.11 820.764 2198.69 820.233 2198.12 819.968 2197.4 819.968ZM2181.45 819.953C2180.72 819.953 2180.15 820.22 2179.74 820.753 2179.32 821.286 2179.12 821.997 2179.12 822.887 2179.12 823.767 2179.32 824.471 2179.73 824.999 2180.14 825.527 2180.71 825.792 2181.45 825.792 2182.18 825.792 2182.75 825.526 2183.16 824.996 2183.57 824.465 2183.77 823.762 2183.77 822.887 2183.77 822.002 2183.57 821.292 2183.16 820.757 2182.74 820.221 2182.17 819.953 2181.45 819.953ZM2302.34 819.939C2301.7 819.939 2301.18 820.139 2300.78 820.54 2300.38 820.941 2300.15 821.481 2300.08 822.161L2304.61 822.161C2304.54 821.481 2304.3 820.941 2303.9 820.54 2303.49 820.139 2302.97 819.939 2302.34 819.939ZM2249.35 819.939C2248.71 819.939 2248.19 820.139 2247.79 820.54 2247.39 820.941 2247.16 821.481 2247.09 822.161L2251.62 822.161C2251.55 821.481 2251.31 820.941 2250.91 820.54 2250.5 820.139 2249.98 819.939 2249.35 819.939ZM2217.35 819.939C2216.72 819.939 2216.2 820.139 2215.8 820.54 2215.4 820.941 2215.16 821.481 2215.1 822.161L2219.62 822.161C2219.55 821.481 2219.32 820.941 2218.91 820.54 2218.51 820.139 2217.99 819.939 2217.35 819.939ZM2345.16 819.43 2358.46 819.43 2358.46 820.857 2351.48 820.857C2351.01 821.725 2350.51 822.561 2349.96 823.363 2349.42 824.166 2348.86 824.908 2348.3 825.588L2355.13 825.093C2354.85 824.663 2354.56 824.242 2354.28 823.831 2353.99 823.42 2353.71 823.029 2353.45 822.659L2354.72 821.983C2355.14 822.547 2355.57 823.141 2356.01 823.765 2356.44 824.389 2356.85 824.997 2357.23 825.589 2357.61 826.182 2357.92 826.712 2358.17 827.18L2356.82 827.992C2356.72 827.765 2356.59 827.519 2356.44 827.254 2356.29 826.988 2356.12 826.708 2355.94 826.414 2353.99 826.577 2352.42 826.709 2351.23 826.808 2350.04 826.907 2349.13 826.987 2348.49 827.049 2347.85 827.111 2347.39 827.167 2347.1 827.217 2346.81 827.268 2346.59 827.325 2346.43 827.391 2346.38 827.216 2346.31 826.972 2346.21 826.66 2346.1 826.348 2346 826.071 2345.89 825.829 2346.07 825.782 2346.26 825.669 2346.44 825.489 2346.62 825.309 2346.83 825.072 2347.06 824.777 2347.29 824.516 2347.64 824.028 2348.11 823.313 2348.58 822.597 2349.06 821.779 2349.53 820.857L2345.16 820.857ZM2318.7 819.129 2318.7 820.693 2324.88 820.693 2324.88 819.129ZM2235.24 819 2236.49 819 2236.49 826.745 2235.24 826.745ZM2226.54 819 2227.89 819 2229.56 823.459C2229.67 823.757 2229.78 824.054 2229.88 824.35 2229.98 824.646 2230.08 824.943 2230.18 825.241 2230.28 824.943 2230.39 824.646 2230.49 824.35 2230.59 824.054 2230.7 823.757 2230.8 823.459L2232.45 819 2233.78 819 2230.79 826.745 2229.53 826.745ZM2186.25 819 2187.5 819 2187.5 823.723C2187.5 824.393 2187.66 824.898 2187.98 825.238 2188.3 825.578 2188.75 825.747 2189.33 825.747 2189.89 825.747 2190.37 825.574 2190.77 825.227 2191.16 824.88 2191.36 824.315 2191.36 823.532L2191.36 819 2192.61 819 2192.61 826.745 2191.39 826.745 2191.39 825.608C2191.12 826.048 2190.8 826.372 2190.41 826.58 2190.02 826.788 2189.58 826.892 2189.09 826.892 2188.57 826.892 2188.1 826.778 2187.67 826.551 2187.24 826.323 2186.89 825.981 2186.64 825.524 2186.38 825.067 2186.25 824.496 2186.25 823.811ZM2147.26 819 2148.5 819 2148.5 826.745 2147.26 826.745ZM2136.26 819 2137.5 819 2137.5 826.745 2136.26 826.745ZM2310.31 818.883C2310.42 818.883 2310.52 818.888 2310.62 818.897 2310.71 818.907 2310.78 818.917 2310.83 818.927L2310.83 820.173C2310.78 820.159 2310.69 820.14 2310.55 820.118 2310.41 820.096 2310.25 820.085 2310.07 820.085 2309.64 820.085 2309.27 820.237 2308.95 820.54 2308.63 820.843 2308.47 821.322 2308.47 821.978L2308.47 826.745 2307.23 826.745 2307.23 819 2308.42 819 2308.42 820.218 2308.45 820.218C2308.59 819.817 2308.81 819.494 2309.12 819.249 2309.43 819.005 2309.82 818.883 2310.31 818.883ZM2284.31 818.883C2284.42 818.883 2284.53 818.888 2284.62 818.897 2284.72 818.907 2284.79 818.917 2284.84 818.927L2284.84 820.173C2284.79 820.159 2284.69 820.14 2284.56 820.118 2284.42 820.096 2284.26 820.085 2284.08 820.085 2283.65 820.085 2283.27 820.237 2282.96 820.54 2282.64 820.843 2282.48 821.322 2282.48 821.978L2282.48 826.745 2281.23 826.745 2281.23 819 2282.42 819 2282.42 820.218 2282.45 820.218C2282.59 819.817 2282.82 819.494 2283.12 819.249 2283.43 819.005 2283.83 818.883 2284.31 818.883ZM2225.32 818.883C2225.43 818.883 2225.54 818.888 2225.63 818.897 2225.73 818.907 2225.8 818.917 2225.85 818.927L2225.85 820.173C2225.8 820.159 2225.7 820.14 2225.57 820.118 2225.43 820.096 2225.27 820.085 2225.09 820.085 2224.66 820.085 2224.28 820.237 2223.97 820.54 2223.65 820.843 2223.49 821.322 2223.49 821.978L2223.49 826.745 2222.24 826.745 2222.24 819 2223.43 819 2223.43 820.218 2223.46 820.218C2223.6 819.817 2223.83 819.494 2224.13 819.249 2224.44 819.005 2224.84 818.883 2225.32 818.883ZM2294.75 818.853C2295.27 818.853 2295.75 818.967 2296.18 819.194 2296.61 819.422 2296.95 819.763 2297.2 820.218 2297.46 820.672 2297.59 821.244 2297.59 821.934L2297.59 826.745 2296.34 826.745 2296.34 822.022C2296.34 821.352 2296.18 820.847 2295.86 820.507 2295.54 820.167 2295.09 819.997 2294.51 819.997 2293.95 819.997 2293.47 820.171 2293.07 820.518 2292.68 820.865 2292.48 821.43 2292.48 822.212L2292.48 826.745 2291.23 826.745 2291.23 819 2292.45 819 2292.45 820.137C2292.72 819.697 2293.04 819.373 2293.43 819.165 2293.82 818.957 2294.26 818.853 2294.75 818.853ZM2276.21 818.853C2277.11 818.853 2277.83 819.087 2278.36 819.554 2278.89 820.021 2279.15 820.638 2279.15 821.406L2279.15 826.745 2277.92 826.745 2277.92 825.645 2277.89 825.645C2277.8 825.831 2277.66 826.018 2277.48 826.206 2277.3 826.394 2277.06 826.551 2276.75 826.675 2276.45 826.8 2276.06 826.862 2275.59 826.862 2274.83 826.862 2274.19 826.664 2273.67 826.268 2273.16 825.872 2272.9 825.288 2272.9 824.515 2272.9 824.07 2272.99 823.709 2273.16 823.43 2273.33 823.151 2273.56 822.932 2273.85 822.773 2274.15 822.615 2274.47 822.493 2274.84 822.41 2275.21 822.327 2275.59 822.261 2275.97 822.212 2276.47 822.144 2276.86 822.093 2277.14 822.058 2277.42 822.024 2277.62 821.968 2277.74 821.89 2277.86 821.811 2277.92 821.674 2277.92 821.479L2277.92 821.406C2277.92 820.985 2277.77 820.638 2277.47 820.364 2277.17 820.09 2276.75 819.953 2276.21 819.953 2275.67 819.953 2275.23 820.084 2274.89 820.346 2274.54 820.607 2274.36 820.931 2274.33 821.318L2273.06 821.318C2273.08 820.843 2273.23 820.422 2273.5 820.052 2273.77 819.683 2274.13 819.391 2274.6 819.176 2275.06 818.961 2275.6 818.853 2276.21 818.853ZM2153.23 818.853C2154.13 818.853 2154.85 819.087 2155.38 819.554 2155.91 820.021 2156.17 820.638 2156.17 821.406L2156.17 826.745 2154.94 826.745 2154.94 825.645 2154.91 825.645C2154.82 825.831 2154.69 826.018 2154.5 826.206 2154.32 826.394 2154.08 826.551 2153.78 826.675 2153.47 826.8 2153.08 826.862 2152.62 826.862 2151.85 826.862 2151.21 826.664 2150.69 826.268 2150.18 825.872 2149.92 825.288 2149.92 824.515 2149.92 824.07 2150.01 823.709 2150.18 823.43 2150.35 823.151 2150.59 822.932 2150.88 822.773 2151.17 822.615 2151.5 822.493 2151.86 822.41 2152.23 822.327 2152.61 822.261 2153 822.212 2153.49 822.144 2153.88 822.093 2154.16 822.058 2154.44 822.024 2154.65 821.968 2154.76 821.89 2154.88 821.811 2154.94 821.674 2154.94 821.479L2154.94 821.406C2154.94 820.985 2154.79 820.638 2154.49 820.364 2154.19 820.09 2153.77 819.953 2153.23 819.953 2152.69 819.953 2152.25 820.084 2151.91 820.346 2151.56 820.607 2151.38 820.931 2151.35 821.318L2150.08 821.318C2150.11 820.843 2150.25 820.422 2150.52 820.052 2150.79 819.683 2151.16 819.391 2151.62 819.176 2152.08 818.961 2152.62 818.853 2153.23 818.853ZM2302.34 818.824C2303.05 818.824 2303.68 818.995 2304.2 819.337 2304.73 819.68 2305.14 820.156 2305.42 820.768 2305.71 821.379 2305.85 822.085 2305.85 822.887L2305.85 823.232 2300.07 823.232C2300.1 823.99 2300.31 824.606 2300.72 825.08 2301.12 825.554 2301.69 825.792 2302.42 825.792 2302.98 825.792 2303.43 825.664 2303.78 825.41 2304.12 825.156 2304.36 824.828 2304.47 824.427L2305.72 824.427C2305.62 824.921 2305.42 825.355 2305.11 825.729 2304.8 826.103 2304.42 826.395 2303.96 826.606 2303.5 826.816 2302.99 826.921 2302.42 826.921 2301.67 826.921 2301.02 826.747 2300.49 826.4 2299.95 826.053 2299.54 825.575 2299.26 824.966 2298.98 824.358 2298.84 823.665 2298.84 822.887 2298.84 822.1 2298.98 821.401 2299.28 820.79 2299.58 820.178 2299.99 819.698 2300.52 819.348 2301.05 818.999 2301.65 818.824 2302.34 818.824ZM2256.85 818.824C2257.39 818.824 2257.87 818.925 2258.3 819.128 2258.73 819.331 2259.07 819.618 2259.32 819.99 2259.57 820.362 2259.7 820.804 2259.72 821.318L2258.5 821.318C2258.5 820.907 2258.34 820.567 2258.05 820.298 2257.75 820.029 2257.35 819.895 2256.85 819.895 2256.38 819.895 2256 820.01 2255.72 820.24 2255.44 820.469 2255.29 820.75 2255.29 821.083 2255.29 821.376 2255.4 821.612 2255.62 821.791 2255.83 821.969 2256.12 822.102 2256.49 822.19L2257.74 822.484C2258.48 822.66 2259.03 822.923 2259.37 823.272 2259.72 823.622 2259.89 824.075 2259.89 824.633 2259.89 825.112 2259.76 825.523 2259.5 825.865 2259.25 826.207 2258.89 826.469 2258.45 826.65 2258 826.831 2257.5 826.921 2256.93 826.921 2256.38 826.921 2255.88 826.831 2255.43 826.65 2254.98 826.469 2254.62 826.194 2254.34 825.824 2254.06 825.455 2253.91 824.99 2253.87 824.427L2255.1 824.427C2255.19 825.376 2255.79 825.85 2256.9 825.85 2257.44 825.85 2257.87 825.738 2258.18 825.513 2258.49 825.288 2258.64 825.004 2258.64 824.662 2258.64 824.369 2258.53 824.134 2258.32 823.958 2258.1 823.782 2257.82 823.655 2257.48 823.577L2256.23 823.283C2254.78 822.941 2254.05 822.208 2254.05 821.083 2254.05 820.643 2254.17 820.253 2254.4 819.913 2254.64 819.573 2254.97 819.307 2255.39 819.114 2255.81 818.921 2256.3 818.824 2256.85 818.824ZM2249.35 818.824C2250.06 818.824 2250.69 818.995 2251.21 819.337 2251.74 819.68 2252.15 820.156 2252.43 820.768 2252.72 821.379 2252.86 822.085 2252.86 822.887L2252.86 823.232 2247.08 823.232C2247.1 823.99 2247.32 824.606 2247.73 825.08 2248.13 825.554 2248.7 825.792 2249.43 825.792 2249.99 825.792 2250.44 825.664 2250.78 825.41 2251.13 825.156 2251.37 824.828 2251.48 824.427L2252.73 824.427C2252.63 824.921 2252.43 825.355 2252.12 825.729 2251.81 826.103 2251.43 826.395 2250.97 826.606 2250.51 826.816 2249.99 826.921 2249.43 826.921 2248.68 826.921 2248.03 826.747 2247.5 826.4 2246.96 826.053 2246.55 825.575 2246.27 824.966 2245.99 824.358 2245.85 823.665 2245.85 822.887 2245.85 822.1 2245.99 821.401 2246.29 820.79 2246.59 820.178 2247 819.698 2247.53 819.348 2248.06 818.999 2248.66 818.824 2249.35 818.824ZM2241.43 818.824C2242.02 818.824 2242.55 818.94 2243.01 819.172 2243.47 819.405 2243.85 819.724 2244.15 820.129 2244.44 820.535 2244.63 821 2244.69 821.523L2243.43 821.523C2243.34 821.068 2243.13 820.693 2242.79 820.397 2242.46 820.101 2242.01 819.953 2241.43 819.953 2240.71 819.953 2240.14 820.22 2239.72 820.753 2239.31 821.286 2239.11 821.997 2239.11 822.887 2239.11 823.767 2239.31 824.471 2239.72 824.999 2240.13 825.527 2240.7 825.792 2241.43 825.792 2242.02 825.792 2242.46 825.648 2242.77 825.362 2243.07 825.076 2243.29 824.696 2243.41 824.222L2244.69 824.222C2244.63 824.73 2244.44 825.189 2244.15 825.597 2243.85 826.005 2243.47 826.328 2243.01 826.565 2242.54 826.802 2242.02 826.921 2241.43 826.921 2240.72 826.921 2240.1 826.749 2239.56 826.404 2239.02 826.059 2238.6 825.584 2238.3 824.977 2238 824.371 2237.85 823.674 2237.85 822.887 2237.85 822.095 2238 821.393 2238.3 820.782 2238.6 820.171 2239.02 819.692 2239.56 819.345 2240.1 818.998 2240.72 818.824 2241.43 818.824ZM2217.35 818.824C2218.07 818.824 2218.69 818.995 2219.22 819.337 2219.75 819.68 2220.15 820.156 2220.44 820.768 2220.72 821.379 2220.87 822.085 2220.87 822.887L2220.87 823.232 2215.08 823.232C2215.11 823.99 2215.33 824.606 2215.73 825.08 2216.14 825.554 2216.71 825.792 2217.44 825.792 2217.99 825.792 2218.44 825.664 2218.79 825.41 2219.14 825.156 2219.37 824.828 2219.49 824.427L2220.73 824.427C2220.64 824.921 2220.43 825.355 2220.13 825.729 2219.82 826.103 2219.43 826.395 2218.97 826.606 2218.51 826.816 2218 826.921 2217.44 826.921 2216.68 826.921 2216.04 826.747 2215.5 826.4 2214.97 826.053 2214.56 825.575 2214.28 824.966 2213.99 824.358 2213.85 823.665 2213.85 822.887 2213.85 822.1 2214 821.401 2214.3 820.79 2214.6 820.178 2215.01 819.698 2215.54 819.348 2216.06 818.999 2216.67 818.824 2217.35 818.824ZM2181.45 818.824C2182.16 818.824 2182.79 818.998 2183.33 819.345 2183.86 819.692 2184.28 820.171 2184.58 820.782 2184.88 821.393 2185.03 822.095 2185.03 822.887 2185.03 823.674 2184.88 824.371 2184.58 824.977 2184.28 825.584 2183.86 826.059 2183.33 826.404 2182.79 826.749 2182.16 826.921 2181.45 826.921 2180.73 826.921 2180.11 826.749 2179.57 826.404 2179.03 826.059 2178.61 825.584 2178.31 824.977 2178.01 824.371 2177.86 823.674 2177.86 822.887 2177.86 822.095 2178.01 821.393 2178.31 820.782 2178.61 820.171 2179.03 819.692 2179.57 819.345 2180.11 818.998 2180.73 818.824 2181.45 818.824ZM2142.45 818.824C2143.04 818.824 2143.56 818.94 2144.03 819.172 2144.49 819.405 2144.87 819.724 2145.17 820.129 2145.46 820.535 2145.64 821 2145.71 821.523L2144.45 821.523C2144.36 821.068 2144.15 820.693 2143.81 820.397 2143.48 820.101 2143.02 819.953 2142.45 819.953 2141.72 819.953 2141.16 820.22 2140.74 820.753 2140.33 821.286 2140.12 821.997 2140.12 822.887 2140.12 823.767 2140.33 824.471 2140.74 824.999 2141.15 825.527 2141.72 825.792 2142.45 825.792 2143.03 825.792 2143.48 825.648 2143.79 825.362 2144.09 825.076 2144.31 824.696 2144.43 824.222L2145.71 824.222C2145.64 824.73 2145.46 825.189 2145.17 825.597 2144.87 826.005 2144.49 826.328 2144.02 826.565 2143.56 826.802 2143.03 826.921 2142.45 826.921 2141.74 826.921 2141.11 826.749 2140.57 826.404 2140.03 826.059 2139.61 825.584 2139.31 824.977 2139.01 824.371 2138.86 823.674 2138.86 822.887 2138.86 822.095 2139.01 821.393 2139.31 820.782 2139.61 820.171 2140.03 819.692 2140.57 819.345 2141.11 818.998 2141.74 818.824 2142.45 818.824ZM2360.02 818.769 2363.71 818.769 2363.71 824.882 2365.4 823.696C2365.45 823.909 2365.52 824.136 2365.61 824.377 2365.7 824.619 2365.77 824.812 2365.84 824.958 2364.89 825.643 2364.17 826.168 2363.68 826.532 2363.19 826.897 2362.84 827.164 2362.64 827.333 2362.44 827.502 2362.31 827.637 2362.24 827.736 2362.17 827.537 2362.07 827.312 2361.93 827.06 2361.79 826.809 2361.65 826.599 2361.52 826.429 2361.69 826.337 2361.85 826.18 2362.02 825.956 2362.18 825.733 2362.27 825.455 2362.28 825.123L2362.28 820.151 2360.02 820.151ZM2411.54 818.544 2411.54 821.923 2414.12 821.923 2414.12 818.544ZM2377.33 818.453 2377.33 819.161 2384.5 819.161 2384.5 818.453ZM2317.28 817.914 2326.27 817.914 2326.27 821.892 2318.7 821.892 2318.7 823.111 2326.8 823.111 2326.8 827.825 2325.37 827.825 2325.37 827.27 2318.7 827.27 2318.7 827.901 2317.28 827.901ZM2395.72 817.581 2395.72 818.575 2400.28 818.575 2400.28 817.581ZM2265.72 816.99 2265.72 821.281 2268.26 821.281C2269.02 821.281 2269.62 821.089 2270.06 820.705 2270.49 820.321 2270.71 819.797 2270.71 819.132 2270.71 818.467 2270.49 817.944 2270.06 817.562 2269.62 817.181 2269.02 816.99 2268.26 816.99ZM2286.8 816.888 2288.04 816.888 2288.04 819 2289.61 819 2289.61 820.071 2288.04 820.071 2288.04 824.867C2288.04 825.166 2288.1 825.375 2288.23 825.494 2288.35 825.614 2288.57 825.674 2288.89 825.674L2289.61 825.674 2289.61 826.745 2288.77 826.745C2287.46 826.745 2286.8 826.163 2286.8 824.999L2286.8 820.071 2285.42 820.071 2285.42 819 2286.8 819ZM2119.96 816.873C2119.3 816.873 2118.69 817.043 2118.14 817.383 2117.59 817.723 2117.15 818.221 2116.82 818.879 2116.48 819.537 2116.32 820.34 2116.32 821.288 2116.32 822.232 2116.48 823.031 2116.82 823.687 2117.15 824.342 2117.59 824.839 2118.14 825.179 2118.69 825.519 2119.3 825.689 2119.96 825.689 2120.62 825.689 2121.22 825.519 2121.77 825.179 2122.33 824.839 2122.77 824.342 2123.1 823.687 2123.43 823.031 2123.6 822.232 2123.6 821.288 2123.6 820.34 2123.43 819.537 2123.1 818.879 2122.77 818.221 2122.33 817.723 2121.77 817.383 2121.22 817.043 2120.62 816.873 2119.96 816.873ZM2382.23 816.32C2382.07 816.561 2381.91 816.786 2381.73 816.995 2381.55 817.204 2381.37 817.395 2381.18 817.568L2384.18 817.568C2384.08 817.384 2383.95 817.181 2383.79 816.961 2383.63 816.741 2383.46 816.527 2383.28 816.32ZM2378.26 816.32C2378.36 816.486 2378.45 816.646 2378.54 816.799 2378.63 816.953 2378.7 817.094 2378.75 817.222L2377.81 817.568 2380.93 817.568C2380.76 817.459 2380.58 817.35 2380.38 817.241 2380.18 817.132 2380 817.046 2379.85 816.982 2379.98 816.891 2380.1 816.79 2380.22 816.679 2380.34 816.568 2380.45 816.448 2380.55 816.32ZM2264.4 815.817 2268.31 815.817C2269.45 815.817 2270.35 816.114 2271.01 816.708 2271.68 817.302 2272.01 818.11 2272.01 819.132 2272.01 819.812 2271.86 820.4 2271.55 820.896 2271.24 821.392 2270.8 821.776 2270.24 822.047 2269.67 822.319 2269.01 822.454 2268.25 822.454L2265.72 822.454 2265.72 826.745 2264.4 826.745ZM2199.64 815.817 2200.88 815.817 2200.88 826.745 2199.67 826.745 2199.67 825.571 2199.65 825.571C2199.38 826.016 2199.02 826.348 2198.6 826.565 2198.17 826.783 2197.71 826.892 2197.21 826.892 2196.54 826.892 2195.95 826.722 2195.45 826.382 2194.94 826.042 2194.55 825.57 2194.27 824.966 2193.99 824.362 2193.85 823.665 2193.85 822.872 2193.85 822.076 2193.99 821.375 2194.27 820.771 2194.55 820.167 2194.94 819.697 2195.45 819.359 2195.95 819.022 2196.54 818.853 2197.21 818.853 2197.71 818.853 2198.18 818.96 2198.61 819.172 2199.04 819.385 2199.38 819.709 2199.62 820.144L2199.64 820.144ZM2175.25 815.817 2176.5 815.817 2176.5 826.745 2175.25 826.745ZM2158.26 815.817 2159.5 815.817 2159.5 826.745 2158.26 826.745ZM2133.86 815.817 2134.64 815.817 2134.64 816.888 2133.98 816.888C2133.65 816.888 2133.42 816.959 2133.28 817.1 2133.14 817.242 2133.07 817.479 2133.07 817.812L2133.07 819 2134.64 819 2134.64 820.071 2133.07 820.071 2133.07 826.745 2131.82 826.745 2131.82 820.071 2130.45 820.071 2130.45 819 2131.82 819 2131.82 817.621C2131.82 817.069 2132.01 816.63 2132.37 816.305 2132.74 815.979 2133.24 815.817 2133.86 815.817ZM2128.86 815.817 2129.64 815.817 2129.64 816.888 2128.98 816.888C2128.65 816.888 2128.42 816.959 2128.28 817.1 2128.14 817.242 2128.07 817.479 2128.07 817.812L2128.07 819 2129.64 819 2129.64 820.071 2128.07 820.071 2128.07 826.745 2126.83 826.745 2126.83 820.071 2125.45 820.071 2125.45 819 2126.83 819 2126.83 817.621C2126.83 817.069 2127.01 816.63 2127.38 816.305 2127.74 815.979 2128.24 815.817 2128.86 815.817ZM2235.86 815.788C2236.1 815.788 2236.3 815.871 2236.47 816.037 2236.63 816.203 2236.71 816.404 2236.71 816.638 2236.71 816.873 2236.63 817.073 2236.47 817.24 2236.3 817.406 2236.1 817.489 2235.86 817.489 2235.63 817.489 2235.43 817.406 2235.26 817.24 2235.1 817.073 2235.02 816.873 2235.02 816.638 2235.02 816.404 2235.1 816.203 2235.26 816.037 2235.43 815.871 2235.63 815.788 2235.86 815.788ZM2147.88 815.788C2148.11 815.788 2148.32 815.871 2148.48 816.037 2148.65 816.203 2148.73 816.404 2148.73 816.638 2148.73 816.873 2148.65 817.073 2148.48 817.24 2148.32 817.406 2148.11 817.489 2147.88 817.489 2147.65 817.489 2147.45 817.406 2147.28 817.24 2147.11 817.073 2147.03 816.873 2147.03 816.638 2147.03 816.404 2147.11 816.203 2147.28 816.037 2147.45 815.871 2147.65 815.788 2147.88 815.788ZM2136.88 815.788C2137.12 815.788 2137.32 815.871 2137.48 816.037 2137.65 816.203 2137.73 816.404 2137.73 816.638 2137.73 816.873 2137.65 817.073 2137.48 817.24 2137.32 817.406 2137.12 817.489 2136.88 817.489 2136.65 817.489 2136.45 817.406 2136.28 817.24 2136.12 817.073 2136.03 816.873 2136.03 816.638 2136.03 816.404 2136.12 816.203 2136.28 816.037 2136.45 815.871 2136.65 815.788 2136.88 815.788ZM2395.72 815.644 2395.72 816.637 2400.28 816.637 2400.28 815.644ZM2208.88 815.641C2210.02 815.641 2210.92 815.945 2211.6 816.554 2212.28 817.163 2212.63 817.993 2212.66 819.044L2211.35 819.044C2211.32 818.359 2211.07 817.823 2210.62 817.434 2210.17 817.045 2209.58 816.851 2208.84 816.851 2208.13 816.851 2207.55 817.023 2207.1 817.368 2206.65 817.713 2206.42 818.157 2206.42 818.699 2206.42 819.125 2206.59 819.471 2206.92 819.737 2207.26 820.004 2207.82 820.237 2208.61 820.437L2209.85 820.745C2210.91 821.01 2211.7 821.384 2212.2 821.868 2212.71 822.352 2212.97 822.975 2212.97 823.738 2212.97 824.369 2212.8 824.924 2212.47 825.403 2212.14 825.882 2211.68 826.255 2211.09 826.521 2210.49 826.788 2209.8 826.921 2209.01 826.921 2208.17 826.921 2207.44 826.771 2206.83 826.47 2206.21 826.169 2205.74 825.743 2205.4 825.19 2205.06 824.638 2204.9 823.982 2204.9 823.224L2206.24 823.224C2206.24 824.007 2206.49 824.618 2206.97 825.058 2207.46 825.498 2208.14 825.718 2209.01 825.718 2209.81 825.718 2210.45 825.545 2210.93 825.197 2211.41 824.85 2211.65 824.383 2211.65 823.797 2211.65 823.342 2211.48 822.973 2211.16 822.689 2210.83 822.405 2210.27 822.166 2209.49 821.97L2208.26 821.67C2207.15 821.396 2206.35 821.029 2205.86 820.57 2205.36 820.11 2205.12 819.509 2205.12 818.765 2205.12 818.135 2205.27 817.586 2205.58 817.119 2205.89 816.652 2206.33 816.289 2206.9 816.03 2207.46 815.771 2208.12 815.641 2208.88 815.641ZM2169.04 815.641C2169.8 815.641 2170.49 815.791 2171.12 816.092 2171.75 816.393 2172.28 816.821 2172.7 817.375 2173.12 817.93 2173.4 818.589 2173.53 819.352L2172.19 819.352C2172.01 818.555 2171.64 817.943 2171.08 817.515 2170.51 817.087 2169.83 816.873 2169.04 816.873 2168.27 816.873 2167.61 817.06 2167.05 817.434 2166.5 817.808 2166.07 818.326 2165.76 818.989 2165.46 819.651 2165.31 820.418 2165.31 821.288 2165.31 822.154 2165.46 822.916 2165.76 823.577 2166.07 824.237 2166.5 824.754 2167.05 825.128 2167.61 825.502 2168.27 825.689 2169.04 825.689 2169.82 825.689 2170.5 825.476 2171.07 825.051 2171.63 824.625 2172.01 824.017 2172.19 823.224L2173.53 823.224C2173.4 823.982 2173.13 824.638 2172.71 825.19 2172.29 825.743 2171.76 826.169 2171.13 826.47 2170.5 826.771 2169.8 826.921 2169.04 826.921 2168.03 826.921 2167.15 826.68 2166.39 826.198 2165.64 825.717 2165.05 825.052 2164.62 824.204 2164.2 823.355 2163.99 822.383 2163.99 821.288 2163.99 820.183 2164.2 819.207 2164.62 818.358 2165.04 817.51 2165.63 816.845 2166.39 816.363 2167.15 815.882 2168.03 815.641 2169.04 815.641ZM2119.96 815.641C2120.92 815.641 2121.78 815.883 2122.52 816.367 2123.27 816.851 2123.85 817.517 2124.28 818.366 2124.7 819.214 2124.92 820.188 2124.92 821.288 2124.92 822.379 2124.7 823.348 2124.28 824.196 2123.85 825.045 2123.27 825.711 2122.52 826.195 2121.78 826.679 2120.92 826.921 2119.96 826.921 2119 826.921 2118.14 826.679 2117.39 826.195 2116.65 825.711 2116.06 825.045 2115.64 824.196 2115.21 823.348 2115 822.379 2115 821.288 2115 820.188 2115.21 819.214 2115.64 818.366 2116.06 817.517 2116.65 816.851 2117.39 816.367 2118.14 815.883 2119 815.641 2119.96 815.641ZM2346.8 815.254 2356.91 815.254 2356.91 816.681 2346.8 816.681ZM2394.44 814.624 2401.61 814.624 2401.61 819.609 2394.44 819.609ZM2362.16 814.353C2362.6 814.695 2363.05 815.07 2363.51 815.476 2363.97 815.882 2364.33 816.249 2364.61 816.576L2363.66 817.597C2363.4 817.268 2363.04 816.887 2362.59 816.454 2362.15 816.021 2361.71 815.621 2361.28 815.254ZM2414.12 814.263 2415.48 814.263 2415.48 817.207 2417.52 817.207 2417.52 818.544 2415.48 818.544 2415.48 821.923 2417.67 821.923 2417.67 823.29 2408.01 823.29 2408.01 821.923 2410.17 821.923 2410.17 818.544 2408.37 818.544 2408.37 817.207 2410.17 817.207 2410.17 814.293 2411.54 814.293 2411.54 817.207 2414.12 817.207ZM2368.55 814.203 2370.04 814.203 2370.04 818.979 2373.67 818.979 2373.67 820.421 2370.04 820.421 2370.04 827.932 2368.55 827.932 2368.55 820.421 2364.86 820.421 2364.86 818.979 2368.55 818.979ZM2390.66 814.174 2391.94 814.174 2391.94 817.072 2393.53 817.072 2393.53 818.363 2391.94 818.363 2391.94 821.007 2393.38 820.587 2393.57 821.848 2391.94 822.359 2391.94 826.249C2391.94 826.592 2391.9 826.865 2391.82 827.068 2391.74 827.271 2391.6 827.424 2391.41 827.526 2391.21 827.636 2390.96 827.709 2390.64 827.746 2390.32 827.782 2389.93 827.799 2389.46 827.796 2389.45 827.62 2389.4 827.409 2389.33 827.162 2389.26 826.915 2389.18 826.695 2389.09 826.505 2389.39 826.512 2389.67 826.516 2389.91 826.518 2390.15 826.519 2390.32 826.52 2390.41 826.52 2390.5 826.521 2390.56 826.503 2390.6 826.463 2390.64 826.424 2390.66 826.352 2390.66 826.249L2390.66 822.765 2389.09 823.246 2388.77 821.893C2389.04 821.824 2389.33 821.747 2389.65 821.66 2389.97 821.573 2390.31 821.48 2390.66 821.382L2390.66 818.363 2388.92 818.363 2388.92 817.072 2390.66 817.072ZM2407.2 814.173 2408.51 814.593C2408.31 815.122 2408.08 815.65 2407.83 816.178 2407.58 816.706 2407.31 817.219 2407.02 817.718L2407.02 827.917 2405.66 827.917 2405.66 819.866C2405.25 820.424 2404.84 820.929 2404.41 821.383 2404.34 821.193 2404.22 820.953 2404.07 820.663 2403.91 820.374 2403.77 820.138 2403.65 819.956 2404.36 819.242 2405.03 818.379 2405.65 817.368 2406.27 816.358 2406.79 815.292 2407.2 814.173ZM2425.18 814.069C2425.31 814.322 2425.44 814.592 2425.57 814.878 2425.7 815.164 2425.81 815.429 2425.91 815.676L2431.37 815.676 2431.37 816.86 2422.69 816.86C2422.84 817.118 2422.99 817.392 2423.15 817.682 2423.31 817.971 2423.44 818.219 2423.53 818.424L2422.37 818.875 2425.99 818.875C2426.16 818.565 2426.34 818.231 2426.51 817.872 2426.68 817.513 2426.83 817.186 2426.95 816.891L2428.45 817.206C2428.27 817.494 2428.09 817.779 2427.91 818.063 2427.73 818.347 2427.55 818.618 2427.36 818.875L2430.6 818.875 2430.6 826.505C2430.61 826.844 2430.56 827.1 2430.46 827.274 2430.36 827.448 2430.2 827.577 2429.96 827.661 2429.72 827.747 2429.4 827.802 2429 827.825 2428.59 827.849 2428.07 827.859 2427.45 827.856 2427.42 827.686 2427.37 827.504 2427.3 827.312 2427.22 827.12 2427.14 826.946 2427.05 826.791 2427.49 826.806 2427.89 826.814 2428.25 826.815 2428.61 826.817 2428.85 826.814 2428.97 826.806 2429.1 826.807 2429.19 826.786 2429.24 826.74 2429.29 826.695 2429.32 826.616 2429.32 826.505L2429.32 820 2426.36 820 2420.35 820 2420.35 827.901 2419.03 827.901 2419.03 818.875 2422.19 818.875C2422.1 818.639 2421.97 818.367 2421.81 818.058 2421.66 817.749 2421.51 817.465 2421.37 817.206L2422.36 816.86 2418.25 816.86 2418.25 815.676 2424.32 815.676C2424.24 815.47 2424.16 815.258 2424.07 815.041 2423.98 814.824 2423.89 814.62 2423.8 814.429ZM2376.05 814.069 2377.34 814.414C2377.28 814.548 2377.22 814.678 2377.16 814.805 2377.09 814.931 2377.02 815.061 2376.95 815.195L2380.58 815.195 2380.58 816.29C2380.88 815.965 2381.14 815.614 2381.38 815.236 2381.61 814.858 2381.8 814.469 2381.95 814.069L2383.3 814.369C2383.25 814.511 2383.19 814.651 2383.12 814.788 2383.06 814.924 2382.99 815.06 2382.92 815.195L2387.39 815.195 2387.39 816.32 2384.84 816.32C2384.96 816.472 2385.08 816.619 2385.18 816.762 2385.29 816.904 2385.37 817.033 2385.44 817.147L2384.53 817.568 2385.97 817.568 2385.97 823.199 2384.18 823.199 2384.18 824.328 2387.48 824.328 2387.48 825.452 2384.18 825.452 2384.18 827.916 2382.74 827.916 2382.74 825.452 2379.02 825.452C2378.84 825.93 2378.46 826.383 2377.88 826.812 2377.3 827.24 2376.42 827.618 2375.26 827.946 2375.16 827.781 2375.03 827.603 2374.86 827.411 2374.7 827.218 2374.54 827.051 2374.38 826.909 2375.22 826.718 2375.89 826.496 2376.37 826.243 2376.85 825.99 2377.2 825.726 2377.4 825.452L2374.17 825.452 2374.17 824.328 2377.84 824.328 2377.84 824.222 2377.84 823.199 2375.92 823.199 2375.92 817.568 2377.49 817.568C2377.42 817.385 2377.33 817.184 2377.21 816.967 2377.09 816.749 2376.97 816.534 2376.83 816.32L2376.25 816.32C2376.04 816.621 2375.82 816.902 2375.6 817.162 2375.38 817.422 2375.16 817.657 2374.93 817.868 2374.8 817.749 2374.62 817.613 2374.4 817.461 2374.17 817.309 2373.98 817.184 2373.81 817.087 2374.27 816.703 2374.7 816.249 2375.09 815.724 2375.48 815.198 2375.8 814.647 2376.05 814.069ZM2322.31 814.069C2322.43 814.285 2322.54 814.521 2322.65 814.776 2322.76 815.032 2322.84 815.272 2322.91 815.495L2328.18 815.495 2328.18 818.242 2326.71 818.242 2326.71 816.8 2316.81 816.8 2316.81 818.242 2315.42 818.242 2315.42 815.495 2321.32 815.495C2321.27 815.306 2321.21 815.115 2321.14 814.923 2321.06 814.731 2320.98 814.551 2320.89 814.384ZM2337.13 814.023C2337.33 814.371 2337.53 814.744 2337.73 815.14 2337.93 815.536 2338.08 815.889 2338.2 816.201L2337.19 816.636 2343.36 816.636 2343.36 818.003 2335.77 818.003C2335.75 818.357 2335.72 818.712 2335.69 819.07 2335.67 819.427 2335.63 819.782 2335.59 820.136L2341.96 820.136C2341.96 820.15 2341.96 820.231 2341.95 820.378 2341.94 820.526 2341.92 820.655 2341.9 820.767 2341.81 822.14 2341.71 823.263 2341.6 824.135 2341.5 825.008 2341.38 825.685 2341.24 826.165 2341.1 826.646 2340.93 826.984 2340.73 827.18 2340.53 827.379 2340.32 827.519 2340.1 827.603 2339.88 827.686 2339.62 827.741 2339.31 827.766 2339.02 827.789 2338.65 827.797 2338.21 827.791 2337.76 827.785 2337.28 827.767 2336.77 827.736 2336.76 827.526 2336.71 827.297 2336.63 827.047 2336.54 826.798 2336.42 826.572 2336.28 826.369 2336.82 826.413 2337.32 826.442 2337.77 826.456 2338.22 826.469 2338.56 826.476 2338.78 826.475 2338.94 826.476 2339.08 826.465 2339.19 826.441 2339.3 826.416 2339.41 826.368 2339.5 826.294 2339.71 826.134 2339.89 825.673 2340.03 824.911 2340.18 824.148 2340.31 823.007 2340.43 821.488L2335.38 821.488C2335.16 822.795 2334.72 824.014 2334.06 825.145 2333.4 826.276 2332.39 827.225 2331.03 827.992 2330.92 827.798 2330.77 827.596 2330.58 827.387 2330.39 827.178 2330.2 826.999 2330.01 826.85 2331.23 826.206 2332.13 825.406 2332.72 824.45 2333.31 823.493 2333.7 822.458 2333.89 821.345 2334.08 820.231 2334.19 819.117 2334.22 818.003L2330.29 818.003 2330.29 816.636 2336.71 816.636C2336.61 816.326 2336.47 815.981 2336.3 815.602 2336.12 815.222 2335.95 814.866 2335.77 814.533ZM2347.67 772.573 2347.67 773.926 2354.91 773.926 2354.91 772.573ZM2318.23 772.332 2318.23 774.031 2324.9 774.031 2324.9 772.332ZM2378.15 771.071 2378.15 773.85 2384.65 773.85 2384.65 771.071ZM2277.45 770.835C2277.35 770.923 2277.11 771.002 2276.71 771.073 2276.31 771.144 2275.89 771.211 2275.44 771.275 2275.14 771.314 2274.86 771.381 2274.6 771.476 2274.33 771.572 2274.11 771.706 2273.95 771.88 2273.78 772.053 2273.7 772.287 2273.7 772.58 2273.7 772.942 2273.84 773.226 2274.13 773.431 2274.41 773.636 2274.8 773.739 2275.29 773.739 2275.8 773.739 2276.22 773.647 2276.53 773.464 2276.85 773.281 2277.08 773.042 2277.23 772.749 2277.37 772.456 2277.45 772.14 2277.45 771.803ZM2226.46 770.835C2226.36 770.923 2226.12 771.002 2225.72 771.073 2225.32 771.144 2224.89 771.211 2224.45 771.275 2224.15 771.314 2223.87 771.381 2223.6 771.476 2223.34 771.572 2223.12 771.706 2222.96 771.88 2222.79 772.053 2222.71 772.287 2222.71 772.58 2222.71 772.942 2222.85 773.226 2223.14 773.431 2223.42 773.636 2223.81 773.739 2224.3 773.739 2224.81 773.739 2225.22 773.647 2225.54 773.464 2225.86 773.281 2226.09 773.042 2226.24 772.749 2226.38 772.456 2226.46 772.14 2226.46 771.803ZM2347.67 770.199 2347.67 771.478 2354.91 771.478 2354.91 770.199ZM2376.74 769.825 2386.12 769.825 2386.12 775.833 2384.65 775.833 2384.65 775.142 2378.15 775.142 2378.15 775.893 2376.74 775.893ZM2256.25 767.96C2255.53 767.96 2254.96 768.225 2254.54 768.755 2254.12 769.286 2253.91 769.989 2253.91 770.864 2253.91 771.739 2254.12 772.441 2254.54 772.969 2254.96 773.497 2255.53 773.761 2256.25 773.761 2256.92 773.761 2257.47 773.515 2257.89 773.024 2258.32 772.532 2258.54 771.813 2258.54 770.864 2258.54 769.915 2258.32 769.194 2257.89 768.7 2257.47 768.207 2256.92 767.96 2256.25 767.96ZM2247.96 767.945C2247.23 767.945 2246.66 768.211 2246.25 768.744 2245.84 769.277 2245.63 769.989 2245.63 770.879 2245.63 771.759 2245.84 772.463 2246.25 772.991 2246.66 773.519 2247.23 773.783 2247.96 773.783 2248.69 773.783 2249.26 773.518 2249.67 772.987 2250.08 772.457 2250.29 771.754 2250.29 770.879 2250.29 769.994 2250.08 769.283 2249.67 768.748 2249.26 768.213 2248.69 767.945 2247.96 767.945ZM2301.86 767.93C2301.23 767.93 2300.71 768.131 2300.31 768.532 2299.91 768.933 2299.67 769.473 2299.61 770.153L2304.13 770.153C2304.06 769.473 2303.83 768.933 2303.42 768.532 2303.02 768.131 2302.5 767.93 2301.86 767.93ZM2347.67 767.856 2347.67 769.105 2354.91 769.105 2354.91 767.856ZM2365.81 767.616 2365.81 768.834 2369.25 768.834 2369.25 767.616ZM2318.23 767.121 2318.23 768.684 2324.4 768.684 2324.4 767.121ZM2218.77 766.991 2220.02 766.991 2220.02 774.736 2218.77 774.736ZM2207.77 766.991 2209.02 766.991 2209.02 774.736 2207.77 774.736ZM2309.83 766.874C2309.94 766.874 2310.05 766.879 2310.14 766.889 2310.24 766.899 2310.31 766.908 2310.36 766.918L2310.36 768.165C2310.31 768.15 2310.22 768.132 2310.08 768.11 2309.94 768.088 2309.78 768.077 2309.6 768.077 2309.17 768.077 2308.79 768.229 2308.48 768.532 2308.16 768.835 2308 769.314 2308 769.969L2308 774.736 2306.76 774.736 2306.76 766.991 2307.94 766.991 2307.94 768.209 2307.97 768.209C2308.11 767.808 2308.34 767.485 2308.64 767.241 2308.95 766.996 2309.35 766.874 2309.83 766.874ZM2283.84 766.874C2283.95 766.874 2284.05 766.879 2284.15 766.889 2284.24 766.899 2284.31 766.908 2284.36 766.918L2284.36 768.165C2284.31 768.15 2284.22 768.132 2284.08 768.11 2283.94 768.088 2283.78 768.077 2283.6 768.077 2283.17 768.077 2282.8 768.229 2282.48 768.532 2282.16 768.835 2282 769.314 2282 769.969L2282 774.736 2280.76 774.736 2280.76 766.991 2281.95 766.991 2281.95 768.209 2281.98 768.209C2282.12 767.808 2282.34 767.485 2282.65 767.241 2282.96 766.996 2283.35 766.874 2283.84 766.874ZM2294.27 766.845C2294.8 766.845 2295.27 766.958 2295.7 767.186 2296.13 767.413 2296.47 767.754 2296.73 768.209 2296.99 768.664 2297.11 769.236 2297.11 769.925L2297.11 774.736 2295.87 774.736 2295.87 770.013C2295.87 769.343 2295.71 768.839 2295.39 768.499 2295.07 768.159 2294.62 767.989 2294.04 767.989 2293.48 767.989 2293 768.163 2292.6 768.51 2292.2 768.857 2292 769.422 2292 770.204L2292 774.736 2290.76 774.736 2290.76 766.991 2291.97 766.991 2291.97 768.128C2292.24 767.688 2292.57 767.364 2292.96 767.157 2293.35 766.949 2293.78 766.845 2294.27 766.845ZM2275.73 766.845C2276.64 766.845 2277.35 767.078 2277.88 767.545 2278.41 768.012 2278.68 768.63 2278.68 769.397L2278.68 774.736 2277.45 774.736 2277.45 773.636 2277.42 773.636C2277.33 773.822 2277.19 774.009 2277.01 774.197 2276.83 774.386 2276.58 774.542 2276.28 774.667 2275.97 774.791 2275.59 774.854 2275.12 774.854 2274.35 774.854 2273.71 774.656 2273.2 774.26 2272.68 773.864 2272.42 773.279 2272.42 772.507 2272.42 772.062 2272.51 771.7 2272.68 771.421 2272.86 771.143 2273.09 770.924 2273.38 770.765 2273.67 770.606 2274 770.485 2274.37 770.402 2274.74 770.319 2275.11 770.253 2275.5 770.204 2275.99 770.135 2276.38 770.084 2276.66 770.05 2276.95 770.016 2277.15 769.959 2277.27 769.881 2277.39 769.803 2277.45 769.666 2277.45 769.47L2277.45 769.397C2277.45 768.977 2277.3 768.63 2277 768.356 2276.7 768.082 2276.28 767.945 2275.73 767.945 2275.2 767.945 2274.76 768.076 2274.41 768.337 2274.07 768.599 2273.88 768.923 2273.85 769.309L2272.59 769.309C2272.61 768.835 2272.76 768.413 2273.02 768.044 2273.29 767.675 2273.66 767.383 2274.12 767.168 2274.59 766.952 2275.12 766.845 2275.73 766.845ZM2256.44 766.845C2257.11 766.845 2257.7 767.014 2258.21 767.351 2258.71 767.688 2259.1 768.159 2259.38 768.763 2259.66 769.367 2259.79 770.067 2259.79 770.864 2259.79 771.656 2259.66 772.354 2259.38 772.958 2259.1 773.562 2258.71 774.034 2258.21 774.373 2257.7 774.713 2257.11 774.883 2256.44 774.883 2255.94 774.883 2255.48 774.774 2255.06 774.557 2254.65 774.339 2254.3 774.008 2254.02 773.563L2254.01 773.563 2254.01 777.802 2252.76 777.802 2252.76 766.991 2253.98 766.991 2253.98 768.136 2253.99 768.136C2254.24 767.701 2254.59 767.377 2255.03 767.164 2255.47 766.951 2255.94 766.845 2256.44 766.845ZM2224.74 766.845C2225.65 766.845 2226.36 767.078 2226.89 767.545 2227.42 768.012 2227.69 768.63 2227.69 769.397L2227.69 774.736 2226.46 774.736 2226.46 773.636 2226.43 773.636C2226.33 773.822 2226.2 774.009 2226.02 774.197 2225.84 774.386 2225.59 774.542 2225.29 774.667 2224.98 774.791 2224.6 774.854 2224.13 774.854 2223.36 774.854 2222.72 774.656 2222.21 774.26 2221.69 773.864 2221.43 773.279 2221.43 772.507 2221.43 772.062 2221.52 771.7 2221.69 771.421 2221.87 771.143 2222.1 770.924 2222.39 770.765 2222.68 770.606 2223.01 770.485 2223.38 770.402 2223.75 770.319 2224.12 770.253 2224.51 770.204 2225 770.135 2225.39 770.084 2225.67 770.05 2225.96 770.016 2226.16 769.959 2226.28 769.881 2226.4 769.803 2226.46 769.666 2226.46 769.47L2226.46 769.397C2226.46 768.977 2226.31 768.63 2226.01 768.356 2225.71 768.082 2225.29 767.945 2224.74 767.945 2224.21 767.945 2223.77 768.076 2223.42 768.337 2223.08 768.599 2222.89 768.923 2222.86 769.309L2221.59 769.309C2221.62 768.835 2221.77 768.413 2222.03 768.044 2222.3 767.675 2222.67 767.383 2223.13 767.168 2223.6 766.952 2224.13 766.845 2224.74 766.845ZM2301.86 766.815C2302.58 766.815 2303.2 766.987 2303.73 767.329 2304.26 767.671 2304.66 768.148 2304.95 768.759 2305.23 769.37 2305.38 770.077 2305.38 770.879L2305.38 771.223 2299.59 771.223C2299.62 771.981 2299.84 772.597 2300.24 773.072 2300.65 773.546 2301.22 773.783 2301.95 773.783 2302.5 773.783 2302.95 773.656 2303.3 773.402 2303.65 773.147 2303.88 772.82 2304 772.419L2305.24 772.419C2305.15 772.913 2304.94 773.347 2304.64 773.721 2304.33 774.095 2303.95 774.387 2303.48 774.597 2303.02 774.807 2302.51 774.913 2301.95 774.913 2301.19 774.913 2300.55 774.739 2300.01 774.392 2299.48 774.045 2299.07 773.567 2298.79 772.958 2298.5 772.349 2298.36 771.656 2298.36 770.879 2298.36 770.091 2298.51 769.392 2298.81 768.781 2299.11 768.17 2299.52 767.689 2300.05 767.34 2300.57 766.99 2301.18 766.815 2301.86 766.815ZM2247.96 766.815C2248.68 766.815 2249.3 766.989 2249.84 767.336 2250.38 767.683 2250.8 768.163 2251.1 768.774 2251.4 769.385 2251.55 770.086 2251.55 770.879 2251.55 771.666 2251.4 772.363 2251.1 772.969 2250.8 773.575 2250.38 774.051 2249.84 774.395 2249.3 774.74 2248.68 774.913 2247.96 774.913 2247.25 774.913 2246.62 774.74 2246.08 774.395 2245.54 774.051 2245.12 773.575 2244.82 772.969 2244.52 772.363 2244.37 771.666 2244.37 770.879 2244.37 770.086 2244.52 769.385 2244.82 768.774 2245.12 768.163 2245.54 767.683 2246.08 767.336 2246.62 766.989 2247.25 766.815 2247.96 766.815ZM2213.96 766.815C2214.55 766.815 2215.08 766.932 2215.54 767.164 2216 767.396 2216.38 767.715 2216.68 768.121 2216.97 768.527 2217.16 768.991 2217.22 769.514L2215.96 769.514C2215.87 769.06 2215.66 768.685 2215.32 768.389 2214.99 768.093 2214.54 767.945 2213.96 767.945 2213.24 767.945 2212.67 768.211 2212.26 768.744 2211.84 769.277 2211.64 769.989 2211.64 770.879 2211.64 771.759 2211.84 772.463 2212.25 772.991 2212.66 773.519 2213.23 773.783 2213.96 773.783 2214.55 773.783 2214.99 773.64 2215.3 773.354 2215.61 773.068 2215.82 772.688 2215.94 772.214L2217.22 772.214C2217.16 772.722 2216.97 773.18 2216.68 773.589 2216.38 773.997 2216 774.32 2215.54 774.557 2215.07 774.794 2214.55 774.913 2213.96 774.913 2213.25 774.913 2212.63 774.74 2212.09 774.395 2211.55 774.051 2211.13 773.575 2210.83 772.969 2210.53 772.363 2210.38 771.666 2210.38 770.879 2210.38 770.086 2210.53 769.385 2210.83 768.774 2211.13 768.163 2211.55 767.683 2212.09 767.336 2212.63 766.989 2213.25 766.815 2213.96 766.815ZM2316.8 765.905 2325.8 765.905 2325.8 769.884 2318.23 769.884 2318.23 771.102 2326.32 771.102 2326.32 775.817 2324.9 775.817 2324.9 775.261 2318.23 775.261 2318.23 775.892 2316.8 775.892ZM2364.52 765.243 2365.81 765.243 2365.81 766.476 2369.25 766.476 2369.25 765.243 2370.6 765.243 2370.6 766.476 2372.95 766.476 2372.95 767.616 2370.6 767.616 2370.6 769.944 2368.24 769.944 2368.24 770.952 2372.19 770.952 2372.19 773.881C2372.19 774.202 2372.15 774.457 2372.07 774.648 2371.98 774.839 2371.83 774.979 2371.6 775.066 2371.38 775.166 2371.08 775.225 2370.72 775.242 2370.36 775.26 2369.93 775.266 2369.43 775.261 2369.39 775.075 2369.34 774.874 2369.27 774.656 2369.2 774.438 2369.12 774.24 2369.04 774.061 2369.38 774.076 2369.7 774.085 2369.99 774.088 2370.27 774.091 2370.47 774.092 2370.57 774.092 2370.66 774.092 2370.73 774.076 2370.77 774.041 2370.8 774.006 2370.82 773.948 2370.82 773.866L2370.82 772.152 2368.24 772.152 2368.24 775.937 2366.88 775.937 2366.88 772.152 2364.43 772.152 2364.43 775.231 2363.08 775.231 2363.08 770.952 2366.88 770.952 2366.88 769.944 2364.52 769.944 2364.52 767.616 2362.41 767.616 2362.41 766.476 2364.52 766.476ZM2265.24 764.982 2265.24 769.272 2267.79 769.272C2268.55 769.272 2269.14 769.081 2269.58 768.697 2270.02 768.313 2270.24 767.788 2270.24 767.124 2270.24 766.459 2270.02 765.935 2269.58 765.554 2269.14 765.173 2268.55 764.982 2267.79 764.982ZM2409.78 764.913 2411.1 765.108C2411.05 765.91 2410.94 766.732 2410.77 767.574 2410.6 768.415 2410.38 769.15 2410.1 769.78L2408.75 769.254C2409.01 768.712 2409.23 768.043 2409.41 767.247 2409.58 766.451 2409.71 765.673 2409.78 764.913ZM2286.32 764.879 2287.57 764.879 2287.57 766.991 2289.13 766.991 2289.13 768.062 2287.57 768.062 2287.57 772.859C2287.57 773.157 2287.63 773.366 2287.75 773.486 2287.88 773.606 2288.1 773.666 2288.42 773.666L2289.13 773.666 2289.13 774.736 2288.3 774.736C2286.98 774.736 2286.32 774.155 2286.32 772.991L2286.32 768.062 2284.95 768.062 2284.95 766.991 2286.32 766.991ZM2416.62 764.868 2418.12 765.274C2417.88 766.033 2417.61 766.793 2417.32 767.555 2417.03 768.316 2416.76 768.983 2416.49 769.554L2415.23 769.164C2415.49 768.569 2415.75 767.877 2416 767.089 2416.26 766.301 2416.47 765.561 2416.62 764.868ZM2191.47 764.865C2190.81 764.865 2190.21 765.034 2189.65 765.374 2189.1 765.714 2188.66 766.213 2188.33 766.87 2188 767.528 2187.83 768.331 2187.83 769.28 2187.83 770.224 2188 771.023 2188.33 771.678 2188.66 772.333 2189.1 772.831 2189.65 773.171 2190.21 773.51 2190.81 773.68 2191.47 773.68 2192.13 773.68 2192.73 773.51 2193.29 773.171 2193.84 772.831 2194.28 772.333 2194.61 771.678 2194.94 771.023 2195.11 770.224 2195.11 769.28 2195.11 768.331 2194.94 767.528 2194.61 766.87 2194.28 766.213 2193.84 765.714 2193.29 765.374 2192.73 765.034 2192.13 764.865 2191.47 764.865ZM2381.41 764.387C2380.97 764.869 2380.5 765.326 2380 765.758 2379.5 766.19 2378.98 766.595 2378.44 766.971L2384.6 766.971C2384.06 766.62 2383.52 766.233 2383 765.809 2382.47 765.385 2381.94 764.911 2381.41 764.387ZM2263.92 763.808 2267.83 763.808C2268.97 763.808 2269.87 764.106 2270.54 764.7 2271.21 765.294 2271.54 766.102 2271.54 767.124 2271.54 767.803 2271.38 768.391 2271.07 768.887 2270.76 769.384 2270.33 769.768 2269.76 770.039 2269.2 770.31 2268.54 770.446 2267.78 770.446L2265.24 770.446 2265.24 774.736 2263.92 774.736ZM2235.21 763.808 2243.63 763.808 2243.63 764.982 2240.09 764.982 2240.09 774.736 2238.77 774.736 2238.77 764.982 2235.21 764.982ZM2229.77 763.808 2231.01 763.808 2231.01 774.736 2229.77 774.736ZM2205.37 763.808 2206.15 763.808 2206.15 764.879 2205.49 764.879C2205.16 764.879 2204.93 764.95 2204.79 765.092 2204.65 765.234 2204.58 765.471 2204.58 765.803L2204.58 766.991 2206.15 766.991 2206.15 768.062 2204.58 768.062 2204.58 774.736 2203.34 774.736 2203.34 768.062 2201.96 768.062 2201.96 766.991 2203.34 766.991 2203.34 765.613C2203.34 765.06 2203.52 764.621 2203.89 764.296 2204.25 763.971 2204.75 763.808 2205.37 763.808ZM2200.37 763.808 2201.15 763.808 2201.15 764.879 2200.49 764.879C2200.16 764.879 2199.93 764.95 2199.79 765.092 2199.65 765.234 2199.58 765.471 2199.58 765.803L2199.58 766.991 2201.15 766.991 2201.15 768.062 2199.58 768.062 2199.58 774.736 2198.34 774.736 2198.34 768.062 2196.96 768.062 2196.96 766.991 2198.34 766.991 2198.34 765.613C2198.34 765.06 2198.52 764.621 2198.89 764.296 2199.25 763.971 2199.75 763.808 2200.37 763.808ZM2219.39 763.779C2219.63 763.779 2219.83 763.862 2219.99 764.029 2220.16 764.195 2220.24 764.395 2220.24 764.63 2220.24 764.865 2220.16 765.065 2219.99 765.231 2219.83 765.398 2219.63 765.481 2219.39 765.481 2219.16 765.481 2218.96 765.398 2218.79 765.231 2218.63 765.065 2218.54 764.865 2218.54 764.63 2218.54 764.395 2218.63 764.195 2218.79 764.029 2218.96 763.862 2219.16 763.779 2219.39 763.779ZM2208.4 763.779C2208.63 763.779 2208.83 763.862 2209 764.029 2209.16 764.195 2209.24 764.395 2209.24 764.63 2209.24 764.865 2209.16 765.065 2209 765.231 2208.83 765.398 2208.63 765.481 2208.4 765.481 2208.16 765.481 2207.96 765.398 2207.79 765.231 2207.63 765.065 2207.55 764.865 2207.55 764.63 2207.55 764.395 2207.63 764.195 2207.79 764.029 2207.96 763.862 2208.16 763.779 2208.4 763.779ZM2191.47 763.632C2192.44 763.632 2193.29 763.874 2194.04 764.359 2194.78 764.843 2195.37 765.509 2195.79 766.357 2196.22 767.205 2196.43 768.18 2196.43 769.28 2196.43 770.37 2196.22 771.339 2195.79 772.188 2195.37 773.036 2194.78 773.702 2194.04 774.186 2193.29 774.67 2192.44 774.913 2191.47 774.913 2190.51 774.913 2189.65 774.67 2188.91 774.186 2188.16 773.702 2187.57 773.036 2187.15 772.188 2186.73 771.339 2186.51 770.37 2186.51 769.28 2186.51 768.18 2186.73 767.205 2187.15 766.357 2187.57 765.509 2188.16 764.843 2188.91 764.359 2189.65 763.874 2190.51 763.632 2191.47 763.632ZM2430.9 762.975 2432.16 763.336C2431.93 763.923 2431.66 764.522 2431.37 765.133 2431.07 765.744 2430.8 766.271 2430.54 766.716 2430.39 766.629 2430.2 766.532 2429.96 766.426 2429.73 766.321 2429.53 766.232 2429.36 766.16 2429.63 765.719 2429.91 765.215 2430.18 764.646 2430.46 764.078 2430.7 763.521 2430.9 762.975ZM2424.86 762.975C2425.23 763.48 2425.6 764.017 2425.96 764.586 2426.32 765.155 2426.61 765.655 2426.84 766.085L2425.67 766.731C2425.47 766.291 2425.18 765.773 2424.82 765.178 2424.46 764.582 2424.1 764.023 2423.73 763.501ZM2396.65 762.299 2397.98 762.66C2397.86 762.984 2397.74 763.309 2397.61 763.634 2397.48 763.96 2397.34 764.281 2397.2 764.598L2403.23 764.598 2403.23 765.935 2398.79 765.935 2398.79 767.842 2402.87 767.842 2402.87 769.119 2398.79 769.119 2398.79 771.116 2403.08 771.116 2403.08 772.423 2398.79 772.423 2398.79 775.908 2397.37 775.908 2397.37 765.935 2396.53 765.935C2396.21 766.523 2395.88 767.073 2395.54 767.585 2395.2 768.096 2394.85 768.553 2394.49 768.953 2394.36 768.822 2394.19 768.661 2393.98 768.469 2393.77 768.278 2393.58 768.124 2393.41 768.007 2394.07 767.3 2394.69 766.446 2395.25 765.446 2395.81 764.446 2396.28 763.397 2396.65 762.299ZM2412.6 762.284 2414.09 762.284C2414.09 763.335 2414.09 764.328 2414.07 765.264 2414.05 766.2 2414.01 767.084 2413.94 767.917 2414.16 769.601 2414.61 771.013 2415.28 772.153 2415.95 773.293 2416.98 774.104 2418.36 774.586 2418.2 774.739 2418.03 774.937 2417.85 775.18 2417.67 775.422 2417.52 775.65 2417.42 775.863 2416.36 775.434 2415.5 774.831 2414.85 774.055 2414.2 773.278 2413.7 772.334 2413.35 771.222 2413.05 772.257 2412.56 773.164 2411.9 773.944 2411.24 774.724 2410.34 775.384 2409.2 775.923 2409.09 775.733 2408.95 775.527 2408.76 775.305 2408.58 775.083 2408.4 774.904 2408.22 774.766 2409.35 774.258 2410.23 773.627 2410.84 772.873 2411.45 772.12 2411.88 771.232 2412.12 770.21 2412.37 769.187 2412.52 768.019 2412.56 766.704 2412.6 765.389 2412.61 763.916 2412.6 762.284ZM2422.2 762.209 2423.51 762.57C2423.35 763.066 2423.17 763.561 2422.98 764.055 2422.79 764.549 2422.59 765.04 2422.38 765.529L2422.38 775.908 2421.05 775.908 2421.05 768.082C2420.87 768.367 2420.7 768.635 2420.52 768.886 2420.34 769.137 2420.15 769.375 2419.97 769.599 2419.91 769.416 2419.81 769.174 2419.67 768.875 2419.53 768.575 2419.4 768.326 2419.28 768.127 2419.88 767.39 2420.44 766.503 2420.95 765.467 2421.46 764.431 2421.87 763.345 2422.2 762.209ZM2392.93 762.194 2394.26 762.615C2394.06 763.143 2393.83 763.672 2393.58 764.201 2393.33 764.731 2393.06 765.249 2392.78 765.754L2392.78 775.893 2391.37 775.893 2391.37 767.962C2391.17 768.233 2390.97 768.491 2390.76 768.738 2390.56 768.984 2390.35 769.216 2390.14 769.434 2390.06 769.243 2389.94 768.999 2389.79 768.702 2389.63 768.405 2389.49 768.169 2389.36 767.992 2390.08 767.27 2390.75 766.401 2391.37 765.386 2392 764.371 2392.51 763.307 2392.93 762.194ZM2427.38 762.149 2428.77 762.149 2428.77 767.061 2432.4 767.061 2432.4 768.368 2428.77 768.368 2428.77 770.381 2433 770.381 2433 771.687 2428.77 771.687 2428.77 775.908 2427.38 775.908 2427.38 771.687 2423.22 771.687 2423.22 770.381 2427.38 770.381 2427.38 768.368 2423.84 768.368 2423.84 767.061 2427.38 767.061ZM2407.83 762.134 2409.17 762.57C2408.97 763.075 2408.76 763.578 2408.52 764.079 2408.29 764.581 2408.04 765.069 2407.77 765.544L2407.77 775.893 2406.32 775.893 2406.32 767.827C2406.12 768.106 2405.91 768.371 2405.7 768.623 2405.49 768.875 2405.29 769.111 2405.07 769.329 2405 769.153 2404.88 768.916 2404.73 768.618 2404.57 768.319 2404.43 768.071 2404.31 767.872 2405.02 767.165 2405.68 766.311 2406.3 765.307 2406.91 764.304 2407.43 763.246 2407.83 762.134ZM2381.51 762.089 2382.74 762.72C2382.67 762.833 2382.59 762.945 2382.52 763.058 2382.44 763.171 2382.35 763.283 2382.26 763.396 2383.18 764.289 2384.15 765.042 2385.16 765.655 2386.18 766.268 2387.24 766.792 2388.35 767.226 2388.16 767.389 2387.98 767.585 2387.8 767.814 2387.62 768.043 2387.48 768.272 2387.38 768.503 2386.98 768.309 2386.59 768.111 2386.21 767.91 2385.82 767.708 2385.44 767.495 2385.07 767.271L2385.07 768.263 2377.6 768.263 2377.6 767.512C2377.25 767.724 2376.89 767.927 2376.53 768.122 2376.17 768.317 2375.81 768.494 2375.44 768.653 2375.32 768.458 2375.17 768.247 2374.99 768.018 2374.81 767.79 2374.62 767.586 2374.42 767.406 2375.36 767.038 2376.27 766.588 2377.16 766.055 2378.05 765.521 2378.87 764.921 2379.61 764.252 2380.36 763.584 2381 762.863 2381.51 762.089ZM2348.39 762.075C2348.66 762.34 2348.93 762.633 2349.19 762.954 2349.45 763.275 2349.65 763.568 2349.81 763.833L2349.15 764.178 2352.87 764.178C2353.1 763.867 2353.33 763.524 2353.56 763.149 2353.78 762.774 2353.97 762.431 2354.13 762.12L2355.7 762.481C2355.5 762.783 2355.29 763.079 2355.07 763.369 2354.86 763.658 2354.65 763.928 2354.44 764.178L2358.01 764.178 2358.01 765.468 2352.19 765.468C2352.11 765.672 2352.03 765.873 2351.95 766.072 2351.86 766.27 2351.78 766.46 2351.7 766.641L2356.36 766.641 2356.36 775.922 2354.91 775.922 2354.91 775.141 2347.67 775.141 2347.67 775.922 2346.27 775.922 2346.27 766.641 2350.2 766.641C2350.25 766.451 2350.31 766.256 2350.36 766.055 2350.41 765.853 2350.46 765.658 2350.5 765.468L2344.67 765.468 2344.67 764.178 2348.32 764.178C2348.17 763.931 2347.99 763.667 2347.78 763.386 2347.57 763.105 2347.36 762.848 2347.16 762.616ZM2321.84 762.06C2321.95 762.276 2322.07 762.512 2322.17 762.768 2322.28 763.024 2322.37 763.263 2322.44 763.487L2327.7 763.487 2327.7 766.234 2326.23 766.234 2326.23 764.792 2316.34 764.792 2316.34 766.234 2314.94 766.234 2314.94 763.487 2320.85 763.487C2320.8 763.297 2320.73 763.106 2320.66 762.914 2320.59 762.723 2320.51 762.543 2320.41 762.376ZM2336.66 762.014C2336.86 762.363 2337.06 762.735 2337.26 763.131 2337.46 763.527 2337.61 763.881 2337.72 764.192L2336.72 764.628 2342.88 764.628 2342.88 765.995 2335.29 765.995C2335.27 766.348 2335.25 766.704 2335.22 767.061 2335.19 767.418 2335.16 767.774 2335.11 768.127L2341.49 768.127C2341.49 768.141 2341.48 768.222 2341.47 768.37 2341.46 768.517 2341.45 768.647 2341.43 768.758 2341.33 770.131 2341.23 771.254 2341.13 772.127 2341.02 773 2340.9 773.676 2340.76 774.157 2340.62 774.637 2340.45 774.976 2340.26 775.172 2340.06 775.37 2339.85 775.511 2339.63 775.594 2339.41 775.678 2339.14 775.733 2338.83 775.758 2338.55 775.78 2338.18 775.788 2337.73 775.782 2337.29 775.776 2336.81 775.758 2336.3 775.728 2336.29 775.518 2336.24 775.288 2336.15 775.039 2336.06 774.789 2335.95 774.563 2335.8 774.361 2336.35 774.405 2336.84 774.434 2337.3 774.447 2337.75 774.461 2338.09 774.467 2338.31 774.466 2338.47 774.468 2338.61 774.457 2338.72 774.432 2338.83 774.408 2338.93 774.359 2339.03 774.286 2339.23 774.126 2339.41 773.665 2339.56 772.902 2339.71 772.139 2339.84 770.999 2339.96 769.479L2334.9 769.479C2334.68 770.787 2334.25 772.006 2333.59 773.137 2332.93 774.268 2331.92 775.216 2330.55 775.983 2330.44 775.789 2330.29 775.588 2330.11 775.379 2329.92 775.17 2329.73 774.991 2329.53 774.842 2330.75 774.198 2331.66 773.398 2332.25 772.441 2332.83 771.485 2333.22 770.45 2333.41 769.336 2333.61 768.223 2333.72 767.109 2333.75 765.995L2329.82 765.995 2329.82 764.628 2336.24 764.628C2336.13 764.318 2336 763.973 2335.82 763.593 2335.65 763.214 2335.47 762.857 2335.29 762.525ZM2367.09 762C2367.23 762.253 2367.37 762.521 2367.51 762.804 2367.65 763.087 2367.77 763.354 2367.88 763.607L2373.09 763.607 2373.09 764.852 2361.97 764.852 2361.97 767.841C2361.98 768.642 2361.94 769.524 2361.87 770.489 2361.8 771.453 2361.65 772.412 2361.43 773.366 2361.21 774.32 2360.89 775.182 2360.46 775.952 2360.32 775.824 2360.14 775.682 2359.91 775.528 2359.68 775.373 2359.48 775.254 2359.32 775.171 2359.72 774.459 2360.01 773.676 2360.2 772.821 2360.39 771.965 2360.51 771.106 2360.57 770.242 2360.62 769.379 2360.64 768.579 2360.64 767.841L2360.64 763.607 2366.29 763.607C2366.21 763.402 2366.12 763.196 2366.03 762.99 2365.94 762.783 2365.84 762.588 2365.74 762.406Z" fill="#FFFFFF" fill-rule="evenodd"/><g><g><g><path d="M52.8077 23.196C52.5535 23.196 52.3367 23.2163 52.1237 23.1919 51.6925 23.1424 51.2611 23.1522 50.829 23.1392 50.5504 23.1318 50.5586 23.1318 50.535 22.8622 50.4659 22.0393 50.3905 21.2173 50.3163 20.3953 50.2524 19.6732 50.1914 18.9503 50.1206 18.229 50.0566 17.5679 49.9794 16.9083 49.9096 16.2479 49.8428 15.6273 49.7811 15.006 49.7121 14.3862 49.6245 13.6061 49.5341 12.8263 49.4409 12.0469 49.3571 11.3581 49.2743 10.6677 49.1816 9.97966 49.0367 8.91297 48.8884 7.84674 48.7365 6.78097 48.574 5.64543 48.3793 4.51557 48.1754 3.38734 48.1388 3.18508 48.1437 3.17776 48.3369 3.14529 49.141 3.008 49.9492 2.89105 50.7673 2.9089 50.8559 2.91134 50.9453 2.91296 51.0329 2.92434 51.1766 2.94221 51.2515 3.01206 51.2596 3.17939 51.288 3.76261 51.3284 4.34581 51.3716 4.92819 51.4406 5.8826 51.5153 6.83701 51.5869 7.79063 51.6323 8.40468 51.6714 9.01712 51.7177 9.62957 51.7915 10.614 51.8695 11.5977 51.9441 12.5822 51.9898 13.1841 52.0294 13.7876 52.0759 14.3895 52.1465 15.2732 52.2237 16.1561 52.295 17.0391 52.3407 17.6011 52.3811 18.164 52.4291 18.7261 52.4999 19.5587 52.5761 20.3913 52.6485 21.2238 52.7028 21.8736 52.7523 22.5251 52.8077 23.196ZM21.6752 2.91784C21.793 2.91784 21.9709 2.90484 22.1463 2.92109 22.3697 2.9414 22.4128 2.99906 22.4266 3.22326 22.4907 4.24833 22.5508 5.27422 22.6191 6.30013 22.6938 7.40642 22.7758 8.51109 22.8579 9.61578 22.9334 10.6303 23.009 11.6448 23.0902 12.6593 23.1787 13.7738 23.277 14.8865 23.3664 16.001 23.4338 16.8547 23.4915 17.7084 23.5613 18.5629 23.6279 19.3556 23.7059 20.1468 23.7774 20.9387 23.8383 21.6202 23.9 22.3025 23.9593 22.9848 23.978 23.2009 23.9626 23.2147 23.7294 23.209 23.1194 23.1944 22.5127 23.1229 21.9027 23.14 21.7629 23.144 21.7223 23.0799 21.6988 22.9475 21.6484 22.6591 21.6566 22.3659 21.6257 22.0743 21.542 21.3034 21.4941 20.5294 21.4234 19.7569 21.3601 19.0551 21.2837 18.3549 21.2114 17.6539 21.1472 17.0131 21.0839 16.3722 21.0157 15.7305 20.9474 15.101 20.8752 14.4707 20.8037 13.8404 20.7379 13.2604 20.6737 12.6805 20.6039 12.1005 20.5007 11.2509 20.3983 10.4012 20.2862 9.55322 20.1831 8.77508 20.0661 7.99937 19.9565 7.22203 19.807 6.16609 19.6389 5.11258 19.4529 4.06313 19.4103 3.8255 19.3654 3.5883 19.318 3.35159 19.2937 3.2322 19.3156 3.16314 19.4521 3.14448 19.8111 3.09654 20.1693 3.02181 20.5299 2.98688 20.8906 2.95359 21.2512 2.88618 21.6752 2.91784ZM47.2202 13.1589C47.9073 13.1589 47.9235 13.1637 48.034 13.7819 48.1696 14.5446 48.2648 15.3138 48.3549 16.083 48.4499 16.9026 48.5456 17.7222 48.6335 18.5425 48.704 19.2029 48.7635 19.8649 48.83 20.5253 48.8998 21.2173 48.9737 21.907 49.0461 22.5982 49.0859 22.9889 49.1232 23.3796 49.1679 23.7695 49.1809 23.8824 49.1469 23.9425 49.0356 23.9555 48.8008 23.9823 48.5677 24.0132 48.3338 24.0383 47.9047 24.0846 47.4751 24.1301 47.0455 24.1699 46.8236 24.1902 46.8091 24.178 46.7678 23.9636 46.3907 22.0182 46.0131 20.0745 45.6394 18.1283 45.3908 16.8344 45.1488 15.5396 44.9051 14.2457 44.8723 14.0677 44.8421 13.8892 44.8142 13.7104 44.7979 13.6081 44.8256 13.5423 44.9417 13.5146 45.7158 13.3335 46.4981 13.1938 47.2202 13.1589ZM18.349 13.1589C19.0841 13.1589 19.0809 13.1613 19.1946 13.8282 19.37 14.8606 19.4943 15.8986 19.6056 16.94 19.7144 17.9504 19.833 18.9601 19.9394 19.9705 20.0117 20.6617 20.0686 21.3546 20.136 22.045 20.1839 22.5365 20.2408 23.0263 20.2927 23.5169 20.2992 23.577 20.3025 23.6371 20.3066 23.698 20.3171 23.9384 20.3066 23.9579 20.0751 23.9815 19.6161 24.0294 19.1564 24.0692 18.6975 24.1147 18.5309 24.1309 18.3652 24.1553 18.2004 24.1715 17.9811 24.1919 17.9737 24.191 17.9307 23.9693 17.7764 23.1903 17.6269 22.4097 17.4758 21.6308 17.1136 19.7545 16.7472 17.8797 16.3874 16.0034 16.2436 15.2529 16.1202 14.4991 15.9788 13.7478 15.9528 13.6105 15.9723 13.5463 16.1145 13.513 16.8812 13.3343 17.6529 13.1946 18.349 13.1589ZM28.0516 21.0265 28.0516 24.1756C28.0516 24.2057 28.0483 24.2365 28.0523 24.2666 28.0678 24.4193 28.0117 24.4867 27.854 24.4802 27.6471 24.4713 27.4414 24.477 27.2342 24.4818 26.8023 24.4899 26.3692 24.4729 25.938 24.5224 25.6991 24.5501 25.7039 24.5354 25.6806 24.2836 25.6097 23.4909 25.5326 22.6989 25.4604 21.9061 25.3937 21.1743 25.3337 20.4408 25.2654 19.709 25.1964 18.956 25.1192 18.2055 25.0494 17.4533 25.0014 16.9513 24.9592 16.4502 24.917 15.9482 24.8617 15.2951 24.8106 14.6429 24.7529 13.9898 24.7285 13.7145 24.7488 13.6755 25.0217 13.647 25.7258 13.5695 26.4349 13.5475 27.1426 13.5812 27.3188 13.591 27.4942 13.6251 27.6649 13.6665 27.8802 13.7177 27.9038 13.7494 27.915 13.9744 27.9386 14.4276 27.9622 14.8809 27.9744 15.3349 27.9881 15.8393 27.9767 16.3446 27.9954 16.849 28.0427 18.2404 28.0353 19.6334 28.0516 21.0265ZM56.8648 21.1694 56.8648 24.1512C56.8648 24.2016 56.8633 24.252 56.8659 24.3031 56.8763 24.4339 56.8153 24.4802 56.6912 24.4794 56.3857 24.477 56.081 24.4794 55.7766 24.4834 55.432 24.4867 55.0885 24.4851 54.745 24.5224 54.5182 24.5484 54.5167 24.5314 54.4964 24.3064 54.403 23.274 54.3047 22.2416 54.2105 21.2076 54.1244 20.2548 54.0447 19.3012 53.9571 18.3476 53.867 17.364 53.7687 16.3827 53.6801 15.3999 53.6362 14.9077 53.5996 14.4155 53.563 13.9232 53.5486 13.7088 53.5719 13.6706 53.8142 13.6511 54.2349 13.6178 54.6538 13.5609 55.0779 13.5682 55.5004 13.5764 55.9236 13.5528 56.3436 13.6332 56.6993 13.7015 56.7171 13.7218 56.7381 14.1019 56.7991 15.2204 56.7805 16.3421 56.8202 17.4606 56.8608 18.6514 56.8323 19.8422 56.8648 21.1694ZM46.5029 7.74757C46.7515 7.76219 46.9473 7.75001 47.142 7.79304 47.2664 7.82148 47.3289 7.87754 47.3411 8.01074 47.3997 8.65163 47.463 9.2933 47.5272 9.935 47.5782 10.4557 47.6328 10.9763 47.6856 11.497L47.6904 11.527C47.7326 11.8552 47.7229 11.8641 47.4038 11.882 47.1194 11.8974 46.8358 11.9226 46.5517 11.9397 46.3648 11.951 46.3054 11.9827 46.2747 11.7106 46.1683 10.7505 46.0449 9.79286 45.9271 8.83358 45.8943 8.56395 45.858 8.29481 45.8181 8.02618 45.7945 7.87429 45.8539 7.79063 45.9961 7.77844 46.1828 7.76138 46.3696 7.75651 46.5029 7.74757ZM17.7252 7.75163C17.9169 7.76219 18.1143 7.74757 18.3076 7.79226 18.4181 7.81742 18.4741 7.86373 18.4847 7.98962 18.5082 8.29017 18.5545 8.58988 18.5829 8.89043 18.6731 9.81233 18.7584 10.7351 18.8429 11.6578 18.8607 11.8584 18.8567 11.8625 18.669 11.8763 18.336 11.9007 18.0022 11.925 17.6683 11.9388 17.4742 11.9478 17.4498 11.9242 17.4255 11.726 17.341 11.047 17.2614 10.3671 17.1802 9.68726 17.1144 9.12679 17.0591 8.56634 16.9795 8.00749 16.9576 7.85317 17.008 7.81092 17.1314 7.78576 17.3272 7.74594 17.5237 7.75894 17.7252 7.75163ZM27.8599 10.2908C27.8599 10.8748 27.8614 11.458 27.8591 12.0428 27.8591 12.3052 27.8558 12.3068 27.595 12.3036 27.2812 12.3052 26.9679 12.2889 26.6561 12.2548 26.4545 12.2296 26.4504 12.2361 26.4448 12.0225 26.4245 11.3085 26.4035 10.5945 26.3887 9.88058 26.3783 9.39727 26.3725 8.91561 26.3433 8.4323 26.3278 8.18294 26.3418 8.1805 26.5812 8.17725 26.9346 8.17319 27.287 8.18944 27.6379 8.24304 27.8492 8.27554 27.8591 8.27554 27.8599 8.50947 27.8614 9.10322 27.8614 9.69701 27.8614 10.2916L27.8599 10.2916ZM56.6879 10.3062C56.6879 10.891 56.6894 11.475 56.6871 12.0591 56.6871 12.3044 56.683 12.306 56.4368 12.3044 56.1138 12.3014 55.7908 12.2862 55.4686 12.2589 55.3087 12.2467 55.2614 12.1793 55.2721 12.0339 55.2736 12.0136 55.2721 11.9933 55.2721 11.973 55.2477 10.8456 55.2233 9.71892 55.2005 8.5915 55.1997 8.5314 55.1964 8.4713 55.199 8.41037 55.2023 8.18294 55.203 8.17725 55.4313 8.17888 55.7456 8.1805 56.0574 8.19675 56.371 8.22763 56.7536 8.26579 56.6863 8.31292 56.6879 8.61506 56.6894 9.17797 56.6886 9.74249 56.6879 10.3062ZM16.9365 11.6773C16.9438 11.9981 16.9438 11.9973 16.6367 12.072 16.428 12.1232 16.2193 12.1793 16.0089 12.2256 15.8294 12.2662 15.7977 12.2435 15.7668 12.0672 15.5524 10.8715 15.3388 9.67507 15.1259 8.47861 15.0829 8.23085 15.0943 8.21544 15.3379 8.17238 15.6377 8.11959 15.9366 8.06759 16.2363 8.0213 16.4272 7.99124 16.4515 8.00181 16.4897 8.21219 16.5653 8.637 16.6367 9.06344 16.6928 9.4915 16.7797 10.1689 16.8512 10.8488 16.9292 11.527 16.9357 11.5766 16.934 11.6278 16.9365 11.6773ZM43.9557 8.2065C44.348 8.14232 44.7436 8.07734 45.1392 8.0148 45.2811 7.99287 45.3243 8.08222 45.3431 8.20894 45.4104 8.67679 45.4949 9.14141 45.55 9.6101 45.6313 10.2891 45.7425 10.9649 45.7638 11.6497 45.7653 11.7196 45.7646 11.791 45.7661 11.8609 45.7702 11.9697 45.7158 12.0258 45.615 12.0493 45.3471 12.1094 45.079 12.1695 44.8117 12.2337 44.6834 12.2646 44.6403 12.2101 44.6192 12.085 44.5387 11.6091 44.4463 11.1355 44.3643 10.6612 44.2254 9.87977 44.0906 9.09756 43.9557 8.31533 43.9524 8.28692 43.9557 8.25685 43.9557 8.2065ZM25.9119 10.9495C25.9007 11.3654 25.9259 11.7277 25.869 12.0899 25.852 12.2045 25.8185 12.2784 25.6951 12.2889 25.4302 12.3109 25.1663 12.332 24.9032 12.3588 24.7756 12.3726 24.7399 12.3174 24.7188 12.1923 24.6595 11.8227 24.67 11.4483 24.6343 11.077 24.5669 10.3761 24.5385 9.6702 24.493 8.96678 24.4816 8.79539 24.4645 8.62563 24.4507 8.45424 24.4434 8.35839 24.4816 8.30479 24.5839 8.30073 24.9267 8.28692 25.2679 8.22438 25.6123 8.23654 25.8136 8.24385 25.8306 8.25685 25.8454 8.45993 25.8543 8.60044 25.852 8.7426 25.855 8.88393L25.9119 10.9495ZM54.728 10.5466C54.728 11.0307 54.7336 11.5149 54.727 11.9989 54.7229 12.2507 54.6945 12.2727 54.4565 12.2946 54.2209 12.3166 53.9871 12.3344 53.7525 12.3596 53.6199 12.3734 53.5582 12.3344 53.5501 12.1825 53.5161 11.5392 53.4696 10.8959 53.4249 10.2534 53.3901 9.72055 53.3503 9.18854 53.313 8.6565 53.3089 8.59556 53.3122 8.53465 53.3081 8.47455 53.3023 8.36814 53.3348 8.3056 53.4541 8.30154 53.7872 8.29017 54.1178 8.226 54.4532 8.23817 54.6579 8.24548 54.6612 8.24873 54.6767 8.46155 54.7262 9.15522 54.731 9.85052 54.728 10.5466ZM15.9528 19.1997C16.3736 19.6627 16.3947 20.2109 16.2558 20.7844 16.1161 21.3579 15.7977 21.8306 15.4119 22.2546 14.7645 22.9629 13.9823 23.486 13.1505 23.9303 11.7185 24.6955 10.2004 25.2039 8.61646 25.5044 7.47685 25.7197 6.32993 25.8855 5.17083 25.9487 4.81749 25.9683 4.46497 25.9845 4.11163 25.982 3.85577 25.982 3.5991 25.9893 3.34405 25.9804 3.12719 25.9723 3.0955 25.935 3.07762 25.7083 3.01184 24.8953 2.9558 24.0814 2.88349 23.2683 2.79901 22.3261 2.69994 21.3847 2.60896 20.4424 2.54234 19.7609 2.48468 19.0778 2.41157 18.398 2.3271 17.5971 2.23206 16.7978 2.13946 15.9969 2.05499 15.2578 1.97376 14.517 1.88441 13.777 1.78451 12.9574 1.68135 12.1395 1.57169 11.3215 1.46436 10.5338 1.35254 9.74673 1.23623 8.96028 1.04714 7.66591 0.841351 6.37404 0.618907 5.08496 0.438907 4.03389 0.23851 2.98642 0.0178314 1.94313-0.01141 1.80342 0.0308278 1.74738 0.15348 1.6962 1.32883 1.20884 2.50011 0.71255 3.67463 0.222755 3.89314 0.131782 4.11732 0.0554287 4.34964 0.0123789 4.51047-0.0176749 4.55188 0.015628 4.547 0.177268 4.53484 0.59071 4.55188 1.00578 4.51128 1.4176 4.50138 1.52807 4.49594 1.6389 4.49503 1.74981 4.47634 3.2322 4.45847 4.71539 4.49747 6.19859 4.53159 7.49821 4.59982 8.79701 4.67535 10.0958 4.73464 11.1209 4.81993 12.146 4.90765 13.1694 4.99375 14.1726 5.09854 15.1741 5.19683 16.1773 5.21551 16.3681 5.23258 16.386 5.44944 16.3567 5.87681 16.2925 6.308 16.257 6.74012 16.2504 8.0828 16.2471 9.40355 16.4315 10.7097 16.741 11.8525 17.0123 12.9645 17.3737 14.0302 17.8789 14.5582 18.1291 15.0634 18.4183 15.524 18.7854 15.6807 18.9089 15.8204 19.051 15.9528 19.1997ZM44.5641 18.956C45.0838 19.4117 45.273 19.9697 45.1252 20.6601 45.0026 21.2295 44.7248 21.7079 44.3544 22.136 43.76 22.824 43.0379 23.3471 42.2563 23.7841 40.7245 24.6419 39.0927 25.1991 37.377 25.5206 36.4409 25.6984 35.4963 25.8301 34.5472 25.9154 34.0095 25.9617 33.4694 26.0196 32.8659 25.982L32.1608 25.982C32.0234 25.982 31.9455 25.9391 31.934 25.7758 31.8822 25.0626 31.8221 24.3502 31.7578 23.6379 31.6895 22.8857 31.6141 22.1336 31.5425 21.3814 31.4775 20.6902 31.4176 19.9973 31.3468 19.3061 31.2818 18.6546 31.2071 18.0048 31.1365 17.3542 31.0708 16.7434 31.0073 16.1326 30.9349 15.5226 30.8481 14.7834 30.7564 14.0442 30.6645 13.3051 30.5784 12.6155 30.4931 11.9267 30.4015 11.2379 30.3037 10.4996 30.2009 9.76206 30.0927 9.02525 29.9482 8.06922 29.7931 7.11643 29.6403 6.16203 29.4272 4.81048 29.1809 3.4644 28.9011 2.12508 28.8897 2.06578 28.8841 2.00486 28.8661 1.94719 28.8239 1.81723 28.8646 1.74819 28.992 1.69783 30.2405 1.20966 31.4491 0.620765 32.709 0.15615 32.874 0.0944176 33.0403 0.0253751 33.2183 0.00750532 33.3783-0.00873996 33.4189 0.0172525 33.4034 0.187828 33.3191 1.113 33.3679 2.04304 33.3239 2.96903 33.2881 3.72442 33.2922 4.48226 33.3303 5.23849 33.3394 5.43019 33.3465 5.62268 33.345 5.81356 33.3354 6.72169 33.3831 7.62897 33.4296 8.53546 33.4887 9.73355 33.5758 10.9292 33.6642 12.1257 33.7284 12.9891 33.8122 13.8509 33.8932 14.7135 33.9363 15.1855 33.9826 15.6566 34.0412 16.1261 34.0727 16.3852 34.0859 16.3876 34.3401 16.3535 34.7885 16.2926 35.2376 16.243 35.6908 16.2495 37.2813 16.2698 38.84 16.5208 40.3696 16.957 41.405 17.2511 42.4133 17.6182 43.3652 18.1324 43.7945 18.3607 44.1967 18.637 44.5641 18.956ZM7.8375 23.4307C8.42557 23.1497 11.2807 20.9184 11.5073 20.5545 10.1216 19.9575 8.731 19.4028 7.23562 18.9487L7.8375 23.4307ZM40.2662 20.7007C40.3394 20.622 40.3312 20.561 40.2322 20.5172 40.0349 20.427 39.8392 20.3312 39.6393 20.2491 38.5727 19.8129 37.5014 19.3906 36.4023 19.0462 36.3066 19.0169 36.2083 18.9503 36.0857 19.0072L36.6778 23.4113C36.7654 23.4307 36.7996 23.3901 36.8385 23.3625 37.8369 22.6299 38.8416 21.9061 39.8001 21.1182 39.9618 20.9866 40.1218 20.8543 40.2662 20.7007Z" fill="#00AEEC" transform="matrix(1.0022 0 0 1 2375 886)"/></g></g></g><g><g><g><path d="M71.959 17.0311 79.1775 17.0311 79.1775 14.7753 71.959 14.7753 71.959 12.5195 78.9519 12.5195 78.9519 0.789519 62.7104 0.789519 62.7104 12.5195 69.7033 12.5195 69.7033 14.7753 62.4848 14.7753 62.4848 17.0311 69.7033 17.0311 69.7033 19.5124 61.9209 19.5124 61.9209 21.7682 79.8542 21.7682 79.8542 19.5124 72.0718 19.5124 72.0718 17.0311ZM72.1846 3.04529 76.9217 3.04529 76.9217 5.52663 72.1846 5.52663 72.1846 3.04529ZM72.1846 7.7824 76.9217 7.7824 76.9217 10.151 72.1846 10.151 72.1846 7.7824ZM69.9288 10.151 65.1917 10.151 65.1917 7.7824 69.9288 7.7824 69.9288 10.151ZM69.9288 5.52663 65.1917 5.52663 65.1917 3.04529 69.9288 3.04529 69.9288 5.52663ZM11.8428 9.8126 23.6856 9.8126 23.6856 12.5195 11.8428 12.5195Z" fill="#FF6900" transform="matrix(1 0 0 1.01961 2330.25 836)"/><path d="M29.5506 0.112788 21.7682 0.112788 23.6856 2.81971 29.325 4.62433C30.3401 4.96269 31.0168 5.97779 31.0168 6.99288L31.0168 15.5648C31.0168 16.5799 30.3401 17.595 29.325 17.9334L23.6856 19.738 21.7682 22.4449 29.5506 22.4449C32.8214 22.4449 35.4156 19.8508 35.4156 16.5799L35.4156 6.09058C35.4156 2.81971 32.8214 0.112788 29.5506 0.112788ZM6.09058 17.9334C5.07548 17.595 4.39875 16.5799 4.39875 15.5648L4.39875 6.99288C4.39875 5.97779 5.07548 4.96269 6.09058 4.62433L11.73 2.81971 13.6474 0.112788 5.865 0.112788C2.59413 0.112788 0 2.81971 0 6.09058L0 16.4671C0 19.738 2.59413 22.3321 5.865 22.3321L13.6474 22.3321 11.73 19.6252 6.09058 17.9334ZM54.928 5.52663 49.1758 5.52663 49.1758 17.3694 54.928 17.3694 54.928 5.52663ZM52.5594 15.0009 51.3188 15.0009 51.3188 7.7824 52.5594 7.7824 52.5594 15.0009ZM40.7166 21.7682 42.9724 21.7682 42.9724 3.04529 45.341 3.04529 43.9875 9.24865 43.9875 11.5044 45.341 11.5044 45.341 16.4671C45.341 16.8055 45.1154 17.0311 44.777 17.0311L44.2131 17.0311 44.2131 19.2868 45.341 19.2868C46.5816 19.2868 47.5967 18.2717 47.5967 17.0311L47.5967 9.13587 46.2433 9.13587 47.5967 2.9325 47.5967 0.676731 40.7166 0.676731 40.7166 21.7682Z" fill="#FF6900" transform="matrix(1 0 0 1.01961 2330.25 836)"/><path d="M48.6118 3.04529 56.3942 3.04529 56.3942 17.595C56.3942 18.6101 55.6047 19.5124 54.4768 19.5124L52.785 19.5124 52.785 21.7682 55.1536 21.7682C57.071 21.7682 58.7628 20.1891 58.7628 18.1589L58.7628 3.04529 59.5523 3.04529 59.5523 0.789519 48.6118 0.789519 48.6118 3.04529ZM82.8995 0.902308 99.1411 0.902308 99.1411 3.15808 82.8995 3.15808ZM100.043 11.6172 100.043 9.36144 82.11 9.36144 82.11 11.6172 86.6215 11.6172 83.0123 19.5124 83.0123 21.7682 98.2387 21.7682C98.9155 21.7682 99.3666 21.2042 99.3666 20.6403 99.3666 20.4147 99.3666 20.3019 99.2538 20.1891L97.3364 15.9032 94.8551 15.9032 96.5469 19.5124 85.6064 19.5124 89.2157 11.6172 100.043 11.6172Z" fill="#FF6900" transform="matrix(1 0 0 1.01961 2330.25 836)"/></g></g></g></g></svg>