<svg width="1891" height="946" xmlns="http://www.w3.org/2000/svg" xmlns:xlink="http://www.w3.org/1999/xlink" overflow="hidden"><g transform="translate(-612 -508)"><rect x="612" y="509" width="1890" height="945" fill="#FFFFFF" fill-opacity="0"/><path d="M1128.07 1042 1170.31 1066.84 1166.67 1105.59 1202.32 1088.04 1250 1116.31 1242.51 1161.67 1228.43 1170.1 1223.21 1213.18 1175.07 1240.3 1145.33 1219.33 1142.38 1222.07 1140.33 1263.1 1087.66 1293.64 1058.14 1270.39 996.158 1308 953.245 1267.88 948.704 1225.94 923.956 1239.39 886.039 1207.94 879 1159.61 918.564 1141.74 918.507 1111.29 969.82 1088.95 994.114 1106.28 1003.78 1102.26 1004.33 1072.54 1039.78 1055.01 1042.06 1138.82 1042.02 1139.1 1042.08 1139.52 1042.1 1140.23 1042.18 1140.23 1042.56 1142.96C1045.04 1151.68 1055.75 1158.25 1068.59 1158.25 1081.42 1158.25 1092.14 1151.68 1094.61 1142.96L1094.94 1140.62 1095.03 1140.62 1095.06 1139.78 1095.15 1139.1 1095.09 1138.65 1097.45 1057.03Z" fill-rule="evenodd"/><path d="M1069 846C1085.43 846 1099.14 851.621 1102.31 859.093L1102.9 861.942 1103 861.942 1102.99 862.342 1103 862.397 1102.98 862.47 1095.06 1138.42 1095.12 1138.87 1095.02 1139.55 1095 1140.39 1094.91 1140.39 1094.58 1142.73C1092.13 1151.44 1081.51 1158 1068.77 1158 1056.04 1158 1045.42 1151.44 1042.97 1142.73L1042.59 1140 1042.51 1140 1042.49 1139.29 1042.43 1138.87 1042.47 1138.59 1035.01 862.438 1035 862.397 1035.01 862.366 1035 862.117 1035.06 862.117 1035.69 859.093C1038.86 851.621 1052.57 846 1069 846Z" stroke="#000000" stroke-width="8" stroke-miterlimit="8" fill="none" fill-rule="evenodd"/><path d="M942 782C942 711.86 998.86 655 1069 655 1139.14 655 1196 711.86 1196 782 1196 852.14 1139.14 909 1069 909 998.86 909 942 852.14 942 782Z" fill-rule="evenodd"/><path d="M1924.89 889C1930.3 889.092 1934.8 890.785 1938.4 894.08 1942 897.374 1943.86 901.718 1944 907.111 1943.86 912.397 1942 916.676 1938.4 919.948 1934.8 923.219 1930.3 924.904 1924.89 925 1919.59 924.904 1915.15 923.219 1911.57 919.948 1908 916.676 1906.14 912.397 1906 907.111 1906.14 901.718 1908 897.374 1911.57 894.08 1915.15 890.785 1919.59 889.092 1924.89 889Z" fill-rule="evenodd"/><path d="M1302 906 1380.91 906 1380.78 914.811 1359.3 912.212C1359.09 923.289 1359.19 937.115 1359.15 948.299 1359.12 959.483 1359.09 969.463 1359.1 979.315L1359.1 993.503C1359.09 1004.33 1359.08 1015.4 1359.15 1026.6 1359.23 1037.8 1359.33 1049.31 1359.54 1060.68L1427.56 1035.84 1428 1069 1302 1069C1302.07 1066.51 1302.01 1061.35 1302.08 1058.86L1321.62 1061.16C1321.94 1050.15 1322.09 1037.75 1322.2 1027.27 1322.31 1016.78 1322.29 1007.08 1322.28 998.254L1322.28 982.765C1322.29 971.425 1322.31 960.635 1322.2 948.87 1322.09 937.104 1321.94 923.401 1321.62 912.17L1302 915.53 1302 906Z" fill-rule="evenodd"/><path d="M1854.76 915.18C1854.62 926.88 1854.47 938.581 1854.33 950.281L1881.32 947.403C1881.26 951.333 1881.21 955.263 1881.16 959.193L1854.33 959.193 1854.33 1041.63C1854.38 1047.48 1855.68 1051.75 1858.22 1054.44 1860.77 1057.13 1864.23 1058.45 1868.61 1058.42 1871.24 1058.43 1873.66 1057.86 1875.89 1056.73 1878.11 1055.59 1880.59 1053.83 1883.32 1051.44L1887 1054.93C1883.79 1060.83 1879.4 1065.31 1873.83 1068.37 1868.26 1071.44 1861.33 1072.98 1853.03 1073 1841.97 1073.09 1833.56 1070.41 1827.82 1064.97 1822.08 1059.53 1819.24 1050.8 1819.31 1038.79 1819.32 1034.75 1819.35 1030.9 1819.42 1027.23 1819.48 1023.57 1819.52 1019.5 1819.52 1015.02L1819.52 959.193 1802 959.193 1802 949.257 1820.3 950.281C1820.66 937.854 1820.23 925.427 1820.6 913L1854.76 915.18Z" fill-rule="evenodd"/><path d="M1494.89 946C1506.54 946.05 1517.03 948.576 1526.36 953.579 1535.68 958.581 1543.09 965.763 1548.58 975.122 1554.07 984.482 1556.87 995.722 1557 1008.84 1556.74 1028.67 1551.03 1044.27 1539.89 1055.63 1528.75 1066.99 1513.75 1072.78 1494.89 1073 1475.95 1072.74 1460.95 1066.86 1449.92 1055.38 1438.88 1043.9 1433.24 1028.38 1433 1008.84 1433.13 995.86 1435.93 984.685 1441.41 975.317 1446.89 965.949 1454.28 958.736 1463.58 953.676 1472.88 948.617 1483.31 946.058 1494.89 946ZM1494.89 953.638C1486.98 953.561 1480.92 958.042 1476.73 967.083 1472.53 976.125 1470.41 990.19 1470.38 1009.28 1470.41 1028.29 1472.53 1042.41 1476.73 1051.62 1480.92 1060.83 1486.98 1065.41 1494.89 1065.36 1502.8 1065.41 1508.82 1060.83 1512.95 1051.62 1517.08 1042.41 1519.16 1028.29 1519.18 1009.28 1519.16 990.19 1517.08 976.125 1512.95 967.083 1508.82 958.042 1502.8 953.561 1494.89 953.638Z" fill-rule="evenodd"/><path d="M1633.06 946C1645.54 946.218 1655.76 949.554 1663.71 956.008 1671.66 962.462 1678.19 975.664 1678 980.803 1677.81 985.942 1675.16 987.658 1672.76 989.566 1670.36 991.474 1667.31 992.423 1663.6 992.414 1658.91 992.533 1654.93 990.981 1651.66 987.759 1648.39 984.537 1646.48 978.932 1645.93 970.945 1645.21 965.322 1647.07 958.567 1644.25 955.683 1641.44 952.799 1636.85 951.799 1629.05 953.638 1622.94 955.779 1617.73 958.595 1613.57 967.357 1609.4 976.12 1604.24 989.361 1604.05 1006.22 1604.23 1022.63 1607.86 1035.26 1614.93 1044.09 1622.01 1052.92 1631.47 1057.38 1643.31 1057.48 1649.6 1057.45 1655.18 1056.09 1660.06 1053.4 1664.93 1050.71 1669.31 1046.88 1673.2 1041.92L1677.56 1044.77C1672.58 1053.9 1666.01 1060.87 1657.85 1065.7 1649.68 1070.53 1639.68 1072.96 1627.83 1073 1616.64 1072.97 1606.47 1070.52 1597.33 1065.65 1588.18 1060.78 1580.87 1053.64 1575.4 1044.24 1569.94 1034.83 1567.14 1023.33 1567 1009.72 1567.14 996.106 1570.15 984.563 1576.03 975.091 1581.92 965.618 1589.82 958.41 1599.75 953.465 1609.68 948.521 1620.78 946.032 1633.06 946Z" fill-rule="evenodd"/><path d="M1743.4 946.003C1758.74 945.896 1769.82 949.442 1776.67 956.64 1783.51 963.837 1786.86 975.324 1786.74 991.1L1786.74 1050.03C1786.76 1054.14 1787.37 1057.04 1788.56 1058.74 1789.76 1060.43 1791.4 1061.26 1793.49 1061.2 1795.07 1061.26 1796.6 1060.7 1798.07 1059.5 1799.54 1058.31 1801.28 1056.1 1803.3 1052.88L1807 1055.94C1804.34 1061.92 1800.79 1066.26 1796.35 1068.98 1791.92 1071.7 1786.24 1073.04 1779.33 1073 1772.18 1072.94 1766.51 1071.25 1762.33 1067.92 1758.14 1064.58 1755.25 1059.93 1753.65 1053.97 1748.34 1060.12 1742.99 1064.83 1737.59 1068.08 1732.2 1071.33 1725.27 1072.97 1716.8 1073 1707.28 1072.91 1699.65 1070.25 1693.89 1065.02 1688.13 1059.78 1685.17 1052.53 1685.01 1043.24 1684.76 1033.45 1688.1 1025.42 1695.06 1019.14 1702.01 1012.86 1714.13 1007.24 1731.41 1002.27 1734.49 1001.39 1737.86 1000.47 1741.52 999.507L1752.77 996.576 1752.77 983.214C1752.9 972.014 1751.68 965.047 1748.09 959.884 1744.5 954.721 1738.66 952.244 1731.24 952.235 1726.86 952.746 1723.64 952.949 1721.81 955.922 1719.99 958.894 1720.79 964.885 1720.29 970.07 1719.84 977.454 1718.07 982.785 1714.98 986.061 1711.89 989.338 1708.21 990.945 1703.95 990.881 1700.01 990.867 1696.74 989.909 1694.16 988.006 1691.57 986.103 1689.08 984.835 1688.93 979.708 1688.79 974.582 1694.92 961.104 1704.15 955.134 1713.37 949.164 1726.46 946.12 1743.4 946.003ZM1752.77 1002.49C1750.24 1003.15 1747.95 1003.8 1745.88 1004.44 1743.81 1005.07 1742.11 1005.66 1740.78 1006.22 1733.13 1009.36 1727.34 1013.59 1723.39 1018.92 1719.45 1024.25 1717.47 1030.9 1717.45 1038.86 1717.49 1045.41 1718.94 1050.27 1721.78 1053.42 1724.63 1056.58 1728.64 1058.15 1733.8 1058.13 1736.67 1058.17 1739.56 1057.39 1742.47 1055.81 1745.39 1054.22 1748.82 1051.64 1752.77 1048.06L1752.77 1002.49Z" fill-rule="evenodd"/><path d="M2026.39 946C2037.95 946.05 2048.35 948.576 2057.6 953.579 2066.86 958.581 2074.2 965.763 2079.65 975.122 2085.09 984.482 2087.87 995.722 2088 1008.84 2087.74 1028.67 2082.08 1044.27 2071.03 1055.63 2059.98 1066.99 2045.1 1072.78 2026.39 1073 2007.6 1072.74 1992.73 1066.86 1981.78 1055.38 1970.83 1043.9 1965.24 1028.38 1965 1008.84 1965.13 995.86 1967.91 984.685 1973.34 975.317 1978.78 965.949 1986.11 958.736 1995.33 953.676 2004.55 948.617 2014.91 946.058 2026.39 946ZM2026.39 953.638C2018.54 953.561 2012.53 958.042 2008.37 967.083 2004.21 976.125 2002.11 990.19 2002.08 1009.28 2002.11 1028.29 2004.21 1042.41 2008.37 1051.62 2012.53 1060.83 2018.54 1065.41 2026.39 1065.36 2034.23 1065.41 2040.2 1060.83 2044.3 1051.62 2048.4 1042.41 2050.46 1028.29 2050.49 1009.28 2050.46 990.19 2048.4 976.125 2044.3 967.083 2040.2 958.042 2034.23 953.561 2026.39 953.638Z" fill-rule="evenodd"/><path d="M2186.42 946.58C2196.92 946.548 2205.32 949.979 2211.6 956.873 2217.89 963.768 2221.11 974.32 2221.27 988.531L2221.27 1017.22C2221.27 1023.87 2221.32 1031.22 2221.43 1039.26 2221.54 1047.3 2221.7 1054.59 2221.92 1061.13L2235 1058.1 2235 1069 2171.81 1069 2171.81 1059.51 2185.55 1061C2185.66 1054.45 2185.76 1047.16 2185.85 1039.13 2185.93 1031.1 2185.98 1023.8 2185.98 1017.22L2185.98 985.912C2186 977.533 2184.77 971.573 2182.3 968.031 2179.84 964.489 2176.05 962.768 2170.93 962.868 2167.62 962.868 2163.83 963.901 2159.56 965.966 2155.3 968.031 2150.8 971.129 2146.07 975.259L2146.07 1017.22C2146.07 1023.57 2146.12 1030.81 2146.2 1038.93 2146.29 1047.05 2146.39 1054.45 2146.5 1061.13L2158.94 1058.76 2158.94 1069 2095.96 1069 2096.1 1059.38 2110.57 1061.66C2110.68 1054.99 2110.79 1046.29 2110.87 1038.89 2110.94 1031.49 2111 1023.62 2111 1017.26L2111 999.205C2111 992.346 2110.95 986.589 2110.84 981.934 2110.73 977.278 2110.57 972.446 2110.35 967.437L2094 971.945 2094 960.479 2144.9 946C2144.89 948.387 2144.87 950.774 2144.86 953.161 2145.12 959.532 2145.37 961.715 2145.63 968.086 2152.73 959.966 2159.53 954.318 2166.03 951.141 2172.52 947.965 2179.32 946.445 2186.42 946.58Z" fill-rule="evenodd"/><path d="M1944.38 945C1944.29 947.149 1944.19 949.297 1944.1 951.446L1943.23 983.54 1943.23 1017.12C1943.23 1023.5 1943.28 1030.75 1943.36 1038.88 1943.45 1047 1943.55 1054.36 1943.66 1060.96L1956.87 1058.13 1957 1069 1893.19 1069 1893.19 1059.33C1898 1058.9 1902.81 1061.39 1907.62 1060.96 1907.73 1054.27 1907.83 1046.88 1907.92 1038.8 1908 1030.71 1908.05 1023.49 1908.05 1017.12L1908.05 999.678C1908.05 992.885 1908 987.007 1907.89 982.04 1907.78 977.075 1907.62 973.371 1907.4 967.996L1891 972.782 1891 959.551 1944.38 945Z" fill-rule="evenodd"/><path d="M1930.13 1106 1929.98 1108.95 1929.32 1142.99 1929.32 1278.57 1949 1269.68 1948.87 1283.94 1909.68 1286.75 1910.24 1270C1906 1275.39 1901.13 1279.55 1895.63 1282.51 1890.12 1285.46 1883.72 1286.96 1876.4 1287 1861.46 1286.74 1849.55 1281.32 1840.66 1270.75 1831.77 1260.18 1827.22 1246.03 1827 1228.31 1827.29 1209.54 1832.14 1194.75 1841.57 1183.95 1850.99 1173.16 1863.26 1167.65 1878.38 1167.43 1883.97 1167.34 1889.38 1168.45 1894.61 1170.76 1899.84 1173.06 1904.98 1177.11 1910.02 1182.9 1910 1162.4 1909.99 1141.89 1909.97 1121.39L1889.75 1127.14C1889.77 1123.84 1889.79 1120.54 1889.8 1117.24L1930.13 1106ZM1882.33 1179.41C1872.83 1179.28 1864.81 1183.03 1858.27 1190.68 1851.74 1198.32 1848.33 1210.65 1848.06 1227.65 1848.25 1244.13 1851.49 1256.14 1857.75 1263.67 1864.02 1271.2 1872.14 1274.92 1882.11 1274.81 1887.3 1274.88 1892.04 1273.91 1896.34 1271.89 1900.64 1269.86 1905.06 1266.32 1909.58 1261.27L1909.58 1192.07C1904.24 1187.34 1899.37 1184.03 1894.97 1182.14 1890.56 1180.25 1886.35 1179.34 1882.33 1179.41Z" fill-rule="evenodd"/><path d="M1365.15 1122 1379.05 1122 1430.32 1274.7 1448.6 1271.45C1448.73 1275.64 1448.87 1279.82 1449 1284L1384.26 1284 1384.26 1270.35 1408.62 1275.04 1388.4 1214.07 1338.65 1230.65 1323.27 1276.84 1348.3 1270.85C1348.47 1275.77 1348.04 1279.08 1348.2 1284L1295.2 1284C1295.13 1279.25 1295.07 1278.32 1295 1273.57L1312.94 1277.34 1365.15 1122ZM1366.02 1146.59 1341.69 1221.24 1385.52 1206.42 1366.02 1146.59Z" fill-rule="evenodd"/><path d="M1662.4 1167.01C1674.89 1166.86 1684.18 1169.99 1690.27 1176.41 1696.36 1182.83 1699.4 1193.41 1699.37 1208.16L1699.37 1260.3C1699.4 1265.93 1700.17 1269.91 1701.68 1272.24 1703.2 1274.58 1705.33 1275.71 1708.08 1275.64 1710 1275.62 1711.7 1275.1 1713.19 1274.08 1714.67 1273.05 1716.16 1271.6 1717.65 1269.72L1722 1274.32C1719.28 1278.75 1716.23 1281.91 1712.83 1283.8 1709.44 1285.69 1705.68 1286.61 1701.55 1286.56 1695.65 1286.5 1690.88 1284.82 1687.23 1281.51 1683.59 1278.2 1681.26 1273.61 1680.25 1267.75 1673.95 1274.2 1668.16 1279.02 1662.89 1282.22 1657.62 1285.41 1651.51 1287 1644.55 1287 1635.62 1286.98 1628.19 1284.5 1622.26 1279.56 1616.33 1274.62 1613.25 1267.33 1613.02 1257.67 1612.72 1250.44 1615.39 1243.94 1621.04 1238.18 1626.69 1232.42 1637.14 1226.79 1652.39 1221.31 1656.27 1219.87 1660.59 1218.47 1665.37 1217.12 1670.14 1215.76 1674.96 1214.53 1679.82 1213.42L1679.82 1205.97C1679.87 1194.38 1678.18 1187.46 1674.43 1182.2 1670.68 1176.95 1665.56 1175.27 1657.29 1174.44 1652.13 1174.36 1647.59 1174.79 1644.53 1178.15 1641.46 1181.51 1640.41 1189.1 1638.89 1194.58 1636.97 1202.03 1632.98 1205.75 1626.93 1205.75 1623.67 1205.74 1620.83 1204.28 1619.41 1203.37 1617.98 1202.46 1616.09 1201.68 1616.28 1196.55 1616.48 1191.42 1623.6 1180.04 1631.67 1174.88 1639.73 1169.71 1649.98 1167.09 1662.4 1167.01ZM1679.82 1220.87C1675.51 1222.1 1671.44 1223.36 1667.6 1224.65 1663.76 1225.94 1660.5 1227.09 1657.83 1228.1 1647.66 1232.19 1640.95 1236.49 1637.69 1241 1634.44 1245.5 1632.95 1249.97 1633.23 1254.39 1633.34 1260.82 1635.19 1265.54 1638.75 1268.55 1642.32 1271.55 1646.94 1273.04 1652.61 1273.01 1656.62 1273.08 1660.56 1272.06 1664.42 1269.94 1668.27 1267.83 1673.41 1264.17 1679.82 1258.99L1679.82 1220.87Z" fill-rule="evenodd"/><path d="M1803.72 1166.99C1807.48 1167.01 1812.39 1168.2 1813.98 1168.84 1815.58 1169.49 1820.12 1172.68 1820.84 1175.97 1821.55 1179.25 1819.82 1185.05 1817.69 1187.95 1815.56 1190.85 1812.13 1192.33 1807.41 1192.39 1804.61 1192.36 1802.02 1191.75 1799.63 1190.55 1797.25 1189.35 1794.93 1187.7 1792.67 1185.6L1789.86 1182.97C1785.02 1186.54 1780.94 1190.9 1777.62 1196.06 1774.3 1201.22 1771.52 1207.45 1769.28 1214.75L1769.28 1233.6C1769.28 1239.4 1769.34 1246.03 1769.42 1253.25 1769.49 1260.48 1769.6 1270.6 1769.71 1276.94L1789.43 1273.96 1789.43 1284 1731.83 1284 1731.83 1273.36 1749.16 1277.16C1749.27 1270.9 1749.39 1260.7 1749.46 1253.45 1749.53 1246.19 1749.59 1239.42 1749.59 1233.6L1749.59 1221.11C1749.59 1214.45 1749.54 1208.69 1749.43 1203.84 1749.32 1198.99 1749.16 1192.22 1748.94 1187.53L1730 1193.6 1730.1 1180.35 1769.1 1165C1769.15 1166.27 1768.81 1169.24 1768.87 1170.51 1768.93 1179.77 1769 1189.04 1769.06 1198.31 1773.09 1188.38 1778.19 1180.69 1784.36 1175.26 1790.53 1169.82 1796.98 1167.06 1803.72 1166.99Z" fill-rule="evenodd"/><path d="M2001.92 1167C2008.32 1167.01 2014.21 1167.86 2019.59 1169.54 2024.97 1171.22 2030.25 1173.65 2035.43 1176.83L2034.56 1201.15 2023.84 1201.15 2019.24 1180.77C2016.39 1179.34 2013.54 1178.26 2010.66 1177.51 2007.79 1176.77 2004.88 1176.4 2001.92 1176.39 1994.23 1176.46 1988.41 1178.07 1984.44 1181.21 1980.48 1184.35 1978.49 1188.59 1978.47 1193.92 1978.39 1199.13 1980.09 1203.27 1983.57 1206.35 1987.05 1209.43 1992.8 1212.37 2000.83 1215.17L2009.16 1218.24C2020.87 1222.38 2029.3 1227.3 2034.45 1233 2039.59 1238.7 2042.11 1245.32 2042 1252.85 2041.97 1262.33 2038.04 1270.32 2030.21 1276.83 2022.37 1283.34 2010.83 1286.73 1995.57 1287 1988.76 1287 1982.49 1286.24 1976.75 1284.73 1971.02 1283.23 1965.24 1281 1959.44 1278.05L1959 1251.76 1970.36 1251.76 1975.62 1273.88C1978.46 1275.2 1981.5 1276.18 1984.75 1276.84 1987.99 1277.5 1991.53 1277.83 1995.35 1277.83 2004.74 1277.74 2011.7 1275.95 2016.23 1272.46 2020.75 1268.97 2022.99 1264.34 2022.97 1258.55 2023.02 1253.4 2021.27 1249.18 2017.71 1245.87 2014.14 1242.56 2008.44 1239.48 2000.61 1236.64L1989.43 1232.92C1980.45 1229.72 1973.34 1225.54 1968.11 1220.4 1962.88 1215.26 1960.21 1208.62 1960.1 1200.49 1960.15 1191.33 1963.76 1183.53 1970.9 1177.09 1978.05 1170.65 1988.39 1167.29 2001.92 1167Z" fill-rule="evenodd"/><path d="M1429 1170 1483.09 1170 1483.09 1179.32 1462.87 1176.19 1490.29 1258.54 1519.45 1176.41 1499.67 1179.32 1499.67 1170 1551.57 1170 1551.57 1179.85 1531.12 1176.1 1562.04 1257.66 1586.62 1175.96 1566.41 1179.85 1566.41 1170 1610 1170 1610 1178.85 1597.69 1176.41 1561.61 1285 1553.1 1285C1546.91 1268.82 1541.8 1255.28 1537.78 1244.39 1533.76 1233.5 1530.47 1224.37 1527.93 1217 1525.39 1209.63 1523.24 1203.14 1521.48 1197.53L1489.63 1285 1481.13 1285 1441.54 1176.42 1429 1179.85 1429 1170Z" fill-rule="evenodd"/></g></svg>