<svg width="78" height="134" xmlns="http://www.w3.org/2000/svg" xmlns:xlink="http://www.w3.org/1999/xlink" overflow="hidden"><defs><clipPath id="clip0"><rect x="1017" y="-8" width="78" height="134"/></clipPath></defs><g clip-path="url(#clip0)" transform="translate(-1017 8)"><path d="M26.1491 53.358 19.0441 65.5623 0 98.4144 1.97766 107.638 13.1112 113.386 19.7034 97.7048 37.5755 63.4336 30.1776 81.0304 35.0851 87.4164 42.7761 85.5006 50.174 66.7685 46.2186 81.2433 50.5402 87.7002 55.6675 86.352 60.7215 69.7486 59.1833 82.3076 64.9698 85.4296 71.0493 81.2433 75.5173 74.3607 73.3932 55.3448 80.2051 33.9874 94.4882 14.2619 84.0139 7.09548 55.7407 0 50.2472 23.3441 37.8685 29.5172 24.9039 33.4907 15.748 39.238 8.93609 49.8103 10.8405 58.0411 21.0218 57.0477 26.1491 53.358Z" stroke="#404040" stroke-width="5.33333" stroke-miterlimit="8" fill="#F2F2F2" fill-rule="evenodd" transform="matrix(0.906308 0.422618 0.422618 -0.906308 991.625 92.9649)"/></g></svg>