<svg width="2420" height="1816" xmlns="http://www.w3.org/2000/svg" xmlns:xlink="http://www.w3.org/1999/xlink" overflow="hidden"><defs><linearGradient x1="635" y1="-451" x2="635" y2="335" gradientUnits="userSpaceOnUse" spreadMethod="reflect" id="fill0"><stop offset="0" stop-color="#011DA0"/><stop offset="0.00628931" stop-color="#001C9F"/><stop offset="0.0125786" stop-color="#001C9F"/><stop offset="0.0188679" stop-color="#001C9F"/><stop offset="0.0251572" stop-color="#001C9F"/><stop offset="0.0314465" stop-color="#001C9F"/><stop offset="0.0377358" stop-color="#001C9F"/><stop offset="0.0440252" stop-color="#001C9F"/><stop offset="0.0503145" stop-color="#001C9F"/><stop offset="0.0566038" stop-color="#001C9F"/><stop offset="0.0628931" stop-color="#001C9F"/><stop offset="0.0691824" stop-color="#001C9E"/><stop offset="0.0754717" stop-color="#001C9E"/><stop offset="0.081761" stop-color="#001C9E"/><stop offset="0.0880503" stop-color="#001C9E"/><stop offset="0.0943396" stop-color="#001C9E"/><stop offset="0.100629" stop-color="#001C9D"/><stop offset="0.106918" stop-color="#001C9D"/><stop offset="0.113208" stop-color="#001C9D"/><stop offset="0.119497" stop-color="#001C9D"/><stop offset="0.125786" stop-color="#001C9C"/><stop offset="0.132075" stop-color="#001C9C"/><stop offset="0.138365" stop-color="#001C9C"/><stop offset="0.144654" stop-color="#001C9B"/><stop offset="0.150943" stop-color="#001C9B"/><stop offset="0.157233" stop-color="#001C9B"/><stop offset="0.163522" stop-color="#001C9A"/><stop offset="0.169811" stop-color="#001B9A"/><stop offset="0.176101" stop-color="#001B99"/><stop offset="0.18239" stop-color="#001B99"/><stop offset="0.188679" stop-color="#001B98"/><stop offset="0.194969" stop-color="#001B98"/><stop offset="0.201258" stop-color="#001B98"/><stop offset="0.207547" stop-color="#001B97"/><stop offset="0.213836" stop-color="#001B97"/><stop offset="0.220126" stop-color="#001B96"/><stop offset="0.226415" stop-color="#001B96"/><stop offset="0.232704" stop-color="#001B95"/><stop offset="0.238994" stop-color="#001B95"/><stop offset="0.245283" stop-color="#001A94"/><stop offset="0.251572" stop-color="#001A93"/><stop offset="0.257862" stop-color="#001A93"/><stop offset="0.264151" stop-color="#001A92"/><stop offset="0.27044" stop-color="#001A92"/><stop offset="0.27673" stop-color="#001A91"/><stop offset="0.283019" stop-color="#001A90"/><stop offset="0.289308" stop-color="#001A90"/><stop offset="0.295597" stop-color="#001A8F"/><stop offset="0.301887" stop-color="#00198F"/><stop offset="0.308176" stop-color="#00198E"/><stop offset="0.314465" stop-color="#00198D"/><stop offset="0.320755" stop-color="#00198D"/><stop offset="0.327044" stop-color="#00198C"/><stop offset="0.333333" stop-color="#00198B"/><stop offset="0.339623" stop-color="#00198A"/><stop offset="0.345912" stop-color="#00198A"/><stop offset="0.352201" stop-color="#001889"/><stop offset="0.358491" stop-color="#001888"/><stop offset="0.36478" stop-color="#001887"/><stop offset="0.371069" stop-color="#001887"/><stop offset="0.377358" stop-color="#001886"/><stop offset="0.383648" stop-color="#001885"/><stop offset="0.389937" stop-color="#001884"/><stop offset="0.396226" stop-color="#001783"/><stop offset="0.402516" stop-color="#001782"/><stop offset="0.408805" stop-color="#001782"/><stop offset="0.415094" stop-color="#001781"/><stop offset="0.421384" stop-color="#001780"/><stop offset="0.427673" stop-color="#00177F"/><stop offset="0.433962" stop-color="#00167E"/><stop offset="0.440252" stop-color="#00167D"/><stop offset="0.446541" stop-color="#00167C"/><stop offset="0.45283" stop-color="#00167B"/><stop offset="0.459119" stop-color="#00167A"/><stop offset="0.465409" stop-color="#001679"/><stop offset="0.471698" stop-color="#001578"/><stop offset="0.477987" stop-color="#001577"/><stop offset="0.484277" stop-color="#001576"/><stop offset="0.490566" stop-color="#001575"/><stop offset="0.496855" stop-color="#001574"/><stop offset="0.503145" stop-color="#001573"/><stop offset="0.509434" stop-color="#001472"/><stop offset="0.515723" stop-color="#001471"/><stop offset="0.522013" stop-color="#001470"/><stop offset="0.528302" stop-color="#00146F"/><stop offset="0.534591" stop-color="#00146E"/><stop offset="0.540881" stop-color="#00136D"/><stop offset="0.54717" stop-color="#00136C"/><stop offset="0.553459" stop-color="#00136B"/><stop offset="0.559748" stop-color="#00136A"/><stop offset="0.566038" stop-color="#001368"/><stop offset="0.572327" stop-color="#001267"/><stop offset="0.578616" stop-color="#001266"/><stop offset="0.584906" stop-color="#001265"/><stop offset="0.591195" stop-color="#001264"/><stop offset="0.597484" stop-color="#001163"/><stop offset="0.603774" stop-color="#001161"/><stop offset="0.610063" stop-color="#001160"/><stop offset="0.616352" stop-color="#00115F"/><stop offset="0.622642" stop-color="#00115E"/><stop offset="0.628931" stop-color="#00105C"/><stop offset="0.63522" stop-color="#00105B"/><stop offset="0.641509" stop-color="#00105A"/><stop offset="0.647799" stop-color="#001059"/><stop offset="0.654088" stop-color="#000F57"/><stop offset="0.660377" stop-color="#000F56"/><stop offset="0.666667" stop-color="#000F55"/><stop offset="0.672956" stop-color="#000F53"/><stop offset="0.679245" stop-color="#000E52"/><stop offset="0.685535" stop-color="#000E51"/><stop offset="0.691824" stop-color="#000E4F"/><stop offset="0.698113" stop-color="#000E4E"/><stop offset="0.704403" stop-color="#000D4D"/><stop offset="0.710692" stop-color="#000D4B"/><stop offset="0.716981" stop-color="#000D4A"/><stop offset="0.72327" stop-color="#000D48"/><stop offset="0.72956" stop-color="#000C47"/><stop offset="0.735849" stop-color="#000C45"/><stop offset="0.742138" stop-color="#000C44"/><stop offset="0.748428" stop-color="#000C43"/><stop offset="0.754717" stop-color="#000B41"/><stop offset="0.761006" stop-color="#000B40"/><stop offset="0.767296" stop-color="#000B3E"/><stop offset="0.773585" stop-color="#000B3D"/><stop offset="0.779874" stop-color="#000A3B"/><stop offset="0.786164" stop-color="#000A3A"/><stop offset="0.792453" stop-color="#000A38"/><stop offset="0.798742" stop-color="#000937"/><stop offset="0.805031" stop-color="#000935"/><stop offset="0.811321" stop-color="#000933"/><stop offset="0.81761" stop-color="#000932"/><stop offset="0.823899" stop-color="#000830"/><stop offset="0.830189" stop-color="#00082F"/><stop offset="0.836478" stop-color="#00082D"/><stop offset="0.842767" stop-color="#00072B"/><stop offset="0.849057" stop-color="#00072A"/><stop offset="0.855346" stop-color="#000728"/><stop offset="0.861635" stop-color="#000726"/><stop offset="0.867925" stop-color="#000625"/><stop offset="0.874214" stop-color="#000623"/><stop offset="0.880503" stop-color="#000621"/><stop offset="0.886792" stop-color="#000520"/><stop offset="0.893082" stop-color="#00051E"/><stop offset="0.899371" stop-color="#00051C"/><stop offset="0.90566" stop-color="#00041B"/><stop offset="0.91195" stop-color="#000419"/><stop offset="0.918239" stop-color="#000417"/><stop offset="0.924528" stop-color="#000315"/><stop offset="0.930818" stop-color="#000314"/><stop offset="0.937107" stop-color="#000312"/><stop offset="0.943396" stop-color="#000310"/><stop offset="0.949686" stop-color="#00020E"/><stop offset="0.955975" stop-color="#00020C"/><stop offset="0.962264" stop-color="#00020B"/><stop offset="0.968553" stop-color="#000109"/><stop offset="0.974843" stop-color="#000107"/><stop offset="0.981132" stop-color="#000105"/><stop offset="0.987421" stop-color="#000003"/><stop offset="0.993711" stop-color="#000001"/><stop offset="1"/></linearGradient></defs><g transform="translate(570 548)"><rect x="-569" y="-547" width="2418" height="1814" fill="#FFFFFF" fill-opacity="0"/><path d="M1155.86-103.69 954.834 147.705 1155.86 147.705ZM260.294-103.69 59.2723 147.705 260.294 147.705ZM639.334-134.772C623.932-134.706 609.664-132.371 596.596-127.702 583.461-123.1 571.527-116.63 560.726-108.292 549.858-100.021 540.19-90.3498 531.589-79.3442 522.988-68.2719 515.521-56.3325 509.12-43.526 502.719-30.6528 497.385-17.3127 493.185-3.5723 488.984 10.168 485.784 23.975 483.717 37.7153 481.65 51.4556 480.584 64.7291 480.584 77.6023 481.05 94.2107 482.851 110.953 486.118 127.761 489.318 144.636 493.985 160.911 499.986 176.786 505.986 192.594 513.454 207.335 522.255 221.009 531.056 234.682 541.257 246.688 552.925 256.96 564.526 267.299 577.527 275.37 591.929 281.173 606.33 286.975 622.132 289.91 639.334 289.977 654.602 289.91 668.804 287.576 681.872 282.973 694.94 278.305 706.941 271.901 717.742 263.63 728.61 255.359 738.411 245.755 747.012 234.749 755.679 223.743 763.28 211.804 769.681 198.997 776.148 186.124 781.549 172.851 785.883 159.044 790.15 145.303 793.35 131.496 795.484 117.689 797.617 103.882 798.684 90.5422 798.684 77.6023 798.684 60.9272 797.084 44.252 793.95 27.3767 790.75 10.5682 786.083-5.77344 779.882-21.5815 773.681-37.3895 766.014-52.1303 756.946-65.804 747.879-79.4776 737.411-91.4837 725.61-101.822 713.808-112.094 700.674-120.165 686.272-125.968 671.871-131.771 656.202-134.706 639.334-134.772ZM1167.12-179.795 1200.19-179.795 1200.19 147.705 1263 147.705 1263 192.061 1200.19 192.061 1200.19 327.73 1151.92 327.73 1151.92 192.061 902.562 192.061 902.562 148.372ZM639.334-179.795C659.136-179.729 677.604-176.861 694.673-171.324 711.741-165.788 727.343-158.051 741.611-148.112 755.88-138.174 768.748-126.568 780.149-113.295 791.55-100.021 801.618-85.614 810.219-70.0729 818.82-54.5983 825.954-38.4568 831.688-21.7816 837.488-5.03976 841.755 11.7021 844.622 28.5107 847.556 45.3859 848.956 61.7276 848.956 77.6023 848.956 98.3463 846.756 118.957 842.422 139.5 838.155 160.111 831.754 179.921 823.42 198.997 815.086 218.141 804.885 235.816 792.75 252.225 780.682 268.566 766.814 282.84 751.279 295.18 735.744 307.453 718.609 317.057 699.874 324.061 681.138 330.998 660.936 334.667 639.334 335 619.665 334.333 601.33 331.198 584.395 325.462 567.393 319.792 551.791 312.055 537.59 302.25 523.321 292.445 510.52 281.039 499.052 268.033 487.584 255.093 477.517 240.952 468.849 225.678 460.182 210.47 452.981 194.529 447.18 177.987 441.313 161.445 436.979 144.636 434.045 127.694 431.112 110.753 429.645 94.0107 429.645 77.6023 429.645 60.0601 431.312 42.4511 434.512 24.7754 437.712 7.16644 442.446-10.109 448.647-26.9842 454.848-43.8595 462.515-59.8676 471.583-75.0754 480.584-90.3498 490.985-104.29 502.653-117.03 514.32-129.77 527.255-140.842 541.323-150.18 555.458-159.518 570.727-166.789 587.062-171.991 603.463-177.127 620.865-179.729 639.334-179.795ZM271.561-179.795 304.632-179.795 304.632 147.705 367.438 147.705 367.438 192.061 304.632 192.061 304.632 327.73 256.36 327.73 256.36 192.061 7 192.061 7 148.372ZM451.847-391.37C450.98-378.163 450.114-365.29 449.18-352.016 453.247-352.883 457.114-353.617 461.382-354.484 460.982-349.882 460.648-345.546 460.248-340.944 452.247-339.677 444.513-338.409 436.379-337.075 437.512-354.484 438.579-371.56 439.646-388.768 443.713-389.635 447.58-390.436 451.847-391.37ZM501.519-396.706C496.919-394.505 492.718-392.504 488.518-390.503 488.118-381.031 487.651-371.693 487.251-362.021 491.918-363.889 496.252-365.623 500.786-367.424 500.986-377.162 501.252-386.701 501.519-396.706ZM669.67-414.648C674.138-413.648 678.271-412.781 682.538-411.847 682.872-393.037 685.739-374.695 690.139-356.419 693.673-355.685 697.007-355.151 700.807-354.484 698.473-366.69 696.473-378.43 695.673-390.703 699.874-390.236 703.741-389.769 707.941-389.235 708.541-377.029 709.875-365.023 712.075-352.95 715.875-352.483 719.476-352.083 723.409-351.683 720.809-370.759 719.609-389.569 721.676-408.712 726.61-409.179 731.477-409.646 736.677-410.179 732.677-384.299 734.211-358.753 738.278-333.273 734.477-332.74 689.806-338.743 684.139-340.744 676.471-364.556 670.47-388.902 669.67-414.648ZM514.32-417.049C514.32-396.572 514.32-376.695 514.32-356.819 509.92-354.418 477.65-344.412 472.916-344.012 473.85-357.886 474.85-371.626 475.783-385.367 479.984-387.168 484.117-388.835 488.384-390.569 488.518-395.372 488.718-399.907 488.851-404.91 497.185-408.912 505.52-412.847 514.32-417.049ZM630.733-426.854C635.067-425.454 639.334-424.053 643.734-422.585 644.401-403.242 647.935-384.633 653.735-366.29 658.002-364.756 662.203-363.355 666.603-361.888 668.67-355.618 670.737-349.415 672.804-343.012 671.671-343.212 671.004-343.279 670.137-343.545 663.003-345.413 655.936-347.814 648.868-349.882 647.668-350.215 647.135-350.282 647.068-350.415 637.534-373.294 631.466-398.84 630.466-423.653 630.4-424.52 630.4-425.32 630.466-426.121 630.466-426.254 630.533-426.454 630.733-426.854ZM565.126-430.79C565.326-425.787 565.593-420.985 565.793-416.049 556.992-414.781 548.458-413.314 539.857-410.78 540.523-400.841 541.123-391.036 541.79-380.831 551.191-382.699 560.192-384.299 569.593-384.7 570.927-378.763 572.26-373.027 573.527-367.357 563.592-366.424 553.791-365.49 543.59-364.489 542.99-369.625 542.324-374.961 541.657-380.698 537.19-379.497 532.722-378.363 527.922-377.096 527.522-387.168 527.255-397.039 526.922-407.111 531.256-408.445 535.389-409.779 539.59-411.046 539.59-415.849 539.59-420.518 539.59-425.52 547.857-427.922 556.325-429.589 565.126-430.79ZM597.679-432.19C604.214-431.824 610.731-431.057 617.332-429.856 617.732-404.376 623.199-379.964 632.6-356.352 632.533-356.218 632.4-356.152 632.266-356.018 628.866-357.152 619.732-359.887 617.065-361.354 615.198-366.757 612.864-375.495 611.064-381.164L597.263-383.165C599.063-376.962 600.93-370.692 602.797-364.289 597.996-364.956 593.262-365.623 588.262-366.357 584.595-377.696 582.128-389.369 580.328-401.641 589.329-401.842 597.996-400.975 606.864-399.574 606.197-405.177 605.464-410.379 604.73-415.915 596.263-417.183 587.595-417.383 578.661-417.116 578.461-422.119 578.194-426.988 577.927-432.124 584.595-432.524 591.145-432.557 597.679-432.19ZM834.488-451C833.288-449.599 832.288-447.532 831.821-446.331 827.887-435.459 824.02-424.587 820.086-413.781 813.219-394.905 807.418-375.762 804.685-355.752 804.551-355.085 804.418-353.15 804.485-353.75 804.485-353.817 804.418-353.217 804.551-352.683 805.618-352.817 806.818-352.883 807.885-353.017 818.153-354.618 828.421-356.218 838.688-357.753 839.955-357.953 841.289-358.019 842.822-357.819 838.422-345.413 835.088-332.34 833.154-319.133 831.954-319.2 831.021-319.6 830.087-319.8 817.419-322.068 804.751-324.469 792.083-326.537 784.349-327.804 776.615-328.604 768.814-329.605 767.814-329.738 766.814-329.872 765.414-330.072 764.947-336.475 764.614-342.878 764.08-349.682 759.213-349.682 754.413-349.682 749.345-349.682 747.745-371.493 748.745-392.77 753.546-413.648 760.613-416.716 767.481-419.717 774.748-422.919 767.081-399.174 763.614-374.895 764.48-349.749 770.148-349.882 775.748-350.082 781.482-350.282 781.616-351.216 781.816-352.083 781.816-352.883 782.549-370.159 785.283-387.034 790.016-403.643 793.35-415.515 797.484-427.054 802.151-438.394 802.551-439.527 803.685-440.661 804.818-441.262Z" fill="url(#fill0)" fill-rule="evenodd"/></g></svg>