<svg width="1057" height="1528" xmlns="http://www.w3.org/2000/svg" xmlns:xlink="http://www.w3.org/1999/xlink" overflow="hidden"><g transform="translate(-118 382)"><path d="M119-343.034C119-364.554 136.446-382 157.966-382L263.034-382C284.554-382 302-364.554 302-343.034L302-236.966C302-215.446 284.554-198 263.034-198L157.966-198C136.446-198 119-215.446 119-236.966Z" fill="#FFFF00" fill-rule="evenodd"/><path d="M0 0 11 0 11 8 0 8 0 0Z" fill="#92D050" fill-rule="evenodd" transform="matrix(-1 0 0 1 192 -284)"/><path d="M15.5112 0C18.5743 0 21.3768 0.669145 23.8534 2.07435 26.3299 3.41264 28.3503 5.48699 29.7841 8.16357 31.2831 10.8401 32 14.119 32 18 32 21.881 31.2831 25.1598 29.8493 27.8364 28.3503 30.513 26.3951 32.5204 23.9185 33.9256 21.442 35.3309 18.6395 36 15.5112 36 13.0346 36 10.8187 35.5985 8.92872 34.7955 7.0387 33.9926 5.47454 32.9219 4.17108 31.5836 2.86762 30.2454 1.89002 28.8401 1.17312 27.3011 0.521385 25.7621 0.130346 24.223 0 22.7509L9.38493 22.7509C9.64562 24.223 10.2322 25.4275 11.2749 26.3643 12.2525 27.2342 13.6212 27.7026 15.3157 27.7026 17.5967 27.7026 19.2912 26.8996 20.5947 25.2937 21.833 23.6208 22.4847 21.2119 22.4847 18 22.4847 14.9888 21.833 12.5799 20.5947 10.8401 19.3564 9.16729 17.5967 8.2974 15.2505 8.2974 13.556 8.2974 12.1874 8.7658 11.2098 9.63569 10.2322 10.5725 9.64562 11.777 9.4501 13.2491L0.0651731 13.2491C0.325866 10.4387 1.17312 8.02974 2.54175 6.08922 3.91039 4.08178 5.73523 2.60967 7.95112 1.53903 10.167 0.535316 12.7088 0 15.5112 0Z" fill="#92D050" fill-rule="evenodd" transform="matrix(-1 0 0 1 259 -312)"/><path d="M14.3729 0 24 0 24 35 0 35 0 27.3187 14.3729 27.3187 14.3729 0Z" fill="#92D050" fill-rule="evenodd" transform="matrix(-1 0 0 1 187 -311)"/><path d="M19.9091 7.6145C18.2045 7.6145 16.8409 7.94847 15.8864 8.61641 14.9318 9.28435 14.4545 10.4198 14.4545 11.8893 14.4545 13.3588 14.9318 14.4275 15.8864 15.0954 16.8409 15.7634 18.2045 16.0305 19.9091 16.0305L20.1818 16.0305 20.1818 7.6145 19.9091 7.6145ZM14.4545 0 17.5909 0 29.8636 0 33 0 33 35 29.8636 35 23.3182 35 20.1818 35 20.1818 23.4447 19.9773 23.4447 13.7045 35 10.5682 35 3.13636 35 0 35 7.29545 21.9084C5.38636 21.0401 3.88636 19.771 2.79545 18.0343 1.70455 16.3645 1.22727 14.2939 1.22727 11.8893 1.22727 9.41794 1.77273 7.28053 2.86364 5.4771 3.95455 3.74046 5.52273 2.33779 7.5 1.40267 9.47727 0.467557 11.7955 0 14.4545 0Z" fill="#92D050" fill-rule="evenodd" transform="matrix(-1 0 0 1 227 -311)"/><path d="M15.4606 0 15.9803 0 16.565 0C19.6181 0 22.4114 0.669145 24.8799 2.07435 27.3484 3.41264 29.3622 5.48699 30.7913 8.16357 32.2854 10.8401 33 14.119 33 18 33 21.881 32.2854 25.1598 30.8563 27.8364 29.3622 30.513 27.4134 32.5204 24.9449 33.9256 22.4764 35.3309 19.6831 36 16.565 36L15.9154 36 15.4606 36C12.9921 36 10.7835 35.5985 8.89961 34.7955 7.01575 33.9926 5.45669 32.9219 4.15748 31.5836 2.85827 30.2454 1.88386 28.8401 1.16929 27.3011 0.519685 25.7621 0.129921 24.223 0 22.7509L1.10433 22.7509 9.35433 22.7509 10.4587 22.7509C10.7185 24.223 11.3031 25.4275 12.3425 26.3643 13.0571 27.0335 14.0315 27.4349 15.1358 27.6357L15.7205 27.7026 16.1102 27.6357C17.9291 27.5019 19.3583 26.6989 20.5276 25.2937 21.7618 23.6208 22.4114 21.2119 22.4114 18 22.4114 14.9888 21.7618 12.5799 20.5276 10.8401 19.4232 9.36803 17.9941 8.49814 16.0453 8.36431L15.6555 8.2974 15.0709 8.36431C13.9665 8.56506 12.9921 8.96654 12.2776 9.63569 11.3031 10.5725 10.7185 11.777 10.5236 13.2491L9.41929 13.2491 1.16929 13.2491 0.0649606 13.2491C0.324803 10.4387 1.16929 8.02974 2.53346 6.08922 3.89764 4.08178 5.71654 2.60967 7.9252 1.53903 10.1339 0.535316 12.6673 0 15.4606 0Z" fill="#92D050" fill-rule="evenodd" transform="matrix(-1 0 0 1 259 -266)"/><path d="M14.2056 0 15.1349 0 16.0642 0C18.7859 0 21.242 0.469274 23.3662 1.40782 25.424 2.34637 27.0835 3.62011 28.2784 5.29609 29.4732 6.97207 30.0707 8.9162 30.0707 11.1955 30.0707 13.9441 29.2077 16.0894 27.4154 17.6983 25.6895 19.3073 23.2334 20.3799 20.1799 21.0503L16.7281 21.8547C14.803 22.257 13.409 22.7263 12.6124 23.2626 11.8822 23.7989 11.4839 24.4022 11.4839 25.2067 11.4839 26.0782 11.8822 26.8156 12.6788 27.352 13.2098 27.7542 14.0064 28.0223 15.0021 28.0894L15.1349 28.1564 15.5332 28.0894C16.7281 27.9553 17.7238 27.5531 18.5203 26.9497 19.5161 26.0782 20.1135 24.8715 20.1799 23.2626L22.0385 23.2626 29.1413 23.2626 31 23.2626C31 26.1453 30.3362 28.5587 29.0749 30.5028 27.8801 32.3799 26.0878 33.7207 23.8308 34.6592 21.5739 35.5307 18.985 36 15.9315 36L15.1349 36 14.0728 36C9.69165 36 6.23983 35.0615 3.71734 33.2514 1.26124 31.3743 0 28.6927 0 25.2067 0 22.5251 0.862955 20.3128 2.52248 18.4358 4.24839 16.6257 7.0364 15.2849 10.8865 14.4804L13.7409 13.8771C15.4004 13.4749 16.5289 13.0726 17.3255 12.5363 18.0557 12 18.3876 11.3296 18.3876 10.5251 18.3876 9.72067 18.0557 9.05028 17.3919 8.58101 16.8608 8.17877 16.1306 7.97765 15.2013 7.91061L15.2013 7.91061 15.0021 7.91061C14.0064 7.97765 13.2098 8.31285 12.6124 8.78212 11.8822 9.38547 11.4839 10.324 11.3512 11.4637L9.49251 11.4637 2.32334 11.4637 0.464668 11.4637C0.464668 9.18436 1.0621 7.17318 2.19058 5.43017 3.25268 3.68715 4.84582 2.34637 6.90364 1.40782 8.96146 0.469274 11.3512 0 14.2056 0Z" fill="#92D050" fill-rule="evenodd" transform="matrix(-1 0 0 1 224 -266)"/><path d="M16.2877 7.6145C14.6324 7.6145 13.3082 7.94847 12.3813 8.61641 11.4543 9.28435 10.9909 10.4198 10.9909 11.8893 10.9909 13.3588 11.4543 14.4275 12.3813 15.0954 13.3082 15.7634 14.6324 16.0305 16.2877 16.0305L19.5982 16.0305 19.5982 7.6145 16.2877 7.6145ZM14.0365 0 29 0 29 35 19.5982 35 19.5982 23.4447 16.3539 23.4447 10.2626 35 0 35 7.08448 21.9084C5.23059 21.0401 3.77397 19.771 2.71461 18.0343 1.65525 16.3645 1.19178 14.2939 1.19178 11.8893 1.19178 9.41794 1.72146 7.28053 2.78082 5.4771 3.84018 3.74046 5.36301 2.33779 7.2831 1.40267 9.2032 0.467557 11.4543 0 14.0365 0Z" fill="#92D050" fill-rule="evenodd" transform="matrix(-1 0 0 1 192 -265)"/><path d="M12.4856 0 14.1548 0 14.7557 0 17.2261 0 27.5751 0 29.2443 0 29.8452 0 32.3156 0 32.3156 0.133588 32.6495 0.200382C34.1184 0.400763 35.4537 0.801527 36.6555 1.40267 38.5918 2.33779 40.1275 3.74046 41.1958 5.4771 42.264 7.28053 42.7982 9.41794 42.7982 11.8893 42.7982 14.2939 42.3308 16.3645 41.2625 18.0343 40.1942 19.771 38.7253 21.0401 36.8558 21.9084L44 35 41.7299 35 33.651 35 32.3156 35 31.3809 35 29.2443 35 24.2367 35 22.8346 35 21.9666 35 19.7633 35 14.7557 35 13.4203 35 12.4856 35 10.349 35 3.07132 35 0 35 7.14416 21.9084C5.27466 21.0401 3.80577 19.771 2.73748 18.0343 1.6692 16.3645 1.20182 14.2939 1.20182 11.8893 1.20182 9.41794 1.73596 7.28053 2.80425 5.4771 3.87253 3.74046 5.40819 2.33779 7.34446 1.40267 8.81335 0.734733 10.4158 0.267176 12.2853 0.0667939L12.4856 0.0667939 12.4856 0Z" fill="#92D050" fill-rule="evenodd" transform="matrix(-1 0 0 1 205 -357)"/><path d="M476.337-229.162C475.87-228.761 474.936-228.36 473.601-228.093 472.2-227.826 470.665-227.559 468.863-227.358 466.527-227.024 464.725-226.49 463.324-225.689 461.989-224.954 461.322-223.752 461.322-222.082 461.322-220.479 461.922-219.277 463.123-218.408 464.325-217.607 465.86-217.139 467.795-217.139 470.531-217.139 472.667-217.941 474.135-219.477 475.603-220.946 476.337-222.95 476.337-225.288L476.337-229.162ZM469.33-242.587C471.399-242.587 473.201-242.186 474.736-241.452 476.271-240.717 477.539-239.648 478.406-238.312 479.274-236.91 479.674-235.373 479.674-233.637L479.674-214.534 476.337-214.534 476.337-219.076 476.271-219.076C475.67-217.74 474.669-216.605 473.201-215.603 471.799-214.601 469.864-214.134 467.395-214.134 465.659-214.134 464.058-214.401 462.59-215.002 461.188-215.603 459.987-216.538 459.186-217.74 458.318-218.943 457.918-220.412 457.918-222.215 457.918-224.152 458.385-225.622 459.319-226.691 460.254-227.759 461.589-228.561 463.257-229.095 464.925-229.563 466.861-229.963 468.996-230.297 471.532-230.631 473.401-230.898 474.602-231.166 475.737-231.433 476.337-232.167 476.337-233.236L476.337-233.637C476.337-235.307 475.737-236.776 474.402-237.845 473.134-238.98 471.466-239.581 469.33-239.581 467.261-239.581 465.459-238.98 464.125-237.912 462.723-236.843 461.989-235.44 461.922-233.837L458.519-233.837C458.585-235.507 459.052-236.976 459.987-238.312 460.921-239.648 462.189-240.65 463.791-241.452 465.393-242.186 467.261-242.587 469.33-242.587ZM346-356 349.537-356 349.537-320.333 368.691-320.333 368.691-317.127 346-317.127 346-356ZM456.717-356 460.054-356 460.054-317.127 456.717-317.127 456.717-356ZM467.929-356 471.532-356 468.195-343.71 465.659-343.71 467.929-356ZM413.137-345.246C415.14-345.246 416.941-344.846 418.543-344.044 420.212-343.176 421.48-342.107 422.547-340.638 423.548-339.235 424.216-337.565 424.549-335.695L421.146-335.695C420.745-337.632 419.878-339.168 418.476-340.371 417.075-341.573 415.34-342.174 413.137-342.174 410.334-342.174 408.132-341.105 406.464-339.035 404.795-336.964 403.994-334.226 403.994-330.886 403.994-327.547 404.795-324.808 406.464-322.738 408.065-320.667 410.334-319.665 413.137-319.665 415.34-319.665 417.075-320.266 418.41-321.402 419.744-322.604 420.612-324.14 421.079-326.077L424.549-326.077C424.216-324.274 423.548-322.671 422.547-321.201 421.48-319.799 420.145-318.663 418.543-317.795 416.941-316.993 415.14-316.593 413.137-316.593 410.601-316.593 408.466-317.194 406.53-318.396 404.662-319.598 403.194-321.335 402.126-323.472 401.125-325.61 400.591-328.081 400.591-330.886 400.591-333.625 401.125-336.163 402.126-338.3 403.194-340.437 404.662-342.174 406.53-343.376 408.466-344.579 410.601-345.246 413.137-345.246ZM485.08-345.246C487.95-345.246 490.285-344.445 492.087-342.909 493.889-341.306 494.89-339.168 495.024-336.43L491.754-336.43C491.62-338.233 491.02-339.636 489.818-340.705 488.684-341.773 487.082-342.308 485.08-342.308 483.145-342.308 481.61-341.773 480.408-340.838 479.274-339.903 478.673-338.768 478.673-337.298 478.673-336.096 479.074-335.161 479.941-334.493 480.809-333.825 482.01-333.291 483.612-332.89L488.15-331.821C490.619-331.22 492.488-330.419 493.689-329.283 494.957-328.148 495.558-326.611 495.558-324.674 495.558-322.203 494.623-320.199 492.688-318.73 490.753-317.327 488.283-316.593 485.28-316.593 482.344-316.593 479.874-317.327 477.872-318.797 475.937-320.333 474.869-322.47 474.736-325.342L478.073-325.342C478.206-323.539 478.873-322.07 480.075-321.068 481.343-320.066 483.011-319.532 485.213-319.532 487.349-319.532 489.084-319.999 490.352-320.934 491.553-321.869 492.221-323.138 492.221-324.608 492.221-325.81 491.754-326.745 490.953-327.346 490.085-328.014 488.884-328.482 487.416-328.816L482.878-329.884C480.408-330.485 478.54-331.421 477.205-332.623 475.937-333.825 475.336-335.361 475.336-337.298 475.336-339.636 476.204-341.573 478.006-343.042 479.874-344.512 482.21-345.246 485.08-345.246ZM384.441-342.174C381.638-342.174 379.435-341.105 377.767-339.035 376.098-336.964 375.298-334.226 375.298-330.886 375.298-327.547 376.098-324.808 377.767-322.738 379.368-320.667 381.638-319.665 384.441-319.665 387.243-319.665 389.446-320.667 391.114-322.738 392.716-324.808 393.583-327.547 393.583-330.886 393.583-334.226 392.716-336.964 391.114-339.035 389.446-341.105 387.243-342.174 384.441-342.174ZM384.441-345.246C386.91-345.246 389.112-344.579 390.981-343.376 392.849-342.174 394.318-340.437 395.385-338.3 396.453-336.163 396.987-333.625 396.987-330.886 396.987-328.081 396.453-325.61 395.385-323.472 394.318-321.335 392.849-319.598 390.981-318.396 389.112-317.194 386.91-316.593 384.441-316.593 381.905-316.593 379.769-317.194 377.834-318.396 375.965-319.598 374.497-321.335 373.429-323.472 372.428-325.61 371.894-328.081 371.894-330.886 371.894-333.625 372.428-336.163 373.429-338.3 374.497-340.437 375.965-342.174 377.834-343.376 379.769-344.579 381.905-345.246 384.441-345.246ZM446.639-331.754C446.172-331.354 445.238-330.953 443.903-330.686 442.502-330.419 440.967-330.151 439.165-329.951 436.829-329.617 435.027-329.083 433.626-328.281 432.291-327.547 431.624-326.344 431.624-324.674 431.624-323.072 432.224-321.869 433.425-321.001 434.627-320.199 436.162-319.732 438.097-319.732 440.833-319.732 442.969-320.533 444.437-322.07 445.905-323.539 446.639-325.543 446.639-327.881L446.639-331.754ZM439.632-345.18C441.701-345.18 443.503-344.779 445.038-344.044 446.573-343.31 447.841-342.241 448.708-340.905 449.576-339.502 449.976-337.966 449.976-336.23L449.976-317.127 446.639-317.127 446.639-321.669 446.573-321.669C445.972-320.333 444.971-319.198 443.503-318.196 442.101-317.194 440.166-316.726 437.697-316.726 435.961-316.726 434.36-316.993 432.892-317.595 431.49-318.196 430.289-319.131 429.488-320.333 428.62-321.535 428.22-323.005 428.22-324.808 428.22-326.745 428.687-328.214 429.621-329.283 430.556-330.352 431.891-331.153 433.559-331.688 435.227-332.155 437.163-332.556 439.298-332.89 441.834-333.224 443.703-333.491 444.904-333.758 446.039-334.025 446.639-334.76 446.639-335.829L446.639-336.23C446.639-337.899 446.039-339.369 444.704-340.437 443.436-341.573 441.768-342.174 439.632-342.174 437.563-342.174 435.761-341.573 434.427-340.504 433.025-339.436 432.291-338.033 432.224-336.43L428.821-336.43C428.887-338.1 429.355-339.569 430.289-340.905 431.223-342.241 432.491-343.243 434.093-344.044 435.695-344.779 437.563-345.18 439.632-345.18ZM346-304.704 349.537-304.704 349.537-269.037 368.691-269.037 368.691-265.831 346-265.831 346-304.704ZM418.143-304.236C418.743-304.236 419.344-303.969 419.811-303.501 420.278-303.034 420.545-302.433 420.545-301.765 420.545-301.097 420.278-300.496 419.811-300.028 419.344-299.561 418.743-299.36 418.143-299.36 417.475-299.36 416.875-299.561 416.408-300.028 415.94-300.496 415.673-301.097 415.673-301.765 415.673-302.433 415.94-303.034 416.408-303.501 416.875-303.969 417.475-304.236 418.143-304.236ZM437.563-293.95C439.565-293.95 441.367-293.549 442.969-292.748 444.637-291.88 445.905-290.811 446.973-289.341 447.974-287.939 448.642-286.269 448.975-284.399L445.572-284.399C445.171-286.336 444.304-287.872 442.902-289.074 441.501-290.277 439.766-290.878 437.563-290.878 434.76-290.878 432.558-289.809 430.889-287.738 429.221-285.668 428.42-282.929 428.42-279.59 428.42-276.25 429.221-273.512 430.889-271.441 432.491-269.371 434.76-268.369 437.563-268.369 439.766-268.369 441.501-268.97 442.835-270.105 444.17-271.308 445.038-272.844 445.505-274.781L448.975-274.781C448.642-272.977 447.974-271.374 446.973-269.905 445.905-268.502 444.571-267.367 442.969-266.499 441.367-265.697 439.565-265.296 437.563-265.296 435.027-265.296 432.892-265.897 430.956-267.1 429.088-268.302 427.619-270.039 426.552-272.176 425.551-274.313 425.017-276.785 425.017-279.59 425.017-282.328 425.551-284.866 426.552-287.004 427.619-289.141 429.088-290.878 430.956-292.08 432.892-293.282 435.027-293.95 437.563-293.95ZM462.99-293.95C465.86-293.95 468.195-293.149 469.997-291.612 471.799-290.009 472.8-287.872 472.934-285.134L469.664-285.134C469.53-286.937 468.93-288.34 467.728-289.408 466.594-290.477 464.992-291.011 462.99-291.011 461.055-291.011 459.52-290.477 458.318-289.542 457.184-288.607 456.583-287.471 456.583-286.002 456.583-284.8 456.984-283.865 457.851-283.197 458.719-282.529 459.92-281.994 461.522-281.594L466.06-280.525C468.529-279.924 470.398-279.122 471.599-277.987 472.867-276.851 473.468-275.315 473.468-273.378 473.468-270.907 472.533-268.903 470.598-267.434 468.663-266.031 466.193-265.296 463.19-265.296 460.254-265.296 457.784-266.031 455.782-267.5 453.847-269.037 452.779-271.174 452.646-274.046L455.983-274.046C456.116-272.243 456.783-270.773 457.985-269.771 459.253-268.77 460.921-268.235 463.123-268.235 465.259-268.235 466.994-268.703 468.262-269.638 469.463-270.573 470.131-271.842 470.131-273.311 470.131-274.514 469.664-275.449 468.863-276.05 467.995-276.718 466.794-277.185 465.326-277.519L460.788-278.588C458.318-279.189 456.45-280.124 455.115-281.326 453.847-282.529 453.246-284.065 453.246-286.002 453.246-288.34 454.114-290.277 455.916-291.746 457.784-293.215 460.12-293.95 462.99-293.95ZM410.935-293.75C411.269-293.75 411.536-293.683 411.803-293.683 412.003-293.683 412.203-293.616 412.403-293.616L412.403-290.277C412.27-290.277 412.003-290.343 411.669-290.41 411.336-290.41 410.868-290.477 410.401-290.477 408.533-290.477 406.931-289.809 405.596-288.54 404.328-287.271 403.661-285.468 403.661-283.063L403.661-265.831 400.324-265.831 400.324-293.349 403.527-293.349 403.527-288.807 403.594-288.807C404.195-290.277 405.062-291.479 406.33-292.347 407.598-293.282 409.133-293.75 410.935-293.75ZM370.893-293.349 374.497-293.349 381.037-276.584C381.905-274.38 382.772-272.109 383.573-269.905 383.973-270.974 384.374-272.109 384.841-273.245 385.241-274.313 385.642-275.449 386.109-276.584L392.582-293.349 396.12-293.349 383.173-260.554C382.372-258.617 381.371-257.214 380.236-256.279 379.102-255.411 377.7-254.944 375.965-254.944L373.362-254.944 373.362-257.949 375.965-257.949C376.966-257.949 377.767-258.216 378.367-258.751 379.035-259.285 379.569-260.287 380.169-261.69L381.838-265.897 370.893-293.349ZM416.474-293.349 419.811-293.349 419.811-265.831 416.474-265.831 416.474-293.349ZM529.994-253.407 533.331-253.407 533.331-237.778C534.265-239.448 535.466-240.65 536.935-241.385 538.403-242.186 540.071-242.587 541.873-242.587 543.808-242.587 545.477-242.186 547.012-241.385 548.547-240.516 549.748-239.314 550.682-237.778 551.55-236.175 552.017-234.238 552.017-231.967L552.017-214.534 548.68-214.534 548.68-231.7C548.68-234.171 548.013-236.108 546.678-237.444 545.343-238.78 543.608-239.448 541.339-239.448 539.07-239.448 537.202-238.78 535.667-237.377 534.065-236.041 533.331-233.971 533.331-231.232L533.331-214.534 529.994-214.534 529.994-253.407ZM349.537-250.201 349.537-233.503 359.748-233.503C362.484-233.503 364.686-234.238 366.355-235.774 368.023-237.244 368.824-239.314 368.824-241.852 368.824-244.39 368.023-246.461 366.355-247.93 364.686-249.467 362.484-250.201 359.681-250.201L349.537-250.201ZM346-253.407 359.815-253.407C362.351-253.407 364.553-252.94 366.422-252.005 368.29-251.07 369.758-249.667 370.759-247.997 371.827-246.261 372.361-244.19 372.361-241.852 372.361-239.047 371.56-236.709 370.092-234.772 368.557-232.835 366.488-231.566 363.952-230.832L372.762-214.534 368.624-214.534 360.215-230.297C360.015-230.297 359.815-230.297 359.614-230.297L349.537-230.297 349.537-214.534 346-214.534 346-253.407ZM415.273-242.654C418.143-242.654 420.479-241.852 422.28-240.316 424.082-238.713 425.083-236.576 425.217-233.837L421.947-233.837C421.813-235.641 421.213-237.043 420.011-238.112 418.877-239.181 417.275-239.715 415.273-239.715 413.338-239.715 411.803-239.181 410.601-238.246 409.467-237.31 408.866-236.175 408.866-234.706 408.866-233.503 409.267-232.568 410.134-231.9 411.002-231.232 412.203-230.698 413.805-230.297L418.343-229.229C420.812-228.627 422.681-227.826 423.882-226.691 425.15-225.555 425.751-224.019 425.751-222.082 425.751-219.611 424.816-217.607 422.881-216.137 420.946-214.735 418.476-214 415.473-214 412.537-214 410.068-214.735 408.065-216.204 406.13-217.74 405.062-219.878 404.929-222.75L408.266-222.75C408.399-220.946 409.066-219.477 410.268-218.475 411.536-217.473 413.204-216.939 415.406-216.939 417.542-216.939 419.277-217.406 420.545-218.341 421.746-219.277 422.414-220.546 422.414-222.015 422.414-223.217 421.947-224.152 421.146-224.754 420.278-225.421 419.077-225.889 417.609-226.223L413.071-227.292C410.601-227.893 408.733-228.828 407.398-230.03 406.13-231.232 405.529-232.769 405.529-234.706 405.529-237.043 406.397-238.98 408.199-240.45 410.068-241.919 412.403-242.654 415.273-242.654ZM513.577-242.654C515.579-242.654 517.381-242.253 518.982-241.452 520.651-240.583 521.919-239.515 522.987-238.045 523.988-236.643 524.655-234.973 524.989-233.103L521.585-233.103C521.185-235.04 520.317-236.576 518.916-237.778 517.514-238.98 515.779-239.581 513.577-239.581 510.774-239.581 508.571-238.513 506.903-236.442 505.234-234.372 504.434-231.633 504.434-228.294 504.434-224.954 505.234-222.215 506.903-220.145 508.505-218.074 510.774-217.072 513.577-217.072 515.779-217.072 517.514-217.674 518.849-218.809 520.184-220.011 521.051-221.548 521.518-223.484L524.989-223.484C524.655-221.681 523.988-220.078 522.987-218.609 521.919-217.206 520.584-216.071 518.982-215.202 517.381-214.401 515.579-214 513.577-214 511.041-214 508.905-214.601 506.97-215.803 505.101-217.006 503.633-218.742 502.565-220.88 501.564-223.017 501.03-225.488 501.03-228.294 501.03-231.032 501.564-233.57 502.565-235.707 503.633-237.845 505.101-239.581 506.97-240.784 508.905-241.986 511.041-242.654 513.577-242.654ZM497.026-242.453C497.36-242.453 497.626-242.387 497.893-242.387 498.094-242.387 498.294-242.32 498.494-242.32L498.494-238.98C498.361-238.98 498.094-239.047 497.76-239.114 497.426-239.114 496.959-239.181 496.492-239.181 494.623-239.181 493.022-238.513 491.687-237.244 490.419-235.975 489.752-234.171 489.752-231.767L489.752-214.534 486.415-214.534 486.415-242.053 489.618-242.053 489.618-237.511 489.685-237.511C490.285-238.98 491.153-240.183 492.421-241.051 493.689-241.986 495.224-242.453 497.026-242.453ZM597.532-242.453C597.865-242.453 598.132-242.387 598.399-242.387 598.6-242.387 598.8-242.32 599-242.32L599-238.98C598.867-238.98 598.6-239.047 598.266-239.114 597.932-239.114 597.465-239.181 596.998-239.181 595.129-239.181 593.528-238.513 592.193-237.244 590.925-235.975 590.257-234.171 590.257-231.767L590.257-214.534 586.921-214.534 586.921-242.053 590.124-242.053 590.124-237.511 590.191-237.511C590.791-238.98 591.659-240.183 592.927-241.051 594.195-241.986 595.73-242.453 597.532-242.453ZM388.912-239.581C386.376-239.581 384.307-238.78 382.705-237.11 381.104-235.44 380.169-233.169 379.902-230.364L397.855-230.364C397.654-233.169 396.72-235.373 395.118-237.043 393.45-238.78 391.381-239.581 388.912-239.581ZM388.912-242.654C391.381-242.654 393.583-242.053 395.385-240.85 397.254-239.581 398.655-237.912 399.657-235.841 400.658-233.704 401.191-231.232 401.191-228.494L401.191-227.425 379.902-227.425C379.969-224.353 380.837-221.881 382.438-219.945 384.107-218.008 386.309-217.072 389.112-217.072 391.181-217.072 392.983-217.607 394.451-218.609 395.919-219.677 396.854-221.08 397.388-222.75L400.724-222.75C400.324-221.013 399.59-219.477 398.522-218.141 397.388-216.805 396.053-215.803 394.451-215.069 392.783-214.334 391.047-214 389.112-214 386.509-214 384.24-214.601 382.372-215.803 380.503-217.072 379.102-218.742 378.1-220.88 377.033-223.084 376.566-225.488 376.566-228.294 376.566-231.032 377.099-233.503 378.1-235.707 379.168-237.845 380.637-239.515 382.505-240.784 384.307-241.986 386.443-242.654 388.912-242.654ZM441.901-239.581C439.365-239.581 437.296-238.78 435.695-237.11 434.093-235.44 433.159-233.169 432.892-230.364L450.844-230.364C450.644-233.169 449.709-235.373 448.108-237.043 446.439-238.78 444.37-239.581 441.901-239.581ZM441.901-242.654C444.37-242.654 446.573-242.053 448.375-240.85 450.243-239.581 451.645-237.912 452.646-235.841 453.647-233.704 454.181-231.232 454.181-228.494L454.181-227.425 432.892-227.425C432.958-224.353 433.826-221.881 435.428-219.945 437.096-218.008 439.298-217.072 442.101-217.072 444.17-217.072 445.972-217.607 447.44-218.609 448.908-219.677 449.843-221.08 450.377-222.75L453.714-222.75C453.313-221.013 452.579-219.477 451.511-218.141 450.377-216.805 449.042-215.803 447.44-215.069 445.772-214.334 444.037-214 442.101-214 439.499-214 437.229-214.601 435.361-215.803 433.492-217.072 432.091-218.742 431.09-220.88 430.022-223.084 429.555-225.488 429.555-228.294 429.555-231.032 430.089-233.503 431.09-235.707 432.157-237.845 433.626-239.515 435.494-240.784 437.296-241.986 439.432-242.654 441.901-242.654ZM569.569-239.581C567.033-239.581 564.964-238.78 563.362-237.11 561.761-235.44 560.826-233.169 560.559-230.364L578.512-230.364C578.312-233.169 577.377-235.373 575.776-237.043 574.107-238.78 572.038-239.581 569.569-239.581ZM569.569-242.654C572.038-242.654 574.241-242.053 576.042-240.85 577.911-239.581 579.313-237.912 580.314-235.841 581.315-233.704 581.849-231.232 581.849-228.494L581.849-227.425 560.559-227.425C560.626-224.353 561.494-221.881 563.095-219.945 564.764-218.008 566.966-217.072 569.769-217.072 571.838-217.072 573.64-217.607 575.108-218.609 576.576-219.677 577.511-221.08 578.045-222.75L581.381-222.75C580.981-221.013 580.247-219.477 579.179-218.141 578.045-216.805 576.71-215.803 575.108-215.069 573.44-214.334 571.705-214 569.769-214 567.166-214 564.897-214.601 563.029-215.803 561.16-217.072 559.759-218.742 558.758-220.88 557.69-223.084 557.223-225.488 557.223-228.294 557.223-231.032 557.757-233.503 558.758-235.707 559.825-237.845 561.294-239.515 563.162-240.784 564.964-241.986 567.1-242.654 569.569-242.654Z" fill-rule="evenodd"/><path d="M56.2608 0 63.7823 0 66.49 0 77.6218 0 124.255 0 131.777 0 134.484 0 145.616 0 145.616 0.601781 147.12 0.902672C153.739 1.80534 159.757 3.61069 165.172 6.3187 173.897 10.5312 180.817 16.8499 185.631 24.673 190.444 32.7971 192.851 42.4256 192.851 53.5585 192.851 64.3906 190.745 73.7182 185.931 81.2405 181.118 89.0636 174.499 94.7805 166.075 98.6921L198.267 157.667 188.037 157.667 151.633 157.667 145.616 157.667 141.404 157.667 131.777 157.667 109.212 157.667 102.894 157.667 98.9829 157.667 89.0545 157.667 66.49 157.667 60.4728 157.667 56.2608 157.667 46.6333 157.667 13.8396 157.667 0 157.667 32.192 98.6921C23.7679 94.7805 17.149 89.0636 12.3353 81.2405 7.5215 73.7182 5.41548 64.3906 5.41548 53.5585 5.41548 42.4256 7.82236 32.7971 12.6361 24.673 17.4499 16.8499 24.3696 10.5312 33.0946 6.3187 39.7135 3.3098 46.9341 1.20356 55.3582 0.300891L56.2608 0.300891 56.2608 0Z" fill="#92D050" fill-rule="evenodd" transform="matrix(-0.406737 0.913545 0.913545 0.406737 662.737 -47.9272)"/><path d="M56.2608 0 63.7823 0 66.49 0 77.6218 0 124.255 0 131.777 0 134.484 0 145.616 0 145.616 0.601781 147.12 0.902672C153.739 1.80534 159.757 3.61069 165.172 6.3187 173.897 10.5312 180.817 16.8499 185.631 24.673 190.444 32.7971 192.851 42.4256 192.851 53.5585 192.851 64.3906 190.745 73.7182 185.931 81.2405 181.118 89.0636 174.499 94.7805 166.075 98.6921L198.267 157.667 188.037 157.667 151.633 157.667 145.616 157.667 141.404 157.667 131.777 157.667 109.212 157.667 102.894 157.667 98.9829 157.667 89.0545 157.667 66.49 157.667 60.4728 157.667 56.2608 157.667 46.6333 157.667 13.8396 157.667 0 157.667 32.192 98.6921C23.7679 94.7805 17.149 89.0636 12.3353 81.2405 7.5215 73.7182 5.41548 64.3906 5.41548 53.5585 5.41548 42.4256 7.82236 32.7971 12.6361 24.673 17.4499 16.8499 24.3696 10.5312 33.0946 6.3187 39.7135 3.3098 46.9341 1.20356 55.3582 0.300891L56.2608 0.300891 56.2608 0Z" fill="#92D050" fill-rule="evenodd" transform="matrix(-0.406737 0.913545 0.913545 0.406737 1030.54 288.806)"/><path d="M56.2608 0 63.7823 0 66.49 0 77.6218 0 124.255 0 131.777 0 134.484 0 145.616 0 145.616 0.601781 147.12 0.902672C153.739 1.80534 159.757 3.61069 165.172 6.3187 173.897 10.5312 180.817 16.8499 185.631 24.673 190.444 32.7971 192.851 42.4256 192.851 53.5585 192.851 64.3906 190.745 73.7182 185.931 81.2405 181.118 89.0636 174.499 94.7805 166.075 98.6921L198.267 157.667 188.037 157.667 151.633 157.667 145.616 157.667 141.404 157.667 131.777 157.667 109.212 157.667 102.894 157.667 98.9829 157.667 89.0545 157.667 66.49 157.667 60.4728 157.667 56.2608 157.667 46.6333 157.667 13.8396 157.667 0 157.667 32.192 98.6921C23.7679 94.7805 17.149 89.0636 12.3353 81.2405 7.5215 73.7182 5.41548 64.3906 5.41548 53.5585 5.41548 42.4256 7.82236 32.7971 12.6361 24.673 17.4499 16.8499 24.3696 10.5312 33.0946 6.3187 39.7135 3.3098 46.9341 1.20356 55.3582 0.300891L56.2608 0.300891 56.2608 0Z" fill="#FFFF00" fill-rule="evenodd" transform="matrix(-0.406737 0.913545 0.913545 0.406737 437.67 213.406)"/><path d="M56.2608 0 63.7823 0 66.49 0 77.6218 0 124.255 0 131.777 0 134.484 0 145.616 0 145.616 0.601781 147.12 0.902672C153.739 1.80534 159.757 3.61069 165.172 6.3187 173.897 10.5312 180.817 16.8499 185.631 24.673 190.444 32.7971 192.851 42.4256 192.851 53.5585 192.851 64.3906 190.745 73.7182 185.931 81.2405 181.118 89.0636 174.499 94.7805 166.075 98.6921L198.267 157.667 188.037 157.667 151.633 157.667 145.616 157.667 141.404 157.667 131.777 157.667 109.212 157.667 102.894 157.667 98.9829 157.667 89.0545 157.667 66.49 157.667 60.4728 157.667 56.2608 157.667 46.6333 157.667 13.8396 157.667 0 157.667 32.192 98.6921C23.7679 94.7805 17.149 89.0636 12.3353 81.2405 7.5215 73.7182 5.41548 64.3906 5.41548 53.5585 5.41548 42.4256 7.82236 32.7971 12.6361 24.673 17.4499 16.8499 24.3696 10.5312 33.0946 6.3187 39.7135 3.3098 46.9341 1.20356 55.3582 0.300891L56.2608 0.300891 56.2608 0Z" fill="#FFFF00" fill-rule="evenodd" transform="matrix(-0.406737 0.913545 0.913545 0.406737 732.27 354.539)"/><path d="M56.2608 0 63.7823 0 66.49 0 77.6218 0 124.255 0 131.777 0 134.484 0 145.616 0 145.616 0.601781 147.12 0.902672C153.739 1.80534 159.757 3.61069 165.172 6.3187 173.897 10.5312 180.817 16.8499 185.631 24.673 190.444 32.7971 192.851 42.4256 192.851 53.5585 192.851 64.3906 190.745 73.7182 185.931 81.2405 181.118 89.0636 174.499 94.7805 166.075 98.6921L198.267 157.667 188.037 157.667 151.633 157.667 145.616 157.667 141.404 157.667 131.777 157.667 109.212 157.667 102.894 157.667 98.9829 157.667 89.0545 157.667 66.49 157.667 60.4728 157.667 56.2608 157.667 46.6333 157.667 13.8396 157.667 0 157.667 32.192 98.6921C23.7679 94.7805 17.149 89.0636 12.3353 81.2405 7.5215 73.7182 5.41548 64.3906 5.41548 53.5585 5.41548 42.4256 7.82236 32.7971 12.6361 24.673 17.4499 16.8499 24.3696 10.5312 33.0946 6.3187 39.7135 3.3098 46.9341 1.20356 55.3582 0.300891L56.2608 0.300891 56.2608 0Z" fill="#FFFF00" fill-rule="evenodd" transform="matrix(-0.406737 0.913545 0.913545 0.406737 956.937 -90.3272)"/><path d="M56.2608 0 63.7823 0 66.49 0 77.6218 0 124.255 0 131.777 0 134.484 0 145.616 0 145.616 0.601781 147.12 0.902672C153.739 1.80534 159.757 3.61069 165.172 6.3187 173.897 10.5312 180.817 16.8499 185.631 24.673 190.444 32.7971 192.851 42.4256 192.851 53.5585 192.851 64.3906 190.745 73.7182 185.931 81.2405 181.118 89.0636 174.499 94.7805 166.075 98.6921L198.267 157.667 188.037 157.667 151.633 157.667 145.616 157.667 141.404 157.667 131.777 157.667 109.212 157.667 102.894 157.667 98.9829 157.667 89.0545 157.667 66.49 157.667 60.4728 157.667 56.2608 157.667 46.6333 157.667 13.8396 157.667 0 157.667 32.192 98.6921C23.7679 94.7805 17.149 89.0636 12.3353 81.2405 7.5215 73.7182 5.41548 64.3906 5.41548 53.5585 5.41548 42.4256 7.82236 32.7971 12.6361 24.673 17.4499 16.8499 24.3696 10.5312 33.0946 6.3187 39.7135 3.3098 46.9341 1.20356 55.3582 0.300891L56.2608 0.300891 56.2608 0Z" fill="#FFFF00" fill-rule="evenodd" transform="matrix(-0.406737 0.913545 0.913545 0.406737 205.937 18.6061)"/><path d="M56.2608 0 63.7823 0 66.49 0 77.6218 0 124.255 0 131.777 0 134.484 0 145.616 0 145.616 0.601781 147.12 0.902672C153.739 1.80534 159.757 3.61069 165.172 6.3187 173.897 10.5312 180.817 16.8499 185.631 24.673 190.444 32.7971 192.851 42.4256 192.851 53.5585 192.851 64.3906 190.745 73.7182 185.931 81.2405 181.118 89.0636 174.499 94.7805 166.075 98.6921L198.267 157.667 188.037 157.667 151.633 157.667 145.616 157.667 141.404 157.667 131.777 157.667 109.212 157.667 102.894 157.667 98.9829 157.667 89.0545 157.667 66.49 157.667 60.4728 157.667 56.2608 157.667 46.6333 157.667 13.8396 157.667 0 157.667 32.192 98.6921C23.7679 94.7805 17.149 89.0636 12.3353 81.2405 7.5215 73.7182 5.41548 64.3906 5.41548 53.5585 5.41548 42.4256 7.82236 32.7971 12.6361 24.673 17.4499 16.8499 24.3696 10.5312 33.0946 6.3187 39.7135 3.3098 46.9341 1.20356 55.3582 0.300891L56.2608 0.300891 56.2608 0Z" fill="#92D050" fill-rule="evenodd" transform="matrix(-0.406737 0.913545 0.913545 0.406737 241.67 471.473)"/><path d="M56.2608 0 63.7823 0 66.49 0 77.6218 0 124.255 0 131.777 0 134.484 0 145.616 0 145.616 0.601781 147.12 0.902672C153.739 1.80534 159.757 3.61069 165.172 6.3187 173.897 10.5312 180.817 16.8499 185.631 24.673 190.444 32.7971 192.851 42.4256 192.851 53.5585 192.851 64.3906 190.745 73.7182 185.931 81.2405 181.118 89.0636 174.499 94.7805 166.075 98.6921L198.267 157.667 188.037 157.667 151.633 157.667 145.616 157.667 141.404 157.667 131.777 157.667 109.212 157.667 102.894 157.667 98.9829 157.667 89.0545 157.667 66.49 157.667 60.4728 157.667 56.2608 157.667 46.6333 157.667 13.8396 157.667 0 157.667 32.192 98.6921C23.7679 94.7805 17.149 89.0636 12.3353 81.2405 7.5215 73.7182 5.41548 64.3906 5.41548 53.5585 5.41548 42.4256 7.82236 32.7971 12.6361 24.673 17.4499 16.8499 24.3696 10.5312 33.0946 6.3187 39.7135 3.3098 46.9341 1.20356 55.3582 0.300891L56.2608 0.300891 56.2608 0Z" fill="#92D050" fill-rule="evenodd" transform="matrix(-0.406737 0.913545 0.913545 0.406737 780.87 689.139)"/><path d="M56.2608 0 63.7823 0 66.49 0 77.6218 0 124.255 0 131.777 0 134.484 0 145.616 0 145.616 0.601781 147.12 0.902672C153.739 1.80534 159.757 3.61069 165.172 6.3187 173.897 10.5312 180.817 16.8499 185.631 24.673 190.444 32.7971 192.851 42.4256 192.851 53.5585 192.851 64.3906 190.745 73.7182 185.931 81.2405 181.118 89.0636 174.499 94.7805 166.075 98.6921L198.267 157.667 188.037 157.667 151.633 157.667 145.616 157.667 141.404 157.667 131.777 157.667 109.212 157.667 102.894 157.667 98.9829 157.667 89.0545 157.667 66.49 157.667 60.4728 157.667 56.2608 157.667 46.6333 157.667 13.8396 157.667 0 157.667 32.192 98.6921C23.7679 94.7805 17.149 89.0636 12.3353 81.2405 7.5215 73.7182 5.41548 64.3906 5.41548 53.5585 5.41548 42.4256 7.82236 32.7971 12.6361 24.673 17.4499 16.8499 24.3696 10.5312 33.0946 6.3187 39.7135 3.3098 46.9341 1.20356 55.3582 0.300891L56.2608 0.300891 56.2608 0Z" fill="#FFFF00" fill-rule="evenodd" transform="matrix(-0.406737 0.913545 0.913545 0.406737 307.403 900.206)"/><path d="M56.2608 0 63.7823 0 66.49 0 77.6218 0 124.255 0 131.777 0 134.484 0 145.616 0 145.616 0.601781 147.12 0.902672C153.739 1.80534 159.757 3.61069 165.172 6.3187 173.897 10.5312 180.817 16.8499 185.631 24.673 190.444 32.7971 192.851 42.4256 192.851 53.5585 192.851 64.3906 190.745 73.7182 185.931 81.2405 181.118 89.0636 174.499 94.7805 166.075 98.6921L198.267 157.667 188.037 157.667 151.633 157.667 145.616 157.667 141.404 157.667 131.777 157.667 109.212 157.667 102.894 157.667 98.9829 157.667 89.0545 157.667 66.49 157.667 60.4728 157.667 56.2608 157.667 46.6333 157.667 13.8396 157.667 0 157.667 32.192 98.6921C23.7679 94.7805 17.149 89.0636 12.3353 81.2405 7.5215 73.7182 5.41548 64.3906 5.41548 53.5585 5.41548 42.4256 7.82236 32.7971 12.6361 24.673 17.4499 16.8499 24.3696 10.5312 33.0946 6.3187 39.7135 3.3098 46.9341 1.20356 55.3582 0.300891L56.2608 0.300891 56.2608 0Z" fill="#92D050" fill-rule="evenodd" transform="matrix(-0.406737 0.913545 0.913545 0.406737 476.87 637.273)"/><path d="M122.333-12 125.865-12 125.865 13.3075C125.865 15.3721 126.331 17.2368 127.264 18.8352 128.197 20.4336 129.463 21.6989 131.196 22.6313 132.862 23.5637 134.794 24.0299 137.06 24.0299 139.326 24.0299 141.258 23.5637 142.991 22.6313 144.657 21.6989 145.923 20.4336 146.856 18.8352 147.789 17.2368 148.255 15.3721 148.255 13.3075L148.255-12 151.787-12 151.787 13.5739C151.787 16.2379 151.187 18.5688 149.921 20.6334 148.722 22.6979 146.989 24.3629 144.723 25.4951 142.524 26.6938 139.992 27.2932 137.06 27.2932 134.128 27.2932 131.596 26.6938 129.396 25.4951 127.197 24.3629 125.465 22.6979 124.199 20.6334 122.999 18.5688 122.333 16.2379 122.333 13.5739L122.333-12ZM170.646-1.21101C172.578-1.21101 174.311-0.811418 175.777-0.0122328 177.31 0.85355 178.576 2.05233 179.442 3.5841 180.308 5.18247 180.775 7.11383 180.775 9.37819L180.775 26.7604 177.443 26.7604 177.443 9.64458C177.443 7.18043 176.777 5.24906 175.444 3.91709 174.178 2.58512 172.378 1.91913 170.113 1.91913 167.847 1.91913 165.981 2.58512 164.448 3.98369 162.916 5.31566 162.116 7.38022 162.116 10.1108L162.116 26.7604 158.784 26.7604 158.784-0.67822 162.049-0.67822 162.049 3.71729C162.982 2.05233 164.182 0.786952 165.715-0.0122328 167.181-0.811418 168.847-1.21101 170.646-1.21101ZM256.01-1.07781C256.343-1.07781 256.676-1.01121 256.876-1.01121 257.143-1.01121 257.343-0.944614 257.476-0.944614L257.476 2.38532C257.343 2.38532 257.076 2.31872 256.743 2.25212 256.41 2.25212 255.943 2.18552 255.477 2.18552 253.611 2.18552 252.012 2.85151 250.746 4.11689 249.413 5.38226 248.746 7.18043 248.746 9.57798L248.746 26.7604 245.414 26.7604 245.414-0.67822 248.613-0.67822 248.613 3.85049 248.68 3.85049C249.28 2.38532 250.212 1.18654 251.412 0.320761 252.678-0.611621 254.211-1.07781 256.01-1.07781ZM228.088 1.78593C225.556 1.78593 223.49 2.58512 221.891 4.25008 220.292 5.91505 219.359 8.17941 219.092 10.9766L237.018 10.9766C236.818 8.17941 235.952 5.98165 234.286 4.31668 232.687 2.58512 230.554 1.78593 228.088 1.78593ZM228.088-1.27761C230.554-1.27761 232.753-0.67822 234.552 0.520556 236.418 1.78593 237.818 3.4509 238.817 5.51546 239.883 7.64662 240.35 10.1108 240.35 12.8413L240.35 13.9069 219.092 13.9069C219.159 16.9704 220.025 19.4346 221.624 21.366 223.29 23.2973 225.49 24.2297 228.288 24.2297 230.354 24.2297 232.153 23.6969 233.619 22.6979 235.085 21.6323 236.018 20.2338 236.552 18.5688L239.883 18.5688C239.55 20.3004 238.817 21.8321 237.684 23.1641 236.618 24.4961 235.219 25.4951 233.619 26.2277 231.953 26.9602 230.221 27.2932 228.288 27.2932 225.689 27.2932 223.49 26.6938 221.624 25.4951 219.759 24.2297 218.293 22.5647 217.293 20.4336 216.293 18.2358 215.76 15.8383 215.76 13.0411 215.76 10.3106 216.293 7.84641 217.36 5.64866 218.359 3.5175 219.825 1.85253 221.691 0.587156 223.557-0.611621 225.689-1.27761 228.088-1.27761ZM198.368 1.85253C195.769 1.85253 193.636 2.78491 191.904 4.78287 190.238 6.71424 189.371 9.44478 189.371 13.0411 189.371 16.5708 190.238 19.368 191.904 21.2994 193.636 23.2307 195.769 24.1631 198.368 24.1631 201.166 24.1631 203.365 23.1641 205.031 21.1662 206.697 19.1682 207.497 16.4376 207.497 13.0411 207.497 9.64458 206.697 6.91403 205.031 4.91607 203.365 2.85151 201.166 1.85253 198.368 1.85253ZM207.23-12 210.629-12 210.629 26.7604 207.297 26.7604 207.297 21.5657 207.297 21.5657C206.431 23.3639 205.165 24.7625 203.499 25.7615 201.899 26.7604 200.034 27.2266 197.968 27.2266 195.569 27.2266 193.503 26.6938 191.704 25.4951 189.904 24.2963 188.505 22.6313 187.505 20.5002 186.506 18.369 185.973 15.8383 185.973 13.0411 185.973 10.1774 186.506 7.71322 187.505 5.58206 188.505 3.4509 189.904 1.78593 191.704 0.587156 193.503-0.611621 195.635-1.21101 197.968-1.21101 200.034-1.21101 201.899-0.67822 203.565 0.320761 205.231 1.31974 206.431 2.71832 207.23 4.44988L207.23 4.44988 207.23-12ZM138.326 38.615C141.125 38.615 143.657 39.1478 145.856 40.3466 147.989 41.4788 149.788 43.0105 151.187 45.0085 152.587 46.9399 153.52 49.1376 153.92 51.5352L150.321 51.5352C149.921 49.6704 149.188 48.072 148.122 46.6069 147.056 45.1417 145.656 44.0095 144.057 43.1437 142.391 42.3445 140.459 41.8784 138.326 41.8784 135.594 41.8784 133.262 42.6109 131.196 43.9429 129.063 45.3415 127.464 47.2063 126.264 49.737 125.132 52.2012 124.532 55.1315 124.532 58.528 124.532 61.9246 125.132 64.9215 126.264 67.3857 127.464 69.8498 129.063 71.7812 131.196 73.1131 133.262 74.4451 135.594 75.1777 138.326 75.1777 140.459 75.1777 142.324 74.7115 143.99 73.9123 145.656 73.0465 146.989 71.9144 148.122 70.4492 149.188 68.984 149.921 67.3857 150.321 65.5209L153.92 65.5209C153.52 67.9184 152.587 70.1162 151.187 72.0476 149.788 74.0455 147.989 75.5773 145.856 76.7095 143.657 77.9082 141.125 78.441 138.326 78.441 134.861 78.441 131.862 77.6419 129.263 75.9103 126.664 74.2453 124.598 71.9144 123.199 68.9174 121.733 65.9205 121 62.4574 121 58.528 121 54.5987 121.733 51.1356 123.199 48.1386 124.598 45.1417 126.664 42.8107 129.263 41.1458 131.862 39.4142 134.861 38.615 138.326 38.615ZM345.772 39.614C346.439 39.614 346.972 39.8804 347.438 40.3466 347.905 40.8128 348.171 41.4122 348.171 42.0782 348.171 42.7441 347.905 43.3435 347.438 43.8097 346.972 44.2759 346.439 44.4757 345.772 44.4757 345.106 44.4757 344.506 44.2759 344.04 43.8097 343.573 43.3435 343.307 42.7441 343.307 42.0782 343.307 41.4122 343.573 40.8128 344.04 40.3466 344.506 39.8804 345.106 39.614 345.772 39.614ZM243.215 42.9439 246.547 42.9439 246.547 50.4696 252.278 50.4696 252.278 53.3999 246.547 53.3999 246.547 71.7146C246.547 72.9134 246.814 73.7125 247.347 74.2453 247.813 74.7115 248.68 74.9779 249.879 74.9779L252.278 74.9779 252.278 77.9082 249.613 77.9082C245.348 77.9082 243.215 75.9769 243.215 72.0476L243.215 53.3999 238.551 53.3999 238.551 50.4696 243.215 50.4696 243.215 42.9439ZM330.579 42.9439 333.911 42.9439 333.911 50.4696 339.642 50.4696 339.642 53.3999 333.911 53.3999 333.911 71.7146C333.911 72.9134 334.177 73.7125 334.71 74.2453 335.177 74.7115 336.043 74.9779 337.243 74.9779L339.642 74.9779 339.642 77.9082 336.976 77.9082C332.711 77.9082 330.579 75.9769 330.579 72.0476L330.579 53.3999 325.914 53.3999 325.914 50.4696 330.579 50.4696 330.579 42.9439ZM225.889 49.8702C228.688 49.8702 231.021 50.6694 232.82 52.2012 234.686 53.7995 235.619 55.9307 235.752 58.6612L232.487 58.6612C232.353 56.8631 231.754 55.4645 230.621 54.3989 229.421 53.3333 227.889 52.8005 225.889 52.8005 223.89 52.8005 222.357 53.3333 221.158 54.2657 220.025 55.1981 219.425 56.3303 219.425 57.7954 219.425 58.9942 219.892 59.9266 220.692 60.5926 221.558 61.2586 222.757 61.7914 224.357 62.191L228.888 63.2565C231.42 63.8559 233.22 64.6551 234.486 65.7873 235.685 66.9195 236.285 68.4512 236.285 70.3826 236.285 72.8467 235.352 74.8447 233.42 76.3099 231.487 77.7085 229.021 78.441 226.023 78.441 223.091 78.441 220.625 77.7085 218.626 76.2433 216.693 74.7115 215.627 72.5804 215.494 69.7166L218.826 69.7166C218.959 71.5148 219.625 72.9799 220.825 73.9789 222.091 74.9779 223.757 75.5107 225.956 75.5107 228.088 75.5107 229.821 75.0445 231.087 74.1121 232.287 73.1797 232.953 71.9144 232.953 70.4492 232.953 69.2504 232.487 68.318 231.687 67.7187 230.821 67.0527 229.621 66.5865 228.155 66.2535L223.624 65.1879C221.158 64.5885 219.292 63.6561 218.026 62.4574 216.693 61.2586 216.093 59.7268 216.093 57.7954 216.093 55.4645 216.96 53.5331 218.826 52.068 220.625 50.6028 222.957 49.8702 225.889 49.8702ZM312.586 49.8702C314.586 49.8702 316.385 50.2698 318.051 51.069 319.65 51.9348 320.983 53.0003 321.982 54.4655 323.049 55.8641 323.715 57.5291 323.982 59.3938L320.583 59.3938C320.183 57.4624 319.317 55.9307 317.917 54.7319 316.518 53.5331 314.785 52.9337 312.586 52.9337 309.788 52.9337 307.588 53.9993 305.922 56.0639 304.256 58.1284 303.457 60.859 303.457 64.1889 303.457 67.5189 304.256 70.2494 305.922 72.314 307.588 74.3785 309.788 75.3775 312.586 75.3775 314.785 75.3775 316.518 74.7781 317.851 73.6459 319.184 72.4472 320.05 70.9154 320.516 68.984L323.982 68.984C323.715 70.7822 323.049 72.3806 321.982 73.8457 320.916 75.2443 319.583 76.3765 317.984 77.2423 316.385 78.0415 314.586 78.441 312.586 78.441 310.121 78.441 307.922 77.8417 306.056 76.6429 304.123 75.4441 302.657 73.7125 301.658 71.5814 300.591 69.4502 300.058 66.9861 300.058 64.1889 300.058 61.4584 300.591 58.9276 301.658 56.7965 302.657 54.6653 304.123 52.9337 306.056 51.735 307.922 50.5362 310.121 49.8702 312.586 49.8702ZM199.967 49.9368C201.899 49.9368 203.632 50.3364 205.098 51.1356 206.631 52.0014 207.897 53.2001 208.763 54.7319 209.63 56.3303 210.096 58.2616 210.096 60.526L210.096 77.9082 206.764 77.9082 206.764 60.7924C206.764 58.3282 206.098 56.3969 204.765 55.0649 203.499 53.7329 201.699 53.0669 199.434 53.0669 197.168 53.0669 195.302 53.7329 193.769 55.1315 192.237 56.4635 191.437 58.528 191.437 61.2586L191.437 77.9082 188.105 77.9082 188.105 50.4696 191.37 50.4696 191.37 54.8651C192.303 53.2001 193.503 51.9348 195.036 51.1356 196.502 50.3364 198.168 49.9368 199.967 49.9368ZM394.685 49.9368C396.618 49.9368 398.35 50.3364 399.816 51.1356 401.349 52.0014 402.615 53.2001 403.482 54.7319 404.348 56.3303 404.814 58.2616 404.814 60.526L404.814 77.9082 401.482 77.9082 401.482 60.7924C401.482 58.3282 400.816 56.3969 399.483 55.0649 398.217 53.7329 396.418 53.0669 394.152 53.0669 391.886 53.0669 390.021 53.7329 388.488 55.1315 386.955 56.4635 386.155 58.528 386.155 61.2586L386.155 77.9082 382.824 77.9082 382.824 50.4696 386.089 50.4696 386.089 54.8651C387.022 53.2001 388.221 51.9348 389.754 51.1356 391.22 50.3364 392.886 49.9368 394.685 49.9368ZM267.339 50.07C267.672 50.07 268.005 50.1366 268.205 50.1366 268.471 50.1366 268.671 50.2032 268.805 50.2032L268.805 53.5331C268.671 53.5331 268.405 53.4665 268.072 53.3999 267.738 53.3999 267.272 53.3333 266.806 53.3333 264.94 53.3333 263.34 53.9993 262.074 55.2647 260.741 56.5301 260.075 58.3282 260.075 60.7258L260.075 77.9082 256.743 77.9082 256.743 50.4696 259.942 50.4696 259.942 54.9983 260.008 54.9983C260.608 53.5331 261.541 52.3344 262.741 51.4686 264.007 50.5362 265.539 50.07 267.339 50.07ZM272.87 50.4696 276.202 50.4696 276.202 67.5855C276.202 70.0496 276.868 71.9144 278.201 73.3129 279.467 74.6449 281.266 75.3109 283.532 75.3109 285.798 75.3109 287.663 74.5783 289.196 73.2463 290.729 71.8478 291.529 69.8498 291.529 67.1193L291.529 50.4696 294.86 50.4696 294.86 77.9082 291.595 77.9082 291.595 73.5127C290.662 75.1777 289.463 76.4431 287.997 77.1757 286.464 77.9749 284.798 78.3744 282.999 78.3744 281.066 78.3744 279.4 77.9749 277.868 77.1757 276.335 76.3765 275.135 75.1777 274.202 73.5793 273.336 71.981 272.87 70.0496 272.87 67.7853L272.87 50.4696ZM344.106 50.4696 347.438 50.4696 347.438 77.9082 344.106 77.9082 344.106 50.4696ZM170.446 52.9337C167.647 52.9337 165.448 53.9993 163.782 56.0639 162.116 58.1284 161.316 60.859 161.316 64.1889 161.316 67.5189 162.116 70.2494 163.782 72.314 165.448 74.3785 167.647 75.3775 170.446 75.3775 173.245 75.3775 175.444 74.3785 177.11 72.314 178.776 70.2494 179.575 67.5189 179.575 64.1889 179.575 60.859 178.776 58.1284 177.11 56.0639 175.444 53.9993 173.245 52.9337 170.446 52.9337ZM170.446 49.8702C172.912 49.8702 175.111 50.5362 176.977 51.735 178.842 52.9337 180.308 54.6653 181.375 56.7965 182.441 58.9276 182.974 61.4584 182.974 64.1889 182.974 66.9861 182.441 69.4502 181.375 71.5814 180.308 73.7125 178.842 75.4441 176.977 76.6429 175.111 77.8417 172.912 78.441 170.446 78.441 167.98 78.441 165.781 77.8417 163.915 76.6429 161.983 75.4441 160.517 73.7125 159.517 71.5814 158.451 69.4502 157.918 66.9861 157.918 64.1889 157.918 61.4584 158.451 58.9276 159.517 56.7965 160.517 54.6653 161.983 52.9337 163.915 51.735 165.781 50.5362 167.98 49.8702 170.446 49.8702ZM365.164 52.9337C362.365 52.9337 360.166 53.9993 358.5 56.0639 356.834 58.1284 356.035 60.859 356.035 64.1889 356.035 67.5189 356.834 70.2494 358.5 72.314 360.166 74.3785 362.365 75.3775 365.164 75.3775 367.963 75.3775 370.162 74.3785 371.828 72.314 373.494 70.2494 374.294 67.5189 374.294 64.1889 374.294 60.859 373.494 58.1284 371.828 56.0639 370.162 53.9993 367.963 52.9337 365.164 52.9337ZM365.164 49.8702C367.63 49.8702 369.829 50.5362 371.695 51.735 373.561 52.9337 375.027 54.6653 376.093 56.7965 377.159 58.9276 377.692 61.4584 377.692 64.1889 377.692 66.9861 377.159 69.4502 376.093 71.5814 375.027 73.7125 373.561 75.4441 371.695 76.6429 369.829 77.8417 367.63 78.441 365.164 78.441 362.699 78.441 360.5 77.8417 358.634 76.6429 356.701 75.4441 355.235 73.7125 354.236 71.5814 353.169 69.4502 352.636 66.9861 352.636 64.1889 352.636 61.4584 353.169 58.9276 354.236 56.7965 355.235 54.6653 356.701 52.9337 358.634 51.735 360.5 50.5362 362.699 49.8702 365.164 49.8702ZM413.811 73.0465C414.544 73.0465 415.21 73.3129 415.676 73.7791 416.21 74.3119 416.476 74.9113 416.476 75.6439 416.476 76.3765 416.21 77.0425 415.676 77.5087 415.21 78.0415 414.544 78.3078 413.811 78.3078 413.078 78.3078 412.478 78.0415 411.945 77.5087 411.412 77.0425 411.212 76.3765 411.212 75.6439 411.212 74.9113 411.412 74.3119 411.945 73.7791 412.478 73.3129 413.078 73.0465 413.811 73.0465ZM425.072 73.0465C425.806 73.0465 426.472 73.3129 426.938 73.7791 427.471 74.3119 427.738 74.9113 427.738 75.6439 427.738 76.3765 427.471 77.0425 426.938 77.5087 426.472 78.0415 425.806 78.3078 425.072 78.3078 424.339 78.3078 423.74 78.0415 423.207 77.5087 422.673 77.0425 422.474 76.3765 422.474 75.6439 422.474 74.9113 422.673 74.3119 423.207 73.7791 423.74 73.3129 424.339 73.0465 425.072 73.0465ZM436.334 73.0465C437.067 73.0465 437.734 73.3129 438.2 73.7791 438.733 74.3119 439 74.9113 439 75.6439 439 76.3765 438.733 77.0425 438.2 77.5087 437.734 78.0415 437.067 78.3078 436.334 78.3078 435.601 78.3078 435.002 78.0415 434.469 77.5087 433.935 77.0425 433.736 76.3765 433.736 75.6439 433.736 74.9113 433.935 74.3119 434.469 73.7791 435.002 73.3129 435.601 73.0465 436.334 73.0465ZM255.277 135.383 258.676 136.116C258.342 137.248 258.009 138.446 257.676 139.579 257.343 140.777 256.943 141.91 256.543 142.975L276.002 142.975 276.002 146.305 255.21 146.305C254.477 147.97 253.678 149.568 252.811 151.034 251.878 152.432 250.946 153.764 250.013 154.963 249.679 154.63 249.28 154.23 248.746 153.764 248.213 153.298 247.68 152.898 247.28 152.632 249.146 150.501 250.746 147.904 252.078 144.907 253.411 141.91 254.477 138.779 255.277 135.383ZM193.17 135.45 196.768 136.382C196.368 137.647 195.969 138.913 195.502 140.111 195.102 141.377 194.569 142.642 194.103 143.841L221.891 143.841 221.891 147.238 192.637 147.238C191.704 149.169 190.771 151.034 189.705 152.832 188.638 154.697 187.439 156.428 186.239 158.093L186.239 183.8 182.641 183.8 182.641 162.355C180.708 164.553 178.576 166.418 176.177 168.083 175.977 167.617 175.71 167.084 175.377 166.485 174.977 165.885 174.644 165.419 174.378 165.019 177.443 162.755 180.175 160.091 182.574 157.028 184.973 153.964 187.039 150.701 188.705 147.238L175.577 147.238 175.577 143.841 190.238 143.841C190.837 142.442 191.37 141.044 191.837 139.645 192.37 138.247 192.77 136.848 193.17 135.45ZM238.751 135.516C239.484 136.782 240.083 138.113 240.683 139.445 241.283 140.844 241.749 142.043 242.016 143.108L238.951 144.174 248.88 144.174 248.88 147.504 237.151 147.504C237.085 150.035 237.018 152.565 236.885 155.096L247.014 155.096C247.014 155.163 247.014 155.363 247.014 155.762 246.947 156.162 246.947 156.495 246.947 156.761 246.814 162.555 246.681 167.217 246.481 170.747 246.347 174.277 246.148 176.874 245.881 178.605 245.614 180.337 245.281 181.536 244.815 182.069 244.415 182.601 244.015 183.001 243.482 183.201 243.016 183.467 242.416 183.6 241.683 183.667 241.083 183.734 240.217 183.734 239.217 183.734 238.218 183.734 237.151 183.734 236.018 183.6 236.018 183.134 235.885 182.535 235.752 182.002 235.619 181.403 235.419 180.87 235.152 180.404 236.285 180.537 237.351 180.537 238.284 180.603 239.15 180.603 239.883 180.603 240.283 180.603 240.683 180.67 241.016 180.603 241.216 180.537 241.483 180.404 241.749 180.27 241.949 180.004 242.216 179.604 242.482 178.672 242.682 177.207 242.882 175.675 243.082 173.411 243.215 170.414 243.415 167.35 243.549 163.421 243.682 158.426L236.685 158.426C236.418 163.554 235.819 168.349 234.819 172.745 233.819 177.207 232.22 180.936 230.021 184 229.688 183.6 229.288 183.201 228.821 182.735 228.288 182.335 227.755 182.002 227.289 181.736 229.155 179.205 230.487 176.141 231.42 172.478 232.353 168.882 232.953 164.953 233.286 160.624 233.553 156.362 233.753 151.966 233.819 147.504L227.889 147.504 227.889 144.174 238.817 144.174C238.484 143.108 238.084 141.843 237.551 140.444 236.951 139.046 236.352 137.714 235.752 136.515L238.751 135.516ZM123.732 139.445 167.381 139.445 167.381 142.842 148.522 142.842 148.522 157.494 165.381 157.494 165.381 160.957 148.522 160.957 148.522 178.139 169.113 178.139 169.113 181.602 121.666 181.602 121.666 178.139 129.063 178.139 129.063 152.832 132.662 152.832 132.662 178.139 144.857 178.139 144.857 142.842 123.732 142.842 123.732 139.445ZM284.398 141.51 326.514 141.51 326.514 145.106 307.189 145.106 307.189 176.275 329.113 176.275 329.113 179.871 281.666 179.871 281.666 176.275 303.324 176.275 303.324 145.106 284.398 145.106 284.398 141.51ZM261.541 148.37 264.606 148.37 264.606 155.496 270.87 152.632 271.204 152.366 271.803 151.899 274.003 152.765 273.869 153.365C273.869 157.227 273.803 160.69 273.736 163.621 273.736 166.551 273.603 168.482 273.536 169.282 273.403 170.081 273.136 170.747 272.736 171.213 272.337 171.679 271.737 171.946 271.07 172.079 270.537 172.212 269.871 172.279 269.138 172.279 268.405 172.345 267.738 172.345 267.139 172.345 267.072 171.879 266.939 171.413 266.806 170.88 266.672 170.347 266.539 169.881 266.339 169.481 266.872 169.548 267.472 169.548 268.005 169.548 268.605 169.548 269.071 169.548 269.338 169.548 269.671 169.548 269.938 169.481 270.071 169.348 270.271 169.215 270.404 168.949 270.537 168.482 270.604 168.016 270.671 166.684 270.737 164.42 270.737 162.222 270.804 159.425 270.804 156.162L264.606 159.092 264.606 175.142 261.541 175.142 261.541 160.491 256.143 163.088 256.143 178.206C256.077 179.205 256.277 179.871 256.743 180.204 257.21 180.537 258.142 180.67 259.542 180.67L270.337 180.67C271.537 180.737 272.27 180.337 272.67 179.538 273.07 178.672 273.336 177.007 273.469 174.41 273.869 174.676 274.336 174.943 274.935 175.209 275.469 175.409 276.002 175.609 276.468 175.742 276.268 178.805 275.802 180.936 275.002 182.069 274.202 183.267 272.67 183.8 270.537 183.734L259.409 183.734C256.943 183.8 255.21 183.401 254.277 182.601 253.345 181.802 252.878 180.337 252.945 178.139L252.945 164.553 249.546 166.152 248.28 163.354 252.945 161.157 252.945 152.632 256.143 152.632 256.143 159.625 261.541 156.961 261.541 148.37ZM204.032 150.035 207.564 150.035 207.564 160.557 219.825 160.557 219.825 163.887 207.564 163.887 207.564 179.405 221.891 179.405 221.891 182.735 189.771 182.735 189.771 179.405 204.032 179.405 204.032 163.887 191.837 163.887 191.837 160.557 204.032 160.557 204.032 150.035Z" fill-rule="evenodd"/></g></svg>